<svg width="104" height="114" viewBox="0 0 104 114" fill="none" xmlns="http://www.w3.org/2000/svg">
<g filter="url(#filter0_d_190_426)">
<path d="M93.254 13.3911C93.9566 14.1655 94.742 14.8653 95.3507 15.7252C96.7406 17.0931 97.1727 18.8447 97.3328 20.7025C97.3452 20.8392 97.3369 20.9786 97.3397 21.1166C97.5315 34.355 97.475 47.5934 97.4708 60.8318C97.4708 62.2356 97.6917 63.6269 97.6144 65.0321C97.5233 66.7119 96.9201 68.1005 95.4653 69.057C94.557 69.6547 93.5522 69.6285 92.5376 69.5967C90.5348 69.1274 89.3561 67.6712 89.3478 65.5801C89.3271 60.502 89.3409 55.4225 89.3381 50.3444C89.3354 41.7879 89.3409 33.2329 89.3326 24.6764C89.3326 23.6412 89.0593 22.6294 89.0055 21.597C89.0538 20.2029 88.1911 19.4064 87.1034 18.806C86.394 18.414 85.9564 18.697 85.8943 19.5017C85.8681 19.8454 85.8832 20.1904 85.8832 20.5355C85.8832 39.8431 85.8598 59.152 85.9191 78.4596C85.9246 80.432 85.4181 82.1119 84.3484 83.6854C83.5464 84.8655 82.7334 86.0471 82.1316 87.3349C81.2054 89.3184 79.6512 89.8898 77.6208 89.6137C76.7926 89.5006 75.9617 89.4826 75.1307 89.6345C74.6683 89.7187 74.2211 89.5102 73.7643 89.5047C72.5924 89.4923 71.4205 89.4536 70.25 89.5295C69.4329 89.3253 68.838 88.7939 68.3369 88.1575C68.0692 87.818 67.8759 87.7697 67.6012 88.1355C66.7289 89.2949 65.5763 89.7255 64.1201 89.6483C62.4058 89.5558 60.6832 89.6248 58.9634 89.6276C58.1849 89.6276 57.4078 89.6331 56.632 89.5641C55.6079 89.5792 54.9508 88.9526 54.3504 88.2431C53.9349 87.7531 53.6299 87.1844 53.3124 86.6295C52.4953 85.2009 51.5857 83.8262 50.7713 82.3962C50.4552 81.8399 50.1695 81.2685 50.0549 80.6253C50.4318 77.6714 50.3586 74.6983 50.2496 71.7431C50.0991 67.7016 49.9694 63.6476 50.1971 59.6241C50.614 52.2533 50.2661 44.8881 50.4193 37.5214C50.4221 37.3848 50.4014 37.244 50.4828 37.1198C51.0487 35.531 52.1392 34.6076 53.8397 34.4089C54.8031 34.2957 56.298 35.0383 56.8487 36.0017C57.0944 36.4324 57.4009 36.8534 57.4036 37.3875C57.7321 37.5477 57.8439 37.8251 57.855 38.1743C57.8674 38.5884 57.8702 39.0011 57.8702 39.4152C57.8702 52.0794 57.8964 64.7436 57.8398 77.4078C57.8315 79.0835 58.6694 80.2705 59.4782 81.5349C59.7267 81.9227 60.1573 82.0691 60.6335 81.9876C61.6522 82.1809 62.3465 81.7875 62.8337 80.8751C63.1236 80.3313 63.4507 79.7999 63.7833 79.2767C64.098 78.7826 64.0884 78.2305 64.0884 77.677C64.0884 70.7644 64.0884 63.8519 64.0884 56.9394C64.0884 56.5488 64.0773 56.1582 64.1008 55.7689C64.1892 54.332 65.4259 52.5998 66.6613 52.1733C68.2086 51.6391 70.2638 52.3154 71.23 53.6778C71.4964 54.0546 71.7062 54.4632 71.8664 54.8952C71.894 55.6709 71.9533 56.4466 71.9519 57.2238C71.9478 63.9955 71.9795 70.7658 71.9271 77.5375C71.9147 79.1732 72.718 80.3685 73.6014 81.5708C73.8816 81.9517 74.2901 82.1809 74.8078 81.9876C75.727 82.1422 76.264 81.7033 76.7885 80.9634C77.8941 79.4065 78.2102 77.7363 78.1964 75.8453C78.1274 66.8154 78.0791 57.7828 78.1922 48.7529C78.2902 40.9321 78.2695 33.1114 78.3068 25.2906C78.3109 24.3023 78.0735 23.3361 78.0984 22.3506C78.2157 21.3692 78.1771 20.3809 78.1522 19.3968C78.1343 18.6528 77.7602 18.4154 77.0535 18.6818C75.5821 19.238 74.7898 20.3713 74.7512 21.891C74.6863 24.4804 74.6256 27.0726 74.8036 29.6634C74.9099 31.219 74.9127 32.7843 74.7829 34.3398C74.6228 36.2612 72.4847 37.7312 70.7483 37.6898C70.3356 37.6802 70.0609 37.3309 69.6717 37.2688C67.7876 36.6574 66.878 34.9734 66.9139 33.1569C66.9925 29.23 66.9566 25.3003 66.9332 21.372C66.9194 18.9537 67.7545 16.8419 69.1762 14.9495C70.6034 13.0502 72.4682 11.7168 74.7291 10.9715C75.7091 10.6485 76.7208 10.4359 77.763 10.5187C78.3192 10.5629 78.5359 10.3931 78.5152 9.79821C78.4724 8.58217 78.5622 7.35923 78.4876 6.14595C78.3979 4.69526 79.4248 3.29288 80.8949 3.11344C82.1772 2.95747 83.5091 2.80426 84.6092 3.81049C85.0868 4.24666 85.3297 4.79878 85.5506 5.37574C85.9923 6.49378 85.8681 7.66841 85.8874 8.82786C85.9039 9.79821 86.1303 10.0411 87.0882 10.1405C87.5644 10.1902 88.0531 10.1999 88.4244 10.5739C88.4727 10.6347 88.5251 10.6926 88.5803 10.7465C89.1752 10.9314 89.7315 11.2517 90.3595 11.3096C90.5859 11.3303 90.637 11.5084 90.7847 11.5885C91.0124 11.732 91.3727 11.6575 91.4734 12.0094C92.067 12.4691 92.6619 12.9273 93.2554 13.387L93.254 13.3911Z" fill="white"/>
<path d="M32.5085 32.8671C33.8143 33.509 35.138 34.1191 36.2588 35.0742C37.127 35.6912 37.7343 36.5429 38.3375 37.3973C39.7192 38.7762 40.3376 40.6133 41.2141 42.2835C43.1258 45.9261 45.0099 49.5825 46.8995 53.2361C48.0148 55.3922 48.5793 57.689 48.6249 60.1252C48.6566 61.8133 48.502 63.4738 48.1597 65.1219C47.8271 66.7285 46.9092 68.0702 46.1956 69.5084C45.1438 71.6272 43.9843 73.6894 42.9022 75.7915C42.3349 76.8944 41.7814 78.0055 41.1533 79.0766C40.2009 80.7026 39.5122 82.4749 38.4949 84.0609C36.3113 87.4688 33.2567 89.5255 29.131 89.6069C24.8106 89.6925 20.4862 89.6262 16.1645 89.6276C15.7255 89.6276 15.2935 89.5986 14.8698 89.4868C14.7262 89.4744 14.5785 89.4868 14.446 89.4123C14.1672 89.179 13.8621 89.0106 13.4798 89.0493C12.7248 88.5952 12.1009 88.0306 11.869 87.1362C11.8014 86.5689 11.6136 86.0333 11.575 85.4453C11.4342 83.3404 13.5654 81.3279 15.8346 81.3486C19.3516 81.3803 22.8686 81.3583 26.3856 81.3555C26.7072 81.3555 27.0288 81.3596 27.3504 81.3541C28.3414 81.3376 28.6285 81.0491 28.7348 80.0428C28.9419 78.0787 28.2959 76.3588 27.3918 74.6528C26.0819 72.1779 24.7306 69.7251 23.5104 67.202C23.0508 66.2509 22.5194 65.3372 21.9948 64.4207C21.1211 62.5159 20.5566 61.7222 18.1894 61.7415C14.7497 61.7705 11.31 61.7774 7.8689 61.7319C7.31955 61.6366 6.67771 61.7167 6.45686 60.9948C4.82397 59.9057 4.72183 58.0575 5.37747 56.8401C5.92407 55.8242 6.82954 55.2762 7.99589 55.2458C9.32097 55.2113 10.6488 55.2169 11.9739 55.2044C12.1713 54.938 12.4556 54.8718 12.7648 54.8704C15.1955 54.8538 17.6317 54.7627 20.0569 54.9022C21.8817 55.0071 23.4662 55.9029 24.9777 56.8939C25.9977 57.562 26.7927 58.4274 27.3918 59.482C28.6879 62.2136 30.1703 64.8513 31.5396 67.547C32.4147 69.2669 33.2939 70.9854 34.2077 72.6859C34.7115 73.6245 34.688 73.6369 35.3547 72.8115C36.1498 70.9219 37.2485 69.191 38.1733 67.369C38.7447 66.244 39.4307 65.184 39.8766 63.99C40.8787 61.3109 40.575 58.7063 39.3106 56.2535C37.4597 52.6606 35.5452 49.0994 33.7177 45.4927C33.1987 44.4699 32.5845 43.4982 32.0917 42.4616C32.0296 42.2338 31.8653 42.0627 31.7646 41.8584C31.1034 40.5209 30.0088 39.937 28.5333 39.9453C25.4801 39.9605 22.4255 39.9508 19.3709 39.9494C18.7511 39.9494 18.1314 39.9522 17.5116 39.9494C16.5151 39.9439 15.4964 40.0585 14.6006 39.458C14.2224 39.2441 13.8194 39.0647 13.4729 38.8079C12.1713 37.8459 11.8676 36.478 12.1851 35.008C12.4846 33.6194 13.4674 32.7829 14.8449 32.4241C14.9526 32.3965 15.0492 32.3261 15.1513 32.2764C19.3364 32.2846 23.5201 32.315 27.7051 32.2902C29.3422 32.2805 30.9543 32.3468 32.5196 32.8713H32.5099L32.5085 32.8671Z" fill="white"/>
<path d="M97.1519 72.1739C97.4224 72.6335 97.693 73.0932 97.9621 73.5528C99.1381 74.6695 99.272 75.2989 98.6081 76.6143C98.4632 76.9014 98.3238 77.1899 98.1678 77.4701C97.7882 78.152 97.3562 78.8007 96.9214 79.4481C96.5818 79.9519 96.107 80.2638 95.4776 80.2293C94.4161 80.1727 93.3161 80.4778 92.3029 79.9187C91.4319 79.9684 90.8467 79.5888 90.4506 78.8035C90.042 77.9905 89.5672 77.2092 89.0923 76.4321C88.7804 75.92 88.6576 75.3858 88.7418 74.7978C88.6907 74.6294 88.6479 74.4776 88.7431 74.294C89.3574 73.1111 89.8308 71.844 90.8357 70.9013C90.9723 70.7729 91.1159 70.668 91.3119 70.6542C92.7695 70.4692 94.2326 70.4099 95.6984 70.472C96.5887 70.5093 97.2554 71.3181 97.1505 72.1753L97.1519 72.1739Z" fill="white"/>
<path d="M24.8037 106.282C23.8997 106.252 23.2702 105.852 22.8327 105.029C22.1343 103.716 21.3654 102.44 20.6035 101.161C20.0127 100.172 19.9216 99.2455 20.5883 98.2144C21.3834 96.986 22.0777 95.6885 22.7733 94.3979C23.2302 93.5476 23.8431 93.1115 24.8534 93.1432C26.576 93.1971 28.3014 93.1736 30.0254 93.1501C30.8177 93.1391 31.3767 93.4552 31.7894 94.1191C32.1869 94.7582 32.4409 95.4828 32.953 96.0529C33.9675 96.8976 34.568 98.0198 35.0138 99.2262C35.196 99.7189 35.011 100.217 34.7985 100.689C34.2491 101.909 33.4113 102.958 32.7736 104.126C32.4575 104.706 32.2215 105.334 31.7342 105.818C31.2345 106.314 30.6548 106.587 29.955 106.596C28.5554 106.611 27.1558 106.607 25.7548 106.598C25.4014 106.596 25.0826 106.507 24.8037 106.286V106.282Z" fill="white"/>
</g>
<defs>
<filter id="filter0_d_190_426" x="0" y="0" width="104.006" height="113.606" filterUnits="userSpaceOnUse" color-interpolation-filters="sRGB">
<feFlood flood-opacity="0" result="BackgroundImageFix"/>
<feColorMatrix in="SourceAlpha" type="matrix" values="0 0 0 0 0 0 0 0 0 0 0 0 0 0 0 0 0 0 127 0" result="hardAlpha"/>
<feOffset dy="2"/>
<feGaussianBlur stdDeviation="2.5"/>
<feComposite in2="hardAlpha" operator="out"/>
<feColorMatrix type="matrix" values="0 0 0 0 0 0 0 0 0 0 0 0 0 0 0 0 0 0 0.25 0"/>
<feBlend mode="normal" in2="BackgroundImageFix" result="effect1_dropShadow_190_426"/>
<feBlend mode="normal" in="SourceGraphic" in2="effect1_dropShadow_190_426" result="shape"/>
</filter>
</defs>
</svg>
