<svg width="94" height="104" viewBox="0 0 94 104" fill="none" xmlns="http://www.w3.org/2000/svg">
<path d="M88.254 10.3911C88.9566 11.1655 89.742 11.8653 90.3507 12.7252C91.7406 14.0931 92.1727 15.8447 92.3328 17.7025C92.3452 17.8392 92.3369 17.9786 92.3397 18.1166C92.5315 31.355 92.475 44.5934 92.4708 57.8318C92.4708 59.2356 92.6917 60.6269 92.6144 62.0321C92.5233 63.7119 91.9201 65.1005 90.4653 66.057C89.557 66.6547 88.5522 66.6285 87.5376 66.5967C85.5348 66.1274 84.3561 64.6712 84.3478 62.5801C84.3271 57.502 84.3409 52.4225 84.3381 47.3444C84.3354 38.7879 84.3409 30.2329 84.3326 21.6764C84.3326 20.6412 84.0593 19.6294 84.0055 18.597C84.0538 17.2029 83.1911 16.4064 82.1034 15.806C81.394 15.414 80.9564 15.697 80.8943 16.5017C80.8681 16.8454 80.8832 17.1904 80.8832 17.5355C80.8832 36.8431 80.8598 56.152 80.9191 75.4596C80.9246 77.432 80.4181 79.1119 79.3484 80.6854C78.5464 81.8655 77.7334 83.0471 77.1316 84.3349C76.2054 86.3184 74.6512 86.8898 72.6208 86.6137C71.7926 86.5006 70.9617 86.4826 70.1307 86.6345C69.6683 86.7187 69.2211 86.5102 68.7643 86.5047C67.5924 86.4923 66.4205 86.4536 65.25 86.5295C64.4329 86.3253 63.838 85.7939 63.3369 85.1575C63.0692 84.818 62.8759 84.7697 62.6012 85.1355C61.7289 86.2949 60.5763 86.7255 59.1201 86.6483C57.4058 86.5558 55.6832 86.6248 53.9634 86.6276C53.1849 86.6276 52.4078 86.6331 51.632 86.5641C50.6079 86.5792 49.9508 85.9526 49.3504 85.2431C48.9349 84.7531 48.6299 84.1844 48.3124 83.6295C47.4953 82.2009 46.5857 80.8262 45.7713 79.3962C45.4552 78.8399 45.1695 78.2685 45.0549 77.6253C45.4318 74.6714 45.3586 71.6983 45.2496 68.7431C45.0991 64.7016 44.9694 60.6476 45.1971 56.6241C45.614 49.2533 45.2661 41.8881 45.4193 34.5214C45.4221 34.3848 45.4014 34.244 45.4828 34.1198C46.0487 32.531 47.1392 31.6076 48.8397 31.4089C49.8031 31.2957 51.298 32.0383 51.8487 33.0017C52.0944 33.4324 52.4009 33.8534 52.4036 34.3875C52.7321 34.5477 52.8439 34.8251 52.855 35.1743C52.8674 35.5884 52.8702 36.0011 52.8702 36.4152C52.8702 49.0794 52.8964 61.7436 52.8398 74.4078C52.8315 76.0835 53.6694 77.2705 54.4782 78.5349C54.7267 78.9227 55.1573 79.0691 55.6335 78.9876C56.6522 79.1809 57.3465 78.7875 57.8337 77.8751C58.1236 77.3313 58.4507 76.7999 58.7833 76.2767C59.098 75.7826 59.0884 75.2305 59.0884 74.677C59.0884 67.7644 59.0884 60.8519 59.0884 53.9394C59.0884 53.5488 59.0773 53.1582 59.1008 52.7689C59.1892 51.332 60.4259 49.5998 61.6613 49.1733C63.2086 48.6391 65.2638 49.3154 66.23 50.6778C66.4964 51.0546 66.7062 51.4632 66.8664 51.8952C66.894 52.6709 66.9533 53.4466 66.9519 54.2238C66.9478 60.9955 66.9795 67.7658 66.9271 74.5375C66.9147 76.1732 67.718 77.3685 68.6014 78.5708C68.8816 78.9517 69.2901 79.1809 69.8078 78.9876C70.727 79.1422 71.264 78.7033 71.7885 77.9634C72.8941 76.4065 73.2102 74.7363 73.1964 72.8453C73.1274 63.8154 73.0791 54.7828 73.1922 45.7529C73.2902 37.9321 73.2695 30.1114 73.3068 22.2906C73.3109 21.3023 73.0735 20.3361 73.0984 19.3506C73.2157 18.3692 73.1771 17.3809 73.1522 16.3968C73.1343 15.6528 72.7602 15.4154 72.0535 15.6818C70.5821 16.238 69.7898 17.3713 69.7512 18.891C69.6863 21.4804 69.6256 24.0726 69.8036 26.6634C69.9099 28.219 69.9127 29.7843 69.7829 31.3398C69.6228 33.2612 67.4847 34.7312 65.7483 34.6898C65.3356 34.6802 65.0609 34.3309 64.6717 34.2688C62.7876 33.6574 61.878 31.9734 61.9139 30.1569C61.9925 26.23 61.9566 22.3003 61.9332 18.372C61.9194 15.9537 62.7545 13.8419 64.1762 11.9495C65.6034 10.0502 67.4682 8.71682 69.7291 7.97146C70.7091 7.64847 71.7208 7.4359 72.763 7.51872C73.3192 7.56289 73.5359 7.39312 73.5152 6.79821C73.4724 5.58217 73.5622 4.35923 73.4876 3.14595C73.3979 1.69526 74.4248 0.292879 75.8949 0.113441C77.1772 -0.0425322 78.5091 -0.195745 79.6092 0.81049C80.0868 1.24666 80.3297 1.79878 80.5506 2.37574C80.9923 3.49378 80.8681 4.66841 80.8874 5.82786C80.9039 6.79821 81.1303 7.04114 82.0882 7.14052C82.5644 7.19021 83.0531 7.19987 83.4244 7.57393C83.4727 7.63467 83.5251 7.69264 83.5803 7.74647C84.1752 7.93143 84.7315 8.25166 85.3595 8.30963C85.5859 8.33034 85.637 8.50839 85.7847 8.58845C86.0124 8.732 86.3727 8.65746 86.4734 9.00944C87.067 9.46908 87.6619 9.92734 88.2554 10.387L88.254 10.3911Z" fill="white"/>
<path d="M27.5085 29.8671C28.8143 30.509 30.138 31.1191 31.2588 32.0742C32.127 32.6912 32.7343 33.5429 33.3375 34.3973C34.7192 35.7762 35.3376 37.6133 36.2141 39.2835C38.1258 42.9261 40.0099 46.5825 41.8995 50.2361C43.0148 52.3922 43.5793 54.689 43.6249 57.1252C43.6566 58.8133 43.502 60.4738 43.1597 62.1219C42.8271 63.7285 41.9092 65.0702 41.1956 66.5084C40.1438 68.6272 38.9843 70.6894 37.9022 72.7915C37.3349 73.8944 36.7814 75.0055 36.1533 76.0766C35.2009 77.7026 34.5122 79.4749 33.4949 81.0609C31.3113 84.4688 28.2567 86.5255 24.131 86.6069C19.8106 86.6925 15.4862 86.6262 11.1645 86.6276C10.7255 86.6276 10.2935 86.5986 9.86976 86.4868C9.72621 86.4744 9.57852 86.4868 9.44601 86.4123C9.16719 86.179 8.86214 86.0106 8.4798 86.0493C7.72478 85.5952 7.10089 85.0306 6.869 84.1362C6.80136 83.5689 6.61364 83.0333 6.575 82.4453C6.43421 80.3404 8.56538 78.3279 10.8346 78.3486C14.3516 78.3803 17.8686 78.3583 21.3856 78.3555C21.7072 78.3555 22.0288 78.3596 22.3504 78.3541C23.3414 78.3376 23.6285 78.0491 23.7348 77.0428C23.9419 75.0787 23.2959 73.3588 22.3918 71.6528C21.0819 69.1779 19.7306 66.7251 18.5104 64.202C18.0508 63.2509 17.5194 62.3372 16.9948 61.4207C16.1211 59.5159 15.5566 58.7222 13.1894 58.7415C9.74967 58.7705 6.30998 58.7774 2.8689 58.7319C2.31955 58.6366 1.67771 58.7167 1.45686 57.9948C-0.176026 56.9057 -0.278168 55.0575 0.377473 53.8401C0.924069 52.8242 1.82954 52.2762 2.99589 52.2458C4.32097 52.2113 5.64882 52.2169 6.9739 52.2044C7.17128 51.938 7.45562 51.8718 7.76481 51.8704C10.1955 51.8538 12.6317 51.7627 15.0569 51.9022C16.8817 52.0071 18.4662 52.9029 19.9777 53.8939C20.9977 54.562 21.7927 55.4274 22.3918 56.482C23.6879 59.2136 25.1703 61.8513 26.5396 64.547C27.4147 66.2669 28.2939 67.9854 29.2077 69.6859C29.7115 70.6245 29.688 70.6369 30.3547 69.8115C31.1498 67.9219 32.2485 66.191 33.1733 64.369C33.7447 63.244 34.4307 62.184 34.8766 60.99C35.8787 58.3109 35.575 55.7063 34.3106 53.2535C32.4597 49.6606 30.5452 46.0994 28.7177 42.4927C28.1987 41.4699 27.5845 40.4982 27.0917 39.4616C27.0296 39.2338 26.8653 39.0627 26.7646 38.8584C26.1034 37.5209 25.0088 36.937 23.5333 36.9453C20.4801 36.9605 17.4255 36.9508 14.3709 36.9494C13.7511 36.9494 13.1314 36.9522 12.5116 36.9494C11.5151 36.9439 10.4964 37.0585 9.6006 36.458C9.2224 36.2441 8.81936 36.0647 8.4729 35.8079C7.17128 34.8459 6.86762 33.478 7.18509 32.008C7.48461 30.6194 8.46738 29.7829 9.84491 29.4241C9.95258 29.3965 10.0492 29.3261 10.1513 29.2764C14.3364 29.2846 18.5201 29.315 22.7051 29.2902C24.3422 29.2805 25.9543 29.3468 27.5196 29.8713H27.5099L27.5085 29.8671Z" fill="white"/>
<path d="M92.1519 69.1739C92.4224 69.6335 92.693 70.0932 92.9621 70.5528C94.1381 71.6695 94.272 72.2989 93.6081 73.6143C93.4632 73.9014 93.3238 74.1899 93.1678 74.4701C92.7882 75.152 92.3562 75.8007 91.9214 76.4481C91.5818 76.9519 91.107 77.2638 90.4776 77.2293C89.4161 77.1727 88.3161 77.4778 87.3029 76.9187C86.4319 76.9684 85.8467 76.5888 85.4506 75.8035C85.042 74.9905 84.5672 74.2092 84.0923 73.4321C83.7804 72.92 83.6576 72.3858 83.7418 71.7978C83.6907 71.6294 83.6479 71.4776 83.7431 71.294C84.3574 70.1111 84.8308 68.844 85.8357 67.9013C85.9723 67.7729 86.1159 67.668 86.3119 67.6542C87.7695 67.4692 89.2326 67.4099 90.6984 67.472C91.5887 67.5093 92.2554 68.3181 92.1505 69.1753L92.1519 69.1739Z" fill="white"/>
<path d="M19.8037 103.282C18.8997 103.252 18.2702 102.852 17.8327 102.029C17.1343 100.716 16.3654 99.4395 15.6035 98.1614C15.0127 97.1717 14.9216 96.2455 15.5883 95.2144C16.3834 93.986 17.0777 92.6885 17.7733 91.3979C18.2302 90.5476 18.8431 90.1115 19.8534 90.1432C21.576 90.1971 23.3014 90.1736 25.0254 90.1501C25.8177 90.1391 26.3767 90.4552 26.7894 91.1191C27.1869 91.7582 27.4409 92.4828 27.953 93.0529C28.9675 93.8976 29.568 95.0198 30.0138 96.2262C30.196 96.7189 30.011 97.2172 29.7985 97.6893C29.2491 98.9095 28.4113 99.9585 27.7736 101.126C27.4575 101.706 27.2215 102.334 26.7342 102.818C26.2345 103.314 25.6548 103.587 24.955 103.596C23.5554 103.611 22.1558 103.607 20.7548 103.598C20.4014 103.596 20.0826 103.507 19.8037 103.286V103.282Z" fill="white"/>
</svg>
