<svg width="76" height="114" viewBox="0 0 76 114" fill="none" xmlns="http://www.w3.org/2000/svg">
<g filter="url(#filter0_d_183_71)">
<path d="M37.5027 4.00091C48.0314 3.89745 56.9014 12.6226 56.8359 23.41C56.7738 33.8974 48.3659 42.5156 37.7992 42.6018C26.8842 42.6915 18.2246 34.0871 18.2005 23.3652C18.1798 12.4881 27.1049 3.91469 37.5027 4.00091ZM48.6729 33.6318C49.1902 33.6318 49.6006 33.5836 49.9937 33.6422C50.7835 33.7594 51.2525 33.4042 51.6663 32.7662C53.4976 29.9556 54.4494 26.8828 54.546 23.5341C54.5597 23.0893 54.4253 22.7961 54.0562 22.5237C52.9285 21.6926 51.7043 20.9856 50.7214 19.9648C50.4765 19.7096 50.173 19.7992 49.9109 19.882C48.028 20.4855 46.1554 21.1097 44.2758 21.7236C44.0206 21.8064 43.831 21.9064 43.7827 22.2306C43.4723 24.1928 42.7826 26.0413 41.9963 27.8553C41.8756 28.1312 41.8928 28.3381 42.0618 28.5658C43.2585 30.2004 44.4586 31.8351 45.6449 33.4767C45.8174 33.7146 46.0105 33.825 46.3002 33.756C47.121 33.5629 47.9556 33.6594 48.6694 33.6318H48.6729ZM38.0855 13.3123C38.0855 13.3123 38.0855 13.3123 38.0889 13.3123C38.0889 14.2883 38.1027 15.2608 38.082 16.2368C38.0751 16.661 38.2407 16.8782 38.6235 17.092C40.2271 17.9852 41.6859 19.0923 43.0619 20.2959C43.4068 20.5959 43.6585 20.7304 44.1068 20.5752C45.976 19.9303 47.8521 19.3164 49.7282 18.6991C49.9834 18.6164 50.2075 18.5612 50.2248 18.2163C50.28 16.8713 50.8904 15.6746 51.2973 14.4297C51.4801 13.871 51.4318 13.4744 51.0766 13.0192C48.9936 10.3534 46.3692 8.44969 43.2067 7.26335C42.6377 7.04953 42.1894 7.09436 41.6997 7.47717C40.7341 8.23932 39.7788 9.03596 38.6717 9.58085C38.2338 9.79467 38.0682 10.0154 38.0786 10.4775C38.0993 11.4224 38.0855 12.3708 38.0855 13.3158V13.3123ZM37.4751 40.3395C39.2373 40.3188 40.9548 40.0464 42.6343 39.498C42.9791 39.3842 43.2067 39.2256 43.3481 38.8462C43.8482 37.5081 44.0758 36.0666 44.8311 34.8216C44.9897 34.5595 44.8104 34.3837 44.6828 34.2043C43.5102 32.5766 42.3239 30.9557 41.1651 29.3176C40.8961 28.9382 40.5892 28.9555 40.1926 28.9968C38.42 29.1727 36.6405 29.1727 34.8713 28.9968C34.3678 28.9451 34.0747 29.0451 33.7884 29.4452C32.6745 31.0109 31.533 32.5559 30.4019 34.1112C30.2536 34.3181 30.088 34.5113 30.2467 34.8078C30.9191 36.0528 31.1881 37.4461 31.6641 38.7669C31.802 39.1497 31.9882 39.3877 32.3952 39.5187C34.0471 40.0498 35.7369 40.3188 37.4716 40.3464L37.4751 40.3395ZM24.8667 19.8165C24.6529 19.7613 24.4839 19.8165 24.3219 19.9786C23.3528 20.9752 22.1457 21.6615 21.0456 22.4892C20.6904 22.7548 20.5145 23.0444 20.5249 23.4962C20.6076 26.9449 21.5595 30.1073 23.5494 32.9525C23.8804 33.4249 24.2322 33.6387 24.815 33.6456C26.16 33.6663 27.5153 33.487 28.85 33.7801C29.1741 33.8526 29.3121 33.6146 29.4638 33.4077C30.6122 31.8316 31.7641 30.2521 32.909 28.6727C33.0815 28.4382 33.2298 28.214 33.0608 27.8898C32.2952 26.4276 31.771 24.8481 31.4882 23.2583C31.2537 21.9374 30.5157 21.5822 29.4569 21.2753C27.9154 20.8304 26.3945 20.3062 24.8633 19.813L24.8667 19.8165ZM36.9405 13.3261C36.9405 12.3812 36.9405 11.4328 36.9405 10.4878C36.9405 10.1706 36.9543 9.84295 36.5888 9.68431C35.3334 9.14287 34.3609 8.18414 33.2573 7.41854C32.909 7.17713 32.6193 7.0116 32.1641 7.16679C28.8327 8.2945 26.1393 10.2913 23.977 13.0502C23.608 13.5192 23.6149 13.9469 23.7873 14.478C24.1805 15.7022 24.6874 16.8989 24.8805 18.1784C24.9357 18.5405 25.1392 18.6474 25.422 18.7405C27.3256 19.3647 29.2328 19.9889 31.133 20.6235C31.4123 20.7166 31.6089 20.6718 31.8261 20.4614C33.2022 19.1095 34.8092 18.0646 36.4474 17.0679C36.8267 16.8368 36.9509 16.5713 36.9474 16.1644C36.9371 15.2194 36.9474 14.271 36.9474 13.3261H36.9405Z" fill="#EEFBFA"/>
<path d="M64.4095 68.8429C64.3751 68.9981 64.3371 69.1532 64.3026 69.3084C63.3784 73.6917 59.9194 75.616 56.7777 75.6091C45.5454 75.5885 34.3165 75.5988 23.0842 75.5919C21.8082 75.5919 20.5977 75.3126 19.4114 74.8091C18.163 74.2814 17.2284 73.3606 16.2179 72.5191L16.2076 72.5088C14.4901 70.2223 13.9763 67.6289 14.0866 64.8148C14.1832 62.3525 14.1246 59.8798 14.0901 57.414C14.0625 55.3724 12.9279 54.0688 11.1449 53.248C10.0276 52.7342 8.83087 52.9342 7.66522 52.9169C5.98227 52.8893 5.95123 52.8652 6.12712 51.1719C6.16505 50.7891 6.2961 50.6029 6.6996 50.596C9.1447 50.5546 11.6036 50.4063 13.7245 51.9927C13.7383 52.0513 13.7763 52.0824 13.8383 52.0858C13.9142 52.1375 13.9866 52.1927 14.0625 52.2444L14.0659 52.2513C14.1177 52.3065 14.1694 52.3617 14.2211 52.4169C15.9937 54.2067 16.5766 56.3828 16.48 58.859C16.3834 61.3524 16.4524 63.8526 16.4593 66.3529C16.4697 70.4396 19.3045 73.2744 23.398 73.2778C34.3924 73.2778 45.3902 73.2847 56.3845 73.2778C59.2917 73.2778 61.1195 71.957 61.8817 69.3912C61.9989 68.9946 62.0024 68.598 62.0024 68.198C62.0093 65.0976 62.0024 61.9973 62.0127 58.8969C62.0196 57.1209 63.2405 55.531 64.92 55.0586C66.6236 54.5792 68.4617 55.2551 69.386 56.6967C70.393 58.2693 70.2654 60.1798 69.0721 61.5731C68.7687 61.9283 68.3824 62.1731 67.9962 62.4215C67.4582 62.7663 66.6615 63.1836 66.2787 62.9181C65.7787 62.5697 66.1201 61.6938 66.0822 61.0454C66.058 60.604 66.4512 60.5937 66.7236 60.473C67.4409 60.1488 67.7617 59.5694 67.7065 58.8141C67.6513 58.0658 67.2892 57.514 66.4856 57.3657C65.3786 57.1036 64.7096 57.5071 64.4337 58.6107C64.3061 61.5145 64.3509 64.4182 64.4164 67.3255C64.3406 67.7152 64.3337 68.1048 64.4095 68.4945C64.3233 68.6118 64.3164 68.7256 64.4095 68.8429Z" fill="#EEFBFA"/>
<path d="M20.7631 60.7038C20.7631 62.8281 20.7528 64.956 20.7666 67.0803C20.7735 68.1736 21.2908 68.8254 22.1081 68.853C22.9427 68.8771 23.4807 68.1943 23.4876 67.0424C23.5014 64.7146 23.5255 62.3867 23.4876 60.0623C23.4772 59.3312 23.6393 59.0415 24.4394 59.076C25.7913 59.1346 25.7947 59.0794 25.7947 60.4175C25.7947 62.6867 25.7844 64.956 25.7844 67.2252C25.7844 68.1632 26.3327 68.8185 27.1052 68.8219C27.9743 68.8288 28.5123 68.2494 28.5157 67.2355C28.5261 64.4766 28.5019 61.7211 28.533 58.9622C28.5399 58.3449 28.3261 58.138 27.7467 58.1586C26.9121 58.1862 26.0879 58.1586 25.3188 57.731C23.7014 56.8309 22.9186 54.9997 23.4324 53.2615C23.9049 51.6614 25.5602 50.5199 27.257 50.6199C29.0606 50.7268 30.4884 52.0166 30.7953 53.8202C30.8367 54.0754 30.8195 54.3375 30.8608 54.5927C30.9471 55.1204 30.5056 55.9239 31.654 55.8722C33.0231 55.8101 33.5336 55.5135 33.568 54.4479C33.5991 53.5305 33.5887 52.6097 33.5646 51.6924C33.5473 51.1234 33.7301 50.8613 34.3509 50.8751C36.3373 50.913 35.9373 50.744 35.9649 52.4615C35.9752 53.0926 35.9787 53.7271 35.9649 54.3582C35.9304 56.5688 34.3474 58.1449 32.1403 58.1621C30.7746 58.1724 30.8608 58.0035 30.8574 59.4795C30.8505 62.1212 30.8815 64.7663 30.8332 67.408C30.7953 69.4772 29.5814 70.8256 27.5949 71.136C26.6983 71.2774 25.8844 71.0291 25.1361 70.5497C24.8222 70.3497 24.605 70.2807 24.2256 70.5049C21.4115 72.1602 18.4181 70.4393 18.4077 67.1666C18.3939 63.0868 18.3905 59.007 18.4181 54.9272C18.425 54.0134 18.2732 53.2891 17.311 52.9305C16.9834 52.8098 16.7489 51.2268 17.0179 50.8682C17.3421 50.4371 17.7973 50.675 18.187 50.8026C19.6596 51.2924 20.6838 52.5891 20.7183 54.1513C20.7666 56.3343 20.7287 58.5173 20.7287 60.7003C20.739 60.7003 20.7459 60.7003 20.7562 60.7003L20.7631 60.7038ZM27.6156 55.8411C27.8226 55.6584 28.4709 56.1929 28.5054 55.4204C28.5295 54.9376 28.5709 54.4479 28.4261 53.972C28.0985 52.8856 26.8362 52.5649 26.0362 53.365C25.6051 53.7926 25.4947 54.3099 25.712 54.8617C26.0293 55.6756 26.688 55.9274 27.6156 55.8411Z" fill="#EEFBFA"/>
<path d="M45.5523 60.6316C45.5523 62.7008 45.5799 64.77 45.5385 66.8357C45.5212 67.7565 46.073 68.2911 46.7041 68.7083C47.4042 69.1739 48.3664 68.3945 48.3802 67.3703C48.4043 65.7632 48.3802 64.1527 48.3836 62.5456C48.3836 61.5972 48.4078 60.6488 48.3836 59.7039C48.3733 59.2624 48.5112 59.1176 48.9665 59.0935C50.7287 58.9969 50.7322 58.9762 50.7322 60.7005C50.7322 62.8835 50.7563 65.0665 50.7322 67.2496C50.7011 69.874 48.6595 71.6052 46.2765 71.0638C46.1386 71.0327 45.9937 71.0017 45.8627 70.9465C44.9706 70.5833 44.0533 70.5695 43.1106 70.9051C41.438 71.5018 39.762 71.0224 38.7205 69.6498C37.7755 68.4014 37.7548 66.5805 38.6722 65.3114C39.4861 64.1837 41.1035 63.7388 42.4485 64.3734C43.1486 64.7044 43.2382 64.5286 43.221 63.8492C43.183 62.2421 43.1796 60.6316 43.2279 59.0245C43.2486 58.3175 42.9899 58.1554 42.3312 58.1658C40.3069 58.1968 38.8205 57.3588 38.279 55.8586C37.7273 54.3378 37.8859 52.8928 39.0826 51.7202C40.2 50.627 41.5587 50.2752 43.0485 50.8512C44.5832 51.4443 45.4764 52.6031 45.5247 54.255C45.5868 56.3794 45.5385 58.5072 45.5385 60.6316H45.5488H45.5523ZM43.2382 54.9896C43.2313 53.6411 42.7175 52.9514 41.7967 52.941C40.9828 52.9307 40.3069 53.5894 40.3103 54.3964C40.3103 55.331 41.0725 55.8448 42.3209 55.8931C43.1072 55.9207 43.352 55.6034 43.2382 54.993V54.9896ZM41.7208 68.8428C42.2554 68.8566 42.8692 68.5049 42.9072 68.16C42.952 67.7703 41.607 66.3977 41.1725 66.4115C40.5517 66.4357 40.3482 66.8599 40.3172 67.3944C40.2758 68.1428 40.9414 68.8187 41.7174 68.8394L41.7208 68.8428Z" fill="#EEFBFA"/>
<path d="M57.8811 50.871C60.3228 50.871 62.761 50.8917 65.2026 50.8572C65.9372 50.8469 66.1338 51.1159 66.1028 51.8159C66.0441 53.2058 66.0786 53.2058 64.7164 53.2058C60.1504 53.2058 55.5843 53.2127 51.0217 53.2092C50.4769 53.2092 49.9699 53.2437 49.763 53.8576C49.525 54.5611 49.9664 55.1439 50.7872 55.1577C52.4805 55.1818 54.1738 55.1715 55.8706 55.1749C58.3777 55.1784 60.1228 56.8717 60.14 59.3582C60.1607 62.0585 60.1676 64.7553 60.14 67.4556C60.1228 69.1317 59.1675 70.4456 57.6949 70.9698C56.2672 71.4802 54.7222 71.0457 53.6462 69.8352C53.0634 69.18 52.8185 68.4006 52.8185 67.5419C52.815 64.9588 52.8288 62.3723 52.8081 59.7893C52.8047 59.2651 52.9668 59.1099 53.491 59.0892C55.105 59.0306 55.105 59.0064 55.1084 60.648C55.1119 62.8862 55.1084 65.1278 55.1153 67.366C55.1153 68.0316 55.4015 68.5489 56.0533 68.7627C56.6638 68.9627 57.1845 68.7627 57.5777 68.2557C57.7811 67.9936 57.8329 67.6867 57.8294 67.3625C57.8225 64.6933 57.8398 62.0205 57.8053 59.3513C57.788 58.1029 57.1742 57.5269 55.9188 57.5062C54.2531 57.4821 52.5874 57.4959 50.9217 57.489C48.7422 57.4787 47.342 56.1371 47.3455 54.0645C47.3455 52.2643 48.8974 50.8641 50.9079 50.8607C53.2323 50.8572 55.5602 50.8607 57.8846 50.8607V50.8676L57.8811 50.871Z" fill="#EEFBFA"/>
<path d="M12.2931 56.4238C12.707 57.4446 13.2208 58.4378 12.9484 59.6104C12.4897 61.5761 11.2551 62.7004 9.24453 62.9315L9.1859 62.897L9.12037 62.9073C8.95829 62.3728 9.06864 61.8244 9.03071 61.283C9.00312 60.8761 9.17555 60.6691 9.55491 60.5243C10.3791 60.2139 10.755 59.5518 10.6895 58.7034C10.6309 57.9309 9.98599 57.3515 9.21349 57.2515C8.35477 57.1411 7.77884 57.5102 7.35466 58.4378C7.15808 58.8655 5.87863 59.1862 5.31305 58.8896C4.78195 58.6103 5.06475 58.1171 5.16821 57.7481C5.94415 54.9892 9.42386 53.9891 11.631 55.872C11.8448 56.0548 12.0655 56.2307 12.2828 56.41L12.2931 56.4169V56.4238Z" fill="#EEFBFA"/>
<path d="M35.9373 62.0487C34.9923 62.0487 34.044 62.0384 33.099 62.0556C32.6679 62.0625 32.4783 61.9073 32.4852 61.4555C32.5059 59.4381 32.2438 59.7312 34.1164 59.7209C35.6338 59.7105 37.1547 59.7416 38.6721 59.714C39.2583 59.7036 39.486 59.8726 39.4653 60.4934C39.3963 62.3349 39.6756 62.0108 37.9134 62.0453C37.2547 62.0591 36.596 62.0453 35.9373 62.0453V62.0487Z" fill="#EEFBFA"/>
<path d="M64.4096 68.8425C64.3164 68.7252 64.3233 68.6079 64.4096 68.4941C64.4096 68.6114 64.4096 68.7252 64.4096 68.8425Z" fill="#02CBFD"/>
<path d="M14.2245 52.4199C14.1728 52.3648 14.1211 52.3096 14.0693 52.2544C14.1659 52.2682 14.2969 52.2509 14.2245 52.4199Z" fill="#02CBFD"/>
<path d="M37.4993 107.995C33.2506 107.995 29.0018 108.009 24.7496 107.992C21.9493 107.978 20.4353 105.302 21.8389 102.901C22.2873 102.136 22.9666 101.691 23.8116 101.505C24.2013 101.418 24.6082 101.38 25.0083 101.38C33.3644 101.374 41.7205 101.377 50.0731 101.374C51.1146 101.374 52.063 101.608 52.8045 102.405C53.7908 103.463 54.0046 104.701 53.4563 105.995C52.9217 107.257 51.9147 107.981 50.5008 107.985C46.1658 107.995 41.8308 107.988 37.4924 107.988V107.995H37.4993ZM37.4476 105.667C41.6377 105.667 45.8278 105.667 50.018 105.674C50.7112 105.674 51.3216 105.522 51.425 104.733C51.5043 104.132 50.8629 103.705 50.0111 103.705C41.7446 103.705 33.4782 103.705 25.2117 103.712C24.9255 103.712 24.6289 103.701 24.3599 103.777C23.8909 103.905 23.6564 104.246 23.6702 104.743C23.6805 105.212 23.9495 105.502 24.3668 105.615C24.6358 105.688 24.9358 105.671 25.2221 105.671C29.2984 105.671 33.3747 105.671 37.4476 105.671V105.667Z" fill="#EEFBFA"/>
<path d="M52.4494 78.1754C53.4046 79.1445 53.984 80.2411 53.6357 81.6585C53.2977 83.0173 52.1804 84.0071 50.7837 84.1519C50.5285 84.1795 50.2664 84.183 50.0077 84.183C41.5895 84.183 33.1748 84.1899 24.7566 84.183C22.9667 84.183 21.5459 82.969 21.3286 81.293C21.1217 79.6962 22.1632 78.134 23.7634 77.6926C24.1151 77.596 24.5014 77.5788 24.8704 77.5753C33.2575 77.5684 41.6482 77.5753 50.0353 77.5615C50.8975 77.5615 51.6769 77.7719 52.4287 78.1547L52.4494 78.1754ZM37.5166 79.8721C33.4369 79.8721 29.3606 79.8721 25.2808 79.8721C24.9945 79.8721 24.7014 79.8687 24.429 79.9377C23.9324 80.0653 23.6392 80.4032 23.6599 80.9378C23.6806 81.4413 23.9979 81.7206 24.4566 81.831C24.7014 81.8896 24.9704 81.8758 25.2291 81.8758C33.3576 81.8758 41.4861 81.8758 49.6146 81.8758C49.9284 81.8758 50.2526 81.8896 50.5595 81.831C51.0561 81.7344 51.4217 81.3999 51.4251 80.8964C51.4251 80.3618 51.0906 79.9859 50.5319 79.8997C50.2802 79.8618 50.0181 79.8721 49.7594 79.8721C45.6796 79.8721 41.6033 79.8721 37.5235 79.8721H37.5166Z" fill="#EEFBFA"/>
<path d="M37.5234 86.1579C38.9029 86.1579 40.2823 86.1993 41.6549 86.1407C42.4585 86.1062 42.7516 86.32 42.7654 87.1822C42.8482 91.8241 45.6968 95.5659 50.0041 96.7488C50.6076 96.9143 51.2422 97.0074 51.8664 97.0557C52.401 97.0971 52.6113 97.2868 52.6286 97.842C52.6768 99.5249 52.6044 99.6077 50.9284 99.3215C45.3415 98.3662 41.579 94.6589 40.61 89.1238C40.5375 88.7065 40.3755 88.4892 39.9651 88.4892C38.358 88.4858 36.7509 88.4961 35.1438 88.4892C34.5886 88.4892 34.5231 88.8686 34.4472 89.2824C33.9334 92.1482 32.5953 94.552 30.4088 96.4832C28.3982 98.2593 26.0152 99.1249 23.3839 99.4146C22.7562 99.4836 22.3665 99.3491 22.4941 98.5973C22.5286 98.4041 22.4941 98.1972 22.4734 97.9972C22.4079 97.3799 22.5941 97.0902 23.2977 97.0385C25.7428 96.8626 27.843 95.859 29.526 94.0864C31.1813 92.3448 32.1297 90.2653 32.2194 87.834C32.2883 85.9751 32.0193 86.1648 33.9851 86.1717C35.1611 86.1717 36.3405 86.1717 37.5165 86.1717C37.5165 86.1683 37.5165 86.1648 37.5165 86.1579H37.5234Z" fill="#EEFBFA"/>
</g>
<defs>
<filter id="filter0_d_183_71" x="0" y="0" width="75.0625" height="114" filterUnits="userSpaceOnUse" color-interpolation-filters="sRGB">
<feFlood flood-opacity="0" result="BackgroundImageFix"/>
<feColorMatrix in="SourceAlpha" type="matrix" values="0 0 0 0 0 0 0 0 0 0 0 0 0 0 0 0 0 0 127 0" result="hardAlpha"/>
<feOffset dy="1"/>
<feGaussianBlur stdDeviation="2.5"/>
<feComposite in2="hardAlpha" operator="out"/>
<feColorMatrix type="matrix" values="0 0 0 0 0 0 0 0 0 0 0 0 0 0 0 0 0 0 0.25 0"/>
<feBlend mode="normal" in2="BackgroundImageFix" result="effect1_dropShadow_183_71"/>
<feBlend mode="normal" in="SourceGraphic" in2="effect1_dropShadow_183_71" result="shape"/>
</filter>
</defs>
</svg>
