<svg width="88" height="104" viewBox="0 0 88 104" fill="none" xmlns="http://www.w3.org/2000/svg">
<g clip-path="url(#clip0_190_476)">
<path d="M88 103.053H0L6.21465 95.6963L81.5367 95.5723L88 103.053Z" fill="white"/>
<path d="M56.7848 94.686L27.2808 94.7569L35.5773 58.4076L47.6443 58.2832L56.7848 94.686Z" fill="white"/>
<path d="M71.4275 94.6094L58.1073 94.6548L48.7336 58.2021H54.1507C59.9098 70.338 65.6687 82.4738 71.4275 94.6094Z" fill="white"/>
<path d="M12.4192 94.7012L25.7393 94.7466L35.113 58.2939H29.6959L12.4192 94.7012Z" fill="white"/>
<path d="M41.5763 0C38.7384 14.6762 35.9004 29.3526 33.0623 44.0291H50.2976L41.5763 0Z" fill="white"/>
<path d="M44.511 6.96924L51.4834 44.0291H58.1074C53.5757 31.6757 49.0435 19.3224 44.511 6.96924Z" fill="white"/>
<path d="M38.866 6.96924C36.5423 19.3224 34.2183 31.6757 31.894 44.0291H25.27C29.802 31.6757 34.334 19.3224 38.866 6.96924Z" fill="white"/>
<path d="M46.5171 47.9414H36.8428V52.392H46.5171V47.9414Z" fill="white"/>
<path d="M35.1961 47.9414H30.0317V52.392H35.1961V47.9414Z" fill="white"/>
<path d="M53.2498 47.9414H48.0854V52.392H53.2498V47.9414Z" fill="white"/>
<path d="M46.6797 46.1611H37.0054V47.372H46.6797V46.1611Z" fill="white"/>
<path d="M35.1961 46.1611H30.0317V47.372H35.1961V46.1611Z" fill="white"/>
<path d="M53.2498 46.1611H48.0854V47.372H53.2498V46.1611Z" fill="white"/>
</g>
<defs>
<clipPath id="clip0_190_476">
<rect width="88" height="103.053" fill="white"/>
</clipPath>
</defs>
</svg>
