<svg width="95" height="104" viewBox="0 0 95 104" fill="none" xmlns="http://www.w3.org/2000/svg">
<path d="M88.5096 10.8304C89.2081 11.6002 89.9889 12.2959 90.594 13.1508C91.9759 14.5107 92.4054 16.2521 92.5646 18.0991C92.5769 18.2349 92.5687 18.3735 92.5714 18.5108C92.7622 31.6718 92.7059 44.8328 92.7018 57.9939C92.7018 59.3894 92.9213 60.7726 92.8445 62.1696C92.7539 63.8396 92.1543 65.22 90.7079 66.171C89.805 66.7652 88.806 66.7391 87.7974 66.7075C85.8063 66.241 84.6344 64.7933 84.6262 62.7143C84.6056 57.6659 84.6194 52.6161 84.6166 47.5677C84.6139 39.0612 84.6194 30.5562 84.6111 22.0497C84.6111 21.0206 84.3394 20.0147 84.2859 18.9883C84.3339 17.6023 83.4763 16.8106 82.395 16.2136C81.6896 15.8239 81.2547 16.1052 81.1929 16.9052C81.1668 17.2469 81.1819 17.59 81.1819 17.933C81.1819 37.1278 81.1586 56.3239 81.2176 75.5186C81.2231 77.4795 80.7195 79.1495 79.656 80.7139C78.8587 81.8871 78.0505 83.0617 77.4522 84.342C76.5314 86.3139 74.9863 86.882 72.9678 86.6076C72.1444 86.495 71.3183 86.4772 70.4923 86.6282C70.0326 86.7119 69.588 86.5047 69.1338 86.4992C67.9687 86.4868 66.8037 86.4484 65.6401 86.5239C64.8277 86.3208 64.2363 85.7925 63.7382 85.1599C63.4719 84.8223 63.2798 84.7743 63.0068 85.1379C62.1395 86.2906 60.9937 86.7187 59.546 86.6419C57.8417 86.5499 56.1291 86.6186 54.4194 86.6213C53.6454 86.6213 52.8728 86.6268 52.1017 86.5582C51.0835 86.5733 50.4303 85.9503 49.8334 85.245C49.4203 84.7578 49.1171 84.1925 48.8014 83.6408C47.9891 82.2206 47.0848 80.8538 46.2752 79.4322C45.9609 78.8792 45.6769 78.3111 45.563 77.6716C45.9376 74.7351 45.8649 71.7793 45.7565 68.8413C45.6069 64.8235 45.4779 60.7932 45.7043 56.7932C46.1187 49.4655 45.7729 42.1433 45.9253 34.8197C45.928 34.6838 45.9074 34.5439 45.9884 34.4204C46.551 32.8409 47.6351 31.9229 49.3256 31.7253C50.2835 31.6128 51.7696 32.351 52.3171 33.3089C52.5614 33.737 52.866 34.1555 52.8687 34.6866C53.1953 34.8458 53.3065 35.1216 53.3175 35.4688C53.3298 35.8804 53.3325 36.2907 53.3325 36.7024C53.3325 49.2926 53.3586 61.8828 53.3024 74.473C53.2941 76.1388 54.1271 77.319 54.9312 78.5759C55.1782 78.9615 55.6063 79.107 56.0797 79.026C57.0925 79.2181 57.7827 78.827 58.2671 77.92C58.5552 77.3793 58.8805 76.851 59.2112 76.331C59.524 75.8397 59.5144 75.2908 59.5144 74.7405C59.5144 67.8684 59.5144 60.9963 59.5144 54.1242C59.5144 53.7359 59.5035 53.3475 59.5268 52.9605C59.6146 51.5321 60.8441 49.8099 62.0723 49.3859C63.6105 48.8548 65.6538 49.5272 66.6143 50.8816C66.8792 51.2562 67.0878 51.6624 67.2469 52.0919C67.2744 52.8631 67.3334 53.6343 67.332 54.4069C67.3279 61.139 67.3595 67.8698 67.3073 74.602C67.295 76.228 68.0936 77.4164 68.9718 78.6116C69.2504 78.9903 69.6566 79.2181 70.1712 79.026C71.0851 79.1797 71.6189 78.7433 72.1403 78.0078C73.2395 76.4599 73.5537 74.7996 73.54 72.9196C73.4714 63.9425 73.4233 54.9626 73.5359 45.9855C73.6333 38.2105 73.6127 30.4354 73.6498 22.6604C73.6539 21.6779 73.4179 20.7173 73.4426 19.7375C73.5592 18.7619 73.5208 17.7794 73.4961 16.801C73.4782 16.0613 73.1064 15.8253 72.4038 16.0901C70.941 16.6431 70.1533 17.7697 70.1149 19.2806C70.0504 21.8549 69.99 24.4319 70.167 27.0076C70.2727 28.5541 70.2754 30.1102 70.1465 31.6567C69.9873 33.5668 67.8617 35.0283 66.1354 34.9871C65.7251 34.9775 65.4521 34.6303 65.0651 34.5686C63.192 33.9607 62.2877 32.2866 62.3234 30.4807C62.4016 26.5767 62.3659 22.67 62.3426 18.7646C62.3289 16.3605 63.1591 14.261 64.5725 12.3796C65.9914 10.4914 67.8452 9.16588 70.0929 8.42487C71.0672 8.10377 72.0731 7.89245 73.1091 7.97478C73.6621 8.01869 73.8776 7.84991 73.857 7.25848C73.8144 6.04955 73.9036 4.83375 73.8295 3.62756C73.7403 2.18535 74.7613 0.791168 76.2227 0.612778C77.4975 0.457716 78.8217 0.305399 79.9154 1.30575C80.3901 1.73938 80.6317 2.28827 80.8512 2.86186C81.2903 3.97337 81.1668 5.14113 81.186 6.2938C81.2025 7.25848 81.4276 7.49999 82.3799 7.59879C82.8533 7.64819 83.3391 7.6578 83.7082 8.02967C83.7562 8.09005 83.8084 8.14768 83.8633 8.2012C84.4547 8.38508 85.0077 8.70344 85.6321 8.76107C85.8571 8.78165 85.9079 8.95867 86.0547 9.03826C86.2811 9.18097 86.6393 9.10687 86.7394 9.45679C87.3295 9.91374 87.9209 10.3693 88.511 10.8263L88.5096 10.8304Z" fill="#EE457B"/>
<path d="M28.1193 30.1918C29.4174 30.8299 30.7334 31.4364 31.8476 32.386C32.7107 32.9994 33.3145 33.846 33.9142 34.6955C35.2878 36.0663 35.9025 37.8927 36.7739 39.5531C38.6745 43.1745 40.5475 46.8095 42.4261 50.4418C43.5349 52.5852 44.0961 54.8686 44.1414 57.2906C44.173 58.9688 44.0193 60.6196 43.679 62.258C43.3483 63.8553 42.4357 65.1891 41.7263 66.619C40.6806 68.7253 39.528 70.7755 38.4521 72.8654C37.8882 73.9618 37.3379 75.0664 36.7135 76.1313C35.7667 77.7477 35.082 79.5097 34.0706 81.0864C31.8998 84.4744 28.863 86.519 24.7614 86.6C20.4664 86.6851 16.1672 86.6192 11.8707 86.6206C11.4343 86.6206 11.0048 86.5918 10.5836 86.4806C10.4409 86.4683 10.294 86.4806 10.1623 86.4065C9.8851 86.1746 9.58184 86.0072 9.20173 86.0456C8.45112 85.5942 7.83088 85.0329 7.60034 84.1437C7.5331 83.5797 7.34648 83.0473 7.30806 82.4627C7.16809 80.3701 9.28681 78.3694 11.5428 78.3899C15.0392 78.4215 18.5356 78.3996 22.0321 78.3968C22.3518 78.3968 22.6715 78.4009 22.9913 78.3954C23.9765 78.379 24.2619 78.0922 24.3676 77.0918C24.5734 75.1391 23.9312 73.4293 23.0324 71.7333C21.7302 69.2729 20.3868 66.8344 19.1737 64.326C18.7168 63.3805 18.1885 62.4721 17.667 61.5609C16.7984 59.6673 16.2371 58.8782 13.8838 58.8974C10.4642 58.9263 7.04459 58.9331 3.62362 58.8878C3.07748 58.7932 2.43939 58.8728 2.21983 58.1551C0.596487 57.0724 0.494942 55.235 1.14675 54.0247C1.69015 53.0147 2.59034 52.4699 3.74987 52.4397C5.06721 52.4054 6.38729 52.4109 7.70463 52.3986C7.90086 52.1337 8.18354 52.0679 8.49092 52.0665C10.9074 52.05 13.3294 51.9595 15.7404 52.0981C17.5545 52.2023 19.1298 53.0929 20.6324 54.0782C21.6465 54.7423 22.4369 55.6027 23.0324 56.6511C24.3209 59.3668 25.7947 61.9891 27.156 64.669C28.026 66.3788 28.9001 68.0873 29.8085 69.7778C30.3093 70.711 30.286 70.7233 30.9488 69.9027C31.7392 68.0241 32.8315 66.3034 33.7509 64.492C34.319 63.3737 35.001 62.3198 35.4442 61.1328C36.4405 58.4693 36.1386 55.8799 34.8816 53.4415C33.0415 49.8696 31.1382 46.3292 29.3213 42.7436C28.8054 41.7268 28.1947 40.7607 27.7049 39.7302C27.6431 39.5037 27.4798 39.3336 27.3796 39.1305C26.7223 37.8008 25.6342 37.2204 24.1673 37.2286C21.1319 37.2437 18.0951 37.2341 15.0584 37.2327C14.4423 37.2327 13.8261 37.2355 13.21 37.2327C12.2193 37.2272 11.2066 37.3411 10.316 36.7442C9.93999 36.5315 9.5393 36.3531 9.19487 36.0979C7.90086 35.1414 7.59897 33.7816 7.91458 32.3201C8.21236 30.9397 9.18938 30.1081 10.5589 29.7513C10.6659 29.7239 10.762 29.6539 10.8635 29.6045C15.0241 29.6127 19.1833 29.6429 23.3439 29.6182C24.9714 29.6086 26.5741 29.6745 28.1303 30.1959H28.1206L28.1193 30.1918Z" fill="#EE457B"/>
<path d="M92.3849 69.2693C92.6538 69.7262 92.9228 70.1832 93.1904 70.6401C94.3595 71.7503 94.4926 72.376 93.8326 73.6837C93.6885 73.9692 93.5499 74.256 93.3948 74.5345C93.0175 75.2124 92.588 75.8574 92.1557 76.5009C91.8182 77.0018 91.3461 77.3119 90.7204 77.2776C89.6651 77.2213 88.5715 77.5246 87.5643 76.9689C86.6984 77.0183 86.1166 76.6409 85.7227 75.8601C85.3165 75.0519 84.8445 74.2752 84.3724 73.5026C84.0623 72.9935 83.9402 72.4625 84.0239 71.8779C83.9731 71.7105 83.9306 71.5595 84.0253 71.377C84.6359 70.201 85.1066 68.9413 86.1056 68.0041C86.2414 67.8765 86.3841 67.7722 86.579 67.7585C88.0281 67.5746 89.4826 67.5156 90.9399 67.5773C91.825 67.6144 92.4878 68.4185 92.3835 69.2707L92.3849 69.2693Z" fill="#EE457B"/>
<path d="M20.4595 103.178C19.5607 103.148 18.935 102.75 18.5 101.932C17.8056 100.627 17.0413 99.3578 16.2838 98.0871C15.6965 97.1033 15.6059 96.1825 16.2687 95.1574C17.0591 93.9361 17.7494 92.6463 18.441 91.3632C18.8952 90.5179 19.5044 90.0843 20.5089 90.1159C22.2214 90.1694 23.9367 90.1461 25.6506 90.1227C26.4383 90.1117 26.9941 90.426 27.4043 91.086C27.7996 91.7214 28.052 92.4418 28.5611 93.0085C29.5697 93.8483 30.1666 94.9639 30.6099 96.1633C30.791 96.6532 30.6071 97.1485 30.3958 97.6178C29.8497 98.8309 29.0167 99.8738 28.3827 101.035C28.0685 101.611 27.8339 102.235 27.3495 102.717C26.8527 103.21 26.2764 103.481 25.5807 103.49C24.1892 103.505 22.7978 103.501 21.405 103.492C21.0537 103.49 20.7367 103.402 20.4595 103.182V103.178Z" fill="#EE457B"/>
</svg>
