<svg width="105" height="114" viewBox="0 0 105 114" fill="none" xmlns="http://www.w3.org/2000/svg">
<g filter="url(#filter0_d_365_33)">
<path d="M93.5096 13.8304C94.2081 14.6002 94.9889 15.2959 95.594 16.1508C96.9759 17.5107 97.4054 19.2521 97.5646 21.0991C97.5769 21.2349 97.5687 21.3735 97.5714 21.5108C97.7622 34.6718 97.7059 47.8328 97.7018 60.9939C97.7018 62.3894 97.9213 63.7726 97.8445 65.1696C97.7539 66.8396 97.1543 68.22 95.7079 69.171C94.805 69.7652 93.806 69.7391 92.7974 69.7075C90.8063 69.241 89.6344 67.7933 89.6262 65.7143C89.6056 60.6659 89.6194 55.6161 89.6166 50.5677C89.6139 42.0612 89.6194 33.5562 89.6111 25.0497C89.6111 24.0206 89.3394 23.0147 89.2859 21.9883C89.3339 20.6023 88.4763 19.8106 87.395 19.2136C86.6896 18.8239 86.2547 19.1052 86.1929 19.9052C86.1668 20.2469 86.1819 20.59 86.1819 20.933C86.1819 40.1278 86.1586 59.3239 86.2176 78.5186C86.2231 80.4795 85.7195 82.1495 84.656 83.7139C83.8587 84.8871 83.0505 86.0617 82.4522 87.342C81.5314 89.3139 79.9863 89.882 77.9678 89.6076C77.1444 89.495 76.3183 89.4772 75.4923 89.6282C75.0326 89.7119 74.588 89.5047 74.1338 89.4992C72.9687 89.4868 71.8037 89.4484 70.6401 89.5239C69.8277 89.3208 69.2363 88.7925 68.7382 88.1599C68.4719 87.8223 68.2798 87.7743 68.0068 88.1379C67.1395 89.2906 65.9937 89.7187 64.546 89.6419C62.8417 89.5499 61.1291 89.6186 59.4194 89.6213C58.6454 89.6213 57.8728 89.6268 57.1017 89.5582C56.0835 89.5733 55.4303 88.9503 54.8334 88.245C54.4203 87.7578 54.1171 87.1925 53.8014 86.6408C52.9891 85.2206 52.0848 83.8538 51.2752 82.4322C50.9609 81.8792 50.6769 81.3111 50.563 80.6716C50.9376 77.7351 50.8649 74.7793 50.7565 71.8413C50.6069 67.8235 50.4779 63.7932 50.7043 59.7932C51.1187 52.4655 50.7729 45.1433 50.9253 37.8197C50.928 37.6838 50.9074 37.5439 50.9884 37.4204C51.551 35.8409 52.6351 34.9229 54.3256 34.7253C55.2835 34.6128 56.7696 35.351 57.3171 36.3089C57.5614 36.737 57.866 37.1555 57.8687 37.6866C58.1953 37.8458 58.3065 38.1216 58.3175 38.4688C58.3298 38.8804 58.3325 39.2907 58.3325 39.7024C58.3325 52.2926 58.3586 64.8828 58.3024 77.473C58.2941 79.1388 59.1271 80.319 59.9312 81.5759C60.1782 81.9615 60.6063 82.107 61.0797 82.026C62.0925 82.2181 62.7827 81.827 63.2671 80.92C63.5552 80.3793 63.8805 79.851 64.2112 79.331C64.524 78.8397 64.5144 78.2908 64.5144 77.7405C64.5144 70.8684 64.5144 63.9963 64.5144 57.1242C64.5144 56.7359 64.5035 56.3475 64.5268 55.9605C64.6146 54.5321 65.8441 52.8099 67.0723 52.3859C68.6105 51.8548 70.6538 52.5272 71.6143 53.8816C71.8792 54.2562 72.0878 54.6624 72.2469 55.0919C72.2744 55.8631 72.3334 56.6343 72.332 57.4069C72.3279 64.139 72.3595 70.8698 72.3073 77.602C72.295 79.228 73.0936 80.4164 73.9718 81.6116C74.2504 81.9903 74.6566 82.2181 75.1712 82.026C76.0851 82.1797 76.6189 81.7433 77.1403 81.0078C78.2395 79.4599 78.5537 77.7996 78.54 75.9196C78.4714 66.9425 78.4233 57.9626 78.5359 48.9855C78.6333 41.2105 78.6127 33.4354 78.6498 25.6604C78.6539 24.6779 78.4179 23.7173 78.4426 22.7375C78.5592 21.7619 78.5208 20.7794 78.4961 19.801C78.4782 19.0613 78.1064 18.8253 77.4038 19.0901C75.941 19.6431 75.1533 20.7697 75.1149 22.2806C75.0504 24.8549 74.99 27.4319 75.167 30.0076C75.2727 31.5541 75.2754 33.1102 75.1465 34.6567C74.9873 36.5668 72.8617 38.0283 71.1354 37.9871C70.7251 37.9775 70.4521 37.6303 70.0651 37.5686C68.192 36.9607 67.2877 35.2866 67.3234 33.4807C67.4016 29.5767 67.3659 25.67 67.3426 21.7646C67.3289 19.3605 68.1591 17.261 69.5725 15.3796C70.9914 13.4914 72.8452 12.1659 75.0929 11.4249C76.0672 11.1038 77.0731 10.8924 78.1091 10.9748C78.6621 11.0187 78.8776 10.8499 78.857 10.2585C78.8144 9.04955 78.9036 7.83375 78.8295 6.62756C78.7403 5.18535 79.7613 3.79117 81.2227 3.61278C82.4975 3.45772 83.8217 3.3054 84.9154 4.30575C85.3901 4.73938 85.6317 5.28827 85.8512 5.86186C86.2903 6.97337 86.1668 8.14113 86.186 9.2938C86.2025 10.2585 86.4276 10.5 87.3799 10.5988C87.8533 10.6482 88.3391 10.6578 88.7082 11.0297C88.7562 11.09 88.8084 11.1477 88.8633 11.2012C89.4547 11.3851 90.0077 11.7034 90.6321 11.7611C90.8571 11.7817 90.9079 11.9587 91.0547 12.0383C91.2811 12.181 91.6393 12.1069 91.7394 12.4568C92.3295 12.9137 92.9209 13.3693 93.511 13.8263L93.5096 13.8304Z" fill="#EE457B"/>
<path d="M33.1193 33.1918C34.4174 33.8299 35.7334 34.4364 36.8476 35.386C37.7107 35.9994 38.3145 36.846 38.9142 37.6955C40.2878 39.0663 40.9025 40.8927 41.7739 42.5531C43.6745 46.1745 45.5475 49.8095 47.4261 53.4418C48.5349 55.5852 49.0961 57.8686 49.1414 60.2906C49.173 61.9688 49.0193 63.6196 48.679 65.258C48.3483 66.8553 47.4357 68.1891 46.7263 69.619C45.6806 71.7253 44.528 73.7755 43.4521 75.8654C42.8882 76.9618 42.3379 78.0664 41.7135 79.1313C40.7667 80.7477 40.082 82.5097 39.0706 84.0864C36.8998 87.4744 33.863 89.519 29.7614 89.6C25.4664 89.6851 21.1672 89.6192 16.8707 89.6206C16.4343 89.6206 16.0048 89.5918 15.5836 89.4806C15.4409 89.4683 15.294 89.4806 15.1623 89.4065C14.8851 89.1746 14.5818 89.0072 14.2017 89.0456C13.4511 88.5942 12.8309 88.0329 12.6003 87.1437C12.5331 86.5797 12.3465 86.0473 12.3081 85.4627C12.1681 83.3701 14.2868 81.3694 16.5428 81.3899C20.0392 81.4215 23.5356 81.3996 27.0321 81.3968C27.3518 81.3968 27.6715 81.4009 27.9913 81.3954C28.9765 81.379 29.2619 81.0922 29.3676 80.0918C29.5734 78.1391 28.9312 76.4293 28.0324 74.7333C26.7302 72.2729 25.3868 69.8344 24.1737 67.326C23.7168 66.3805 23.1885 65.4721 22.667 64.5609C21.7984 62.6673 21.2371 61.8782 18.8838 61.8974C15.4642 61.9263 12.0446 61.9331 8.62362 61.8878C8.07748 61.7932 7.43939 61.8728 7.21983 61.1551C5.59649 60.0724 5.49494 58.235 6.14675 57.0247C6.69015 56.0147 7.59034 55.4699 8.74987 55.4397C10.0672 55.4054 11.3873 55.4109 12.7046 55.3986C12.9009 55.1337 13.1835 55.0679 13.4909 55.0665C15.9074 55.05 18.3294 54.9595 20.7404 55.0981C22.5545 55.2023 24.1298 56.0929 25.6324 57.0782C26.6465 57.7423 27.4369 58.6027 28.0324 59.6511C29.3209 62.3668 30.7947 64.9891 32.156 67.669C33.026 69.3788 33.9001 71.0873 34.8085 72.7778C35.3093 73.711 35.286 73.7233 35.9488 72.9027C36.7392 71.0241 37.8315 69.3034 38.7509 67.492C39.319 66.3737 40.001 65.3198 40.4442 64.1328C41.4405 61.4693 41.1386 58.8799 39.8816 56.4415C38.0415 52.8696 36.1382 49.3292 34.3213 45.7436C33.8054 44.7268 33.1947 43.7607 32.7049 42.7302C32.6431 42.5037 32.4798 42.3336 32.3796 42.1305C31.7223 40.8008 30.6342 40.2204 29.1673 40.2286C26.1319 40.2437 23.0951 40.2341 20.0584 40.2327C19.4423 40.2327 18.8261 40.2355 18.21 40.2327C17.2193 40.2272 16.2066 40.3411 15.316 39.7442C14.94 39.5315 14.5393 39.3531 14.1949 39.0979C12.9009 38.1414 12.599 36.7816 12.9146 35.3201C13.2124 33.9397 14.1894 33.1081 15.5589 32.7513C15.6659 32.7239 15.762 32.6539 15.8635 32.6045C20.0241 32.6127 24.1833 32.6429 28.3439 32.6182C29.9714 32.6086 31.5741 32.6745 33.1303 33.1959H33.1206L33.1193 33.1918Z" fill="#EE457B"/>
<path d="M97.3849 72.2693C97.6538 72.7262 97.9228 73.1832 98.1904 73.6401C99.3595 74.7503 99.4926 75.376 98.8326 76.6837C98.6885 76.9692 98.5499 77.256 98.3948 77.5345C98.0175 78.2124 97.588 78.8574 97.1557 79.5009C96.8182 80.0018 96.3461 80.3119 95.7204 80.2776C94.6651 80.2213 93.5715 80.5246 92.5643 79.9689C91.6984 80.0183 91.1166 79.6409 90.7227 78.8601C90.3165 78.0519 89.8445 77.2752 89.3724 76.5026C89.0623 75.9935 88.9402 75.4625 89.0239 74.8779C88.9731 74.7105 88.9306 74.5595 89.0253 74.377C89.6359 73.201 90.1066 71.9413 91.1056 71.0041C91.2414 70.8765 91.3841 70.7722 91.579 70.7585C93.0281 70.5746 94.4826 70.5156 95.9399 70.5773C96.825 70.6144 97.4878 71.4185 97.3835 72.2707L97.3849 72.2693Z" fill="#EE457B"/>
<path d="M25.4594 106.178C24.5606 106.148 23.9348 105.75 23.4998 104.932C22.8055 103.627 22.0412 102.358 21.2837 101.087C20.6964 100.103 20.6058 99.1825 21.2686 98.1574C22.059 96.9361 22.7492 95.6463 23.4408 94.3632C23.895 93.5179 24.5043 93.0843 25.5088 93.1159C27.2213 93.1694 28.9366 93.1461 30.6505 93.1227C31.4382 93.1117 31.9939 93.426 32.4042 94.086C32.7994 94.7214 33.0519 95.4418 33.561 96.0085C34.5696 96.8483 35.1665 97.9639 35.6098 99.1633C35.7909 99.6532 35.607 100.149 35.3957 100.618C34.8495 101.831 34.0166 102.874 33.3826 104.035C33.0684 104.611 32.8337 105.235 32.3493 105.717C31.8526 106.21 31.2763 106.481 30.5805 106.49C29.1891 106.505 27.7977 106.501 26.4048 106.492C26.0536 106.49 25.7366 106.402 25.4594 106.182V106.178Z" fill="#EE457B"/>
</g>
<defs>
<filter id="filter0_d_365_33" x="0.771484" y="0.5" width="103.457" height="113" filterUnits="userSpaceOnUse" color-interpolation-filters="sRGB">
<feFlood flood-opacity="0" result="BackgroundImageFix"/>
<feColorMatrix in="SourceAlpha" type="matrix" values="0 0 0 0 0 0 0 0 0 0 0 0 0 0 0 0 0 0 127 0" result="hardAlpha"/>
<feOffset dy="2"/>
<feGaussianBlur stdDeviation="2.5"/>
<feComposite in2="hardAlpha" operator="out"/>
<feColorMatrix type="matrix" values="0 0 0 0 0 0 0 0 0 0 0 0 0 0 0 0 0 0 0.25 0"/>
<feBlend mode="normal" in2="BackgroundImageFix" result="effect1_dropShadow_365_33"/>
<feBlend mode="normal" in="SourceGraphic" in2="effect1_dropShadow_365_33" result="shape"/>
</filter>
</defs>
</svg>
