<svg width="223" height="198" viewBox="0 0 223 198" fill="none" xmlns="http://www.w3.org/2000/svg">
<g filter="url(#filter0_d_211_1050)">
<g clip-path="url(#clip0_211_1050)">
<rect x="4" y="2" width="215" height="190" rx="30" fill="white"/>
<g filter="url(#filter1_d_211_1050)">
<path d="M152.51 36.8304C153.208 37.6002 153.989 38.2959 154.594 39.1508C155.976 40.5107 156.405 42.2521 156.565 44.0991C156.577 44.2349 156.569 44.3735 156.571 44.5108C156.762 57.6718 156.706 70.8328 156.702 83.9939C156.702 85.3894 156.921 86.7726 156.844 88.1696C156.754 89.8396 156.154 91.22 154.708 92.171C153.805 92.7652 152.806 92.7391 151.797 92.7075C149.806 92.241 148.634 90.7933 148.626 88.7143C148.606 83.6659 148.619 78.6161 148.617 73.5677C148.614 65.0612 148.619 56.5562 148.611 48.0497C148.611 47.0206 148.339 46.0147 148.286 44.9883C148.334 43.6023 147.476 42.8106 146.395 42.2136C145.69 41.8239 145.255 42.1052 145.193 42.9052C145.167 43.2469 145.182 43.59 145.182 43.933C145.182 63.1278 145.159 82.3239 145.218 101.519C145.223 103.48 144.719 105.15 143.656 106.714C142.859 107.887 142.05 109.062 141.452 110.342C140.531 112.314 138.986 112.882 136.968 112.608C136.144 112.495 135.318 112.477 134.492 112.628C134.033 112.712 133.588 112.505 133.134 112.499C131.969 112.487 130.804 112.448 129.64 112.524C128.828 112.321 128.236 111.792 127.738 111.16C127.472 110.822 127.28 110.774 127.007 111.138C126.14 112.291 124.994 112.719 123.546 112.642C121.842 112.55 120.129 112.619 118.419 112.621C117.645 112.621 116.873 112.627 116.102 112.558C115.083 112.573 114.43 111.95 113.833 111.245C113.42 110.758 113.117 110.192 112.801 109.641C111.989 108.221 111.085 106.854 110.275 105.432C109.961 104.879 109.677 104.311 109.563 103.672C109.938 100.735 109.865 97.7793 109.756 94.8413C109.607 90.8235 109.478 86.7932 109.704 82.7932C110.119 75.4655 109.773 68.1433 109.925 60.8197C109.928 60.6838 109.907 60.5439 109.988 60.4204C110.551 58.8409 111.635 57.9229 113.326 57.7253C114.283 57.6128 115.77 58.351 116.317 59.3089C116.561 59.737 116.866 60.1555 116.869 60.6866C117.195 60.8458 117.306 61.1216 117.317 61.4688C117.33 61.8804 117.333 62.2907 117.333 62.7024C117.333 75.2926 117.359 87.8828 117.302 100.473C117.294 102.139 118.127 103.319 118.931 104.576C119.178 104.962 119.606 105.107 120.08 105.026C121.092 105.218 121.783 104.827 122.267 103.92C122.555 103.379 122.88 102.851 123.211 102.331C123.524 101.84 123.514 101.291 123.514 100.741C123.514 93.8684 123.514 86.9963 123.514 80.1242C123.514 79.7359 123.503 79.3475 123.527 78.9605C123.615 77.5321 124.844 75.8099 126.072 75.3859C127.611 74.8548 129.654 75.5272 130.614 76.8816C130.879 77.2562 131.088 77.6624 131.247 78.0919C131.274 78.8631 131.333 79.6343 131.332 80.4069C131.328 87.139 131.359 93.8698 131.307 100.602C131.295 102.228 132.094 103.416 132.972 104.612C133.25 104.99 133.657 105.218 134.171 105.026C135.085 105.18 135.619 104.743 136.14 104.008C137.239 102.46 137.554 100.8 137.54 98.9196C137.471 89.9425 137.423 80.9626 137.536 71.9855C137.633 64.2105 137.613 56.4354 137.65 48.6604C137.654 47.6779 137.418 46.7173 137.443 45.7375C137.559 44.7619 137.521 43.7794 137.496 42.801C137.478 42.0613 137.106 41.8253 136.404 42.0901C134.941 42.6431 134.153 43.7697 134.115 45.2806C134.05 47.8549 133.99 50.4319 134.167 53.0076C134.273 54.5541 134.275 56.1102 134.146 57.6567C133.987 59.5668 131.862 61.0283 130.135 60.9871C129.725 60.9775 129.452 60.6303 129.065 60.5686C127.192 59.9607 126.288 58.2866 126.323 56.4807C126.402 52.5767 126.366 48.67 126.343 44.7646C126.329 42.3605 127.159 40.261 128.572 38.3796C129.991 36.4914 131.845 35.1659 134.093 34.4249C135.067 34.1038 136.073 33.8924 137.109 33.9748C137.662 34.0187 137.878 33.8499 137.857 33.2585C137.814 32.0495 137.904 30.8338 137.83 29.6276C137.74 28.1854 138.761 26.7912 140.223 26.6128C141.497 26.4577 142.822 26.3054 143.915 27.3058C144.39 27.7394 144.632 28.2883 144.851 28.8619C145.29 29.9734 145.167 31.1411 145.186 32.2938C145.203 33.2585 145.428 33.5 146.38 33.5988C146.853 33.6482 147.339 33.6578 147.708 34.0297C147.756 34.09 147.808 34.1477 147.863 34.2012C148.455 34.3851 149.008 34.7034 149.632 34.7611C149.857 34.7817 149.908 34.9587 150.055 35.0383C150.281 35.181 150.639 35.1069 150.739 35.4568C151.33 35.9137 151.921 36.3693 152.511 36.8263L152.51 36.8304Z" fill="#EE457B"/>
<path d="M92.1193 56.1918C93.4174 56.8299 94.7334 57.4364 95.8476 58.386C96.7107 58.9994 97.3145 59.846 97.9142 60.6955C99.2878 62.0663 99.9025 63.8927 100.774 65.5531C102.674 69.1745 104.548 72.8095 106.426 76.4418C107.535 78.5852 108.096 80.8686 108.141 83.2906C108.173 84.9688 108.019 86.6196 107.679 88.258C107.348 89.8553 106.436 91.1891 105.726 92.619C104.681 94.7253 103.528 96.7755 102.452 98.8654C101.888 99.9618 101.338 101.066 100.714 102.131C99.7667 103.748 99.082 105.51 98.0706 107.086C95.8998 110.474 92.863 112.519 88.7614 112.6C84.4664 112.685 80.1672 112.619 75.8707 112.621C75.4343 112.621 75.0048 112.592 74.5836 112.481C74.4409 112.468 74.294 112.481 74.1623 112.407C73.8851 112.175 73.5818 112.007 73.2017 112.046C72.4511 111.594 71.8309 111.033 71.6003 110.144C71.5331 109.58 71.3465 109.047 71.3081 108.463C71.1681 106.37 73.2868 104.369 75.5428 104.39C79.0392 104.422 82.5356 104.4 86.0321 104.397C86.3518 104.397 86.6715 104.401 86.9913 104.395C87.9765 104.379 88.2619 104.092 88.3676 103.092C88.5734 101.139 87.9312 99.4293 87.0324 97.7333C85.7302 95.2729 84.3868 92.8344 83.1737 90.326C82.7168 89.3805 82.1885 88.4721 81.667 87.5609C80.7984 85.6673 80.2371 84.8782 77.8838 84.8974C74.4642 84.9263 71.0446 84.9331 67.6236 84.8878C67.0775 84.7932 66.4394 84.8728 66.2198 84.1551C64.5965 83.0724 64.4949 81.235 65.1468 80.0247C65.6902 79.0147 66.5903 78.4699 67.7499 78.4397C69.0672 78.4054 70.3873 78.4109 71.7046 78.3986C71.9009 78.1337 72.1835 78.0679 72.4909 78.0665C74.9074 78.05 77.3294 77.9595 79.7404 78.0981C81.5545 78.2023 83.1298 79.0929 84.6324 80.0782C85.6465 80.7423 86.4369 81.6027 87.0324 82.6511C88.3209 85.3668 89.7947 87.9891 91.156 90.669C92.026 92.3788 92.9001 94.0873 93.8085 95.7778C94.3093 96.711 94.286 96.7233 94.9488 95.9027C95.7392 94.0241 96.8315 92.3034 97.7509 90.492C98.319 89.3737 99.001 88.3198 99.4442 87.1328C100.44 84.4693 100.139 81.8799 98.8816 79.4415C97.0415 75.8696 95.1382 72.3292 93.3213 68.7436C92.8054 67.7268 92.1947 66.7607 91.7049 65.7302C91.6431 65.5037 91.4798 65.3336 91.3796 65.1305C90.7223 63.8008 89.6342 63.2204 88.1673 63.2286C85.1319 63.2437 82.0951 63.2341 79.0584 63.2327C78.4423 63.2327 77.8261 63.2355 77.21 63.2327C76.2193 63.2272 75.2066 63.3411 74.316 62.7442C73.94 62.5315 73.5393 62.3531 73.1949 62.0979C71.9009 61.1414 71.599 59.7816 71.9146 58.3201C72.2124 56.9397 73.1894 56.1081 74.5589 55.7513C74.6659 55.7239 74.762 55.6539 74.8635 55.6045C79.0241 55.6127 83.1833 55.6429 87.3439 55.6182C88.9714 55.6086 90.5741 55.6745 92.1303 56.1959H92.1206L92.1193 56.1918Z" fill="#EE457B"/>
<path d="M156.385 95.2693C156.654 95.7262 156.923 96.1832 157.19 96.6401C158.36 97.7503 158.493 98.376 157.833 99.6837C157.689 99.9692 157.55 100.256 157.395 100.535C157.017 101.212 156.588 101.857 156.156 102.501C155.818 103.002 155.346 103.312 154.72 103.278C153.665 103.221 152.571 103.525 151.564 102.969C150.698 103.018 150.117 102.641 149.723 101.86C149.317 101.052 148.844 100.275 148.372 99.5026C148.062 98.9935 147.94 98.4625 148.024 97.8779C147.973 97.7105 147.931 97.5595 148.025 97.377C148.636 96.201 149.107 94.9413 150.106 94.0041C150.241 93.8765 150.384 93.7722 150.579 93.7585C152.028 93.5746 153.483 93.5156 154.94 93.5773C155.825 93.6144 156.488 94.4185 156.384 95.2707L156.385 95.2693Z" fill="#EE457B"/>
<path d="M84.4595 129.178C83.5607 129.148 82.935 128.75 82.5 127.932C81.8056 126.627 81.0413 125.358 80.2838 124.087C79.6965 123.103 79.6059 122.182 80.2687 121.157C81.0591 119.936 81.7494 118.646 82.441 117.363C82.8952 116.518 83.5044 116.084 84.5089 116.116C86.2214 116.169 87.9367 116.146 89.6506 116.123C90.4383 116.112 90.9941 116.426 91.4043 117.086C91.7996 117.721 92.052 118.442 92.5611 119.009C93.5697 119.848 94.1666 120.964 94.6099 122.163C94.791 122.653 94.6071 123.149 94.3958 123.618C93.8497 124.831 93.0167 125.874 92.3827 127.035C92.0685 127.611 91.8339 128.235 91.3495 128.717C90.8527 129.21 90.2764 129.481 89.5807 129.49C88.1892 129.505 86.7978 129.501 85.405 129.492C85.0537 129.49 84.7367 129.402 84.4595 129.182V129.178Z" fill="#EE457B"/>
</g>
<path d="M76.5488 157.953L77.3398 155.102H75.7188L74.957 157.953H76.5488ZM71.0215 157.953H73.0039L73.7754 155.102H71.7832L72.2227 153.461H74.2148L75.2793 149.525H77.2227L76.1582 153.461H77.7793L78.8145 149.525H80.7578L79.7227 153.461H81.6855L81.2461 155.102H79.2832L78.4922 157.953H80.4844L80.0449 159.594H78.0527L77.0078 163.5H75.0645L76.1094 159.594H74.5078L73.4434 163.5H71.5L72.5645 159.594H70.582L71.0215 157.953ZM83.2548 163.5V152.54H85.4548L85.8548 154.26H86.0148C86.2415 153.713 86.6348 153.26 87.1948 152.9C87.7548 152.527 88.4815 152.34 89.3748 152.34C90.2282 152.34 90.9348 152.493 91.4948 152.8C92.0548 153.093 92.4748 153.547 92.7548 154.16C93.0482 154.76 93.1948 155.52 93.1948 156.44V163.5H90.1948V157.04C90.1948 156.293 90.0415 155.76 89.7348 155.44C89.4415 155.107 89.0082 154.94 88.4348 154.94C87.9682 154.94 87.5682 155.067 87.2348 155.32C86.9148 155.573 86.6682 155.947 86.4948 156.44C86.3348 156.92 86.2548 157.527 86.2548 158.26V163.5H83.2548ZM83.553 151.02V149.76L85.573 148.92H92.713V151.02H83.553ZM90.153 149.8V147.54H92.713V149.8H90.153ZM102.446 163.7C101.499 163.7 100.733 163.52 100.146 163.16C99.5726 162.8 99.1659 162.34 98.9259 161.78H98.7659L98.4459 163.5H96.1659V152.54H99.1659V157.78C99.1659 158.54 99.2526 159.167 99.4259 159.66C99.5993 160.14 99.8526 160.5 100.186 160.74C100.519 160.98 100.919 161.1 101.386 161.1C101.946 161.1 102.373 160.933 102.666 160.6C102.959 160.267 103.106 159.733 103.106 159V152.54H106.106V159.66C106.106 160.527 105.966 161.26 105.686 161.86C105.419 162.46 105.013 162.92 104.466 163.24C103.919 163.547 103.246 163.7 102.446 163.7ZM109.816 163.5V158.9H108.676V157.06H112.516V161.22H112.656C113.096 161.22 113.469 161.1 113.776 160.86C114.096 160.62 114.336 160.267 114.496 159.8C114.656 159.32 114.736 158.72 114.736 158C114.736 157.173 114.616 156.52 114.376 156.04C114.149 155.547 113.809 155.193 113.356 154.98C112.902 154.767 112.342 154.66 111.676 154.66C110.982 154.66 110.356 154.76 109.796 154.96C109.236 155.147 108.736 155.373 108.296 155.64V153.14C108.736 152.913 109.289 152.713 109.956 152.54C110.622 152.367 111.389 152.28 112.256 152.28C113.549 152.28 114.596 152.487 115.396 152.9C116.209 153.313 116.809 153.94 117.196 154.78C117.582 155.62 117.776 156.673 117.776 157.94C117.776 159.127 117.596 160.14 117.236 160.98C116.889 161.807 116.316 162.433 115.516 162.86C114.729 163.287 113.676 163.5 112.356 163.5H109.816ZM113.864 168.72V166.94C113.864 166.607 113.717 166.44 113.424 166.44C113.357 166.44 113.291 166.447 113.224 166.46C113.157 166.473 113.091 166.493 113.024 166.52L112.884 165.08C113.071 165.013 113.331 164.947 113.664 164.88C113.984 164.813 114.311 164.78 114.644 164.78C115.297 164.78 115.757 164.907 116.024 165.16C116.291 165.427 116.424 165.787 116.424 166.24V168.72H113.864ZM120.908 163.5L119.308 152.54H122.268L122.768 157.02C122.808 157.353 122.848 157.8 122.888 158.36C122.941 158.92 122.968 159.553 122.968 160.26H123.028C123.121 159.953 123.208 159.673 123.288 159.42C123.368 159.153 123.448 158.907 123.528 158.68C123.608 158.44 123.688 158.207 123.768 157.98C123.848 157.753 123.928 157.527 124.008 157.3L124.928 154.76H126.628L127.548 157.3C127.654 157.593 127.761 157.893 127.868 158.2C127.974 158.493 128.081 158.807 128.188 159.14C128.294 159.473 128.401 159.847 128.508 160.26H128.588C128.614 159.66 128.648 159.08 128.688 158.52C128.741 157.947 128.794 157.453 128.848 157.04L129.108 155.34C129.228 154.553 129.141 154 128.848 153.68C128.568 153.36 128.061 153.2 127.328 153.2H126.088V151.24H127.688C128.608 151.24 129.234 151.06 129.568 150.7C129.901 150.34 130.068 149.88 130.068 149.32V149.22H132.928V149.32C132.928 150.067 132.761 150.713 132.428 151.26C132.094 151.807 131.534 152.153 130.748 152.3V152.38C131.134 152.527 131.428 152.747 131.628 153.04C131.841 153.333 131.974 153.66 132.028 154.02C132.081 154.367 132.081 154.713 132.028 155.06L130.708 163.5H127.588L126.568 160.32C126.474 160 126.381 159.693 126.288 159.4C126.208 159.107 126.128 158.793 126.048 158.46C125.968 158.113 125.888 157.72 125.808 157.28H125.728C125.648 157.733 125.568 158.14 125.488 158.5C125.408 158.847 125.321 159.167 125.228 159.46C125.148 159.753 125.054 160.047 124.948 160.34L123.888 163.5H120.908ZM137.167 163.5V156.26C137.167 155.7 137.034 155.293 136.767 155.04C136.514 154.787 136.094 154.66 135.507 154.66C135.067 154.66 134.661 154.72 134.287 154.84C133.927 154.96 133.587 155.107 133.267 155.28V152.88C133.561 152.747 133.974 152.613 134.507 152.48C135.041 152.347 135.667 152.28 136.387 152.28C137.121 152.28 137.767 152.387 138.327 152.6C138.901 152.813 139.347 153.173 139.667 153.68C140.001 154.173 140.167 154.853 140.167 155.72V163.5H137.167ZM147.899 163.5V157.08L148.619 157C148.592 157.72 148.292 158.28 147.719 158.68C147.159 159.08 146.432 159.28 145.539 159.28C144.872 159.28 144.252 159.153 143.679 158.9C143.119 158.633 142.665 158.233 142.319 157.7C141.985 157.167 141.819 156.493 141.819 155.68C141.819 154.64 142.112 153.827 142.699 153.24C143.285 152.64 144.099 152.34 145.139 152.34C145.325 152.34 145.545 152.353 145.799 152.38C146.052 152.407 146.319 152.473 146.599 152.58L146.379 154.48C146.245 154.44 146.132 154.413 146.039 154.4C145.945 154.387 145.865 154.38 145.799 154.38C145.479 154.38 145.205 154.48 144.979 154.68C144.752 154.88 144.639 155.193 144.639 155.62C144.639 156.047 144.772 156.387 145.039 156.64C145.319 156.893 145.719 157.02 146.239 157.02C146.812 157.02 147.232 156.873 147.499 156.58C147.765 156.273 147.899 155.807 147.899 155.18V152.54H150.899V163.5H147.899Z" fill="#F1678C"/>
</g>
</g>
<defs>
<filter id="filter0_d_211_1050" x="0" y="0" width="223" height="198" filterUnits="userSpaceOnUse" color-interpolation-filters="sRGB">
<feFlood flood-opacity="0" result="BackgroundImageFix"/>
<feColorMatrix in="SourceAlpha" type="matrix" values="0 0 0 0 0 0 0 0 0 0 0 0 0 0 0 0 0 0 127 0" result="hardAlpha"/>
<feOffset dy="2"/>
<feGaussianBlur stdDeviation="2"/>
<feComposite in2="hardAlpha" operator="out"/>
<feColorMatrix type="matrix" values="0 0 0 0 0 0 0 0 0 0 0 0 0 0 0 0 0 0 0.25 0"/>
<feBlend mode="normal" in2="BackgroundImageFix" result="effect1_dropShadow_211_1050"/>
<feBlend mode="normal" in="SourceGraphic" in2="effect1_dropShadow_211_1050" result="shape"/>
</filter>
<filter id="filter1_d_211_1050" x="59.7715" y="23.5" width="103.457" height="113" filterUnits="userSpaceOnUse" color-interpolation-filters="sRGB">
<feFlood flood-opacity="0" result="BackgroundImageFix"/>
<feColorMatrix in="SourceAlpha" type="matrix" values="0 0 0 0 0 0 0 0 0 0 0 0 0 0 0 0 0 0 127 0" result="hardAlpha"/>
<feOffset dy="2"/>
<feGaussianBlur stdDeviation="2.5"/>
<feComposite in2="hardAlpha" operator="out"/>
<feColorMatrix type="matrix" values="0 0 0 0 0 0 0 0 0 0 0 0 0 0 0 0 0 0 0.25 0"/>
<feBlend mode="normal" in2="BackgroundImageFix" result="effect1_dropShadow_211_1050"/>
<feBlend mode="normal" in="SourceGraphic" in2="effect1_dropShadow_211_1050" result="shape"/>
</filter>
<clipPath id="clip0_211_1050">
<rect x="4" y="2" width="215" height="190" rx="30" fill="white"/>
</clipPath>
</defs>
</svg>
