<svg width="223" height="198" viewBox="0 0 223 198" fill="none" xmlns="http://www.w3.org/2000/svg">
<g filter="url(#filter0_d_211_1077)">
<g clip-path="url(#clip0_211_1077)">
<rect x="4" y="2" width="215" height="190" rx="30" fill="white"/>
<g clip-path="url(#clip1_211_1077)">
<path d="M158 132.454H65L71.5678 124.68L151.17 124.549L158 132.454Z" fill="#ED1C24"/>
<path d="M125.011 123.612L93.8308 123.687L102.599 85.2721L115.351 85.1406L125.011 123.612Z" fill="#ED1C24"/>
<path d="M140.486 123.531L126.409 123.579L116.503 85.0547H122.228C128.314 97.8801 134.4 110.705 140.486 123.531Z" fill="#ED1C24"/>
<path d="M78.1248 123.628L92.2017 123.676L102.108 85.1523H96.3831L78.1248 123.628Z" fill="#ED1C24"/>
<path d="M108.938 23.5459C105.939 39.056 102.94 54.5663 99.9407 70.0767H118.155L108.938 23.5459Z" fill="#ED1C24"/>
<path d="M112.04 30.9111L119.409 70.0767H126.409C121.62 57.0214 116.83 43.9662 112.04 30.9111Z" fill="#ED1C24"/>
<path d="M106.074 30.9111C103.619 43.9662 101.162 57.0214 98.7061 70.0767H91.7058C96.4953 57.0214 101.285 43.9662 106.074 30.9111Z" fill="#ED1C24"/>
<path d="M114.16 74.2109H103.936V78.9144H114.16V74.2109Z" fill="#ED1C24"/>
<path d="M102.196 74.2109H96.7383V78.9144H102.196V74.2109Z" fill="#ED1C24"/>
<path d="M121.275 74.2109H115.818V78.9144H121.275V74.2109Z" fill="#ED1C24"/>
<path d="M114.332 72.3301H104.108V73.6097H114.332V72.3301Z" fill="#ED1C24"/>
<path d="M102.196 72.3301H96.7383V73.6097H102.196V72.3301Z" fill="#ED1C24"/>
<path d="M121.275 72.3301H115.818V73.6097H121.275V72.3301Z" fill="#ED1C24"/>
</g>
<path d="M84.166 160.907L84.957 158.056H83.3359L82.5742 160.907H84.166ZM78.6387 160.907H80.6211L81.3926 158.056H79.4004L79.8398 156.415H81.832L82.8965 152.479H84.8398L83.7754 156.415H85.3965L86.4316 152.479H88.375L87.3398 156.415H89.3027L88.8633 158.056H86.9004L86.1094 160.907H88.1016L87.6621 162.548H85.6699L84.625 166.454H82.6816L83.7266 162.548H82.125L81.0605 166.454H79.1172L80.1816 162.548H78.1992L78.6387 160.907ZM90.872 166.454V155.494H93.072L93.472 157.214H93.632C93.8587 156.667 94.252 156.214 94.812 155.854C95.372 155.481 96.0987 155.294 96.992 155.294C97.8454 155.294 98.552 155.447 99.112 155.754C99.672 156.047 100.092 156.501 100.372 157.114C100.665 157.714 100.812 158.474 100.812 159.394V166.454H97.812V159.994C97.812 159.247 97.6587 158.714 97.352 158.394C97.0587 158.061 96.6254 157.894 96.052 157.894C95.5854 157.894 95.1854 158.021 94.852 158.274C94.532 158.527 94.2854 158.901 94.112 159.394C93.952 159.874 93.872 160.481 93.872 161.214V166.454H90.872ZM91.1702 153.974V152.714L93.1902 151.874H100.33V153.974H91.1702ZM97.7702 152.754V150.494H100.33V152.754H97.7702ZM110.063 166.654C109.116 166.654 108.35 166.474 107.763 166.114C107.19 165.754 106.783 165.294 106.543 164.734H106.383L106.063 166.454H103.783V155.494H106.783V160.734C106.783 161.494 106.87 162.121 107.043 162.614C107.216 163.094 107.47 163.454 107.803 163.694C108.136 163.934 108.536 164.054 109.003 164.054C109.563 164.054 109.99 163.887 110.283 163.554C110.576 163.221 110.723 162.687 110.723 161.954V155.494H113.723V162.614C113.723 163.481 113.583 164.214 113.303 164.814C113.036 165.414 112.63 165.874 112.083 166.194C111.536 166.501 110.863 166.654 110.063 166.654ZM122.993 166.654C122.046 166.654 121.279 166.474 120.693 166.114C120.119 165.754 119.713 165.294 119.473 164.734H119.313L118.993 166.454H116.713V155.494H119.713V160.734C119.713 161.494 119.799 162.121 119.973 162.614C120.146 163.094 120.399 163.454 120.733 163.694C121.066 163.934 121.466 164.054 121.933 164.054C122.493 164.054 122.919 163.887 123.213 163.554C123.506 163.221 123.653 162.687 123.653 161.954V155.494H126.653V162.614C126.653 163.481 126.513 164.214 126.233 164.814C125.966 165.414 125.559 165.874 125.013 166.194C124.466 166.501 123.793 166.654 122.993 166.654ZM133.783 166.714C132.956 166.714 132.163 166.641 131.403 166.494C130.656 166.347 129.989 166.167 129.403 165.954V161.634H131.963V164.354C132.163 164.421 132.409 164.481 132.703 164.534C133.009 164.587 133.323 164.614 133.643 164.614C134.016 164.614 134.349 164.574 134.643 164.494C134.936 164.401 135.169 164.247 135.343 164.034C135.516 163.807 135.603 163.507 135.603 163.134C135.603 162.814 135.529 162.561 135.383 162.374C135.249 162.174 135.049 162.014 134.783 161.894C134.516 161.774 134.189 161.667 133.803 161.574C133.416 161.467 132.976 161.347 132.483 161.214C131.763 161.014 131.143 160.807 130.623 160.594C130.116 160.367 129.723 160.074 129.443 159.714C129.176 159.354 129.043 158.874 129.043 158.274C129.043 157.541 129.236 156.954 129.623 156.514C130.009 156.061 130.556 155.734 131.263 155.534C131.969 155.334 132.803 155.234 133.763 155.234C134.669 155.234 135.449 155.307 136.103 155.454C136.769 155.587 137.276 155.727 137.623 155.874V158.174C137.369 158.067 137.023 157.961 136.583 157.854C136.156 157.734 135.683 157.634 135.163 157.554C134.643 157.474 134.123 157.434 133.603 157.434C133.309 157.434 133.043 157.454 132.803 157.494C132.576 157.534 132.389 157.601 132.243 157.694C132.109 157.787 132.043 157.921 132.043 158.094C132.043 158.307 132.163 158.474 132.403 158.594C132.643 158.701 132.976 158.807 133.403 158.914C133.829 159.007 134.323 159.141 134.883 159.314C135.443 159.487 135.943 159.681 136.383 159.894C136.836 160.094 137.216 160.334 137.523 160.614C137.829 160.894 138.063 161.234 138.223 161.634C138.383 162.034 138.463 162.514 138.463 163.074C138.463 163.767 138.316 164.387 138.023 164.934C137.743 165.481 137.263 165.914 136.583 166.234C135.903 166.554 134.969 166.714 133.783 166.714ZM140.484 163.544H143.443V166.454H140.484V163.544Z" fill="#EC473F"/>
</g>
</g>
<defs>
<filter id="filter0_d_211_1077" x="0" y="0" width="223" height="198" filterUnits="userSpaceOnUse" color-interpolation-filters="sRGB">
<feFlood flood-opacity="0" result="BackgroundImageFix"/>
<feColorMatrix in="SourceAlpha" type="matrix" values="0 0 0 0 0 0 0 0 0 0 0 0 0 0 0 0 0 0 127 0" result="hardAlpha"/>
<feOffset dy="2"/>
<feGaussianBlur stdDeviation="2"/>
<feComposite in2="hardAlpha" operator="out"/>
<feColorMatrix type="matrix" values="0 0 0 0 0 0 0 0 0 0 0 0 0 0 0 0 0 0 0.25 0"/>
<feBlend mode="normal" in2="BackgroundImageFix" result="effect1_dropShadow_211_1077"/>
<feBlend mode="normal" in="SourceGraphic" in2="effect1_dropShadow_211_1077" result="shape"/>
</filter>
<clipPath id="clip0_211_1077">
<rect x="4" y="2" width="215" height="190" rx="30" fill="white"/>
</clipPath>
<clipPath id="clip1_211_1077">
<rect width="93.0001" height="108.908" fill="white" transform="translate(65 23.5459)"/>
</clipPath>
</defs>
</svg>
