<svg width="129" height="141" viewBox="0 0 129 141" fill="none" xmlns="http://www.w3.org/2000/svg">
<g filter="url(#filter0_d_183_51)">
<path d="M116.658 16.1386C117.546 17.1177 118.539 18.0026 119.309 19.0899C121.066 20.8194 121.613 23.0342 121.815 25.3833C121.831 25.5561 121.82 25.7323 121.824 25.9069C122.066 42.6457 121.995 59.3844 121.99 76.1232C121.99 77.8982 122.269 79.6574 122.171 81.4341C122.056 83.5581 121.293 85.3138 119.454 86.5232C118.305 87.2789 117.035 87.2458 115.752 87.2056C113.22 86.6123 111.729 84.771 111.719 82.1269C111.693 75.7061 111.71 69.2836 111.707 62.8628C111.703 52.0439 111.71 41.2268 111.7 30.4079C111.7 29.0989 111.354 27.8197 111.286 26.5142C111.347 24.7515 110.256 23.7445 108.881 22.9853C107.984 22.4896 107.431 22.8474 107.352 23.8649C107.319 24.2995 107.338 24.7358 107.338 25.1721C107.338 49.5848 107.309 73.9993 107.384 98.412C107.391 100.906 106.75 103.03 105.397 105.02C104.383 106.512 103.356 108.006 102.595 109.634C101.424 112.142 99.4584 112.864 96.8911 112.515C95.8439 112.372 94.7933 112.35 93.7426 112.542C93.158 112.648 92.5925 112.385 92.0148 112.378C90.5331 112.362 89.0514 112.313 87.5714 112.409C86.5382 112.151 85.786 111.479 85.1525 110.674C84.8139 110.245 84.5696 110.184 84.2222 110.646C83.1192 112.112 81.662 112.657 79.8207 112.559C77.6531 112.442 75.475 112.529 73.3004 112.533C72.3161 112.533 71.3335 112.54 70.3527 112.453C69.0577 112.472 68.2269 111.679 67.4677 110.782C66.9424 110.163 66.5567 109.444 66.1553 108.742C65.1221 106.936 63.972 105.198 62.9423 103.389C62.5426 102.686 62.1814 101.964 62.0365 101.15C62.513 97.4154 62.4205 93.6561 62.2826 89.9195C62.0923 84.8094 61.9283 79.6836 62.2163 74.5961C62.7433 65.2764 62.3035 55.9637 62.4973 46.6493C62.5007 46.4765 62.4746 46.2985 62.5775 46.1414C63.2931 44.1326 64.6718 42.965 66.822 42.7137C68.0402 42.5706 69.9303 43.5096 70.6267 44.7278C70.9373 45.2723 71.3248 45.8046 71.3283 46.48C71.7436 46.6824 71.885 47.0332 71.899 47.4748C71.9147 47.9984 71.9182 48.5202 71.9182 49.0438C71.9182 65.0565 71.9513 81.0693 71.8798 97.0821C71.8693 99.2008 72.9287 100.702 73.9514 102.3C74.2655 102.791 74.8101 102.976 75.4122 102.873C76.7002 103.117 77.578 102.62 78.1941 101.466C78.5606 100.779 78.9743 100.107 79.3949 99.4452C79.7928 98.8204 79.7806 98.1222 79.7806 97.4224C79.7806 88.6821 79.7806 79.9419 79.7806 71.2016C79.7806 70.7077 79.7666 70.2138 79.7963 69.7216C79.908 67.9048 81.4717 65.7145 83.0337 65.1752C84.9902 64.4998 87.5889 65.355 88.8105 67.0776C89.1474 67.554 89.4127 68.0706 89.6151 68.6169C89.65 69.5977 89.7251 70.5786 89.7233 71.5611C89.7181 80.1234 89.7582 88.6839 89.6919 97.2461C89.6762 99.3143 90.6919 100.826 91.8089 102.346C92.1632 102.827 92.6798 103.117 93.3343 102.873C94.4966 103.068 95.1755 102.513 95.8387 101.578C97.2367 99.6092 97.6363 97.4974 97.6189 95.1064C97.5316 83.6889 97.4705 72.268 97.6136 60.8505C97.7375 50.9618 97.7114 41.0732 97.7585 31.1845C97.7637 29.9349 97.4635 28.7132 97.495 27.4671C97.6433 26.2262 97.5944 24.9766 97.563 23.7323C97.5403 22.7916 97.0674 22.4914 96.1738 22.8282C94.3133 23.5316 93.3116 24.9644 93.2627 26.886C93.1807 30.1601 93.1039 33.4377 93.329 36.7135C93.4634 38.6804 93.4669 40.6596 93.3028 42.6265C93.1004 45.0559 90.397 46.9146 88.2014 46.8622C87.6796 46.85 87.3323 46.4084 86.8401 46.3299C84.4579 45.5568 83.3077 43.4275 83.3531 41.1308C83.4526 36.1655 83.4072 31.1968 83.3775 26.2297C83.3601 23.172 84.416 20.5018 86.2136 18.109C88.0182 15.7076 90.376 14.0216 93.2348 13.0792C94.4739 12.6708 95.7532 12.402 97.0709 12.5068C97.7742 12.5626 98.0482 12.3479 98.022 11.5957C97.9679 10.0582 98.0814 8.51186 97.9871 6.97777C97.8737 5.1435 99.1722 3.37032 101.031 3.14344C102.652 2.94622 104.336 2.7525 105.727 4.02479C106.331 4.5763 106.638 5.2744 106.918 6.00392C107.476 7.41758 107.319 8.9028 107.343 10.3688C107.364 11.5957 107.651 11.9029 108.862 12.0286C109.464 12.0914 110.082 12.1036 110.551 12.5766C110.612 12.6534 110.679 12.7267 110.748 12.7947C111.501 13.0286 112.204 13.4335 112.998 13.5068C113.284 13.533 113.349 13.7581 113.536 13.8593C113.824 14.0408 114.279 13.9466 114.407 14.3916C115.157 14.9728 115.909 15.5522 116.66 16.1334L116.658 16.1386Z" fill="#EE457B"/>
<path d="M39.8507 40.7636C41.5017 41.5751 43.1754 42.3465 44.5926 43.5542C45.6904 44.3344 46.4583 45.4112 47.221 46.4915C48.968 48.235 49.7498 50.558 50.8581 52.6697C53.2753 57.2755 55.6575 61.8987 58.0468 66.5184C59.457 69.2445 60.1708 72.1486 60.2284 75.229C60.2685 77.3634 60.0731 79.463 59.6402 81.5468C59.2196 83.5783 58.059 85.2747 57.1567 87.0933C55.8268 89.7722 54.3608 92.3797 52.9925 95.0377C52.2752 96.4321 51.5754 97.8371 50.7813 99.1914C49.5771 101.247 48.7062 103.488 47.4199 105.494C44.6589 109.803 40.7967 112.403 35.5801 112.506C30.1174 112.614 24.6495 112.53 19.1851 112.532C18.6301 112.532 18.0838 112.496 17.548 112.354C17.3665 112.338 17.1798 112.354 17.0122 112.26C16.6597 111.965 16.274 111.752 15.7906 111.801C14.8359 111.227 14.047 110.513 13.7538 109.382C13.6683 108.665 13.431 107.988 13.3821 107.244C13.2041 104.583 15.8988 102.038 18.768 102.064C23.2149 102.104 27.6618 102.076 32.1087 102.073C32.5154 102.073 32.922 102.078 33.3287 102.071C34.5818 102.05 34.9448 101.685 35.0792 100.413C35.341 97.9296 34.5242 95.755 33.381 93.5978C31.7248 90.4686 30.0162 87.3673 28.4734 84.1769C27.8922 82.9744 27.2203 81.8191 26.5571 80.6602C25.4523 78.2518 24.7385 77.2482 21.7454 77.2727C17.3962 77.3093 13.047 77.3181 8.69608 77.2605C8.00147 77.14 7.18992 77.2413 6.91068 76.3285C4.84603 74.9515 4.71689 72.6146 5.54588 71.0753C6.23701 69.7907 7.3819 69.0979 8.85664 69.0595C10.5321 69.0158 12.211 69.0228 13.8865 69.0071C14.1361 68.6703 14.4956 68.5865 14.8865 68.5848C17.9599 68.5638 21.0403 68.4486 24.1067 68.6249C26.414 68.7575 28.4175 69.8902 30.3286 71.1433C31.6183 71.988 32.6236 73.0823 33.381 74.4157C35.0198 77.8696 36.8943 81.2047 38.6255 84.6132C39.732 86.7878 40.8438 88.9607 41.9991 91.1108C42.6362 92.2976 42.6065 92.3133 43.4495 91.2697C44.4547 88.8804 45.844 86.6918 47.0133 84.3881C47.7358 82.9657 48.6032 81.6254 49.1669 80.1157C50.434 76.7282 50.05 73.4348 48.4514 70.3335C46.111 65.7906 43.6903 61.2878 41.3796 56.7275C40.7234 55.4342 39.9467 54.2056 39.3237 52.8949C39.2451 52.6069 39.0374 52.3905 38.91 52.1322C38.0741 50.441 36.6901 49.7028 34.8244 49.7133C30.9639 49.7325 27.1016 49.7203 23.2393 49.7185C22.4557 49.7185 21.6721 49.722 20.8885 49.7185C19.6284 49.7115 18.3404 49.8564 17.2077 49.0972C16.7295 48.8267 16.2199 48.5998 15.7818 48.2752C14.1361 47.0587 13.7521 45.3292 14.1535 43.4705C14.5322 41.7147 15.7749 40.6571 17.5166 40.2033C17.6528 40.1684 17.7749 40.0794 17.9041 40.0166C23.1957 40.0271 28.4856 40.0655 33.7772 40.0341C35.8471 40.0218 37.8856 40.1056 39.8647 40.7688H39.8525L39.8507 40.7636Z" fill="#EE457B"/>
<path d="M121.587 90.4642C121.929 91.0453 122.271 91.6265 122.611 92.2077C124.098 93.6196 124.267 94.4154 123.428 96.0787C123.245 96.4417 123.068 96.8064 122.871 97.1607C122.391 98.0229 121.845 98.8432 121.295 99.6617C120.866 100.299 120.265 100.693 119.47 100.65C118.127 100.578 116.736 100.964 115.455 100.257C114.354 100.32 113.614 99.8397 113.113 98.8467C112.597 97.8187 111.996 96.8309 111.396 95.8483C111.002 95.2008 110.846 94.5254 110.953 93.7819C110.888 93.569 110.834 93.377 110.954 93.1449C111.731 91.6492 112.33 90.0471 113.6 88.855C113.773 88.6927 113.954 88.5601 114.202 88.5426C116.045 88.3088 117.895 88.2337 119.749 88.3123C120.874 88.3594 121.717 89.3821 121.585 90.4659L121.587 90.4642Z" fill="#EE457B"/>
<path d="M30.1086 133.591C28.9655 133.552 28.1696 133.046 27.6164 132.006C26.7333 130.346 25.7612 128.732 24.7978 127.116C24.0508 125.865 23.9356 124.693 24.7786 123.39C25.7839 121.836 26.6617 120.196 27.5414 118.564C28.119 117.489 28.8939 116.937 30.1715 116.978C32.3495 117.046 34.5311 117.016 36.7109 116.986C37.7127 116.972 38.4196 117.372 38.9414 118.212C39.444 119.02 39.7652 119.936 40.4126 120.657C41.6954 121.725 42.4546 123.144 43.0183 124.669C43.2487 125.292 43.0148 125.922 42.7461 126.519C42.0514 128.062 40.9921 129.388 40.1858 130.865C39.7861 131.598 39.4877 132.392 38.8716 133.004C38.2398 133.631 37.5068 133.976 36.6219 133.987C34.8522 134.006 33.0826 134.001 31.3111 133.99C30.8643 133.987 30.4612 133.875 30.1086 133.596V133.591Z" fill="#EE457B"/>
</g>
<defs>
<filter id="filter0_d_183_51" x="0.0686035" y="0" width="128.863" height="141" filterUnits="userSpaceOnUse" color-interpolation-filters="sRGB">
<feFlood flood-opacity="0" result="BackgroundImageFix"/>
<feColorMatrix in="SourceAlpha" type="matrix" values="0 0 0 0 0 0 0 0 0 0 0 0 0 0 0 0 0 0 127 0" result="hardAlpha"/>
<feOffset dy="2"/>
<feGaussianBlur stdDeviation="2.5"/>
<feComposite in2="hardAlpha" operator="out"/>
<feColorMatrix type="matrix" values="0 0 0 0 0 0 0 0 0 0 0 0 0 0 0 0 0 0 0.25 0"/>
<feBlend mode="normal" in2="BackgroundImageFix" result="effect1_dropShadow_183_51"/>
<feBlend mode="normal" in="SourceGraphic" in2="effect1_dropShadow_183_51" result="shape"/>
</filter>
</defs>
</svg>
