<svg width="29" height="29" viewBox="0 0 29 29" fill="none" xmlns="http://www.w3.org/2000/svg">
<path d="M14.0507 28.5021C21.7828 28.5021 28.0509 22.233 28.0509 14.4996C28.0509 6.76621 21.7828 0.49707 14.0507 0.49707C6.31863 0.49707 0.0505371 6.76621 0.0505371 14.4996C0.0505371 22.233 6.31863 28.5021 14.0507 28.5021Z" fill="#000001"/>
<path d="M15.0271 17.4267C15.0271 17.4267 16.0024 17.3488 16.0024 18.4021L16.9777 17.4267C16.9777 17.4267 16.0024 17.5184 16.0024 16.4512L15.0271 17.4267Z" fill="white"/>
<path d="M6.24536 13.2714V9.88395C6.24536 9.74459 6.35799 9.63195 6.49732 9.63195H7.94405C8.08338 9.63195 8.196 9.74459 8.196 9.88395V13.2505C8.196 13.4015 8.07409 13.5234 7.92315 13.5234H6.49732C6.35799 13.5234 6.24536 13.4108 6.24536 13.2714Z" fill="white"/>
<path d="M12.0988 11.5679V9.63204H14.0494V11.583H12.1138C12.1057 11.583 12.0988 11.576 12.0988 11.5679Z" fill="white"/>
<path d="M10.1469 11.566V9.85073C10.1469 9.72879 10.2455 9.63008 10.3675 9.63008H12.0975V11.5811H10.1619C10.1538 11.5811 10.1469 11.5741 10.1469 11.566Z" fill="white"/>
<path d="M16.0013 9.9059V11.3238C16.0013 11.4667 15.8852 11.5828 15.7424 11.5828H14.0507V9.63184H15.7273C15.8783 9.63184 16.0013 9.75493 16.0013 9.9059Z" fill="white"/>
<path d="M6.24536 17.426V19.377H8.196V17.426H6.24536Z" fill="white"/>
<path d="M17.9279 11.3028V9.87562C17.9279 9.73394 18.0428 9.62013 18.1833 9.62013H18.9624C19.4686 9.62013 19.8797 10.0312 19.8797 10.5376V11.5723H18.1972C18.0486 11.5723 17.929 11.4515 17.929 11.304L17.9279 11.3028Z" fill="white"/>
<path d="M17.9279 19.3787V17.4278H19.8786V18.4334C19.8786 18.956 19.4548 19.3799 18.9323 19.3799H17.9268L17.9279 19.3787Z" fill="white"/>
<path d="M15.9758 13.254V11.8407C15.9758 11.6921 16.0966 11.5713 16.2452 11.5713H17.6583C17.8069 11.5713 17.9276 11.6921 17.9276 11.8407V13.2331C17.9276 13.3934 17.7976 13.5234 17.6374 13.5234H16.2452C16.0966 13.5234 15.9758 13.4027 15.9758 13.254Z" fill="white"/>
<path d="M10.1469 13.2703V11.5713H12.0976V13.5014C12.0976 13.513 12.0883 13.5234 12.0755 13.5234H10.3989C10.2595 13.5234 10.1458 13.4108 10.1458 13.2703H10.1469Z" fill="white"/>
<path d="M12.0988 19.3623V17.4113H13.7905C13.9333 17.4113 14.0494 17.5275 14.0494 17.6703V19.094C14.0494 19.2427 13.9286 19.3623 13.7812 19.3623H12.0988Z" fill="white"/>
<path d="M10.4221 17.415H12.0987V19.366H10.4442C10.2804 19.366 10.1481 19.2336 10.1481 19.0699V17.6891C10.1481 17.5381 10.2711 17.415 10.4221 17.415Z" fill="white"/>
<path d="M16.0027 19.0588V17.4701C16.0027 17.4457 16.0224 17.4248 16.048 17.4248H17.9092C17.9336 17.4248 17.9545 17.4446 17.9545 17.4701V19.3317C17.9545 19.356 17.9348 19.377 17.9092 19.377H16.3208C16.1455 19.377 16.0027 19.2341 16.0027 19.0588Z" fill="white"/>
<path d="M18.9032 9.62012V11.5712C20.5195 11.5712 21.8305 12.8824 21.8305 14.499C21.8305 16.1156 20.5195 17.4268 18.9032 17.4268V19.3779C21.5971 19.3779 23.7813 17.1934 23.7813 14.499C23.7813 11.8046 21.5971 9.62012 18.9032 9.62012Z" fill="white"/>
<path d="M6.24542 17.4202V15.7491C6.24542 15.5969 6.36966 15.4727 6.52176 15.4727H7.8965C8.06138 15.4727 8.19607 15.6074 8.19607 15.7723V17.4202C8.19607 17.4202 8.19374 17.4248 8.19142 17.4248H6.24891C6.24891 17.4248 6.24426 17.4225 6.24426 17.4202H6.24542Z" fill="white"/>
<path d="M8.19617 13.7756V15.2226C8.19617 15.3618 8.30897 15.4746 8.44812 15.4746H9.89485C10.034 15.4746 10.1468 15.3618 10.1468 15.2226V13.7756C10.1468 13.6365 10.034 13.5236 9.89485 13.5236H8.44812C8.30897 13.5236 8.19617 13.6365 8.19617 13.7756Z" fill="white"/>
<path d="M8.1959 14.499C8.1959 14.499 8.2737 15.4745 7.22058 15.4745L8.1959 16.45C8.1959 16.45 8.10418 15.4745 9.17122 15.4745L8.1959 14.499Z" fill="white"/>
<path d="M12.0998 10.6084C12.0998 10.6084 12.1776 11.5839 11.1245 11.5839L12.0998 12.5594C12.0998 12.5594 12.0081 11.5839 13.0752 11.5839L12.0998 10.6084Z" fill="white"/>
<path d="M14.0506 16.4502C14.0506 16.4502 14.1284 17.4257 13.0753 17.4257L14.0506 18.4012C14.0506 18.4012 13.9589 17.4257 15.026 17.4257L14.0506 16.4502Z" fill="white"/>
<path d="M17.9277 10.6084C17.9277 10.6084 18.0055 11.5839 16.9524 11.5839L17.9277 12.5594C17.9277 12.5594 17.836 11.5839 18.903 11.5839L17.9277 10.6084Z" fill="white"/>
<path d="M16.0024 10.6084C16.0024 10.6084 15.9246 11.5839 16.9777 11.5839L16.0024 12.5594C16.0024 12.5594 16.0941 11.5839 15.0271 11.5839L16.0024 10.6084Z" fill="white"/>
<path d="M12.0987 12.5479C12.0987 12.5479 12.0209 13.5233 13.0741 13.5233L12.0987 14.4988C12.0987 14.4988 12.1905 13.5233 11.1234 13.5233L12.0987 12.5479Z" fill="white"/>
<path d="M8.1959 12.5479C8.1959 12.5479 8.11811 13.5233 9.17122 13.5233L8.1959 14.4988C8.1959 14.4988 8.28763 13.5233 7.22058 13.5233L8.1959 12.5479Z" fill="white"/>
<path d="M14.0496 17.0578V16.2368C14.0496 15.8153 14.3909 15.4738 14.8124 15.4738H16.0002V17.4248H14.4165C14.2133 17.4248 14.0496 17.2599 14.0496 17.0578Z" fill="white"/>
<path d="M12.0988 13.7849V15.2133C12.0988 15.3576 12.2157 15.4746 12.36 15.4746H13.7882C13.9324 15.4746 14.0494 15.3576 14.0494 15.2133V13.7849C14.0494 13.6406 13.9324 13.5236 13.7882 13.5236H12.36C12.2157 13.5236 12.0988 13.6406 12.0988 13.7849Z" fill="white"/>
<path d="M14.0495 14.499C14.0495 14.499 13.9717 15.4745 15.0249 15.4745L14.0495 16.45C14.0495 16.45 14.1413 15.4745 13.0742 15.4745L14.0495 14.499Z" fill="white"/>
<path d="M16.0026 17.4258V15.4748H17.93C17.9428 15.4748 17.9532 15.4853 17.9532 15.498V17.4258H16.0026Z" fill="#0090FF"/>
<path d="M17.9543 13.7964V15.2038C17.9543 15.3539 18.076 15.4756 18.226 15.4756H19.6333C19.7833 15.4756 19.905 15.3539 19.905 15.2038V13.7964C19.905 13.6463 19.7833 13.5246 19.6333 13.5246H18.226C18.076 13.5246 17.9543 13.6463 17.9543 13.7964Z" fill="#0090FF"/>
<path d="M17.9531 14.499C17.9531 14.499 18.0309 15.4745 16.9778 15.4745L17.9531 16.45C17.9531 16.45 17.8614 15.4745 18.9284 15.4745L17.9531 14.499Z" fill="#0090FF"/>
<path d="M6.24426 11.584V9.88734C6.24426 9.74682 6.35805 9.63185 6.4997 9.63185H7.94063C8.08112 9.63185 8.19607 9.74566 8.19607 9.88734V11.584H6.24542H6.24426Z" fill="#D83273"/>
</svg>
