<svg width="59" height="42" viewBox="0 0 59 42" fill="none" xmlns="http://www.w3.org/2000/svg">
<path d="M29.3994 28.8394C33.8814 28.8394 37.5148 25.2096 37.5148 20.732C37.5148 16.2543 33.8814 12.6245 29.3994 12.6245C24.9173 12.6245 21.2839 16.2543 21.2839 20.732C21.2839 25.2096 24.9173 28.8394 29.3994 28.8394Z" fill="white"/>
<path d="M21.2839 20.7315C21.2839 16.2614 24.9244 12.6245 29.3994 12.6245C33.8743 12.6245 37.5143 16.2614 37.5143 20.7315C37.5143 25.2016 33.8738 28.839 29.3994 28.839C24.9249 28.839 21.2839 25.2021 21.2839 20.7315Z" fill="white"/>
<path d="M49.1342 41.9983C48.799 41.9981 48.4714 41.8988 48.1926 41.7129C47.9138 41.5269 47.6964 41.2627 47.5677 40.9535C47.439 40.6443 47.4048 40.304 47.4695 39.9754C47.5341 39.6469 47.6947 39.3448 47.9309 39.1072C52.7502 34.2692 55.4058 27.8566 55.4058 21.0526C55.4058 14.1947 52.7158 7.74687 47.8313 2.89797C47.512 2.58096 47.3319 2.15026 47.3306 1.70059C47.3292 1.25093 47.5067 0.819139 47.824 0.500217C48.1413 0.181296 48.5725 0.00136574 49.0226 7.7427e-06C49.4727 -0.00135025 49.9049 0.175976 50.2241 0.492977C55.7542 5.98363 58.7998 13.285 58.7998 21.0526C58.7998 28.7591 55.7949 36.0207 50.3392 41.4991C50.1813 41.6577 49.9936 41.7836 49.7867 41.8692C49.5799 41.9549 49.3581 41.9988 49.1342 41.9983Z" fill="white"/>
<path d="M44.3894 37.6816C44.0542 37.6817 43.7264 37.5827 43.4475 37.3969C43.1686 37.2112 42.951 36.9471 42.8221 36.6379C42.6933 36.3288 42.659 35.9884 42.7235 35.6598C42.788 35.3312 42.9486 35.029 43.1848 34.7914C46.8497 31.1066 48.868 26.2278 48.868 21.0526C48.868 15.8267 46.8144 10.9122 43.0856 7.21551C42.766 6.89881 42.5855 6.46827 42.5838 6.01861C42.582 5.56894 42.7591 5.13698 43.0761 4.81776C43.3931 4.49854 43.824 4.3182 44.2742 4.31642C44.7243 4.31464 45.1566 4.49156 45.4762 4.80826C49.8524 9.14665 52.262 14.9156 52.262 21.0526C52.262 27.1289 49.8936 32.8567 45.5935 37.181C45.4359 37.3398 45.2483 37.4659 45.0416 37.5518C44.8349 37.6377 44.6132 37.6818 44.3894 37.6816Z" fill="white"/>
<path d="M39.7531 32.839C39.4181 32.8391 39.0906 32.7401 38.8119 32.5545C38.5331 32.3689 38.3156 32.1051 38.1867 31.7962C38.0579 31.4873 38.0234 31.1472 38.0877 30.8188C38.152 30.4904 38.3122 30.1883 38.548 29.9507C40.9164 27.5611 42.2216 24.4007 42.2216 21.0526C42.2216 17.6555 40.8825 14.4617 38.452 12.0599C38.2936 11.9034 38.1676 11.7172 38.0812 11.512C37.9947 11.3069 37.9496 11.0867 37.9484 10.8641C37.9471 10.6415 37.9898 10.4209 38.0739 10.2148C38.158 10.0086 38.282 9.82109 38.4386 9.66282C38.5953 9.50455 38.7817 9.37866 38.987 9.29233C39.1924 9.206 39.4128 9.16093 39.6356 9.15969C39.8584 9.15845 40.0793 9.20107 40.2856 9.2851C40.4919 9.36914 40.6796 9.49295 40.8381 9.64947C43.9186 12.6926 45.6156 16.7427 45.6156 21.0544C45.6156 25.3023 43.9616 29.3094 40.9586 32.3385C40.8008 32.4975 40.613 32.6236 40.4061 32.7095C40.1991 32.7955 39.9772 32.8395 39.7531 32.839Z" fill="white"/>
<path d="M9.6643 41.9983C9.44079 41.9988 9.2194 41.955 9.01289 41.8696C8.80638 41.7841 8.61884 41.6587 8.46108 41.5005C3.00489 36.0216 0 28.7605 0 21.054C0 13.2878 3.04612 5.98594 8.57615 0.494376C8.89689 0.184751 9.32673 0.013681 9.77272 0.0181519C10.2187 0.0226228 10.645 0.202275 10.9595 0.518267C11.2739 0.83426 11.4513 1.2612 11.4531 1.70677C11.455 2.15235 11.2813 2.58076 10.9695 2.89937C6.08408 7.74963 3.39404 14.197 3.39404 21.054C3.39404 27.858 6.04829 34.2692 10.8689 39.1086C11.1054 39.3461 11.2661 39.6482 11.3309 39.9768C11.3956 40.3055 11.3615 40.6459 11.2328 40.9552C11.1041 41.2645 10.8865 41.5288 10.6076 41.7147C10.3287 41.9005 10.0009 41.9997 9.66566 41.9997L9.6643 41.9983Z" fill="white"/>
<path d="M14.4098 37.6827C14.186 37.6828 13.9643 37.6387 13.7576 37.5527C13.5509 37.4668 13.3634 37.3409 13.2057 37.1822C8.90559 32.8569 6.53674 27.1291 6.53674 21.0528C6.53674 14.9159 8.94636 9.14687 13.3225 4.80847C13.6436 4.49903 14.0736 4.32827 14.5197 4.33311C14.9657 4.33795 15.3919 4.51801 15.7061 4.83435C16.0203 5.15068 16.1973 5.57786 16.1987 6.02351C16.2001 6.46915 16.0258 6.89743 15.7136 7.21572C11.9848 10.9124 9.93078 15.8269 9.93078 21.0528C9.93078 26.2271 11.9494 31.1068 15.6139 34.7926C15.8501 35.0301 16.0107 35.3322 16.0752 35.6608C16.1398 35.9894 16.1055 36.3297 15.9767 36.6388C15.8479 36.948 15.6304 37.2121 15.3515 37.3978C15.0727 37.5836 14.745 37.6827 14.4098 37.6827Z" fill="white"/>
<path d="M19.0464 32.8395C18.8222 32.8398 18.6001 32.7956 18.3932 32.7093C18.1862 32.6231 17.9985 32.4966 17.8409 32.3372C14.8383 29.3081 13.1843 25.301 13.1843 21.0531C13.1843 16.7432 14.8813 12.6931 17.9614 9.64817C18.119 9.48783 18.307 9.36038 18.5143 9.27325C18.7217 9.18612 18.9443 9.14104 19.1692 9.14063C19.3942 9.14022 19.6169 9.18449 19.8246 9.27087C20.0322 9.35724 20.2206 9.484 20.3788 9.64377C20.537 9.80353 20.6618 9.99312 20.746 10.2015C20.8302 10.4099 20.8721 10.6329 20.8692 10.8576C20.8663 11.0823 20.8188 11.3042 20.7293 11.5104C20.6398 11.7166 20.5102 11.9029 20.348 12.0586C17.9175 14.4604 16.5784 17.6542 16.5784 21.0513C16.5784 24.4003 17.8831 27.5598 20.2519 29.9494C20.4878 30.187 20.648 30.4891 20.7123 30.8176C20.7766 31.1461 20.7421 31.4862 20.6131 31.7951C20.4842 32.104 20.2666 32.3679 19.9878 32.5534C19.709 32.739 19.3814 32.8379 19.0464 32.8377V32.8395Z" fill="white"/>
</svg>
