<svg width="102" height="156" viewBox="0 0 102 156" fill="none" xmlns="http://www.w3.org/2000/svg">
<g filter="url(#filter0_d_179_133)">
<path d="M50.6145 4.00128C65.3905 3.85608 77.8386 16.1009 77.7467 31.24C77.6596 45.958 65.86 58.0528 51.0307 58.1738C35.7126 58.2996 23.5597 46.2242 23.5258 31.1771C23.4968 15.9122 36.0223 3.88028 50.6145 4.00128ZM66.2907 45.5853C67.0167 45.5853 67.5927 45.5175 68.1444 45.5998C69.2527 45.7644 69.911 45.2659 70.4917 44.3705C73.0617 40.426 74.3975 36.1137 74.533 31.4142C74.5524 30.7899 74.3636 30.3785 73.8458 29.9961C72.2631 28.8297 70.545 27.8376 69.1656 26.405C68.822 26.0468 68.3961 26.1726 68.0283 26.2888C65.3857 27.1358 62.7577 28.0118 60.1199 28.8733C59.7618 28.9894 59.4956 29.1298 59.4278 29.5847C58.9922 32.3386 58.0243 34.9328 56.9208 37.4785C56.7514 37.8657 56.7756 38.1561 57.0127 38.4756C58.6922 40.7696 60.3764 43.0637 62.0414 45.3675C62.2833 45.7015 62.5544 45.8563 62.9609 45.7595C64.1128 45.4885 65.2841 45.624 66.2859 45.5853H66.2907ZM51.4324 17.0689C51.4324 17.0689 51.4324 17.0689 51.4372 17.0689C51.4372 18.4386 51.4566 19.8034 51.4276 21.1731C51.4179 21.7684 51.6502 22.0733 52.1874 22.3734C54.4379 23.6269 56.4852 25.1805 58.4163 26.8696C58.9003 27.2907 59.2536 27.4794 59.8828 27.2616C62.506 26.3566 65.1389 25.4951 67.7717 24.6287C68.1299 24.5126 68.4445 24.4351 68.4687 23.9512C68.5461 22.0636 69.4028 20.3842 69.9739 18.637C70.2304 17.8529 70.1626 17.2964 69.6641 16.6575C66.7409 12.9163 63.0577 10.2447 58.6196 8.57978C57.821 8.27971 57.1918 8.34263 56.5046 8.87985C55.1494 9.94946 53.8088 11.0675 52.2552 11.8322C51.6405 12.1322 51.4082 12.442 51.4227 13.0905C51.4518 14.4166 51.4324 15.7476 51.4324 17.0737V17.0689ZM50.5757 54.9988C53.0489 54.9698 55.4592 54.5874 57.8162 53.8179C58.3002 53.6582 58.6196 53.4355 58.818 52.9032C59.5198 51.0253 59.8392 49.0022 60.8992 47.255C61.1218 46.8872 60.8701 46.6404 60.691 46.3887C59.0455 44.1043 57.3806 41.8296 55.7544 39.5306C55.3769 38.9983 54.9461 39.0225 54.3895 39.0805C51.9019 39.3274 49.4045 39.3274 46.9217 39.0805C46.215 39.0079 45.8036 39.1483 45.4019 39.7097C43.8387 41.907 42.2367 44.0753 40.6492 46.258C40.4411 46.5484 40.2088 46.8195 40.4314 47.2357C41.3752 48.9829 41.7527 50.9382 42.4206 52.7918C42.6142 53.3291 42.8755 53.663 43.4466 53.8469C45.7649 54.5923 48.1365 54.9698 50.5709 55.0085L50.5757 54.9988ZM32.8812 26.1968C32.5812 26.1194 32.344 26.1968 32.1165 26.4243C30.7565 27.823 29.0626 28.7862 27.5187 29.9477C27.0202 30.3204 26.7733 30.7269 26.7879 31.361C26.904 36.2008 28.2398 40.639 31.0324 44.6318C31.497 45.2949 31.9907 45.595 32.8086 45.6047C34.6962 45.6337 36.5983 45.382 38.4713 45.7934C38.9262 45.895 39.1198 45.5611 39.3328 45.2707C40.9444 43.0589 42.5609 40.8422 44.1678 38.6256C44.4098 38.2965 44.6179 37.9819 44.3807 37.5269C43.3063 35.4748 42.5706 33.2582 42.1738 31.027C41.8447 29.1734 40.8089 28.6749 39.3231 28.2441C37.1597 27.6198 35.0253 26.8841 32.8764 26.192L32.8812 26.1968ZM49.8256 17.0882C49.8256 15.7621 49.8256 14.4312 49.8256 13.105C49.8256 12.6598 49.8449 12.2 49.3319 11.9774C47.5702 11.2175 46.2054 9.87202 44.6566 8.79757C44.1678 8.45878 43.7612 8.22647 43.1224 8.44426C38.4471 10.0269 34.6671 12.8292 31.6326 16.7011C31.1147 17.3593 31.1244 17.9594 31.3664 18.7048C31.9181 20.4229 32.6296 22.1023 32.9006 23.8979C32.978 24.4061 33.2636 24.5561 33.6605 24.6868C36.3321 25.5628 39.0085 26.4388 41.6753 27.3294C42.0673 27.46 42.3432 27.3971 42.6481 27.1019C44.5792 25.2047 46.8345 23.7382 49.1335 22.3395C49.6659 22.0152 49.8401 21.6425 49.8352 21.0714C49.8207 19.7453 49.8352 18.4144 49.8352 17.0882H49.8256Z" fill="#EEFBFA"/>
<path d="M88.3752 95.0006C88.3268 95.2184 88.2735 95.4362 88.2251 95.654C86.928 101.805 82.0737 104.506 77.6646 104.496C61.9012 104.467 46.1426 104.482 30.3792 104.472C28.5885 104.472 26.8897 104.08 25.2248 103.374C23.4727 102.633 22.1611 101.341 20.7431 100.16L20.7285 100.145C18.3183 96.9366 17.5972 93.297 17.752 89.3477C17.8875 85.892 17.8053 82.4218 17.7569 78.9613C17.7181 76.0961 16.1258 74.2667 13.6236 73.1148C12.0555 72.3937 10.3761 72.6744 8.74022 72.6502C6.37837 72.6115 6.33481 72.5776 6.58165 70.2012C6.63489 69.664 6.8188 69.4026 7.38506 69.393C10.8165 69.3349 14.2673 69.1268 17.2438 71.3531C17.2632 71.4354 17.3164 71.4789 17.4036 71.4838C17.51 71.5564 17.6117 71.6338 17.7181 71.7064L17.723 71.7161C17.7956 71.7935 17.8682 71.871 17.9408 71.9484C20.4285 74.4603 21.2464 77.5142 21.1109 80.9892C20.9754 84.4885 21.0722 87.9973 21.0818 91.5062C21.0964 97.2415 25.0747 101.22 30.8196 101.225C46.2491 101.225 61.6834 101.234 77.1128 101.225C81.1928 101.225 83.7579 99.371 84.8275 95.7701C84.9921 95.2136 84.9969 94.657 84.9969 94.0956C85.0066 89.7445 84.9969 85.3935 85.0115 81.0425C85.0211 78.5499 86.7345 76.3188 89.0915 75.6557C91.4824 74.983 94.062 75.9316 95.3591 77.9547C96.7723 80.1616 96.5932 82.8429 94.9186 84.7982C94.4927 85.2967 93.9507 85.6403 93.4086 85.9888C92.6536 86.4728 91.5356 87.0584 90.9984 86.6857C90.2966 86.1969 90.7757 84.9676 90.7225 84.0577C90.6886 83.4382 91.2404 83.4237 91.6227 83.2543C92.6294 82.7993 93.0795 81.9862 93.0021 80.9263C92.9246 79.8761 92.4164 79.1017 91.2887 78.8936C89.7352 78.5258 88.7962 79.092 88.409 80.6408C88.23 84.7159 88.2929 88.7911 88.3848 92.8711C88.2784 93.418 88.2687 93.9649 88.3752 94.5118C88.2542 94.6763 88.2445 94.8361 88.3752 95.0006Z" fill="#EEFBFA"/>
<path d="M27.1219 83.5778C27.1219 86.5591 27.1074 89.5453 27.1268 92.5267C27.1365 94.0609 27.8624 94.9756 29.0095 95.0143C30.1807 95.0482 30.9357 94.0899 30.9454 92.4734C30.9648 89.2065 30.9987 85.9396 30.9454 82.6776C30.9309 81.6515 31.1584 81.245 32.2812 81.2934C34.1784 81.3756 34.1833 81.2982 34.1833 83.1761C34.1833 86.3607 34.1688 89.5453 34.1688 92.7299C34.1688 94.0464 34.9383 94.9659 36.0224 94.9708C37.2421 94.9805 37.9971 94.1674 38.0019 92.7444C38.0164 88.8726 37.9826 85.0055 38.0261 81.1336C38.0358 80.2673 37.7357 79.9769 36.9226 80.006C35.7514 80.0447 34.5947 80.006 33.5154 79.4058C31.2455 78.1426 30.1468 75.5726 30.868 73.1334C31.531 70.8877 33.8542 69.2857 36.2354 69.426C38.7666 69.5761 40.7703 71.3862 41.2011 73.9174C41.2591 74.2756 41.235 74.6434 41.293 75.0015C41.414 75.742 40.7945 76.8697 42.4062 76.7971C44.3276 76.71 45.0439 76.2938 45.0923 74.7983C45.1359 73.5109 45.1214 72.2186 45.0875 70.9312C45.0633 70.1327 45.3198 69.7648 46.191 69.7842C48.9787 69.8374 48.4173 69.6003 48.456 72.0105C48.4705 72.8962 48.4754 73.7867 48.456 74.6724C48.4076 77.7748 46.1861 79.9866 43.0886 80.0108C41.172 80.0253 41.293 79.7882 41.2882 81.8596C41.2785 85.5669 41.3221 89.2791 41.2543 92.9864C41.2011 95.8904 39.4974 97.7827 36.7097 98.2183C35.4513 98.4168 34.3091 98.0683 33.2589 97.3955C32.8184 97.1148 32.5135 97.018 31.9811 97.3326C28.0318 99.6558 23.8308 97.2407 23.8163 92.6477C23.797 86.9221 23.7921 81.1966 23.8308 75.471C23.8405 74.1885 23.6276 73.1721 22.2772 72.6687C21.8175 72.4993 21.4883 70.2778 21.8659 69.7745C22.3208 69.1695 22.9597 69.5035 23.5066 69.6826C25.5732 70.3698 27.0106 72.1896 27.059 74.382C27.1268 77.4457 27.0735 80.5093 27.0735 83.5729C27.0881 83.5729 27.0977 83.5729 27.1123 83.5729L27.1219 83.5778ZM36.7387 76.7536C37.0291 76.4971 37.939 77.2472 37.9874 76.1631C38.0213 75.4855 38.0794 74.7983 37.8761 74.1304C37.4163 72.6058 35.6449 72.1557 34.5221 73.2786C33.9171 73.8787 33.7622 74.6047 34.0671 75.3791C34.5124 76.5213 35.4368 76.8746 36.7387 76.7536Z" fill="#EEFBFA"/>
<path d="M61.9109 83.4766C61.9109 86.3805 61.9496 89.2844 61.8915 92.1835C61.8673 93.4757 62.6417 94.2259 63.5274 94.8115C64.5099 95.4649 65.8602 94.3711 65.8795 92.9336C65.9134 90.6783 65.8795 88.4181 65.8844 86.1627C65.8844 84.8317 65.9183 83.5008 65.8844 82.1747C65.8699 81.5552 66.0635 81.3519 66.7023 81.318C69.1755 81.1825 69.1803 81.1534 69.1803 83.5734C69.1803 86.637 69.2142 89.7006 69.1803 92.7642C69.1368 96.4474 66.2716 98.877 62.9272 98.1171C62.7336 98.0736 62.5304 98.03 62.3465 97.9526C61.0945 97.4428 59.8071 97.4234 58.4842 97.8945C56.1369 98.7318 53.7847 98.059 52.3231 96.1328C50.997 94.3808 50.968 91.8253 52.2554 90.0443C53.3976 88.4616 55.6675 87.8373 57.555 88.7278C58.5375 89.1924 58.6633 88.9456 58.6391 87.9922C58.5859 85.7368 58.581 83.4766 58.6488 81.2212C58.6778 80.229 58.3149 80.0016 57.3904 80.0161C54.5494 80.0596 52.4635 78.8836 51.7036 76.7782C50.9292 74.6438 51.1519 72.6159 52.8313 70.9704C54.3994 69.4362 56.3063 68.9425 58.3971 69.7508C60.5509 70.5832 61.8044 72.2094 61.8721 74.5277C61.9593 77.509 61.8915 80.4952 61.8915 83.4766H61.906H61.9109ZM58.6633 75.5586C58.6536 73.6662 57.9325 72.6982 56.6403 72.6837C55.4981 72.6692 54.5494 73.5936 54.5543 74.7261C54.5543 76.0377 55.6239 76.7589 57.3759 76.8266C58.4794 76.8653 58.823 76.4201 58.6633 75.5634V75.5586ZM56.5338 95.0003C57.284 95.0196 58.1455 94.526 58.1987 94.042C58.2616 93.4951 56.3741 91.5688 55.7642 91.5882C54.8931 91.622 54.6075 92.2174 54.564 92.9675C54.5059 94.0178 55.44 94.9664 56.5289 94.9954L56.5338 95.0003Z" fill="#EEFBFA"/>
<path d="M79.2134 69.779C82.64 69.779 86.0618 69.8081 89.4884 69.7597C90.5193 69.7452 90.7951 70.1227 90.7516 71.1052C90.6693 73.0556 90.7177 73.0556 88.806 73.0556C82.398 73.0556 75.99 73.0653 69.5869 73.0605C68.8222 73.0605 68.1107 73.1089 67.8204 73.9704C67.4864 74.9577 68.1059 75.7756 69.2578 75.795C71.6342 75.8289 74.0105 75.8143 76.3917 75.8192C79.9103 75.824 82.3593 78.2004 82.3835 81.6899C82.4125 85.4795 82.4222 89.2643 82.3835 93.0539C82.3593 95.4061 81.0186 97.25 78.952 97.9857C76.9483 98.702 74.7801 98.0922 73.27 96.3934C72.4521 95.4738 72.1085 94.38 72.1085 93.1749C72.1036 89.5498 72.123 85.92 72.0939 82.2949C72.0891 81.5592 72.3166 81.3415 73.0522 81.3124C75.3173 81.2301 75.3173 81.1963 75.3221 83.5C75.327 86.6411 75.3221 89.787 75.3318 92.9281C75.3318 93.8622 75.7335 94.5881 76.6483 94.8882C77.5049 95.1689 78.2357 94.8882 78.7875 94.1767C79.073 93.8089 79.1456 93.3782 79.1408 92.9232C79.1311 89.1772 79.1553 85.4263 79.1069 81.6802C79.0827 79.9282 78.2212 79.12 76.4595 79.0909C74.1218 79.057 71.7842 79.0764 69.4465 79.0667C66.3878 79.0522 64.4228 77.1695 64.4276 74.2607C64.4276 71.7343 66.6056 69.7694 69.4272 69.7645C72.6893 69.7597 75.9562 69.7645 79.2182 69.7645V69.7742L79.2134 69.779Z" fill="#EEFBFA"/>
<path d="M15.2352 77.5717C15.816 79.0043 16.5371 80.3981 16.1548 82.0437C15.5111 84.8024 13.7784 86.3802 10.9568 86.7045L10.8745 86.6561L10.7825 86.6706C10.5551 85.9204 10.7099 85.1509 10.6567 84.391C10.618 83.8199 10.86 83.5295 11.3924 83.3262C12.5491 82.8907 13.0766 81.9614 12.9847 80.7708C12.9024 79.6867 11.9973 78.8736 10.9132 78.7332C9.70808 78.5784 8.89983 79.0962 8.30453 80.3981C8.02865 80.9983 6.23307 81.4484 5.43933 81.0322C4.694 80.6401 5.09086 79.948 5.23606 79.4302C6.32503 75.5583 11.2084 74.1547 14.3059 76.7973C14.606 77.0538 14.9158 77.3006 15.2207 77.5523L15.2352 77.562V77.5717Z" fill="#EEFBFA"/>
<path d="M48.4172 85.4657C47.0911 85.4657 45.7601 85.4512 44.434 85.4754C43.829 85.485 43.5628 85.2673 43.5725 84.6332C43.6015 81.8019 43.2337 82.2133 45.8617 82.1988C47.9913 82.1843 50.1257 82.2278 52.2552 82.1891C53.078 82.1746 53.3974 82.4117 53.3684 83.2829C53.2716 85.8674 53.6636 85.4124 51.1904 85.4608C50.266 85.4802 49.3416 85.4608 48.4172 85.4608V85.4657Z" fill="#EEFBFA"/>
<path d="M88.3751 94.9996C88.2444 94.835 88.2541 94.6705 88.3751 94.5107C88.3751 94.6753 88.3751 94.835 88.3751 94.9996Z" fill="#02CBFD"/>
<path d="M17.9456 71.9525C17.873 71.8751 17.8004 71.7977 17.7278 71.7202C17.8633 71.7396 18.0472 71.7154 17.9456 71.9525Z" fill="#02CBFD"/>
<path d="M50.6096 149.946C44.6469 149.946 38.6842 149.966 32.7167 149.941C28.7867 149.922 26.662 146.166 28.6318 142.798C29.261 141.723 30.2145 141.099 31.4002 140.838C31.9471 140.717 32.5182 140.663 33.0797 140.663C44.8066 140.654 56.5336 140.659 68.2557 140.654C69.7173 140.654 71.0483 140.983 72.0889 142.101C73.4731 143.587 73.7731 145.324 73.0036 147.139C72.2534 148.911 70.8402 149.927 68.8558 149.932C62.7721 149.946 56.6885 149.937 50.5999 149.937V149.946H50.6096ZM50.537 146.679C56.4174 146.679 62.2978 146.679 68.1783 146.689C69.1511 146.689 70.0077 146.476 70.1529 145.368C70.2642 144.526 69.364 143.926 68.1686 143.926C56.5675 143.926 44.9663 143.926 33.3652 143.935C32.9635 143.935 32.5473 143.921 32.1698 144.027C31.5115 144.206 31.1824 144.685 31.2018 145.382C31.2163 146.041 31.5938 146.447 32.1794 146.607C32.557 146.708 32.978 146.684 33.3797 146.684C39.1004 146.684 44.8211 146.684 50.537 146.684V146.679Z" fill="#EEFBFA"/>
<path d="M71.5905 108.097C72.9312 109.457 73.7443 110.996 73.2554 112.986C72.7811 114.892 71.213 116.282 69.2529 116.485C68.8947 116.524 68.5269 116.528 68.1639 116.528C56.3498 116.528 44.5406 116.538 32.7265 116.528C30.2146 116.528 28.2206 114.825 27.9157 112.473C27.6253 110.232 29.0869 108.039 31.3326 107.42C31.8263 107.284 32.3684 107.26 32.8862 107.255C44.6567 107.246 56.4321 107.255 68.2026 107.236C69.4126 107.236 70.5064 107.531 71.5615 108.068L71.5905 108.097ZM50.634 110.479C44.9084 110.479 39.1877 110.479 33.4622 110.479C33.0605 110.479 32.6491 110.474 32.2667 110.57C31.5698 110.75 31.1584 111.224 31.1874 111.974C31.2165 112.681 31.6617 113.073 32.3054 113.228C32.6491 113.31 33.0266 113.29 33.3896 113.29C44.7971 113.29 56.2046 113.29 67.6122 113.29C68.0526 113.29 68.5075 113.31 68.9383 113.228C69.6352 113.092 70.1483 112.623 70.1531 111.916C70.1531 111.166 69.6836 110.638 68.8996 110.517C68.5463 110.464 68.1784 110.479 67.8154 110.479C62.0899 110.479 56.3692 110.479 50.6436 110.479H50.634Z" fill="#EEFBFA"/>
<path d="M50.6436 119.301C52.5795 119.301 54.5155 119.359 56.4417 119.276C57.5694 119.228 57.9808 119.528 58.0001 120.738C58.1163 127.252 62.114 132.504 68.159 134.164C69.006 134.396 69.8965 134.527 70.7725 134.594C71.5227 134.653 71.8179 134.919 71.8421 135.698C71.9099 138.06 71.8083 138.176 69.4561 137.774C61.6155 136.434 56.3352 131.231 54.9752 123.463C54.8736 122.877 54.6461 122.572 54.0702 122.572C51.8148 122.567 49.5594 122.582 47.3041 122.572C46.5249 122.572 46.4329 123.105 46.3264 123.685C45.6053 127.707 43.7274 131.081 40.659 133.791C37.8373 136.284 34.493 137.498 30.8002 137.905C29.9193 138.002 29.3724 137.813 29.5515 136.758C29.5999 136.487 29.5515 136.196 29.5225 135.916C29.4305 135.049 29.6918 134.643 30.6792 134.57C34.1106 134.323 37.0581 132.915 39.42 130.427C41.7431 127.983 43.074 125.065 43.1999 121.653C43.2967 119.044 42.9192 119.31 45.6779 119.32C47.3283 119.32 48.9835 119.32 50.6339 119.32C50.6339 119.315 50.6339 119.31 50.6339 119.301H50.6436Z" fill="#EEFBFA"/>
</g>
<defs>
<filter id="filter0_d_179_133" x="0" y="0" width="101.308" height="155.954" filterUnits="userSpaceOnUse" color-interpolation-filters="sRGB">
<feFlood flood-opacity="0" result="BackgroundImageFix"/>
<feColorMatrix in="SourceAlpha" type="matrix" values="0 0 0 0 0 0 0 0 0 0 0 0 0 0 0 0 0 0 127 0" result="hardAlpha"/>
<feOffset dy="1"/>
<feGaussianBlur stdDeviation="2.5"/>
<feComposite in2="hardAlpha" operator="out"/>
<feColorMatrix type="matrix" values="0 0 0 0 0 0 0 0 0 0 0 0 0 0 0 0 0 0 0.25 0"/>
<feBlend mode="normal" in2="BackgroundImageFix" result="effect1_dropShadow_179_133"/>
<feBlend mode="normal" in="SourceGraphic" in2="effect1_dropShadow_179_133" result="shape"/>
</filter>
</defs>
</svg>
