<svg width="122" height="195" viewBox="0 0 122 195" fill="none" xmlns="http://www.w3.org/2000/svg">
<path d="M60.9425 0.00170752C80.6839 -0.192279 97.315 16.1672 97.1921 36.3935C97.0757 56.0573 81.3111 72.2163 61.4986 72.378C41.0331 72.5461 24.7964 56.4129 24.7512 36.3095C24.7124 15.9151 41.4469 -0.159948 60.9425 0.00170752ZM81.8866 55.5594C82.8565 55.5594 83.626 55.4689 84.3632 55.5788C85.8439 55.7986 86.7233 55.1326 87.4993 53.9364C90.9328 48.6664 92.7175 42.905 92.8986 36.6263C92.9244 35.7922 92.6722 35.2426 91.9804 34.7317C89.8659 33.1734 87.5704 31.8478 85.7275 29.9338C85.2684 29.4553 84.6994 29.6234 84.208 29.7786C80.6774 30.9102 77.1663 32.0806 73.6422 33.2316C73.1637 33.3868 72.808 33.5743 72.7175 34.1821C72.1356 37.8614 70.8423 41.3273 69.368 44.7285C69.1417 45.2458 69.174 45.6338 69.4909 46.0605C71.7347 49.1255 73.9849 52.1905 76.2093 55.2684C76.5326 55.7146 76.8947 55.9215 77.4379 55.7922C78.9768 55.4301 80.5416 55.6111 81.8801 55.5594H81.8866ZM62.0353 17.4605C62.0353 17.4605 62.0353 17.4605 62.0418 17.4605C62.0418 19.2904 62.0677 21.1139 62.0289 22.9438C62.0159 23.7392 62.3263 24.1465 63.0441 24.5474C66.0509 26.2222 68.7861 28.2978 71.3661 30.5546C72.0127 31.1171 72.4847 31.3693 73.3253 31.0783C76.83 29.8691 80.3476 28.7181 83.8653 27.5607C84.3438 27.4055 84.7641 27.302 84.7964 26.6554C84.8999 24.1336 86.0444 21.8898 86.8074 19.5555C87.1501 18.508 87.0596 17.7644 86.3936 16.9108C82.488 11.9125 77.5672 8.34312 71.6377 6.11874C70.5707 5.71784 69.7301 5.8019 68.8119 6.51965C67.0014 7.94868 65.2102 9.44237 63.1346 10.464C62.3134 10.8649 62.003 11.2788 62.0224 12.1453C62.0612 13.917 62.0353 15.6952 62.0353 17.4669V17.4605ZM60.8908 68.1362C64.1951 68.0974 67.4152 67.5865 70.5643 66.5584C71.2109 66.345 71.6377 66.0476 71.9028 65.3363C72.8404 62.8274 73.2671 60.1245 74.6832 57.7902C74.9807 57.2988 74.6444 56.969 74.4052 56.6328C72.2067 53.5807 69.9823 50.5416 67.8097 47.4702C67.3053 46.7589 66.7298 46.7912 65.9862 46.8688C62.6626 47.1986 59.326 47.1986 56.0088 46.8688C55.0648 46.7718 54.5151 46.9593 53.9784 47.7094C51.8899 50.6451 49.7495 53.5419 47.6286 56.4582C47.3506 56.8462 47.0402 57.2083 47.3376 57.7644C48.5985 60.0987 49.1029 62.711 49.9953 65.1876C50.2539 65.9053 50.6031 66.3515 51.3661 66.5972C54.4634 67.593 57.6318 68.0974 60.8844 68.1491L60.8908 68.1362ZM37.2504 29.6557C36.8494 29.5523 36.5326 29.6558 36.2287 29.9597C34.4117 31.8284 32.1485 33.1152 30.0858 34.6671C29.4198 35.165 29.09 35.7081 29.1094 36.5552C29.2646 43.0214 31.0493 48.9509 34.7803 54.2855C35.401 55.1714 36.0606 55.5723 37.1534 55.5853C39.6752 55.6241 42.2164 55.2878 44.7188 55.8374C45.3267 55.9732 45.5853 55.5271 45.8698 55.1391C48.0231 52.184 50.1828 49.2225 52.3296 46.261C52.6529 45.8213 52.9309 45.401 52.6141 44.7931C51.1786 42.0515 50.1957 39.09 49.6655 36.109C49.2258 33.6325 47.842 32.9664 45.8569 32.391C42.9665 31.5568 40.1149 30.5739 37.2439 29.6493L37.2504 29.6557ZM59.8886 17.4863C59.8886 15.7146 59.8886 13.9364 59.8886 12.1646C59.8886 11.5698 59.9144 10.9555 59.229 10.658C56.8753 9.64283 55.0518 7.84522 52.9826 6.40972C52.3296 5.95709 51.7864 5.64671 50.9329 5.93769C44.6865 8.05214 39.6364 11.7961 35.5821 16.969C34.8902 17.8484 34.9031 18.6503 35.2264 19.6461C35.9636 21.9416 36.9141 24.1853 37.2762 26.5843C37.3797 27.2633 37.7612 27.4637 38.2914 27.6383C41.8608 28.8087 45.4366 29.9791 48.9995 31.1688C49.5232 31.3434 49.8918 31.2594 50.2992 30.8649C52.8792 28.3302 55.8924 26.3709 58.9639 24.5022C59.6752 24.0689 59.908 23.571 59.9015 22.808C59.8821 21.0363 59.9015 19.2581 59.9015 17.4863H59.8886Z" fill="#EEFBFA"/>
<path d="M111.392 121.58C111.327 121.87 111.256 122.161 111.191 122.452C109.458 130.671 102.973 134.279 97.0821 134.266C76.0217 134.227 54.9677 134.247 33.9073 134.234C31.5148 134.234 29.2451 133.71 27.0208 132.766C24.68 131.777 22.9276 130.05 21.033 128.472L21.0136 128.453C17.7935 124.166 16.83 119.303 17.0369 114.027C17.218 109.41 17.1081 104.774 17.0434 100.15C16.9917 96.3225 14.8643 93.8783 11.5213 92.3393C9.4262 91.3758 7.18242 91.7509 4.99685 91.7186C1.84133 91.6668 1.78314 91.6216 2.11292 88.4467C2.18404 87.7289 2.42976 87.3797 3.18631 87.3668C7.77085 87.2892 12.3813 87.0112 16.358 89.9856C16.3838 90.0955 16.455 90.1537 16.5714 90.1602C16.7136 90.2572 16.8494 90.3607 16.9917 90.4576L16.9981 90.4706C17.0951 90.574 17.1921 90.6775 17.2891 90.781C20.6127 94.1369 21.7055 98.2171 21.5245 102.86C21.3434 107.535 21.4727 112.223 21.4857 116.911C21.5051 124.573 26.8203 129.889 34.4957 129.895C55.11 129.895 75.7307 129.908 96.345 129.895C101.796 129.895 105.223 127.419 106.652 122.608C106.872 121.864 106.878 121.12 106.878 120.37C106.891 114.557 106.878 108.744 106.898 102.931C106.911 99.6009 109.2 96.6199 112.349 95.7341C115.543 94.8353 118.99 96.1026 120.723 98.8055C122.611 101.754 122.371 105.336 120.134 107.949C119.565 108.615 118.841 109.074 118.117 109.539C117.108 110.186 115.614 110.968 114.897 110.471C113.959 109.817 114.599 108.175 114.528 106.959C114.483 106.132 115.22 106.112 115.731 105.886C117.076 105.278 117.677 104.192 117.574 102.776C117.47 101.373 116.791 100.338 115.285 100.06C113.209 99.5685 111.954 100.325 111.437 102.394C111.198 107.839 111.282 113.283 111.405 118.734C111.263 119.465 111.25 120.196 111.392 120.926C111.23 121.146 111.217 121.36 111.392 121.58Z" fill="#EEFBFA"/>
<path d="M29.5556 106.319C29.5556 110.302 29.5362 114.292 29.5621 118.275C29.575 120.325 30.545 121.547 32.0775 121.599C33.6423 121.644 34.651 120.364 34.6639 118.204C34.6898 113.839 34.7351 109.475 34.6639 105.116C34.6445 103.745 34.9485 103.202 36.4486 103.267C38.9834 103.377 38.9898 103.273 38.9898 105.782C38.9898 110.037 38.9704 114.292 38.9704 118.547C38.9704 120.305 39.9986 121.534 41.447 121.54C43.0765 121.553 44.0852 120.467 44.0917 118.566C44.1111 113.393 44.0658 108.227 44.124 103.054C44.1369 101.896 43.736 101.508 42.6497 101.547C41.0849 101.599 39.5395 101.547 38.0975 100.745C35.0649 99.0575 33.597 95.6239 34.5605 92.3649C35.4464 89.3646 38.5501 87.2243 41.7315 87.4118C45.1133 87.6123 47.7904 90.0306 48.3658 93.4125C48.4434 93.891 48.4111 94.3824 48.4887 94.8609C48.6504 95.8502 47.8227 97.3569 49.9759 97.2599C52.543 97.1435 53.5 96.5874 53.5647 94.5893C53.6229 92.8693 53.6035 91.1428 53.5582 89.4228C53.5259 88.3559 53.8686 87.8645 55.0325 87.8903C58.757 87.9614 58.007 87.6446 58.0587 90.8648C58.0781 92.0481 58.0846 93.2379 58.0587 94.4212C57.994 98.566 55.026 101.521 50.8877 101.553C48.3271 101.573 48.4887 101.256 48.4822 104.024C48.4693 108.977 48.5275 113.936 48.437 118.889C48.3658 122.769 46.0897 125.297 42.3652 125.879C40.684 126.144 39.158 125.679 37.7548 124.78C37.1664 124.405 36.759 124.276 36.0477 124.696C30.7713 127.8 25.1586 124.573 25.1392 118.437C25.1134 110.787 25.1069 103.138 25.1586 95.4881C25.1716 93.7746 24.887 92.4167 23.083 91.7442C22.4687 91.5179 22.029 88.5499 22.5333 87.8774C23.1412 87.0691 23.9947 87.5153 24.7254 87.7545C27.4865 88.6727 29.4069 91.104 29.4716 94.0332C29.5621 98.1263 29.491 102.219 29.491 106.313C29.5104 106.313 29.5233 106.313 29.5427 106.313L29.5556 106.319ZM42.404 97.2017C42.792 96.859 44.0076 97.8612 44.0723 96.4128C44.1175 95.5075 44.1951 94.5893 43.9236 93.697C43.3093 91.6601 40.9426 91.0588 39.4425 92.5589C38.6342 93.3607 38.4273 94.3307 38.8347 95.3653C39.4295 96.8913 40.6646 97.3633 42.404 97.2017Z" fill="#EEFBFA"/>
<path d="M76.035 106.183C76.035 110.063 76.0867 113.942 76.0091 117.816C75.9768 119.542 77.0114 120.544 78.1947 121.327C79.5073 122.2 81.3114 120.738 81.3372 118.818C81.3825 115.805 81.3372 112.785 81.3437 109.772C81.3437 107.994 81.389 106.215 81.3437 104.444C81.3243 103.616 81.583 103.344 82.4365 103.299C85.7407 103.118 85.7472 103.079 85.7472 106.312C85.7472 110.405 85.7925 114.499 85.7472 118.592C85.689 123.512 81.861 126.758 77.3929 125.743C77.1342 125.685 76.8626 125.627 76.6169 125.523C74.9443 124.842 73.2243 124.816 71.4569 125.446C68.3208 126.564 65.1782 125.666 63.2254 123.092C61.4536 120.751 61.4149 117.337 63.1349 114.958C64.6609 112.843 67.6935 112.009 70.2154 113.199C71.528 113.82 71.6961 113.49 71.6638 112.216C71.5927 109.203 71.5862 106.183 71.6767 103.17C71.7155 101.844 71.2306 101.54 69.9955 101.56C66.1998 101.618 63.4129 100.047 62.3977 97.2337C61.3631 94.3821 61.6606 91.6728 63.9043 89.4743C65.9994 87.4245 68.5471 86.765 71.3405 87.8448C74.2179 88.957 75.8927 91.1296 75.9832 94.227C76.0996 98.2101 76.0091 102.2 76.0091 106.183H76.0285H76.035ZM71.6961 95.6043C71.6832 93.076 70.7197 91.7827 68.9933 91.7633C67.4672 91.7439 66.1998 92.979 66.2063 94.4921C66.2063 96.2444 67.6353 97.2079 69.9761 97.2984C71.4504 97.3501 71.9095 96.7553 71.6961 95.6107V95.6043ZM68.851 121.579C69.8533 121.605 71.0042 120.945 71.0754 120.299C71.1594 119.568 68.6376 116.994 67.8229 117.02C66.6589 117.066 66.2774 117.861 66.2192 118.863C66.1417 120.266 67.3896 121.534 68.8445 121.573L68.851 121.579Z" fill="#EEFBFA"/>
<path d="M99.1516 87.8838C103.73 87.8838 108.301 87.9226 112.879 87.858C114.257 87.8386 114.625 88.3429 114.567 89.6556C114.457 92.2614 114.522 92.2614 111.968 92.2614C103.406 92.2614 94.8451 92.2744 86.2903 92.2679C85.2687 92.2679 84.3181 92.3326 83.9302 93.4836C83.484 94.8027 84.3117 95.8955 85.8506 95.9213C89.0255 95.9666 92.2004 95.9472 95.3818 95.9537C100.083 95.9601 103.355 99.135 103.387 103.797C103.426 108.86 103.439 113.917 103.387 118.98C103.355 122.122 101.564 124.586 98.8024 125.569C96.1254 126.526 93.2286 125.711 91.2111 123.442C90.1183 122.213 89.6592 120.752 89.6592 119.141C89.6528 114.298 89.6786 109.449 89.6398 104.605C89.6334 103.623 89.9373 103.332 90.9201 103.293C93.9463 103.183 93.9463 103.138 93.9528 106.216C93.9593 110.412 93.9528 114.615 93.9657 118.812C93.9657 120.06 94.5024 121.03 95.7245 121.431C96.8691 121.806 97.8454 121.431 98.5826 120.48C98.9641 119.989 99.0611 119.413 99.0546 118.805C99.0417 113.8 99.074 108.789 99.0094 103.784C98.977 101.443 97.826 100.364 95.4723 100.325C92.3492 100.28 89.226 100.305 86.1028 100.292C82.0162 100.273 79.3909 97.7577 79.3974 93.8715C79.3974 90.4962 82.3071 87.8709 86.0769 87.8644C90.4352 87.858 94.7999 87.8644 99.1581 87.8644V87.8774L99.1516 87.8838Z" fill="#EEFBFA"/>
<path d="M13.6746 98.2947C14.4505 100.209 15.414 102.071 14.9032 104.269C14.0431 107.955 11.7282 110.063 7.95844 110.496L7.84852 110.432L7.72566 110.451C7.42175 109.449 7.62867 108.421 7.55754 107.406C7.50581 106.643 7.82912 106.255 8.5404 105.983C10.0858 105.401 10.7906 104.16 10.6678 102.569C10.5579 101.12 9.34868 100.034 7.90025 99.8466C6.29016 99.6396 5.2103 100.332 4.41496 102.071C4.04639 102.873 1.64742 103.474 0.586964 102.918C-0.408832 102.394 0.121397 101.47 0.315383 100.778C1.77028 95.6047 8.29468 93.7295 12.4331 97.2601C12.834 97.6028 13.2478 97.9326 13.6552 98.2688L13.6746 98.2817V98.2947Z" fill="#EEFBFA"/>
<path d="M58.0069 108.841C56.2352 108.841 54.457 108.822 52.6852 108.854C51.877 108.867 51.5213 108.576 51.5343 107.729C51.573 103.946 51.0816 104.496 54.5928 104.477C57.4379 104.457 60.2895 104.515 63.1346 104.464C64.2339 104.444 64.6607 104.761 64.6219 105.925C64.4925 109.378 65.0163 108.77 61.7121 108.835C60.477 108.861 59.242 108.835 58.0069 108.835V108.841Z" fill="#EEFBFA"/>
<path d="M111.392 121.58C111.217 121.36 111.23 121.14 111.392 120.927C111.392 121.147 111.392 121.36 111.392 121.58Z" fill="#02CBFD"/>
<path d="M17.2959 90.7869C17.1989 90.6835 17.1019 90.58 17.0049 90.4766C17.1859 90.5024 17.4317 90.4701 17.2959 90.7869Z" fill="#02CBFD"/>
<path d="M60.9362 194.989C52.9699 194.989 45.0035 195.015 37.0307 194.983C31.7801 194.957 28.9414 189.939 31.5732 185.439C32.4138 184.003 33.6876 183.169 35.2718 182.82C36.0025 182.658 36.7655 182.587 37.5156 182.587C53.1832 182.574 68.8509 182.581 84.512 182.574C86.4648 182.574 88.243 183.014 89.6333 184.508C91.4826 186.493 91.8835 188.814 90.8554 191.239C89.8531 193.606 87.965 194.963 85.3138 194.97C77.1858 194.989 69.0578 194.976 60.9233 194.976V194.989H60.9362ZM60.8392 190.625C68.6957 190.625 76.5521 190.625 84.4086 190.638C85.7083 190.638 86.8528 190.353 87.0468 188.872C87.1955 187.747 85.9928 186.945 84.3956 186.945C68.8961 186.945 53.3966 186.945 37.8971 186.958C37.3604 186.958 36.8043 186.939 36.3 187.081C35.4206 187.32 34.9809 187.961 35.0067 188.892C35.0261 189.771 35.5305 190.314 36.3129 190.528C36.8173 190.663 37.3798 190.631 37.9165 190.631C45.5596 190.631 53.2027 190.631 60.8392 190.631V190.625Z" fill="#EEFBFA"/>
<path d="M88.9671 139.077C90.7582 140.894 91.8446 142.95 91.1915 145.608C90.5578 148.155 88.4627 150.011 85.8439 150.283C85.3654 150.334 84.874 150.341 84.389 150.341C68.605 150.341 52.8274 150.354 37.0434 150.341C33.6875 150.341 31.0234 148.065 30.616 144.922C30.228 141.928 32.1808 138.999 35.1812 138.171C35.8407 137.99 36.5649 137.958 37.2568 137.952C52.9826 137.939 68.7149 137.952 84.4407 137.926C86.0573 137.926 87.5187 138.32 88.9283 139.038L88.9671 139.077ZM60.9684 142.258C53.3189 142.258 45.6758 142.258 38.0263 142.258C37.4896 142.258 36.94 142.252 36.4291 142.381C35.498 142.62 34.9484 143.254 34.9872 144.256C35.026 145.2 35.6209 145.724 36.4809 145.931C36.94 146.041 37.4443 146.015 37.9293 146.015C53.1701 146.015 68.411 146.015 83.6519 146.015C84.2403 146.015 84.8481 146.041 85.4236 145.931C86.3547 145.75 87.0402 145.123 87.0466 144.179C87.0466 143.176 86.4194 142.472 85.3719 142.31C84.8998 142.239 84.4084 142.258 83.9234 142.258C76.2739 142.258 68.6309 142.258 60.9813 142.258H60.9684Z" fill="#EEFBFA"/>
<path d="M60.9815 154.046C63.568 154.046 66.1545 154.123 68.728 154.013C70.2347 153.949 70.7843 154.35 70.8102 155.966C70.9653 164.67 76.3064 171.685 84.3827 173.903C85.5143 174.214 86.7041 174.388 87.8745 174.479C88.8768 174.556 89.2712 174.912 89.3035 175.953C89.3941 179.109 89.2583 179.264 86.1157 178.727C75.6404 176.936 68.5858 169.985 66.7688 159.607C66.633 158.824 66.3291 158.417 65.5596 158.417C62.5463 158.41 59.5331 158.43 56.5198 158.417C55.4788 158.417 55.3559 159.128 55.2137 159.904C54.2502 165.277 51.7413 169.784 47.6417 173.406C43.8719 176.736 39.4038 178.359 34.4701 178.902C33.2932 179.031 32.5625 178.779 32.8018 177.369C32.8664 177.007 32.8018 176.619 32.763 176.244C32.6401 175.087 32.9893 174.544 34.3084 174.447C38.8929 174.117 42.8309 172.235 45.9864 168.911C49.0902 165.646 50.8684 161.747 51.0365 157.188C51.1658 153.703 50.6614 154.059 54.3472 154.072C56.5522 154.072 58.7636 154.072 60.9686 154.072C60.9686 154.065 60.9686 154.059 60.9686 154.046H60.9815Z" fill="#EEFBFA"/>
</svg>
