<svg width="93" height="116" viewBox="0 0 93 116" fill="none" xmlns="http://www.w3.org/2000/svg">
<g clip-path="url(#clip0_365_129)">
<path d="M73.3239 60.4226C73.3239 62.2919 73.2871 64.1624 73.3393 66.0294C73.3631 66.8857 73.1018 67.1968 72.2158 67.1755C70.1129 67.1248 68.008 67.1284 65.9012 67.1862C64.6019 67.2218 63.3275 67.4724 61.9986 67.2265C60.7943 67.0044 59.3347 65.8346 59.2314 64.5757C58.9582 61.1993 59.1839 57.8145 59.1269 54.4333C59.1198 54.0426 59.2207 53.7207 59.6886 53.7207C60.4285 53.7124 61.1708 53.6958 61.9083 53.7397C62.5508 53.7766 62.4368 54.3157 62.4392 54.7195C62.4523 56.7837 62.4392 58.8478 62.4535 60.9107C62.4574 61.4164 62.4971 61.9212 62.5722 62.4214C62.7207 63.4142 63.3287 63.9368 64.3252 63.9534C65.9629 63.9795 67.6007 63.9475 69.2372 63.9926C70.0686 64.0152 70.0686 63.5033 70.0686 62.9237C70.0686 60.2361 70.1125 57.5485 70.0496 54.8633C70.027 53.9131 70.3346 53.6649 71.2443 53.6982C73.6077 53.7813 73.3179 53.482 73.3274 55.7516C73.3346 57.3098 73.3274 58.8668 73.3274 60.4249L73.3239 60.4226Z" fill="url(#paint0_linear_365_129)"/>
<path d="M26.8197 53.415C28.923 53.415 31.0263 53.4376 33.1296 53.4019C33.8267 53.3889 34.0737 53.5932 34.0904 54.3188C34.1426 56.6489 34.1723 56.6478 31.8339 56.6466C31.1332 56.6466 30.4277 56.6964 29.7317 56.6323C28.8256 56.548 28.5061 56.8461 28.5299 57.7974C28.5976 60.4803 28.5607 63.1667 28.5679 65.8507C28.5679 66.4327 28.6759 67.2153 27.9812 67.3198C27.1011 67.4505 26.1344 67.669 25.2734 67.1393C25.1712 67.0828 25.089 66.9961 25.0379 66.8911C24.9869 66.7861 24.9696 66.6679 24.9883 66.5526C25.3221 63.6916 25.043 60.8152 25.1914 57.9518C25.2496 56.8235 24.8351 56.5516 23.7995 56.6335C22.6772 56.7226 21.543 56.6335 20.4124 56.6751C19.7592 56.6976 19.5442 56.4613 19.5216 55.8033C19.4373 53.4103 19.4136 53.4126 21.79 53.415H26.8197Z" fill="url(#paint1_linear_365_129)"/>
<path d="M53.5082 50.7326C52.2267 50.7445 51.5747 50.292 51.2624 48.9262C50.2268 44.4001 49.1353 39.8812 47.76 35.4406C47.6579 35.1081 47.4216 34.6758 47.8016 34.5297C48.2767 34.3456 48.2767 34.9026 48.3954 35.1983C50.241 40.0676 52.0822 44.9369 53.9191 49.8062C54.0937 50.2801 54.4227 50.8205 53.5082 50.7326Z" fill="#F79D2A"/>
<path d="M45.2269 34.3086C45.1734 35.8977 44.6164 37.3549 44.2162 38.8442C43.2661 42.3714 42.259 45.8821 41.2744 49.3999C41.031 50.2657 39.6212 51.0471 38.8279 50.7526C38.3291 50.5673 38.6272 50.2372 38.7258 49.9889C40.3987 45.799 42.08 41.6153 43.7696 37.438C44.2008 36.3727 44.5179 35.254 45.2269 34.3086Z" fill="#F79D2A"/>
<path d="M42.1485 3.18373C41.3873 4.06496 41.1592 4.93193 40.7851 5.71102C40.455 6.39866 40.1604 6.3951 39.7436 5.80722C39.4815 5.41983 39.1917 5.0519 38.8766 4.70628C38.6521 4.46875 38.5203 3.95807 38.1248 4.09702C37.689 4.25141 37.9918 4.70509 38.0061 5.01863C38.0426 5.52271 38.1053 6.02457 38.1937 6.52217C38.2852 7.11599 38.1474 7.47228 37.4514 7.54948C36.7864 7.61955 36.6605 7.28345 36.6023 6.7502C36.4325 5.16352 36.2282 3.58159 36.0595 1.99966C36.0192 1.61249 35.7151 1.0923 36.3173 0.893968C36.8778 0.709885 37.4704 0.637439 37.9206 1.20038C38.4301 1.84051 38.9562 2.46759 39.4645 3.1006C39.8552 3.58634 40.1616 3.67541 40.4514 2.99252C40.7543 2.27994 41.1794 1.61011 41.4502 0.884467C41.74 0.108941 42.3635 0.069749 42.9739 0.125568C43.6331 0.186137 43.4751 0.825085 43.5309 1.24432C43.7317 2.74787 43.8872 4.25735 44.0618 5.76446C44.126 6.30721 44.1402 6.76683 43.3991 6.85709C42.6165 6.9521 42.4846 6.53524 42.4431 5.90698C42.3932 5.06851 42.2685 4.24073 42.1485 3.18373Z" fill="url(#paint2_linear_365_129)"/>
<path d="M63.8668 2.53532C65.21 2.98069 66.7658 3.48543 68.3109 4.0163C68.9047 4.22177 68.685 4.68969 68.5663 5.09586C68.4297 5.57092 68.1387 5.67662 67.6732 5.51273C66.571 5.12556 65.4594 4.76451 64.3478 4.40466C63.9915 4.2859 63.5438 4.06381 63.3656 4.61012C63.1875 5.15643 63.6542 5.25026 64.0224 5.37733C64.7955 5.64337 65.5841 5.87139 66.3442 6.17305C67.4546 6.61485 67.7777 7.5032 67.3406 8.76566C66.9297 9.9533 66.153 10.4117 65.0022 10.0649C63.6958 9.67064 62.4203 9.18252 61.1115 8.80366C60.4713 8.6172 60.336 8.34999 60.5248 7.71579C60.7433 6.98064 61.1614 7.07922 61.6863 7.26092C62.7184 7.61722 63.7516 7.96519 64.7896 8.29892C65.1459 8.41768 65.6209 8.60533 65.805 8.11127C66.033 7.50795 65.4713 7.42838 65.0853 7.2918C64.3145 7.01865 63.5343 6.77518 62.7611 6.50796C61.6982 6.14098 61.5093 5.32033 61.6922 4.34409C61.8953 3.19683 62.6661 2.50207 63.8668 2.53532Z" fill="url(#paint3_linear_365_129)"/>
<path d="M50.4156 3.20517C49.8978 3.96288 49.3705 4.71347 48.8657 5.48068C48.4892 6.05074 48.1769 6.00324 47.8479 5.44267C47.4037 4.68496 47.0641 3.85718 46.1995 3.23367C46.1995 4.13984 46.1817 5.04719 46.1995 5.95217C46.2161 6.55668 45.9619 6.78351 45.3681 6.77758C44.7327 6.76808 44.5879 6.45692 44.6152 5.88685C44.69 4.29186 44.7185 2.69567 44.7874 1.10068C44.804 0.711133 44.5807 0.161258 45.209 0.0472448C45.8028 -0.0596424 46.3729 -0.0406401 46.7268 0.605434C47.1187 1.31802 47.5581 2.01041 47.9714 2.71943C48.2992 3.28712 48.5902 3.33937 48.9595 2.73843C49.3669 2.07573 49.8657 1.46647 50.2541 0.794268C50.6294 0.145819 51.1923 0.166009 51.7778 0.253894C52.4904 0.360781 52.2742 0.954599 52.2624 1.37383C52.2148 3.00683 52.1056 4.63864 52.0628 6.27164C52.0474 6.82271 51.8823 7.04955 51.3063 6.98423C50.7695 6.92841 50.4251 6.79302 50.475 6.14457C50.5533 5.19446 50.5723 4.24435 50.6163 3.28474L50.4156 3.20517Z" fill="url(#paint4_linear_365_129)"/>
<path d="M25.3268 6.25069C25.1308 5.78395 24.9325 5.27564 24.7045 4.78277C24.4669 4.2614 24.6807 4.00012 25.157 3.79822C25.6332 3.59632 25.9503 3.64977 26.1676 4.17826C26.8482 5.83264 27.5524 7.4787 28.2614 9.1212C28.4847 9.63783 28.2876 9.91573 27.8244 10.1319C27.3612 10.348 27.05 10.2732 26.7793 9.78984C25.7805 8.00839 25.7888 8.07371 23.8434 8.84924C22.8565 9.24234 22.6914 9.73759 23.2033 10.5903C23.2901 10.7641 23.3674 10.9425 23.4349 11.1247C23.6558 11.6152 23.5121 11.905 23.0073 12.1247C22.5026 12.3444 22.2235 12.2542 22.0121 11.7435C21.3241 10.0895 20.6238 8.44267 19.9112 6.80294C19.6736 6.26256 19.8981 6.03929 20.3577 5.8267C20.8328 5.60461 21.1713 5.61887 21.3601 6.16755C21.4389 6.34522 21.5087 6.52676 21.5691 6.71149C21.8221 7.79105 22.3541 8.13665 23.3826 7.50127C23.8411 7.22099 24.385 7.07847 24.8886 6.86945C25.1451 6.7685 25.3992 6.64973 25.3268 6.25069Z" fill="url(#paint5_linear_365_129)"/>
<path d="M29.1748 8.70448C29.4658 6.78526 29.7769 4.86961 30.0359 2.94682C30.1071 2.42308 30.3708 2.23424 30.8292 2.10241C31.3149 1.96346 31.6997 1.91596 32.0631 2.38626C33.2045 3.86249 34.3945 5.30191 35.5322 6.78051C35.7318 7.03942 36.3184 7.38621 35.8707 7.70331C35.4527 8.00021 34.6831 8.3957 34.2769 7.82207C33.3874 6.56555 32.4266 7.34701 31.467 7.5406C31.0252 7.62967 30.942 7.95627 30.9385 8.32681C30.9313 9.00495 30.5038 9.25436 29.9195 9.39569C29.2936 9.5477 29.0228 9.36125 29.1748 8.70448ZM31.5346 4.64633C31.575 5.06557 31.0073 5.49311 31.5774 5.84822C31.6962 5.92423 32.119 5.78765 32.1783 5.65107C32.4313 5.08338 31.8565 4.94799 31.5394 4.64633H31.5346Z" fill="url(#paint6_linear_365_129)"/>
<path d="M74.0876 9.44568C74.0092 10.5692 73.951 11.6939 73.8394 12.8138C73.8026 13.1832 74.0698 13.8387 73.4356 13.8328C72.8869 13.8257 72.1292 13.5513 72.204 12.8483C72.3334 11.6701 71.5306 11.4385 70.7693 11.0549C70.229 10.7841 69.7693 10.6796 69.3121 11.1986C69.1126 11.4267 68.8371 11.6428 68.495 11.4457C68.153 11.2485 67.6803 11.1226 67.5532 10.8364C67.3739 10.4326 67.8881 10.2093 68.166 9.9718C69.4641 8.85899 70.7883 7.77705 72.0852 6.6583C72.5045 6.29488 72.8667 6.10248 73.432 6.38989C73.9973 6.6773 74.2123 7.0811 74.1446 7.69629C74.0828 8.27467 74.0698 8.85899 74.0365 9.44093L74.0876 9.44568ZM72.2444 8.89699C71.9344 9.0787 71.4582 9.11671 71.5579 9.61908C71.5805 9.7319 71.8762 9.88867 72.0152 9.86254C72.6078 9.74853 72.2859 9.28772 72.2444 8.89699Z" fill="url(#paint7_linear_365_129)"/>
<path d="M52.5712 6.93794C53.8016 5.09355 54.9785 3.27409 56.2184 1.49738C56.7457 0.742048 57.9725 0.967699 58.2065 1.86911C58.6946 3.74558 59.1044 5.64105 59.5224 7.53414C59.5806 7.7966 59.7326 8.2289 59.2338 8.24672C58.735 8.26453 58.039 8.26572 57.9428 7.70159C57.6982 6.27643 56.5723 6.46051 55.6365 6.24793C55.3479 6.18261 55.0616 6.17667 54.9239 6.46764C54.3871 7.60896 53.5617 7.35243 52.5712 6.93794ZM56.8182 3.71589C56.5414 4.08881 56.0509 4.30971 56.4405 4.8002C56.5248 4.90827 56.8835 4.95816 56.9725 4.8774C57.4155 4.47598 57.0212 4.147 56.8182 3.71589Z" fill="url(#paint8_linear_365_129)"/>
<path d="M18.2295 7.03418C18.6974 7.07575 18.7604 7.47361 18.9314 7.76101C19.1368 8.10662 18.9539 8.31445 18.6796 8.53773C18.1701 8.95221 17.1618 8.98428 17.2354 9.81325C17.2889 10.4142 17.8186 10.9759 18.1452 11.5484C18.4159 12.0234 18.7212 12.4736 18.9765 12.9545C19.2318 13.4355 19.7817 13.9047 18.9302 14.3987C18.1428 14.8583 17.9076 14.3346 17.6119 13.8049C17.176 13.0246 16.6487 12.2847 16.3055 11.4676C15.8305 10.3512 15.2283 10.3334 14.3649 11.008C14.1013 11.2147 13.7414 11.4272 13.4338 11.4154C13.0573 11.3999 12.9908 10.9213 12.8305 10.6256C12.6333 10.2693 12.8946 10.0543 13.1868 9.88807C14.7339 8.99022 16.2822 8.09395 17.8316 7.19926C17.9598 7.13406 18.0928 7.07887 18.2295 7.03418Z" fill="url(#paint9_linear_365_129)"/>
<path d="M80.8215 12.6372C80.4094 12.7085 80.3121 12.984 80.1624 13.2037C79.5045 14.1673 78.8485 15.1313 78.1945 16.0956C77.9249 16.4947 77.6589 16.7393 77.1696 16.3391C76.7693 16.0113 76.4665 15.7453 76.8608 15.2014C77.432 14.4163 77.9083 13.5565 78.5235 12.8118C79.2646 11.9187 79.2491 11.3095 78.1411 10.7715C77.666 10.5339 76.9879 10.256 77.5651 9.46507C77.8928 9.01615 78.1909 8.84869 78.7123 9.21448C80.1434 10.2204 81.5947 11.1978 83.0519 12.1658C83.5507 12.4959 83.6208 12.8273 83.2693 13.3154C82.9177 13.8035 82.5733 13.8605 82.0994 13.5042C81.6683 13.1812 81.2099 12.8973 80.8215 12.6372Z" fill="url(#paint10_linear_365_129)"/>
<path d="M53.0854 52.2549H39.7614C40.3647 51.3725 40.9846 50.8297 42.1176 50.8606C44.962 50.9319 47.8111 50.92 50.6567 50.8678C51.7018 50.8464 52.4667 51.1587 53.0854 52.2549Z" fill="#F79D2A"/>
<path d="M69.3834 103.591C70.096 105.001 69.1364 105.266 68.2742 105.546C67.4737 105.806 67.2172 106.19 67.6495 107.002C68.0818 107.815 68.3882 108.716 68.7908 109.558C69.0746 110.152 69.2314 110.572 68.4262 110.935C67.5319 111.337 67.444 110.697 67.2136 110.19C66.7967 109.268 66.3656 108.351 65.9963 107.41C65.7706 106.832 65.4713 106.768 64.9203 106.971C62.7671 107.765 62.76 107.751 63.4868 109.97C63.6566 110.488 63.8217 111.008 64.02 111.514C64.2778 112.17 64.2136 112.559 63.4262 112.821C62.5735 113.101 62.5224 112.553 62.3443 112.046C61.9334 110.875 61.8384 109.182 61.0189 108.688C60.2541 108.227 58.7184 109.037 57.5237 109.294C57.0296 109.401 56.5356 109.517 56.0463 109.651C55.7672 109.726 55.5308 109.888 55.6068 110.226C55.6828 110.563 55.9904 110.602 56.2588 110.55C57.2529 110.361 58.2398 110.131 59.2339 109.939C60.4441 109.702 61.2647 110.264 61.5403 111.483C61.811 112.671 61.2814 113.552 60.064 113.842C58.5866 114.198 57.0949 114.476 55.6175 114.835C55.0439 114.975 54.7553 114.859 54.5985 114.265C54.4311 113.635 54.7078 113.423 55.2577 113.315C56.5166 113.058 57.7723 112.786 59.0248 112.498C59.3811 112.416 59.9049 112.394 59.8063 111.841C59.6875 111.21 59.2232 111.406 58.7909 111.503C57.8408 111.718 56.8907 111.935 55.9275 112.074C54.8586 112.228 54.076 111.664 53.8444 110.663C53.5629 109.45 53.9798 108.644 55.1235 108.287C55.6837 108.122 56.2532 107.989 56.8289 107.889C59.6538 107.367 62.3999 106.483 64.9998 105.261C66.7516 104.43 68.6376 103.9 70.3145 102.903C71.0722 102.451 71.6589 103.021 72.2896 103.235C73.6945 103.71 73.742 103.695 73.9012 102.209C73.9843 101.431 73.7598 100.536 74.7658 100.105C75.2575 99.8931 75.5152 99.9098 75.4784 100.51C75.4546 100.856 75.3869 101.201 75.3418 101.548C75.1494 103.056 74.9012 104.566 76.0544 105.863C76.4665 106.329 76.4332 106.732 75.8346 107.089C75.3038 107.406 74.875 107.493 74.6185 106.841C73.6874 104.482 71.3098 104.563 69.3834 103.591Z" fill="url(#paint11_linear_365_129)"/>
<path d="M28.4337 107.38C29.0525 105.972 29.8197 106.133 31.195 106.607C32.5251 107.063 33.1558 107.535 33.2734 108.876C33.3446 109.678 33.5905 110.466 33.8268 111.588C34.6581 110.575 35.3588 109.784 35.9859 108.941C36.4942 108.258 37.0334 108.171 37.8861 108.296C40.1878 108.635 42.5179 108.738 44.835 109.009C46.7506 109.234 48.6437 109.041 50.5439 108.89C51.5226 108.813 52.6235 108.625 53.1247 109.721C53.5997 110.75 53.7803 111.911 53.0249 112.935C52.7423 113.317 52.734 113.567 52.9679 113.963C53.1686 114.304 53.8325 114.778 53.2351 115.092C52.6995 115.373 51.7791 115.664 51.399 114.773C50.8884 113.586 50.0036 113.55 48.93 113.648C48.2696 113.708 48.0119 113.93 48.0986 114.575C48.1711 115.137 48.1093 115.538 47.3528 115.57C46.5677 115.605 46.4537 115.22 46.43 114.589C46.3908 113.577 46.2625 112.57 46.2316 111.56C46.2103 110.882 45.9478 110.619 45.2542 110.578C43.3884 110.465 41.5274 110.279 39.6652 110.116C39.3303 110.087 38.8457 110.234 38.7151 109.848C38.2674 108.521 37.9194 109.507 37.594 109.883C36.6272 111.002 35.6771 112.135 34.7436 113.282C34.3505 113.757 33.9764 114.076 33.2615 113.903C32.5465 113.729 32.3696 113.221 32.2508 112.644C31.8945 110.931 31.5655 109.213 31.2152 107.499C31.1545 107.297 31.0775 107.101 30.9848 106.911C30.4206 107.14 30.4503 107.676 30.2995 108.06C29.8304 109.254 29.4005 110.467 28.9931 111.684C28.7877 112.3 28.4824 112.472 27.8601 112.221C27.2889 111.99 27.138 111.77 27.3435 111.102C27.7247 109.864 28.5002 108.734 28.4539 107.37L28.4337 107.38ZM50.1473 110.497C49.506 110.497 49.1188 110.497 48.7328 110.497C48.0321 110.497 47.8112 110.835 47.8504 111.52C47.8931 112.272 48.3409 112.289 48.8824 112.233C49.2672 112.193 49.6627 112.186 50.0309 112.085C50.6758 111.91 51.8503 112.466 51.7518 111.178C51.6568 109.947 50.5677 110.587 50.1473 110.497Z" fill="url(#paint12_linear_365_129)"/>
<path d="M28.4467 107.367C27.4705 108.048 27.1344 109.11 26.7318 110.153C26.5026 110.747 26.3755 111.64 25.3066 111.038C24.8316 110.772 24.6902 110.51 24.9337 110.022C25.3506 109.191 25.7448 108.341 26.1534 107.501C26.5429 106.697 26.404 106.139 25.5418 105.703C23.3043 104.569 23.3173 104.541 22.2009 106.811C21.9789 107.265 21.7734 107.728 21.5501 108.181C21.347 108.595 21.2152 109.082 20.5383 108.765C19.9611 108.495 19.7069 108.234 19.9551 107.528C20.4231 106.222 21.4278 105.184 21.5881 103.721C20.8755 104.801 20.1119 105.858 19.4563 106.972C18.9813 107.779 18.5692 108.016 17.7366 107.373C16.6618 106.541 15.4801 105.851 14.359 105.07C13.3732 104.381 13.1713 103.457 13.8115 102.439C14.4944 101.351 15.2533 100.312 15.9397 99.2326C16.2687 98.71 16.5751 98.6744 17.0751 99.0093C17.6 99.3656 17.7509 99.6815 17.3376 100.234C16.777 100.98 16.2818 101.778 15.7473 102.541C15.2248 103.288 15.3186 103.86 16.0929 104.409C18.1392 105.863 18.1214 105.881 19.5145 103.816C19.9492 103.172 20.277 102.304 20.8886 101.972C21.6107 101.582 22.1808 102.582 22.9005 102.823C23.7817 103.116 24.5964 103.601 25.4515 103.978C26.9776 104.653 28.613 105.221 28.4348 107.381L28.4467 107.367ZM21.9444 103.285L22.0026 103.328L22.0109 103.254L21.9444 103.285Z" fill="url(#paint13_linear_365_129)"/>
<path d="M39.2079 113.494C41.1081 113.656 42.9715 113.826 44.8325 113.969C45.4038 114.013 45.6639 114.206 45.6128 114.836C45.557 115.495 45.1995 115.58 44.6627 115.533C42.804 115.365 40.9454 115.197 39.0808 115.058C38.5416 115.017 38.2043 114.896 38.2257 114.248C38.2578 113.506 38.6912 113.44 39.2079 113.494Z" fill="url(#paint14_linear_365_129)"/>
<path d="M44.6877 112.962C42.8112 112.801 41.006 112.631 39.1901 112.498C38.6379 112.458 38.4538 112.226 38.493 111.69C38.5345 111.103 38.841 111.013 39.3516 111.063C41.1604 111.242 42.9739 111.38 44.7815 111.563C45.2566 111.611 45.9549 111.412 45.8504 112.346C45.7459 113.229 45.1176 112.935 44.6877 112.962Z" fill="url(#paint15_linear_365_129)"/>
<path d="M43.5 49.6416C44.4917 45.8542 45.1235 42.0086 45.652 38.1357C45.905 39.9683 45.4917 41.7604 45.4002 43.568C45.3432 44.6915 45.1449 45.8114 45.1413 46.9326C45.1366 48.1831 43.6413 48.4622 43.5 49.6416Z" fill="#F79D2A"/>
<path d="M49.5653 48.811C47.9668 48.0651 48.1865 46.6899 47.962 45.431C47.7126 44.0284 47.6722 42.608 47.424 41.2089C47.3523 40.7553 47.4172 40.2906 47.6105 39.874C48.3658 42.8122 48.709 45.8146 49.5653 48.811Z" fill="#F79D2A"/>
<path d="M45.506 33.8089L45.3872 33.9751C45.3516 33.9193 45.2768 33.8504 45.2898 33.8089C45.3112 33.7388 45.3884 33.6901 45.4419 33.626L45.506 33.8089Z" fill="#F79D2A"/>
<path d="M88.5565 38.5245C88.0375 37.3903 87.2501 36.6029 85.9841 36.3701C82.616 35.749 79.249 35.1148 75.8761 34.5174C74.426 34.2609 74.0947 34.5958 74.0104 36.0839C73.7954 39.6943 73.8916 43.3368 73.2978 46.908C72.9546 48.965 73.5139 50.5125 74.8417 52.0149C77.0614 54.522 79.173 57.1217 81.3274 59.6894C82.578 61.1775 82.6207 61.187 84.249 60.1573C85.0542 59.6478 85.477 59.8497 85.4996 60.82C85.5186 61.6739 85.5304 62.5432 85.3986 63.3829C84.5186 68.9185 82.61 74.0562 79.4117 78.6844C79.0483 79.2093 78.8179 80.1416 78.0923 79.9908C77.4391 79.853 77.7158 78.9314 77.6089 78.3673C77.3548 77.0253 77.1909 76.8709 75.8429 77.1737C72.9154 77.8293 69.9772 78.4421 67.0675 79.1666C66.1031 79.4041 65.6625 79.1143 65.1067 78.3471C61.4582 73.3056 58.539 67.8698 56.1103 62.1585C55.6353 61.0409 55.2469 59.9471 53.7279 59.8188C53.1115 59.7666 52.5344 59.2784 51.9358 58.9946C51.6472 58.8568 51.3823 58.7167 51.3835 58.3283C51.3835 57.5504 51.3752 56.7713 51.3622 55.9922C51.3538 55.4637 51.7184 55.4649 52.0747 55.4923C52.6935 55.5386 52.4168 55.9091 52.3681 56.2428C52.2909 56.7773 51.7743 57.2036 51.9572 58.0385L55.8407 53.4258H37.1058L40.8516 57.82L41.0891 57.6858C40.9133 57.1823 40.7257 56.6823 40.5666 56.174C40.4834 55.9079 40.2269 55.5398 40.7898 55.4911C41.0915 55.4649 41.3836 55.44 41.5262 55.8628C42.0677 57.5077 41.3516 59.1383 39.759 59.782C39.5072 59.8841 39.2471 60.0112 38.9834 60.0314C38.3457 60.0813 38.044 60.4494 37.8136 61.0017C36.1402 65.0242 34.322 68.9743 31.9384 72.6405C30.6047 74.6916 29.3909 76.8198 27.9349 78.7925C27.4776 79.41 27.0251 79.6131 26.1677 79.3934C23.1903 78.6274 20.1748 78.0039 17.1689 77.3531C16.0466 77.1155 15.4766 77.5585 15.3459 78.7093C15.3198 78.9409 15.3293 79.1761 15.3115 79.4089C15.2854 79.7426 15.1155 80.0573 14.8364 80.163C14.4801 80.2984 14.3329 79.8887 14.163 79.6713C13.8918 79.2951 13.6416 78.9042 13.4136 78.5003C9.86973 72.7914 7.95052 66.5919 7.77475 59.8663C7.76524 59.5243 7.67142 59.1288 8.04078 58.9162C8.43388 58.6882 8.68804 59.0005 8.94813 59.2321C10.2795 60.4257 10.5289 60.4328 11.6904 59.0243C13.6702 56.6253 15.7082 54.2737 17.8293 52.0018C19.4635 50.2488 20.0988 48.2655 19.7568 45.8439C19.3316 42.8451 19.0965 39.8155 18.8637 36.7941C18.7034 34.7086 18.5739 34.5447 16.5157 34.8939C16.2426 34.939 15.9706 34.9925 15.7497 34.7656C15.4766 34.4853 15.6013 34.1896 15.7355 33.9034C16.0538 33.2241 16.5478 32.673 17.0336 32.1136C21.1772 27.3393 26.252 23.8881 32.0916 21.5235C32.5286 21.3465 32.9871 20.8323 33.4586 21.3418C33.854 21.7681 33.4491 22.2183 33.2828 22.6351C32.689 24.1339 32.8077 24.4629 34.2329 25.0531C37.8338 26.5413 41.443 28.008 45.0404 29.4949C45.4506 29.6762 45.8946 29.7686 46.3431 29.7659C46.7916 29.7633 47.2344 29.6656 47.6425 29.4795C51.2054 27.9355 54.7897 26.4071 58.355 24.8548C59.6614 24.2871 59.8834 23.7527 59.3229 22.4724C58.0295 19.5128 56.6935 16.5711 55.393 13.6138C54.9928 12.7029 54.3158 12.2006 53.3479 12.0949C49.6591 11.6922 45.9584 11.526 42.2613 11.8573C33.088 12.6744 24.8553 15.9167 17.6642 21.685C7.90657 29.5103 2.24511 39.7014 0.615679 52.041C-0.297613 58.9613 0.439909 65.7891 2.60259 72.4838C3.74866 76.0312 5.42679 79.2984 7.26644 82.4765C9.54907 86.4195 12.6441 89.7294 16.0312 92.7888C21.3684 97.6106 27.67 100.651 34.4704 102.622C38.6592 103.836 43.0071 104.285 47.4156 104.091C51.4511 103.938 55.4541 103.306 59.3407 102.209C65.1245 100.546 70.3643 97.8635 75.0721 94.0215C77.7407 91.8422 80.236 89.5418 82.3678 86.8767C88.2572 79.5134 91.7263 71.1405 92.5814 61.7167C93.3071 53.6241 91.9365 45.9033 88.5565 38.5245ZM50.1353 55.5326C51.1935 55.5588 50.2695 56.6502 50.7291 57.0766C50.3859 57.6407 51.1234 58.6098 50.1733 58.6668C49.0807 58.7321 49.5391 57.6763 49.5795 57.1644C49.6294 56.6086 48.9845 55.5053 50.1353 55.5326ZM45.4454 55.4495C46.1784 55.5119 46.9154 55.5119 47.6484 55.4495C48.3859 55.3961 48.633 55.7132 48.5415 56.3996C48.5384 56.4391 48.5384 56.4788 48.5415 56.5184C48.5724 58.7155 48.5724 58.7155 46.3527 58.7214C44.2862 58.7274 44.3337 58.7214 44.2827 56.6324C44.2577 55.7238 44.4953 55.3557 45.4454 55.4495ZM44.9347 60.0932C45.9829 60.1662 47.0349 60.1662 48.0831 60.0932C49.0403 60.0171 49.5415 60.301 49.8467 61.2665C50.6401 63.782 51.5498 66.2617 52.4073 68.757C52.5165 69.0752 52.703 69.3912 52.5332 69.7451C51.4714 69.5337 50.7173 68.7546 49.8254 68.238C49.2113 67.8817 48.8277 67.89 48.3159 68.4019C47.728 68.9957 47.247 70.0752 46.4489 69.966C45.8028 69.8757 45.247 68.9541 44.7043 68.3532C44.2839 67.8852 43.9216 67.8496 43.4062 68.2023C42.5428 68.7962 41.6366 69.3235 40.7245 69.8947C40.487 69.4102 40.8183 69.0515 40.9407 68.6916C41.8112 66.1394 42.7459 63.6086 43.6021 61.0516C43.8337 60.3437 44.1698 60.0492 44.9287 60.0932H44.9347ZM58.83 80.2675L52.5118 78.878C48.8301 77.473 45.0998 77.4291 41.316 78.435C39.3694 78.9516 37.3112 78.9516 35.4051 79.6713C35.3378 79.708 35.2592 79.7183 35.1847 79.7C35.1102 79.6818 35.0452 79.6364 35.0025 79.5728C34.8208 79.3352 35.0678 79.2414 35.1699 79.1226C35.9678 78.2307 36.8244 77.3932 37.734 76.6155C39.4431 75.1108 41.3979 73.884 43.1972 72.485C43.7969 72.0099 44.2423 72.061 44.7126 72.5313C45.8931 73.7106 47.0795 73.669 48.2517 72.555C48.9038 71.9363 49.4227 72.1453 50.0771 72.6001C52.8218 74.5075 55.5854 76.384 57.8348 78.8946C58.1139 79.3412 58.6994 79.5514 58.83 80.2675ZM49.8289 71.0325C49.2185 70.6109 48.8551 70.6845 48.3325 71.1643C46.4988 72.8495 46.4596 72.8519 44.6995 71.1892C44.1758 70.6952 43.804 70.6204 43.2079 71.055C42.171 71.8104 41.0701 72.4873 39.9953 73.1845C39.8005 73.3104 39.582 73.6678 39.329 73.2949C39.1936 73.0942 39.2875 72.8804 39.4965 72.6928C40.7791 71.5408 42.2898 70.7154 43.6865 69.7237C44.1152 69.4197 44.3872 69.9185 44.6651 70.1417C46.5356 71.6417 46.5522 71.6726 48.3171 70.1916C48.9239 69.6809 49.4002 69.5978 50.0569 70.0729C51.0391 70.7712 52.0676 71.4078 53.0914 72.0455C53.6602 72.4018 53.9845 72.865 54.0082 73.688C52.5522 72.7712 51.1579 71.9493 49.8289 71.0325ZM52.5605 69.8341L52.5427 69.7593L52.6163 69.7522L52.5605 69.8341ZM42.2969 58.0742C42.3231 57.7654 42.2969 57.4519 42.2969 57.1407H42.3112C42.3112 56.7511 42.3112 56.3616 42.3112 55.9721C42.3112 55.6443 42.4822 55.4733 42.8195 55.4792C43.1354 55.4792 43.348 55.6122 43.3516 55.9542C43.3599 56.6941 43.3516 57.434 43.3646 58.1727C43.3729 58.6621 43.0986 58.7476 42.6877 58.7262C42.215 58.6965 42.2684 58.3984 42.2969 58.0742ZM60.8929 83.4433C59.3094 86.0782 57.7334 88.7195 56.165 91.3672C55.4037 92.6522 55.5521 93.075 56.9108 93.6866C57.3573 93.8873 57.9797 93.9918 57.8787 94.664C57.7908 95.2721 57.2018 95.3493 56.7208 95.4883C52.8657 96.5999 48.9263 96.8861 44.9287 96.8267C42.0273 96.784 39.2471 96.1367 36.4538 95.5037C36.0333 95.4087 35.5666 95.3077 35.5215 94.7745C35.4799 94.2994 35.9276 94.1581 36.2436 93.9491C37.5678 93.0691 37.7103 92.6427 36.9003 91.2757C35.0001 88.0596 33.0488 84.8684 31.1177 81.6689C30.6154 80.8376 29.8707 80.2937 28.9907 79.9362C29.0061 79.8317 28.9907 79.7177 29.0322 79.6927C31.5191 78.1238 32.8386 75.7355 33.9574 73.1061C35.6771 69.0598 37.5927 65.0967 39.4347 61.1026C39.8326 60.238 41.7459 59.6597 42.5048 60.168C42.9264 60.4506 42.6235 60.795 42.519 61.0955C41.1573 64.8636 39.6046 68.56 37.8671 72.1702C36.8207 74.3365 35.7103 76.4718 34.645 78.6286C34.3588 79.2082 34.0939 79.1488 33.7139 78.7177C33.3659 78.3234 33.05 77.8768 32.4431 77.5787C32.2982 78.7889 32.721 79.8115 32.8873 80.853C32.9977 81.5502 33.6569 81.1974 34.0583 81.125C37.4288 80.5205 40.8112 79.9599 44.1532 79.2248C45.924 78.8364 47.6069 78.8364 49.3265 79.3435C50.2185 79.6048 51.1341 79.7853 52.0379 80.0039C51.9809 79.6215 52.3467 79.416 52.4714 79.1096C52.3526 79.416 51.9809 79.6215 52.0391 80.0027C54.4524 80.549 56.8645 81.1012 59.2837 81.6357C59.6554 81.7176 60.159 82.0644 60.3442 81.4053C60.6483 80.3245 61.0758 79.2675 61.1483 77.8804C60.5913 78.4623 60.2184 78.8982 59.7967 79.2818C58.792 80.1939 59.0153 78.8067 58.596 78.6227C57.1519 75.6274 55.6353 72.6631 54.2837 69.6263C53.0094 66.7594 51.9085 63.814 50.7303 60.9043C50.5177 60.3794 50.6234 60.1478 51.2541 60.0967C53.3752 59.9245 53.45 59.9304 54.3419 61.8568C56.5422 66.6279 58.7334 71.403 60.9155 76.1821C61.2208 76.8572 61.684 77.449 62.2658 77.9077C62.9297 78.4398 63.5722 78.9932 64.3953 79.6737C62.3537 80.2509 61.7742 81.9789 60.8929 83.4433Z" fill="url(#paint16_linear_365_129)"/>
<path d="M52.5201 69.7607L52.6113 69.7523L52.5549 69.8351C52.5477 69.8051 52.5417 69.7751 52.5345 69.7451L52.5201 69.7607Z" fill="#FEFEFD"/>
<path d="M21.9445 103.284L22.0116 103.254L22.0032 103.328L21.9445 103.284Z" fill="#FEFEFD"/>
</g>
<defs>
<linearGradient id="paint0_linear_365_129" x1="71.8073" y1="43.1306" x2="61.0734" y2="76.2431" gradientUnits="userSpaceOnUse">
<stop offset="0.16" stop-color="#FEDF22"/>
<stop offset="0.51" stop-color="#FAA11E"/>
<stop offset="0.75" stop-color="#F37024"/>
<stop offset="1" stop-color="#720308"/>
</linearGradient>
<linearGradient id="paint1_linear_365_129" x1="34.5714" y1="31.059" x2="23.8375" y2="64.1714" gradientUnits="userSpaceOnUse">
<stop offset="0.16" stop-color="#FEDF22"/>
<stop offset="0.51" stop-color="#FAA11E"/>
<stop offset="0.75" stop-color="#F37024"/>
<stop offset="1" stop-color="#720308"/>
</linearGradient>
<linearGradient id="paint2_linear_365_129" x1="-13.7998" y1="12.7371" x2="77.774" y2="-2.42428" gradientUnits="userSpaceOnUse">
<stop offset="0.24" stop-color="#FAA11E"/>
<stop offset="0.56" stop-color="#F37024"/>
<stop offset="1" stop-color="#720308"/>
</linearGradient>
<linearGradient id="paint3_linear_365_129" x1="-12.7334" y1="19.1765" x2="78.8405" y2="4.0151" gradientUnits="userSpaceOnUse">
<stop offset="0.24" stop-color="#FAA11E"/>
<stop offset="0.56" stop-color="#F37024"/>
<stop offset="1" stop-color="#720308"/>
</linearGradient>
<linearGradient id="paint4_linear_365_129" x1="-13.6253" y1="13.7918" x2="77.9497" y2="-1.36961" gradientUnits="userSpaceOnUse">
<stop offset="0.24" stop-color="#FAA11E"/>
<stop offset="0.56" stop-color="#F37024"/>
<stop offset="1" stop-color="#720308"/>
</linearGradient>
<linearGradient id="paint5_linear_365_129" x1="-13.5588" y1="14.1948" x2="78.0162" y2="-0.966569" gradientUnits="userSpaceOnUse">
<stop offset="0.24" stop-color="#FAA11E"/>
<stop offset="0.56" stop-color="#F37024"/>
<stop offset="1" stop-color="#720308"/>
</linearGradient>
<linearGradient id="paint6_linear_365_129" x1="-13.7487" y1="13.0465" x2="77.8263" y2="-2.11488" gradientUnits="userSpaceOnUse">
<stop offset="0.24" stop-color="#FAA11E"/>
<stop offset="0.56" stop-color="#F37024"/>
<stop offset="1" stop-color="#720308"/>
</linearGradient>
<linearGradient id="paint7_linear_365_129" x1="-11.9139" y1="24.1296" x2="79.6612" y2="8.96825" gradientUnits="userSpaceOnUse">
<stop offset="0.24" stop-color="#FAA11E"/>
<stop offset="0.56" stop-color="#F37024"/>
<stop offset="1" stop-color="#720308"/>
</linearGradient>
<linearGradient id="paint8_linear_365_129" x1="-13.1835" y1="16.4557" x2="78.3904" y2="1.2943" gradientUnits="userSpaceOnUse">
<stop offset="0.24" stop-color="#FAA11E"/>
<stop offset="0.56" stop-color="#F37024"/>
<stop offset="1" stop-color="#720308"/>
</linearGradient>
<linearGradient id="paint9_linear_365_129" x1="-13.2536" y1="16.0353" x2="78.3203" y2="0.873922" gradientUnits="userSpaceOnUse">
<stop offset="0.24" stop-color="#FAA11E"/>
<stop offset="0.56" stop-color="#F37024"/>
<stop offset="1" stop-color="#720308"/>
</linearGradient>
<linearGradient id="paint10_linear_365_129" x1="-11.3461" y1="27.5575" x2="80.2289" y2="12.3962" gradientUnits="userSpaceOnUse">
<stop offset="0.24" stop-color="#FAA11E"/>
<stop offset="0.56" stop-color="#F37024"/>
<stop offset="1" stop-color="#720308"/>
</linearGradient>
<linearGradient id="paint11_linear_365_129" x1="-12.1989" y1="95.24" x2="66.3977" y2="107.612" gradientUnits="userSpaceOnUse">
<stop offset="0.24" stop-color="#FAA11E"/>
<stop offset="0.56" stop-color="#F37024"/>
<stop offset="1" stop-color="#720308"/>
</linearGradient>
<linearGradient id="paint12_linear_365_129" x1="-13.3532" y1="102.574" x2="65.2421" y2="114.946" gradientUnits="userSpaceOnUse">
<stop offset="0.24" stop-color="#FAA11E"/>
<stop offset="0.56" stop-color="#F37024"/>
<stop offset="1" stop-color="#720308"/>
</linearGradient>
<linearGradient id="paint13_linear_365_129" x1="-12.8925" y1="99.6435" x2="65.704" y2="112.015" gradientUnits="userSpaceOnUse">
<stop offset="0.24" stop-color="#FAA11E"/>
<stop offset="0.56" stop-color="#F37024"/>
<stop offset="1" stop-color="#720308"/>
</linearGradient>
<linearGradient id="paint14_linear_365_129" x1="-13.8498" y1="105.728" x2="64.7456" y2="118.099" gradientUnits="userSpaceOnUse">
<stop offset="0.24" stop-color="#FAA11E"/>
<stop offset="0.56" stop-color="#F37024"/>
<stop offset="1" stop-color="#720308"/>
</linearGradient>
<linearGradient id="paint15_linear_365_129" x1="-13.4637" y1="103.272" x2="65.1328" y2="115.643" gradientUnits="userSpaceOnUse">
<stop offset="0.24" stop-color="#FAA11E"/>
<stop offset="0.56" stop-color="#F37024"/>
<stop offset="1" stop-color="#720308"/>
</linearGradient>
<linearGradient id="paint16_linear_365_129" x1="77.3726" y1="-10.6234" x2="36.2542" y2="80.3447" gradientUnits="userSpaceOnUse">
<stop offset="0.16" stop-color="#FEDF22"/>
<stop offset="0.51" stop-color="#FAA11E"/>
<stop offset="0.75" stop-color="#F37024"/>
<stop offset="1" stop-color="#720308"/>
</linearGradient>
<clipPath id="clip0_365_129">
<rect width="92.5334" height="115.57" fill="white" transform="translate(0.233276)"/>
</clipPath>
</defs>
</svg>
