<svg width="223" height="198" viewBox="0 0 223 198" fill="none" xmlns="http://www.w3.org/2000/svg">
<g filter="url(#filter0_d_266_560)">
<rect x="4" y="2" width="215" height="190" rx="30" fill="white" shape-rendering="crispEdges"/>
<g clip-path="url(#clip0_266_560)">
<path d="M138.324 82.4226C138.324 84.2919 138.287 86.1624 138.339 88.0294C138.363 88.8857 138.102 89.1968 137.216 89.1755C135.113 89.1248 133.008 89.1284 130.901 89.1862C129.602 89.2218 128.328 89.4724 126.999 89.2265C125.794 89.0044 124.335 87.8346 124.231 86.5757C123.958 83.1993 124.184 79.8145 124.127 76.4333C124.12 76.0426 124.221 75.7207 124.689 75.7207C125.429 75.7124 126.171 75.6958 126.908 75.7397C127.551 75.7766 127.437 76.3157 127.439 76.7195C127.452 78.7837 127.439 80.8478 127.453 82.9107C127.457 83.4164 127.497 83.9212 127.572 84.4214C127.721 85.4142 128.329 85.9368 129.325 85.9534C130.963 85.9795 132.601 85.9475 134.237 85.9926C135.069 86.0152 135.069 85.5033 135.069 84.9237C135.069 82.2361 135.113 79.5485 135.05 76.8633C135.027 75.9131 135.335 75.6649 136.244 75.6982C138.608 75.7813 138.318 75.482 138.327 77.7516C138.335 79.3098 138.327 80.8668 138.327 82.4249L138.324 82.4226Z" fill="url(#paint0_linear_266_560)"/>
<path d="M91.8197 75.415C93.923 75.415 96.0263 75.4376 98.1296 75.4019C98.8267 75.3889 99.0737 75.5932 99.0904 76.3188C99.1426 78.6489 99.1723 78.6478 96.8339 78.6466C96.1332 78.6466 95.4277 78.6964 94.7317 78.6323C93.8256 78.548 93.5061 78.8461 93.5299 79.7974C93.5976 82.4803 93.5607 85.1667 93.5679 87.8507C93.5679 88.4327 93.6759 89.2153 92.9812 89.3198C92.1011 89.4505 91.1344 89.669 90.2734 89.1393C90.1712 89.0828 90.089 88.9961 90.0379 88.8911C89.9869 88.7861 89.9696 88.6679 89.9883 88.5526C90.3221 85.6916 90.043 82.8152 90.1914 79.9518C90.2496 78.8235 89.8351 78.5516 88.7995 78.6335C87.6772 78.7226 86.543 78.6335 85.4124 78.6751C84.7592 78.6976 84.5442 78.4613 84.5216 77.8033C84.4373 75.4103 84.4136 75.4126 86.79 75.415H91.8197Z" fill="url(#paint1_linear_266_560)"/>
<path d="M118.508 72.7326C117.227 72.7445 116.575 72.292 116.262 70.9262C115.227 66.4001 114.135 61.8812 112.76 57.4406C112.658 57.1081 112.422 56.6758 112.802 56.5297C113.277 56.3456 113.277 56.9026 113.395 57.1983C115.241 62.0676 117.082 66.9369 118.919 71.8062C119.094 72.2801 119.423 72.8205 118.508 72.7326Z" fill="#F79D2A"/>
<path d="M110.227 56.3086C110.173 57.8977 109.616 59.3549 109.216 60.8442C108.266 64.3714 107.259 67.8821 106.274 71.3999C106.031 72.2657 104.621 73.0471 103.828 72.7526C103.329 72.5673 103.627 72.2372 103.726 71.9889C105.399 67.799 107.08 63.6153 108.77 59.438C109.201 58.3727 109.518 57.254 110.227 56.3086Z" fill="#F79D2A"/>
<path d="M107.149 25.1837C106.387 26.065 106.159 26.9319 105.785 27.711C105.455 28.3987 105.16 28.3951 104.744 27.8072C104.481 27.4198 104.192 27.0519 103.877 26.7063C103.652 26.4688 103.52 25.9581 103.125 26.097C102.689 26.2514 102.992 26.7051 103.006 27.0186C103.043 27.5227 103.105 28.0246 103.194 28.5222C103.285 29.116 103.147 29.4723 102.451 29.5495C101.786 29.6195 101.66 29.2834 101.602 28.7502C101.432 27.1635 101.228 25.5816 101.06 23.9997C101.019 23.6125 100.715 23.0923 101.317 22.894C101.878 22.7099 102.47 22.6374 102.921 23.2004C103.43 23.8405 103.956 24.4676 104.464 25.1006C104.855 25.5863 105.162 25.6754 105.451 24.9925C105.754 24.2799 106.179 23.6101 106.45 22.8845C106.74 22.1089 107.364 22.0697 107.974 22.1256C108.633 22.1861 108.475 22.8251 108.531 23.2443C108.732 24.7479 108.887 26.2574 109.062 27.7645C109.126 28.3072 109.14 28.7668 108.399 28.8571C107.616 28.9521 107.485 28.5352 107.443 27.907C107.393 27.0685 107.268 26.2407 107.149 25.1837Z" fill="url(#paint2_linear_266_560)"/>
<path d="M128.867 24.5353C130.21 24.9807 131.766 25.4854 133.311 26.0163C133.905 26.2218 133.685 26.6897 133.566 27.0959C133.43 27.5709 133.139 27.6766 132.673 27.5127C131.571 27.1256 130.459 26.7645 129.348 26.4047C128.991 26.2859 128.544 26.0638 128.366 26.6101C128.187 27.1564 128.654 27.2503 129.022 27.3773C129.796 27.6434 130.584 27.8714 131.344 28.1731C132.455 28.6149 132.778 29.5032 132.341 30.7657C131.93 31.9533 131.153 32.4117 130.002 32.0649C128.696 31.6706 127.42 31.1825 126.111 30.8037C125.471 30.6172 125.336 30.35 125.525 29.7158C125.743 28.9806 126.161 29.0792 126.686 29.2609C127.718 29.6172 128.752 29.9652 129.79 30.2989C130.146 30.4177 130.621 30.6053 130.805 30.1113C131.033 29.508 130.471 29.4284 130.085 29.2918C129.315 29.0186 128.534 28.7752 127.761 28.508C126.698 28.141 126.509 27.3203 126.692 26.3441C126.895 25.1968 127.666 24.5021 128.867 24.5353Z" fill="url(#paint3_linear_266_560)"/>
<path d="M115.416 25.2052C114.898 25.9629 114.37 26.7135 113.866 27.4807C113.489 28.0507 113.177 28.0032 112.848 27.4427C112.404 26.685 112.064 25.8572 111.199 25.2337C111.199 26.1398 111.182 27.0472 111.199 27.9522C111.216 28.5567 110.962 28.7835 110.368 28.7776C109.733 28.7681 109.588 28.4569 109.615 27.8869C109.69 26.2919 109.718 24.6957 109.787 23.1007C109.804 22.7111 109.581 22.1613 110.209 22.0472C110.803 21.9404 111.373 21.9594 111.727 22.6054C112.119 23.318 112.558 24.0104 112.971 24.7194C113.299 25.2871 113.59 25.3394 113.96 24.7384C114.367 24.0757 114.866 23.4665 115.254 22.7943C115.629 22.1458 116.192 22.166 116.778 22.2539C117.49 22.3608 117.274 22.9546 117.262 23.3738C117.215 25.0068 117.106 26.6386 117.063 28.2716C117.047 28.8227 116.882 29.0495 116.306 28.9842C115.769 28.9284 115.425 28.793 115.475 28.1446C115.553 27.1945 115.572 26.2443 115.616 25.2847L115.416 25.2052Z" fill="url(#paint4_linear_266_560)"/>
<path d="M90.3268 28.2507C90.1308 27.7839 89.9325 27.2756 89.7045 26.7828C89.4669 26.2614 89.6807 26.0001 90.157 25.7982C90.6332 25.5963 90.9503 25.6498 91.1676 26.1783C91.8482 27.8326 92.5524 29.4787 93.2614 31.1212C93.4847 31.6378 93.2876 31.9157 92.8244 32.1319C92.3612 32.348 92.05 32.2732 91.7793 31.7898C90.7805 30.0084 90.7888 30.0737 88.8434 30.8492C87.8565 31.2423 87.6914 31.7376 88.2033 32.5903C88.2901 32.7641 88.3674 32.9425 88.4349 33.1247C88.6558 33.6152 88.5121 33.905 88.0073 34.1247C87.5026 34.3444 87.2235 34.2542 87.0121 33.7435C86.3241 32.0895 85.6238 30.4427 84.9112 28.8029C84.6736 28.2626 84.8981 28.0393 85.3577 27.8267C85.8328 27.6046 86.1713 27.6189 86.3601 28.1676C86.4389 28.3452 86.5087 28.5268 86.5691 28.7115C86.8221 29.7911 87.3541 30.1367 88.3826 29.5013C88.8411 29.221 89.385 29.0785 89.8886 28.8694C90.1451 28.7685 90.3992 28.6497 90.3268 28.2507Z" fill="url(#paint5_linear_266_560)"/>
<path d="M94.1748 30.7045C94.4658 28.7853 94.7769 26.8696 95.0359 24.9468C95.1071 24.4231 95.3708 24.2342 95.8292 24.1024C96.3149 23.9635 96.6997 23.916 97.0631 24.3863C98.2045 25.8625 99.3945 27.3019 100.532 28.7805C100.732 29.0394 101.318 29.3862 100.871 29.7033C100.453 30.0002 99.6831 30.3957 99.2769 29.8221C98.3874 28.5656 97.4266 29.347 96.467 29.5406C96.0252 29.6297 95.942 29.9563 95.9385 30.3268C95.9313 31.005 95.5038 31.2544 94.9195 31.3957C94.2936 31.5477 94.0228 31.3612 94.1748 30.7045ZM96.5346 26.6463C96.575 27.0656 96.0073 27.4931 96.5774 27.8482C96.6962 27.9242 97.119 27.7876 97.1783 27.6511C97.4313 27.0834 96.8565 26.948 96.5394 26.6463H96.5346Z" fill="url(#paint6_linear_266_560)"/>
<path d="M139.088 31.4457C139.009 32.5692 138.951 33.6939 138.839 34.8138C138.803 35.1832 139.07 35.8387 138.436 35.8328C137.887 35.8257 137.129 35.5513 137.204 34.8483C137.333 33.6701 136.531 33.4385 135.769 33.0549C135.229 32.7841 134.769 32.6796 134.312 33.1986C134.113 33.4267 133.837 33.6428 133.495 33.4457C133.153 33.2485 132.68 33.1226 132.553 32.8364C132.374 32.4326 132.888 32.2093 133.166 31.9718C134.464 30.859 135.788 29.7771 137.085 28.6583C137.504 28.2949 137.867 28.1025 138.432 28.3899C138.997 28.6773 139.212 29.0811 139.145 29.6963C139.083 30.2747 139.07 30.859 139.037 31.4409L139.088 31.4457ZM137.244 30.897C136.934 31.0787 136.458 31.1167 136.558 31.6191C136.58 31.7319 136.876 31.8887 137.015 31.8625C137.608 31.7485 137.286 31.2877 137.244 30.897Z" fill="url(#paint7_linear_266_560)"/>
<path d="M117.571 28.9379C118.802 27.0935 119.979 25.2741 121.218 23.4974C121.746 22.742 122.973 22.9677 123.206 23.8691C123.695 25.7456 124.104 27.641 124.522 29.5341C124.581 29.7966 124.733 30.2289 124.234 30.2467C123.735 30.2645 123.039 30.2657 122.943 29.7016C122.698 28.2764 121.572 28.4605 120.636 28.2479C120.348 28.1826 120.062 28.1767 119.924 28.4676C119.387 29.609 118.562 29.3524 117.571 28.9379ZM121.818 25.7159C121.541 26.0888 121.051 26.3097 121.44 26.8002C121.525 26.9083 121.883 26.9582 121.973 26.8774C122.416 26.476 122.021 26.147 121.818 25.7159Z" fill="url(#paint8_linear_266_560)"/>
<path d="M83.2295 29.0342C83.6974 29.0757 83.7604 29.4736 83.9314 29.761C84.1368 30.1066 83.9539 30.3145 83.6796 30.5377C83.1701 30.9522 82.1618 30.9843 82.2354 31.8132C82.2889 32.4142 82.8186 32.9759 83.1452 33.5484C83.4159 34.0234 83.7212 34.4736 83.9765 34.9545C84.2318 35.4355 84.7817 35.9047 83.9302 36.3987C83.1428 36.8583 82.9076 36.3346 82.6119 35.8049C82.176 35.0246 81.6487 34.2847 81.3055 33.4676C80.8305 32.3512 80.2283 32.3334 79.3649 33.008C79.1013 33.2147 78.7414 33.4272 78.4338 33.4154C78.0573 33.3999 77.9908 32.9213 77.8305 32.6256C77.6333 32.2693 77.8946 32.0543 78.1868 31.8881C79.7339 30.9902 81.2822 30.0939 82.8316 29.1993C82.9598 29.1341 83.0928 29.0789 83.2295 29.0342Z" fill="url(#paint9_linear_266_560)"/>
<path d="M145.821 34.6372C145.409 34.7085 145.312 34.984 145.162 35.2037C144.504 36.1673 143.848 37.1313 143.194 38.0956C142.925 38.4947 142.659 38.7393 142.169 38.3391C141.769 38.0113 141.466 37.7453 141.861 37.2014C142.432 36.4163 142.908 35.5565 143.523 34.8118C144.264 33.9187 144.249 33.3095 143.141 32.7715C142.666 32.5339 141.988 32.256 142.565 31.4651C142.893 31.0161 143.191 30.8487 143.712 31.2145C145.143 32.2204 146.595 33.1978 148.052 34.1658C148.551 34.4959 148.621 34.8273 148.269 35.3154C147.918 35.8035 147.573 35.8605 147.099 35.5042C146.668 35.1812 146.21 34.8973 145.821 34.6372Z" fill="url(#paint10_linear_266_560)"/>
<path d="M118.085 74.2549H104.761C105.365 73.3725 105.985 72.8297 107.118 72.8606C109.962 72.9319 112.811 72.92 115.657 72.8678C116.702 72.8464 117.467 73.1587 118.085 74.2549Z" fill="#F79D2A"/>
<path d="M134.383 125.591C135.096 127.001 134.136 127.266 133.274 127.546C132.474 127.806 132.217 128.19 132.649 129.002C133.082 129.815 133.388 130.716 133.791 131.558C134.075 132.152 134.231 132.572 133.426 132.935C132.532 133.337 132.444 132.697 132.214 132.19C131.797 131.268 131.366 130.351 130.996 129.41C130.771 128.832 130.471 128.768 129.92 128.971C127.767 129.765 127.76 129.751 128.487 131.97C128.657 132.488 128.822 133.008 129.02 133.514C129.278 134.17 129.214 134.559 128.426 134.821C127.574 135.101 127.522 134.553 127.344 134.046C126.933 132.875 126.838 131.182 126.019 130.688C125.254 130.227 123.718 131.037 122.524 131.294C122.03 131.401 121.536 131.517 121.046 131.651C120.767 131.726 120.531 131.888 120.607 132.226C120.683 132.563 120.99 132.602 121.259 132.55C122.253 132.361 123.24 132.131 124.234 131.939C125.444 131.702 126.265 132.264 126.54 133.483C126.811 134.671 126.281 135.552 125.064 135.842C123.587 136.198 122.095 136.476 120.618 136.835C120.044 136.975 119.755 136.859 119.599 136.265C119.431 135.635 119.708 135.423 120.258 135.315C121.517 135.058 122.772 134.786 124.025 134.498C124.381 134.416 124.905 134.394 124.806 133.841C124.688 133.21 124.223 133.406 123.791 133.503C122.841 133.718 121.891 133.935 120.927 134.074C119.859 134.228 119.076 133.664 118.844 132.663C118.563 131.45 118.98 130.644 120.123 130.287C120.684 130.122 121.253 129.989 121.829 129.889C124.654 129.367 127.4 128.483 130 127.261C131.752 126.43 133.638 125.9 135.315 124.903C136.072 124.451 136.659 125.021 137.29 125.235C138.695 125.71 138.742 125.695 138.901 124.209C138.984 123.431 138.76 122.536 139.766 122.105C140.257 121.893 140.515 121.91 140.478 122.51C140.455 122.856 140.387 123.201 140.342 123.548C140.149 125.056 139.901 126.566 141.054 127.863C141.466 128.329 141.433 128.732 140.835 129.089C140.304 129.406 139.875 129.493 139.619 128.841C138.687 126.482 136.31 126.563 134.383 125.591Z" fill="url(#paint11_linear_266_560)"/>
<path d="M93.4337 129.38C94.0525 127.972 94.8197 128.133 96.195 128.607C97.5251 129.063 98.1558 129.535 98.2734 130.876C98.3446 131.678 98.5905 132.466 98.8268 133.588C99.6581 132.575 100.359 131.784 100.986 130.941C101.494 130.258 102.033 130.171 102.886 130.296C105.188 130.635 107.518 130.738 109.835 131.009C111.751 131.234 113.644 131.041 115.544 130.89C116.523 130.813 117.623 130.625 118.125 131.721C118.6 132.75 118.78 133.911 118.025 134.935C117.742 135.317 117.734 135.567 117.968 135.963C118.169 136.304 118.833 136.778 118.235 137.092C117.7 137.373 116.779 137.664 116.399 136.773C115.888 135.586 115.004 135.55 113.93 135.648C113.27 135.708 113.012 135.93 113.099 136.575C113.171 137.137 113.109 137.538 112.353 137.57C111.568 137.605 111.454 137.22 111.43 136.589C111.391 135.577 111.263 134.57 111.232 133.56C111.21 132.882 110.948 132.619 110.254 132.578C108.388 132.465 106.527 132.279 104.665 132.116C104.33 132.087 103.846 132.234 103.715 131.848C103.267 130.521 102.919 131.507 102.594 131.883C101.627 133.002 100.677 134.135 99.7436 135.282C99.3505 135.757 98.9764 136.076 98.2615 135.903C97.5465 135.729 97.3696 135.221 97.2508 134.644C96.8945 132.931 96.5655 131.213 96.2152 129.499C96.1545 129.297 96.0775 129.101 95.9848 128.911C95.4206 129.14 95.4503 129.676 95.2995 130.06C94.8304 131.254 94.4005 132.467 93.9931 133.684C93.7877 134.3 93.4824 134.472 92.8601 134.221C92.2889 133.99 92.138 133.77 92.3435 133.102C92.7247 131.864 93.5002 130.734 93.4539 129.37L93.4337 129.38ZM115.147 132.497C114.506 132.497 114.119 132.497 113.733 132.497C113.032 132.497 112.811 132.835 112.85 133.52C112.893 134.272 113.341 134.289 113.882 134.233C114.267 134.193 114.663 134.186 115.031 134.085C115.676 133.91 116.85 134.466 116.752 133.178C116.657 131.947 115.568 132.587 115.147 132.497Z" fill="url(#paint12_linear_266_560)"/>
<path d="M93.4467 129.367C92.4705 130.048 92.1344 131.11 91.7318 132.153C91.5026 132.747 91.3755 133.64 90.3066 133.038C89.8316 132.772 89.6902 132.51 89.9337 132.022C90.3506 131.191 90.7448 130.341 91.1534 129.501C91.5429 128.697 91.404 128.139 90.5418 127.703C88.3043 126.569 88.3173 126.541 87.2009 128.811C86.9789 129.265 86.7734 129.728 86.5501 130.181C86.347 130.595 86.2152 131.082 85.5383 130.765C84.9611 130.495 84.7069 130.234 84.9551 129.528C85.4231 128.222 86.4278 127.184 86.5881 125.721C85.8755 126.801 85.1119 127.858 84.4563 128.972C83.9813 129.779 83.5692 130.016 82.7366 129.373C81.6618 128.541 80.4801 127.851 79.359 127.07C78.3732 126.381 78.1713 125.457 78.8115 124.439C79.4944 123.351 80.2533 122.312 80.9397 121.233C81.2687 120.71 81.5751 120.674 82.0751 121.009C82.6 121.366 82.7509 121.681 82.3376 122.234C81.777 122.98 81.2818 123.778 80.7473 124.541C80.2248 125.288 80.3186 125.86 81.0929 126.409C83.1392 127.863 83.1214 127.881 84.5145 125.816C84.9492 125.172 85.277 124.304 85.8886 123.972C86.6107 123.582 87.1808 124.582 87.9005 124.823C88.7817 125.116 89.5964 125.601 90.4515 125.978C91.9776 126.653 93.613 127.221 93.4348 129.381L93.4467 129.367ZM86.9444 125.285L87.0026 125.328L87.0109 125.254L86.9444 125.285Z" fill="url(#paint13_linear_266_560)"/>
<path d="M104.208 135.494C106.108 135.656 107.971 135.826 109.833 135.969C110.404 136.013 110.664 136.206 110.613 136.836C110.557 137.495 110.199 137.58 109.663 137.533C107.804 137.365 105.945 137.197 104.081 137.058C103.542 137.017 103.204 136.896 103.226 136.248C103.258 135.506 103.691 135.44 104.208 135.494Z" fill="url(#paint14_linear_266_560)"/>
<path d="M109.688 134.962C107.811 134.801 106.006 134.631 104.19 134.498C103.638 134.458 103.454 134.226 103.493 133.69C103.535 133.103 103.841 133.013 104.352 133.063C106.16 133.242 107.974 133.38 109.782 133.563C110.257 133.611 110.955 133.412 110.85 134.346C110.746 135.229 110.118 134.935 109.688 134.962Z" fill="url(#paint15_linear_266_560)"/>
<path d="M108.5 71.6416C109.492 67.8542 110.123 64.0086 110.652 60.1357C110.905 61.9683 110.492 63.7604 110.4 65.568C110.343 66.6915 110.145 67.8114 110.141 68.9326C110.137 70.1831 108.641 70.4622 108.5 71.6416Z" fill="#F79D2A"/>
<path d="M114.565 70.811C112.967 70.0651 113.186 68.6899 112.962 67.431C112.713 66.0284 112.672 64.608 112.424 63.2089C112.352 62.7553 112.417 62.2906 112.61 61.874C113.366 64.8122 113.709 67.8146 114.565 70.811Z" fill="#F79D2A"/>
<path d="M110.506 55.8089L110.387 55.9751C110.352 55.9193 110.277 55.8504 110.29 55.8089C110.311 55.7388 110.388 55.6901 110.442 55.626L110.506 55.8089Z" fill="#F79D2A"/>
<path d="M153.557 60.5245C153.038 59.3903 152.25 58.6029 150.984 58.3701C147.616 57.749 144.249 57.1148 140.876 56.5174C139.426 56.2609 139.095 56.5958 139.01 58.0839C138.795 61.6943 138.892 65.3368 138.298 68.908C137.955 70.965 138.514 72.5125 139.842 74.0149C142.061 76.522 144.173 79.1217 146.327 81.6894C147.578 83.1775 147.621 83.187 149.249 82.1573C150.054 81.6478 150.477 81.8497 150.5 82.82C150.519 83.6739 150.53 84.5432 150.399 85.3829C149.519 90.9185 147.61 96.0562 144.412 100.684C144.048 101.209 143.818 102.142 143.092 101.991C142.439 101.853 142.716 100.931 142.609 100.367C142.355 99.0253 142.191 98.8709 140.843 99.1737C137.915 99.8293 134.977 100.442 132.067 101.167C131.103 101.404 130.662 101.114 130.107 100.347C126.458 95.3056 123.539 89.8698 121.11 84.1585C120.635 83.0409 120.247 81.9471 118.728 81.8188C118.112 81.7666 117.534 81.2784 116.936 80.9946C116.647 80.8568 116.382 80.7167 116.384 80.3283C116.384 79.5504 116.375 78.7713 116.362 77.9922C116.354 77.4637 116.718 77.4649 117.075 77.4923C117.693 77.5386 117.417 77.9091 117.368 78.2428C117.291 78.7773 116.774 79.2036 116.957 80.0385L120.841 75.4258H102.106L105.852 79.82L106.089 79.6858C105.913 79.1823 105.726 78.6823 105.567 78.174C105.483 77.9079 105.227 77.5398 105.79 77.4911C106.091 77.4649 106.384 77.44 106.526 77.8628C107.068 79.5077 106.352 81.1383 104.759 81.782C104.507 81.8841 104.247 82.0112 103.983 82.0314C103.346 82.0813 103.044 82.4494 102.814 83.0017C101.14 87.0242 99.322 90.9743 96.9384 94.6405C95.6047 96.6916 94.3909 98.8198 92.9349 100.792C92.4776 101.41 92.0251 101.613 91.1677 101.393C88.1903 100.627 85.1748 100.004 82.1689 99.3531C81.0466 99.1155 80.4766 99.5585 80.3459 100.709C80.3198 100.941 80.3293 101.176 80.3115 101.409C80.2854 101.743 80.1155 102.057 79.8364 102.163C79.4801 102.298 79.3329 101.889 79.163 101.671C78.8918 101.295 78.6416 100.904 78.4136 100.5C74.8697 94.7914 72.9505 88.5919 72.7747 81.8663C72.7652 81.5243 72.6714 81.1288 73.0408 80.9162C73.4339 80.6882 73.688 81.0005 73.9481 81.2321C75.2795 82.4257 75.5289 82.4328 76.6904 81.0243C78.6702 78.6253 80.7082 76.2737 82.8293 74.0018C84.4635 72.2488 85.0988 70.2655 84.7568 67.8439C84.3316 64.8451 84.0965 61.8155 83.8637 58.7941C83.7034 56.7086 83.5739 56.5447 81.5157 56.8939C81.2426 56.939 80.9706 56.9925 80.7497 56.7656C80.4766 56.4853 80.6013 56.1896 80.7355 55.9034C81.0538 55.2241 81.5478 54.673 82.0336 54.1136C86.1772 49.3393 91.252 45.8881 97.0916 43.5235C97.5286 43.3465 97.9871 42.8323 98.4586 43.3418C98.854 43.7681 98.4491 44.2183 98.2828 44.6351C97.689 46.1339 97.8077 46.4629 99.2329 47.0531C102.834 48.5413 106.443 50.008 110.04 51.4949C110.451 51.6762 110.895 51.7686 111.343 51.7659C111.792 51.7633 112.234 51.6656 112.642 51.4795C116.205 49.9355 119.79 48.4071 123.355 46.8548C124.661 46.2871 124.883 45.7527 124.323 44.4724C123.03 41.5128 121.693 38.5711 120.393 35.6138C119.993 34.7029 119.316 34.2006 118.348 34.0949C114.659 33.6922 110.958 33.526 107.261 33.8573C98.088 34.6744 89.8553 37.9167 82.6642 43.685C72.9066 51.5103 67.2451 61.7014 65.6157 74.041C64.7024 80.9613 65.4399 87.7891 67.6026 94.4838C68.7487 98.0312 70.4268 101.298 72.2664 104.477C74.5491 108.419 77.6441 111.729 81.0312 114.789C86.3684 119.611 92.67 122.651 99.4704 124.622C103.659 125.836 108.007 126.285 112.416 126.091C116.451 125.938 120.454 125.306 124.341 124.209C130.124 122.546 135.364 119.864 140.072 116.022C142.741 113.842 145.236 111.542 147.368 108.877C153.257 101.513 156.726 93.1405 157.581 83.7167C158.307 75.6241 156.937 67.9033 153.557 60.5245ZM115.135 77.5326C116.194 77.5588 115.27 78.6502 115.729 79.0766C115.386 79.6407 116.123 80.6098 115.173 80.6668C114.081 80.7321 114.539 79.6763 114.58 79.1644C114.629 78.6086 113.985 77.5053 115.135 77.5326ZM110.445 77.4495C111.178 77.5119 111.915 77.5119 112.648 77.4495C113.386 77.3961 113.633 77.7132 113.542 78.3996C113.538 78.4391 113.538 78.4788 113.542 78.5184C113.572 80.7155 113.572 80.7155 111.353 80.7214C109.286 80.7274 109.334 80.7214 109.283 78.6324C109.258 77.7238 109.495 77.3557 110.445 77.4495ZM109.935 82.0932C110.983 82.1662 112.035 82.1662 113.083 82.0932C114.04 82.0171 114.542 82.301 114.847 83.2665C115.64 85.782 116.55 88.2617 117.407 90.757C117.517 91.0752 117.703 91.3912 117.533 91.7451C116.471 91.5337 115.717 90.7546 114.825 90.238C114.211 89.8817 113.828 89.89 113.316 90.4019C112.728 90.9957 112.247 92.0752 111.449 91.966C110.803 91.8757 110.247 90.9541 109.704 90.3532C109.284 89.8852 108.922 89.8496 108.406 90.2023C107.543 90.7962 106.637 91.3235 105.725 91.8947C105.487 91.4102 105.818 91.0515 105.941 90.6916C106.811 88.1394 107.746 85.6086 108.602 83.0516C108.834 82.3437 109.17 82.0492 109.929 82.0932H109.935ZM123.83 102.268L117.512 100.878C113.83 99.473 110.1 99.4291 106.316 100.435C104.369 100.952 102.311 100.952 100.405 101.671C100.338 101.708 100.259 101.718 100.185 101.7C100.11 101.682 100.045 101.636 100.002 101.573C99.8208 101.335 100.068 101.241 100.17 101.123C100.968 100.231 101.824 99.3932 102.734 98.6155C104.443 97.1108 106.398 95.884 108.197 94.485C108.797 94.0099 109.242 94.061 109.713 94.5313C110.893 95.7106 112.08 95.669 113.252 94.555C113.904 93.9363 114.423 94.1453 115.077 94.6001C117.822 96.5075 120.585 98.384 122.835 100.895C123.114 101.341 123.699 101.551 123.83 102.268ZM114.829 93.0325C114.218 92.6109 113.855 92.6845 113.333 93.1643C111.499 94.8495 111.46 94.8519 109.7 93.1892C109.176 92.6952 108.804 92.6204 108.208 93.055C107.171 93.8104 106.07 94.4873 104.995 95.1845C104.801 95.3104 104.582 95.6678 104.329 95.2949C104.194 95.0942 104.287 94.8804 104.496 94.6928C105.779 93.5408 107.29 92.7154 108.686 91.7237C109.115 91.4197 109.387 91.9185 109.665 92.1417C111.536 93.6417 111.552 93.6726 113.317 92.1916C113.924 91.6809 114.4 91.5978 115.057 92.0729C116.039 92.7712 117.068 93.4078 118.091 94.0455C118.66 94.4018 118.984 94.865 119.008 95.688C117.552 94.7712 116.158 93.9493 114.829 93.0325ZM117.56 91.8341L117.543 91.7593L117.616 91.7522L117.56 91.8341ZM107.297 80.0742C107.323 79.7654 107.297 79.4519 107.297 79.1407H107.311C107.311 78.7511 107.311 78.3616 107.311 77.9721C107.311 77.6443 107.482 77.4733 107.819 77.4792C108.135 77.4792 108.348 77.6122 108.352 77.9542C108.36 78.6941 108.352 79.434 108.365 80.1727C108.373 80.6621 108.099 80.7476 107.688 80.7262C107.215 80.6965 107.268 80.3984 107.297 80.0742ZM125.893 105.443C124.309 108.078 122.733 110.72 121.165 113.367C120.404 114.652 120.552 115.075 121.911 115.687C122.357 115.887 122.98 115.992 122.879 116.664C122.791 117.272 122.202 117.349 121.721 117.488C117.866 118.6 113.926 118.886 109.929 118.827C107.027 118.784 104.247 118.137 101.454 117.504C101.033 117.409 100.567 117.308 100.521 116.774C100.48 116.299 100.928 116.158 101.244 115.949C102.568 115.069 102.71 114.643 101.9 113.276C100 110.06 98.0488 106.868 96.1177 103.669C95.6154 102.838 94.8707 102.294 93.9907 101.936C94.0061 101.832 93.9907 101.718 94.0322 101.693C96.5191 100.124 97.8386 97.7355 98.9574 95.1061C100.677 91.0598 102.593 87.0967 104.435 83.1026C104.833 82.238 106.746 81.6597 107.505 82.168C107.926 82.4506 107.624 82.795 107.519 83.0955C106.157 86.8636 104.605 90.56 102.867 94.1702C101.821 96.3365 100.71 98.4718 99.645 100.629C99.3588 101.208 99.0939 101.149 98.7139 100.718C98.3659 100.323 98.05 99.8768 97.4431 99.5787C97.2982 100.789 97.721 101.811 97.8873 102.853C97.9977 103.55 98.6569 103.197 99.0583 103.125C102.429 102.52 105.811 101.96 109.153 101.225C110.924 100.836 112.607 100.836 114.327 101.344C115.218 101.605 116.134 101.785 117.038 102.004C116.981 101.621 117.347 101.416 117.471 101.11C117.353 101.416 116.981 101.621 117.039 102.003C119.452 102.549 121.864 103.101 124.284 103.636C124.655 103.718 125.159 104.064 125.344 103.405C125.648 102.325 126.076 101.268 126.148 99.8804C125.591 100.462 125.218 100.898 124.797 101.282C123.792 102.194 124.015 100.807 123.596 100.623C122.152 97.6274 120.635 94.6631 119.284 91.6263C118.009 88.7594 116.908 85.814 115.73 82.9043C115.518 82.3794 115.623 82.1478 116.254 82.0967C118.375 81.9245 118.45 81.9304 119.342 83.8568C121.542 88.6279 123.733 93.403 125.916 98.1821C126.221 98.8572 126.684 99.449 127.266 99.9077C127.93 100.44 128.572 100.993 129.395 101.674C127.354 102.251 126.774 103.979 125.893 105.443Z" fill="url(#paint16_linear_266_560)"/>
<path d="M117.52 91.7607L117.611 91.7523L117.555 91.8351C117.548 91.8051 117.542 91.7751 117.535 91.7451L117.52 91.7607Z" fill="#FEFEFD"/>
<path d="M86.9445 125.284L87.0116 125.254L87.0032 125.328L86.9445 125.284Z" fill="#FEFEFD"/>
</g>
<path d="M84.166 161.023L84.957 158.172H83.3359L82.5742 161.023H84.166ZM78.6387 161.023H80.6211L81.3926 158.172H79.4004L79.8398 156.531H81.832L82.8965 152.596H84.8398L83.7754 156.531H85.3965L86.4316 152.596H88.375L87.3398 156.531H89.3027L88.8633 158.172H86.9004L86.1094 161.023H88.1016L87.6621 162.664H85.6699L84.625 166.57H82.6816L83.7266 162.664H82.125L81.0605 166.57H79.1172L80.1816 162.664H78.1992L78.6387 161.023ZM90.872 166.57V155.61H93.072L93.472 157.33H93.632C93.8587 156.784 94.252 156.33 94.812 155.97C95.372 155.597 96.0987 155.41 96.992 155.41C97.8454 155.41 98.552 155.564 99.112 155.87C99.672 156.164 100.092 156.617 100.372 157.23C100.665 157.83 100.812 158.59 100.812 159.51V166.57H97.812V160.11C97.812 159.364 97.6587 158.83 97.352 158.51C97.0587 158.177 96.6254 158.01 96.052 158.01C95.5854 158.01 95.1854 158.137 94.852 158.39C94.532 158.644 94.2854 159.017 94.112 159.51C93.952 159.99 93.872 160.597 93.872 161.33V166.57H90.872ZM91.1702 154.09V152.83L93.1902 151.99H100.33V154.09H91.1702ZM97.7702 152.87V150.61H100.33V152.87H97.7702ZM110.063 166.77C109.116 166.77 108.35 166.59 107.763 166.23C107.19 165.87 106.783 165.41 106.543 164.85H106.383L106.063 166.57H103.783V155.61H106.783V160.85C106.783 161.61 106.87 162.237 107.043 162.73C107.216 163.21 107.47 163.57 107.803 163.81C108.136 164.05 108.536 164.17 109.003 164.17C109.563 164.17 109.99 164.004 110.283 163.67C110.576 163.337 110.723 162.804 110.723 162.07V155.61H113.723V162.73C113.723 163.597 113.583 164.33 113.303 164.93C113.036 165.53 112.63 165.99 112.083 166.31C111.536 166.617 110.863 166.77 110.063 166.77ZM122.993 166.77C122.046 166.77 121.279 166.59 120.693 166.23C120.119 165.87 119.713 165.41 119.473 164.85H119.313L118.993 166.57H116.713V155.61H119.713V160.85C119.713 161.61 119.799 162.237 119.973 162.73C120.146 163.21 120.399 163.57 120.733 163.81C121.066 164.05 121.466 164.17 121.933 164.17C122.493 164.17 122.919 164.004 123.213 163.67C123.506 163.337 123.653 162.804 123.653 162.07V155.61H126.653V162.73C126.653 163.597 126.513 164.33 126.233 164.93C125.966 165.53 125.559 165.99 125.013 166.31C124.466 166.617 123.793 166.77 122.993 166.77ZM133.783 166.83C132.956 166.83 132.163 166.757 131.403 166.61C130.656 166.464 129.989 166.284 129.403 166.07V161.75H131.963V164.47C132.163 164.537 132.409 164.597 132.703 164.65C133.009 164.704 133.323 164.73 133.643 164.73C134.016 164.73 134.349 164.69 134.643 164.61C134.936 164.517 135.169 164.364 135.343 164.15C135.516 163.924 135.603 163.624 135.603 163.25C135.603 162.93 135.529 162.677 135.383 162.49C135.249 162.29 135.049 162.13 134.783 162.01C134.516 161.89 134.189 161.784 133.803 161.69C133.416 161.584 132.976 161.464 132.483 161.33C131.763 161.13 131.143 160.924 130.623 160.71C130.116 160.484 129.723 160.19 129.443 159.83C129.176 159.47 129.043 158.99 129.043 158.39C129.043 157.657 129.236 157.07 129.623 156.63C130.009 156.177 130.556 155.85 131.263 155.65C131.969 155.45 132.803 155.35 133.763 155.35C134.669 155.35 135.449 155.424 136.103 155.57C136.769 155.704 137.276 155.844 137.623 155.99V158.29C137.369 158.184 137.023 158.077 136.583 157.97C136.156 157.85 135.683 157.75 135.163 157.67C134.643 157.59 134.123 157.55 133.603 157.55C133.309 157.55 133.043 157.57 132.803 157.61C132.576 157.65 132.389 157.717 132.243 157.81C132.109 157.904 132.043 158.037 132.043 158.21C132.043 158.424 132.163 158.59 132.403 158.71C132.643 158.817 132.976 158.924 133.403 159.03C133.829 159.124 134.323 159.257 134.883 159.43C135.443 159.604 135.943 159.797 136.383 160.01C136.836 160.21 137.216 160.45 137.523 160.73C137.829 161.01 138.063 161.35 138.223 161.75C138.383 162.15 138.463 162.63 138.463 163.19C138.463 163.884 138.316 164.504 138.023 165.05C137.743 165.597 137.263 166.03 136.583 166.35C135.903 166.67 134.969 166.83 133.783 166.83ZM140.484 163.66H143.443V166.57H140.484V163.66Z" fill="#EC473F"/>
</g>
<defs>
<filter id="filter0_d_266_560" x="0" y="0" width="223" height="198" filterUnits="userSpaceOnUse" color-interpolation-filters="sRGB">
<feFlood flood-opacity="0" result="BackgroundImageFix"/>
<feColorMatrix in="SourceAlpha" type="matrix" values="0 0 0 0 0 0 0 0 0 0 0 0 0 0 0 0 0 0 127 0" result="hardAlpha"/>
<feOffset dy="2"/>
<feGaussianBlur stdDeviation="2"/>
<feComposite in2="hardAlpha" operator="out"/>
<feColorMatrix type="matrix" values="0 0 0 0 0 0 0 0 0 0 0 0 0 0 0 0 0 0 0.25 0"/>
<feBlend mode="normal" in2="BackgroundImageFix" result="effect1_dropShadow_266_560"/>
<feBlend mode="normal" in="SourceGraphic" in2="effect1_dropShadow_266_560" result="shape"/>
</filter>
<linearGradient id="paint0_linear_266_560" x1="136.807" y1="65.1306" x2="126.073" y2="98.2431" gradientUnits="userSpaceOnUse">
<stop offset="0.16" stop-color="#FEDF22"/>
<stop offset="0.51" stop-color="#FAA11E"/>
<stop offset="0.75" stop-color="#F37024"/>
<stop offset="1" stop-color="#720308"/>
</linearGradient>
<linearGradient id="paint1_linear_266_560" x1="99.5714" y1="53.059" x2="88.8375" y2="86.1714" gradientUnits="userSpaceOnUse">
<stop offset="0.16" stop-color="#FEDF22"/>
<stop offset="0.51" stop-color="#FAA11E"/>
<stop offset="0.75" stop-color="#F37024"/>
<stop offset="1" stop-color="#720308"/>
</linearGradient>
<linearGradient id="paint2_linear_266_560" x1="51.2002" y1="34.7371" x2="142.774" y2="19.5757" gradientUnits="userSpaceOnUse">
<stop offset="0.24" stop-color="#FAA11E"/>
<stop offset="0.56" stop-color="#F37024"/>
<stop offset="1" stop-color="#720308"/>
</linearGradient>
<linearGradient id="paint3_linear_266_560" x1="52.2666" y1="41.1765" x2="143.841" y2="26.0151" gradientUnits="userSpaceOnUse">
<stop offset="0.24" stop-color="#FAA11E"/>
<stop offset="0.56" stop-color="#F37024"/>
<stop offset="1" stop-color="#720308"/>
</linearGradient>
<linearGradient id="paint4_linear_266_560" x1="51.3747" y1="35.7918" x2="142.95" y2="20.6304" gradientUnits="userSpaceOnUse">
<stop offset="0.24" stop-color="#FAA11E"/>
<stop offset="0.56" stop-color="#F37024"/>
<stop offset="1" stop-color="#720308"/>
</linearGradient>
<linearGradient id="paint5_linear_266_560" x1="51.4412" y1="36.1948" x2="143.016" y2="21.0334" gradientUnits="userSpaceOnUse">
<stop offset="0.24" stop-color="#FAA11E"/>
<stop offset="0.56" stop-color="#F37024"/>
<stop offset="1" stop-color="#720308"/>
</linearGradient>
<linearGradient id="paint6_linear_266_560" x1="51.2513" y1="35.0465" x2="142.826" y2="19.8851" gradientUnits="userSpaceOnUse">
<stop offset="0.24" stop-color="#FAA11E"/>
<stop offset="0.56" stop-color="#F37024"/>
<stop offset="1" stop-color="#720308"/>
</linearGradient>
<linearGradient id="paint7_linear_266_560" x1="53.0861" y1="46.1296" x2="144.661" y2="30.9683" gradientUnits="userSpaceOnUse">
<stop offset="0.24" stop-color="#FAA11E"/>
<stop offset="0.56" stop-color="#F37024"/>
<stop offset="1" stop-color="#720308"/>
</linearGradient>
<linearGradient id="paint8_linear_266_560" x1="51.8165" y1="38.4557" x2="143.39" y2="23.2943" gradientUnits="userSpaceOnUse">
<stop offset="0.24" stop-color="#FAA11E"/>
<stop offset="0.56" stop-color="#F37024"/>
<stop offset="1" stop-color="#720308"/>
</linearGradient>
<linearGradient id="paint9_linear_266_560" x1="51.7464" y1="38.0353" x2="143.32" y2="22.8739" gradientUnits="userSpaceOnUse">
<stop offset="0.24" stop-color="#FAA11E"/>
<stop offset="0.56" stop-color="#F37024"/>
<stop offset="1" stop-color="#720308"/>
</linearGradient>
<linearGradient id="paint10_linear_266_560" x1="53.6538" y1="49.5575" x2="145.229" y2="34.3962" gradientUnits="userSpaceOnUse">
<stop offset="0.24" stop-color="#FAA11E"/>
<stop offset="0.56" stop-color="#F37024"/>
<stop offset="1" stop-color="#720308"/>
</linearGradient>
<linearGradient id="paint11_linear_266_560" x1="52.8011" y1="117.24" x2="131.398" y2="129.612" gradientUnits="userSpaceOnUse">
<stop offset="0.24" stop-color="#FAA11E"/>
<stop offset="0.56" stop-color="#F37024"/>
<stop offset="1" stop-color="#720308"/>
</linearGradient>
<linearGradient id="paint12_linear_266_560" x1="51.6468" y1="124.574" x2="130.242" y2="136.946" gradientUnits="userSpaceOnUse">
<stop offset="0.24" stop-color="#FAA11E"/>
<stop offset="0.56" stop-color="#F37024"/>
<stop offset="1" stop-color="#720308"/>
</linearGradient>
<linearGradient id="paint13_linear_266_560" x1="52.1075" y1="121.643" x2="130.704" y2="134.015" gradientUnits="userSpaceOnUse">
<stop offset="0.24" stop-color="#FAA11E"/>
<stop offset="0.56" stop-color="#F37024"/>
<stop offset="1" stop-color="#720308"/>
</linearGradient>
<linearGradient id="paint14_linear_266_560" x1="51.1502" y1="127.728" x2="129.746" y2="140.099" gradientUnits="userSpaceOnUse">
<stop offset="0.24" stop-color="#FAA11E"/>
<stop offset="0.56" stop-color="#F37024"/>
<stop offset="1" stop-color="#720308"/>
</linearGradient>
<linearGradient id="paint15_linear_266_560" x1="51.5363" y1="125.272" x2="130.133" y2="137.643" gradientUnits="userSpaceOnUse">
<stop offset="0.24" stop-color="#FAA11E"/>
<stop offset="0.56" stop-color="#F37024"/>
<stop offset="1" stop-color="#720308"/>
</linearGradient>
<linearGradient id="paint16_linear_266_560" x1="142.373" y1="11.3766" x2="101.254" y2="102.345" gradientUnits="userSpaceOnUse">
<stop offset="0.16" stop-color="#FEDF22"/>
<stop offset="0.51" stop-color="#FAA11E"/>
<stop offset="0.75" stop-color="#F37024"/>
<stop offset="1" stop-color="#720308"/>
</linearGradient>
<clipPath id="clip0_266_560">
<rect width="92.5334" height="115.57" fill="white" transform="translate(65.2333 22)"/>
</clipPath>
</defs>
</svg>
