<svg width="125" height="147" viewBox="0 0 125 147" fill="none" xmlns="http://www.w3.org/2000/svg">
<g clip-path="url(#clip0_190_123)">
<path d="M124.837 146.5H0.162964L8.96758 136.078L115.68 135.902L124.837 146.5Z" fill="#ED1C24"/>
<path d="M80.6129 134.647L38.8131 134.747L50.5673 83.2495L67.6632 83.0732L80.6129 134.647Z" fill="#ED1C24"/>
<path d="M101.358 134.538L82.4867 134.602L69.2065 82.958H76.8812C85.0403 100.152 93.1993 117.345 101.358 134.538Z" fill="#ED1C24"/>
<path d="M17.7578 134.668L36.6291 134.732L49.9093 83.0879H42.2347L17.7578 134.668Z" fill="#ED1C24"/>
<path d="M59.0662 0.5C55.0456 21.2926 51.0249 42.0853 47.0039 62.8783H71.4222L59.0662 0.5Z" fill="#ED1C24"/>
<path d="M63.224 10.374L73.1022 62.8787H82.4867C76.0664 45.3769 69.6455 27.8754 63.224 10.374Z" fill="#ED1C24"/>
<path d="M55.2263 10.374C51.9341 27.8754 48.6415 45.3769 45.3486 62.8787H35.9641C42.3848 45.3769 48.8055 27.8754 55.2263 10.374Z" fill="#ED1C24"/>
<path d="M66.066 68.4209H52.36V74.7263H66.066V68.4209Z" fill="#ED1C24"/>
<path d="M50.0271 68.4209H42.7106V74.7263H50.0271V68.4209Z" fill="#ED1C24"/>
<path d="M75.6046 68.4209H68.2881V74.7263H75.6046V68.4209Z" fill="#ED1C24"/>
<path d="M66.2965 65.8984H52.5905V67.6139H66.2965V65.8984Z" fill="#ED1C24"/>
<path d="M50.0271 65.8984H42.7106V67.6139H50.0271V65.8984Z" fill="#ED1C24"/>
<path d="M75.6046 65.8984H68.2881V67.6139H75.6046V65.8984Z" fill="#ED1C24"/>
</g>
<defs>
<clipPath id="clip0_190_123">
<rect width="124.674" height="146" fill="white" transform="translate(0.162964 0.5)"/>
</clipPath>
</defs>
</svg>
