<svg width="682" height="751" viewBox="0 0 682 751" fill="none" xmlns="http://www.w3.org/2000/svg">
<path d="M639.37 75.2599C644.46 80.8699 650.15 85.9399 654.56 92.1699C664.63 102.08 667.76 114.77 668.92 128.23C669.01 129.22 668.95 130.23 668.97 131.23C670.36 227.14 669.95 323.05 669.92 418.96C669.92 429.13 671.52 439.21 670.96 449.39C670.3 461.56 665.93 471.62 655.39 478.55C648.81 482.88 641.53 482.69 634.18 482.46C619.67 479.06 611.13 468.51 611.07 453.36C610.92 416.57 611.02 379.77 611 342.98C610.98 280.99 611.02 219.01 610.96 157.02C610.96 149.52 608.98 142.19 608.59 134.71C608.94 124.61 602.69 118.84 594.81 114.49C589.67 111.65 586.5 113.7 586.05 119.53C585.86 122.02 585.97 124.52 585.97 127.02C585.97 266.9 585.8 406.79 586.23 546.67C586.27 560.96 582.6 573.13 574.85 584.53C569.04 593.08 563.15 601.64 558.79 610.97C552.08 625.34 540.82 629.48 526.11 627.48C520.11 626.66 514.09 626.53 508.07 627.63C504.72 628.24 501.48 626.73 498.17 626.69C489.68 626.6 481.19 626.32 472.71 626.87C466.79 625.39 462.48 621.54 458.85 616.93C456.91 614.47 455.51 614.12 453.52 616.77C447.2 625.17 438.85 628.29 428.3 627.73C415.88 627.06 403.4 627.56 390.94 627.58C385.3 627.58 379.67 627.62 374.05 627.12C366.63 627.23 361.87 622.69 357.52 617.55C354.51 614 352.3 609.88 350 605.86C344.08 595.51 337.49 585.55 331.59 575.19C329.3 571.16 327.23 567.02 326.4 562.36C329.13 540.96 328.6 519.42 327.81 498.01C326.72 468.73 325.78 439.36 327.43 410.21C330.45 356.81 327.93 303.45 329.04 250.08C329.06 249.09 328.91 248.07 329.5 247.17C333.6 235.66 341.5 228.97 353.82 227.53C360.8 226.71 371.63 232.09 375.62 239.07C377.4 242.19 379.62 245.24 379.64 249.11C382.02 250.27 382.83 252.28 382.91 254.81C383 257.81 383.02 260.8 383.02 263.8C383.02 355.55 383.21 447.3 382.8 539.05C382.74 551.19 388.81 559.79 394.67 568.95C396.47 571.76 399.59 572.82 403.04 572.23C410.42 573.63 415.45 570.78 418.98 564.17C421.08 560.23 423.45 556.38 425.86 552.59C428.14 549.01 428.07 545.01 428.07 541C428.07 490.92 428.07 440.84 428.07 390.76C428.07 387.93 427.99 385.1 428.16 382.28C428.8 371.87 437.76 359.32 446.71 356.23C457.92 352.36 472.81 357.26 479.81 367.13C481.74 369.86 483.26 372.82 484.42 375.95C484.62 381.57 485.05 387.19 485.04 392.82C485.01 441.88 485.24 490.93 484.86 539.99C484.77 551.84 490.59 560.5 496.99 569.21C499.02 571.97 501.98 573.63 505.73 572.23C512.39 573.35 516.28 570.17 520.08 564.81C528.09 553.53 530.38 541.43 530.28 527.73C529.78 462.31 529.43 396.87 530.25 331.45C530.96 274.79 530.81 218.13 531.08 161.47C531.11 154.31 529.39 147.31 529.57 140.17C530.42 133.06 530.14 125.9 529.96 118.77C529.83 113.38 527.12 111.66 522 113.59C511.34 117.62 505.6 125.83 505.32 136.84C504.85 155.6 504.41 174.38 505.7 193.15C506.47 204.42 506.49 215.76 505.55 227.03C504.39 240.95 488.9 251.6 476.32 251.3C473.33 251.23 471.34 248.7 468.52 248.25C454.87 243.82 448.28 231.62 448.54 218.46C449.11 190.01 448.85 161.54 448.68 133.08C448.58 115.56 454.63 100.26 464.93 86.5499C475.27 72.7899 488.78 63.1299 505.16 57.7299C512.26 55.3899 519.59 53.8499 527.14 54.4499C531.17 54.7699 532.74 53.5399 532.59 49.2299C532.28 40.4199 532.93 31.5599 532.39 22.7699C531.74 12.2599 539.18 2.09989 549.83 0.799889C559.12 -0.330111 568.77 -1.44011 576.74 5.84989C580.2 9.00989 581.96 13.0099 583.56 17.1899C586.76 25.2899 585.86 33.7999 586 42.1999C586.12 49.2299 587.76 50.9899 594.7 51.7099C598.15 52.0699 601.69 52.1399 604.38 54.8499C604.73 55.2899 605.11 55.7099 605.51 56.0999C609.82 57.4399 613.85 59.7599 618.4 60.1799C620.04 60.3299 620.41 61.6199 621.48 62.1999C623.13 63.2399 625.74 62.6999 626.47 65.2499C630.77 68.5799 635.08 71.8999 639.38 75.2299L639.37 75.2599Z" fill="#FEFEFE"/>
<path d="M199.28 216.36C208.74 221.01 218.33 225.43 226.45 232.35C232.74 236.82 237.14 242.99 241.51 249.18C251.52 259.17 256 272.48 262.35 284.58C276.2 310.97 289.85 337.46 303.54 363.93C311.62 379.55 315.71 396.19 316.04 413.84C316.27 426.07 315.15 438.1 312.67 450.04C310.26 461.68 303.61 471.4 298.44 481.82C290.82 497.17 282.42 512.11 274.58 527.34C270.47 535.33 266.46 543.38 261.91 551.14C255.01 562.92 250.02 575.76 242.65 587.25C226.83 611.94 204.7 626.84 174.81 627.43C143.51 628.05 112.18 627.57 80.8701 627.58C77.6901 627.58 74.5601 627.37 71.4901 626.56C70.4501 626.47 69.3801 626.56 68.4201 626.02C66.4001 624.33 64.1901 623.11 61.4201 623.39C55.9501 620.1 51.4301 616.01 49.7501 609.53C49.2601 605.42 47.9001 601.54 47.6201 597.28C46.6001 582.03 62.0401 567.45 78.4801 567.6C103.96 567.83 129.44 567.67 154.92 567.65C157.25 567.65 159.58 567.68 161.91 567.64C169.09 567.52 171.17 565.43 171.94 558.14C173.44 543.91 168.76 531.45 162.21 519.09C152.72 501.16 142.93 483.39 134.09 465.11C130.76 458.22 126.91 451.6 123.11 444.96C116.78 431.16 112.69 425.41 95.5401 425.55C70.6201 425.76 45.7001 425.81 20.7701 425.48C16.7901 424.79 12.1401 425.37 10.5401 420.14C-1.28992 412.25 -2.02992 398.86 2.72008 390.04C6.68008 382.68 13.2401 378.71 21.6901 378.49C31.2901 378.24 40.9101 378.28 50.5101 378.19C51.9401 376.26 54.0001 375.78 56.2401 375.77C73.8501 375.65 91.5001 374.99 109.07 376C122.29 376.76 133.77 383.25 144.72 390.43C152.11 395.27 157.87 401.54 162.21 409.18C171.6 428.97 182.34 448.08 192.26 467.61C198.6 480.07 204.97 492.52 211.59 504.84C215.24 511.64 215.07 511.73 219.9 505.75C225.66 492.06 233.62 479.52 240.32 466.32C244.46 458.17 249.43 450.49 252.66 441.84C259.92 422.43 257.72 403.56 248.56 385.79C235.15 359.76 221.28 333.96 208.04 307.83C204.28 300.42 199.83 293.38 196.26 285.87C195.81 284.22 194.62 282.98 193.89 281.5C189.1 271.81 181.17 267.58 170.48 267.64C148.36 267.75 126.23 267.68 104.1 267.67C99.6101 267.67 95.1201 267.69 90.6301 267.67C83.4101 267.63 76.0301 268.46 69.5401 264.11C66.8001 262.56 63.8801 261.26 61.3701 259.4C51.9401 252.43 49.7401 242.52 52.0401 231.87C54.2101 221.81 61.3301 215.75 71.3101 213.15C72.0901 212.95 72.7901 212.44 73.5301 212.08C103.85 212.14 134.16 212.36 164.48 212.18C176.34 212.11 188.02 212.59 199.36 216.39H199.29L199.28 216.36Z" fill="#FDFDFD"/>
<path d="M667.61 501.13C669.57 504.46 671.53 507.79 673.48 511.12C682 519.21 682.97 523.77 678.16 533.3C677.11 535.38 676.1 537.47 674.97 539.5C672.22 544.44 669.09 549.14 665.94 553.83C663.48 557.48 660.04 559.74 655.48 559.49C647.79 559.08 639.82 561.29 632.48 557.24C626.17 557.6 621.93 554.85 619.06 549.16C616.1 543.27 612.66 537.61 609.22 531.98C606.96 528.27 606.07 524.4 606.68 520.14C606.31 518.92 606 517.82 606.69 516.49C611.14 507.92 614.57 498.74 621.85 491.91C622.84 490.98 623.88 490.22 625.3 490.12C635.86 488.78 646.46 488.35 657.08 488.8C663.53 489.07 668.36 494.93 667.6 501.14L667.61 501.13Z" fill="#FEFEFE"/>
<path d="M143.46 748.24C136.91 748.02 132.35 745.12 129.18 739.16C124.12 729.65 118.55 720.4 113.03 711.14C108.75 703.97 108.09 697.26 112.92 689.79C118.68 680.89 123.71 671.49 128.75 662.14C132.06 655.98 136.5 652.82 143.82 653.05C156.3 653.44 168.8 653.27 181.29 653.1C187.03 653.02 191.08 655.31 194.07 660.12C196.95 664.75 198.79 670 202.5 674.13C209.85 680.25 214.2 688.38 217.43 697.12C218.75 700.69 217.41 704.3 215.87 707.72C211.89 716.56 205.82 724.16 201.2 732.62C198.91 736.82 197.2 741.37 193.67 744.88C190.05 748.47 185.85 750.45 180.78 750.51C170.64 750.62 160.5 750.59 150.35 750.53C147.79 750.51 145.48 749.87 143.46 748.27V748.24Z" fill="#FEFEFE"/>
</svg>
