<svg width="248" height="248" viewBox="0 0 248 248" fill="none" xmlns="http://www.w3.org/2000/svg">
<g filter="url(#filter0_d_190_635)">
<circle cx="124" cy="124" r="93" fill="url(#paint0_linear_190_635)"/>
<path d="M123.916 20.0049C180.598 19.4474 228.351 66.4606 227.998 124.586C227.664 181.095 182.399 227.532 125.512 227.996C66.75 228.479 20.1302 182.117 20.0002 124.344C19.8888 65.7359 67.9383 19.5404 123.916 20.0049ZM184.052 179.664C186.837 179.664 189.046 179.404 191.163 179.72C195.414 180.351 197.939 178.437 200.167 175C210.026 159.855 215.15 143.298 215.67 125.255C215.744 122.858 215.02 121.278 213.034 119.81C206.962 115.332 200.371 111.523 195.08 106.022C193.762 104.647 192.128 105.13 190.717 105.576C180.58 108.828 170.498 112.192 160.38 115.499C159.006 115.945 157.985 116.484 157.725 118.231C156.054 128.804 152.341 138.764 148.107 148.538C147.458 150.025 147.55 151.14 148.46 152.366C154.903 161.174 161.364 169.982 167.751 178.828C168.679 180.11 169.719 180.704 171.278 180.333C175.697 179.292 180.19 179.812 184.033 179.664H184.052ZM127.053 70.177C127.053 70.177 127.053 70.177 127.072 70.177C127.072 75.4358 127.146 80.676 127.035 85.9348C126.998 88.2204 127.889 89.3911 129.95 90.5432C138.583 95.356 146.436 101.321 153.844 107.806C155.701 109.423 157.056 110.148 159.47 109.311C169.533 105.836 179.633 102.529 189.733 99.2025C191.107 98.7566 192.314 98.4593 192.407 96.601C192.704 89.3539 195.99 82.9059 198.181 76.1977C199.165 73.1874 198.905 71.0504 196.992 68.5975C185.778 54.2334 171.649 43.976 154.624 37.5837C151.561 36.4316 149.147 36.6732 146.511 38.7358C141.312 42.8425 136.169 47.135 130.21 50.071C127.852 51.2231 126.96 52.4124 127.016 54.9024C127.128 59.994 127.053 65.1041 127.053 70.1956V70.177ZM123.767 215.806C133.254 215.695 142.5 214.227 151.542 211.272C153.399 210.659 154.624 209.804 155.385 207.76C158.078 200.55 159.303 192.783 163.369 186.075C164.223 184.662 163.257 183.715 162.571 182.748C156.258 173.978 149.871 165.244 143.633 156.417C142.185 154.373 140.532 154.466 138.397 154.689C128.854 155.637 119.274 155.637 109.75 154.689C107.039 154.41 105.461 154.949 103.92 157.105C97.9228 165.541 91.7774 173.866 85.6876 182.247C84.8893 183.362 83.9981 184.402 84.8521 186C88.4726 192.709 89.9207 200.216 92.4829 207.333C93.2255 209.395 94.2281 210.678 96.4189 211.384C105.312 214.245 114.41 215.695 123.748 215.843L123.767 215.806ZM55.8888 105.223C54.7377 104.926 53.8279 105.223 52.9553 106.097C47.7382 111.467 41.24 115.165 35.3174 119.624C33.405 121.055 32.4582 122.616 32.5139 125.05C32.9594 143.633 38.0837 160.673 48.7965 176.003C50.5788 178.549 52.4726 179.701 55.6103 179.738C62.8511 179.85 70.1477 178.883 77.3328 180.463C79.0781 180.853 79.8207 179.571 80.6376 178.456C86.8202 169.964 93.0213 161.453 99.1853 152.942C100.114 151.679 100.912 150.471 100.002 148.724C95.8805 140.845 93.0584 132.335 91.536 123.768C90.2735 116.651 86.3003 114.737 80.6005 113.083C72.3014 110.686 64.1136 107.862 55.8702 105.205L55.8888 105.223ZM120.889 70.2514C120.889 65.1598 120.889 60.0497 120.889 54.9582C120.889 53.2486 120.964 51.4833 118.996 50.6285C112.237 47.7111 107.002 42.5452 101.061 38.4199C99.1853 37.1192 97.6257 36.2272 95.175 37.0634C77.24 43.1398 62.7397 53.899 51.0987 68.7648C49.1121 71.292 49.1492 73.5962 50.0775 76.4578C52.1941 83.0545 54.9233 89.5026 55.963 96.3966C56.2601 98.3478 57.3555 98.9238 58.878 99.4255C69.1265 102.789 79.3937 106.152 89.6237 109.571C91.1275 110.073 92.1858 109.832 93.3555 108.698C100.763 101.414 109.415 95.7834 118.234 90.4131C120.277 89.1681 120.945 87.7373 120.926 85.5446C120.871 80.453 120.926 75.3429 120.926 70.2514H120.889Z" fill="white"/>
</g>
<defs>
<filter id="filter0_d_190_635" x="0" y="0" width="248" height="248" filterUnits="userSpaceOnUse" color-interpolation-filters="sRGB">
<feFlood flood-opacity="0" result="BackgroundImageFix"/>
<feColorMatrix in="SourceAlpha" type="matrix" values="0 0 0 0 0 0 0 0 0 0 0 0 0 0 0 0 0 0 127 0" result="hardAlpha"/>
<feOffset/>
<feGaussianBlur stdDeviation="10"/>
<feComposite in2="hardAlpha" operator="out"/>
<feColorMatrix type="matrix" values="0 0 0 0 0 0 0 0 0 0 0 0 0 0 0 0 0 0 0.5 0"/>
<feBlend mode="normal" in2="BackgroundImageFix" result="effect1_dropShadow_190_635"/>
<feBlend mode="normal" in="SourceGraphic" in2="effect1_dropShadow_190_635" result="shape"/>
</filter>
<linearGradient id="paint0_linear_190_635" x1="124" y1="31" x2="124" y2="217" gradientUnits="userSpaceOnUse">
<stop stop-color="#F1678D"/>
<stop offset="0.555619" stop-color="#EA3D3D"/>
<stop offset="1" stop-color="#FFB850"/>
</linearGradient>
</defs>
</svg>
