<svg width="86" height="86" viewBox="0 0 86 86" fill="none" xmlns="http://www.w3.org/2000/svg">
<path d="M42.9212 85.8569C66.6259 85.8569 85.8424 66.6372 85.8424 42.9284C85.8424 19.2197 66.6259 0 42.9212 0C19.2165 0 0 19.2197 0 42.9284C0 66.6372 19.2165 85.8569 42.9212 85.8569Z" fill="#000001"/>
<path d="M45.9153 51.9008C45.9153 51.9008 48.9054 51.6622 48.9054 54.8914L51.8955 51.9008C51.8955 51.9008 48.9054 52.182 48.9054 48.9102L45.9153 51.9008Z" fill="white"/>
<path d="M18.9919 39.162V28.7767C18.9919 28.3495 19.3372 28.0042 19.7644 28.0042H24.1997C24.6269 28.0042 24.9722 28.3495 24.9722 28.7767V39.0979C24.9722 39.5607 24.5984 39.9346 24.1356 39.9346H19.7644C19.3372 39.9346 18.9919 39.5892 18.9919 39.162Z" fill="white"/>
<path d="M36.9375 33.9391V28.0041H42.9177V33.9854H36.9838C36.9589 33.9854 36.9375 33.964 36.9375 33.9391Z" fill="white"/>
<path d="M30.9534 33.9322V28.6737C30.9534 28.2999 31.2559 27.9973 31.6297 27.9973H36.9336V33.9785H30.9996C30.9747 33.9785 30.9534 33.9572 30.9534 33.9322Z" fill="white"/>
<path d="M48.9016 28.8431V33.1902C48.9016 33.6281 48.5456 33.9841 48.1078 33.9841H42.9214V28.0029H48.0615C48.5243 28.0029 48.9016 28.3803 48.9016 28.8431Z" fill="white"/>
<path d="M18.9919 51.8977V57.8789H24.9722V51.8977H18.9919Z" fill="white"/>
<path d="M54.8081 33.1262V28.7506C54.8081 28.3163 55.1605 27.9674 55.5912 27.9674H57.9798C59.5318 27.9674 60.7919 29.2277 60.7919 30.78V33.9521H55.6339C55.1783 33.9521 54.8117 33.5819 54.8117 33.1297L54.8081 33.1262Z" fill="white"/>
<path d="M54.8078 57.8851V51.9039H60.788V54.9871C60.788 56.5892 59.4887 57.8887 57.8869 57.8887H54.8042L54.8078 57.8851Z" fill="white"/>
<path d="M48.824 39.1086V34.7758C48.824 34.3201 49.1942 33.9498 49.6498 33.9498H53.9819C54.4375 33.9498 54.8077 34.3201 54.8077 34.7758V39.0445C54.8077 39.5358 54.4091 39.9346 53.9178 39.9346H49.6498C49.1942 39.9346 48.824 39.5643 48.824 39.1086Z" fill="white"/>
<path d="M30.954 39.1584V33.9498H36.9342V39.8669C36.9342 39.9025 36.9057 39.9346 36.8666 39.9346H31.7264C31.2993 39.9346 30.9504 39.5892 30.9504 39.1584H30.954Z" fill="white"/>
<path d="M36.9375 57.835V51.8537H42.1239C42.5617 51.8537 42.9177 52.2098 42.9177 52.6477V57.0125C42.9177 57.4683 42.5475 57.835 42.0954 57.835H36.9375Z" fill="white"/>
<path d="M31.7969 51.8652H36.937V57.8465H31.8645C31.3626 57.8465 30.9568 57.4406 30.9568 56.9386V52.7055C30.9568 52.2426 31.3341 51.8652 31.7969 51.8652Z" fill="white"/>
<path d="M48.9055 56.9034V52.033C48.9055 51.9582 48.966 51.8941 49.0443 51.8941H54.7505C54.8252 51.8941 54.8893 51.9547 54.8893 52.033V57.7401C54.8893 57.8148 54.8288 57.8789 54.7505 57.8789H49.8809C49.3434 57.8789 48.9055 57.441 48.9055 56.9034Z" fill="white"/>
<path d="M57.7981 27.9678V33.9493C62.7534 33.9493 66.7725 37.9691 66.7725 42.9253C66.7725 47.8814 62.7534 51.9012 57.7981 51.9012V57.8827C66.057 57.8827 72.7531 51.1855 72.7531 42.9253C72.7531 34.665 66.057 27.9678 57.7981 27.9678Z" fill="white"/>
<path d="M18.9923 51.8803V46.7571C18.9923 46.2907 19.3732 45.9098 19.8395 45.9098H24.0541C24.5596 45.9098 24.9725 46.3227 24.9725 46.8283V51.8803C24.9725 51.8803 24.9654 51.8945 24.9583 51.8945H19.003C19.003 51.8945 18.9888 51.8874 18.9888 51.8803H18.9923Z" fill="white"/>
<path d="M24.9729 40.7074V45.1434C24.9729 45.5701 25.3187 45.916 25.7453 45.916H30.1807C30.6073 45.916 30.9531 45.5701 30.9531 45.1434V40.7074C30.9531 40.2807 30.6073 39.9348 30.1807 39.9348H25.7453C25.3187 39.9348 24.9729 40.2807 24.9729 40.7074Z" fill="white"/>
<path d="M24.972 42.9248C24.972 42.9248 25.2105 45.9154 21.9819 45.9154L24.972 48.906C24.972 48.906 24.6908 45.9154 27.9621 45.9154L24.972 42.9248Z" fill="white"/>
<path d="M36.941 30.9971C36.941 30.9971 37.1795 33.9877 33.9509 33.9877L36.941 36.9783C36.941 36.9783 36.6598 33.9877 39.9311 33.9877L36.941 30.9971Z" fill="white"/>
<path d="M42.9215 48.9062C42.9215 48.9062 43.16 51.8969 39.9314 51.8969L42.9215 54.8875C42.9215 54.8875 42.6403 51.8969 45.9116 51.8969L42.9215 48.9062Z" fill="white"/>
<path d="M54.8072 30.9971C54.8072 30.9971 55.0457 33.9877 51.8171 33.9877L54.8072 36.9783C54.8072 36.9783 54.526 33.9877 57.7974 33.9877L54.8072 30.9971Z" fill="white"/>
<path d="M48.9054 30.9971C48.9054 30.9971 48.6669 33.9877 51.8955 33.9877L48.9054 36.9783C48.9054 36.9783 49.1866 33.9877 45.9153 33.9877L48.9054 30.9971Z" fill="white"/>
<path d="M36.9374 36.9434C36.9374 36.9434 36.6989 39.934 39.9275 39.934L36.9374 42.9246C36.9374 42.9246 37.2186 39.934 33.9473 39.934L36.9374 36.9434Z" fill="white"/>
<path d="M24.972 36.9434C24.972 36.9434 24.7335 39.934 27.9621 39.934L24.972 42.9246C24.972 42.9246 25.2533 39.934 21.9819 39.934L24.972 36.9434Z" fill="white"/>
<path d="M42.9185 50.7695V48.2524C42.9185 46.96 43.965 45.9133 45.2571 45.9133H48.8987V51.8945H44.0433C43.4204 51.8945 42.9185 51.389 42.9185 50.7695Z" fill="white"/>
<path d="M36.9375 40.7359V45.115C36.9375 45.5574 37.2961 45.916 37.7384 45.916H42.1168C42.5591 45.916 42.9177 45.5574 42.9177 45.115V40.7359C42.9177 40.2934 42.5591 39.9348 42.1168 39.9348H37.7384C37.2961 39.9348 36.9375 40.2934 36.9375 40.7359Z" fill="white"/>
<path d="M42.9176 42.9248C42.9176 42.9248 42.6791 45.9154 45.9077 45.9154L42.9176 48.906C42.9176 48.906 43.1988 45.9154 39.9275 45.9154L42.9176 42.9248Z" fill="white"/>
<path d="M48.9053 51.8975V45.9162H54.8143C54.8535 45.9162 54.8855 45.9483 54.8855 45.9875V51.8975H48.9053Z" fill="#0090FF"/>
<path d="M54.8884 40.7708V45.0858C54.8884 45.546 55.2614 45.9189 55.7214 45.9189H60.0357C60.4957 45.9189 60.8686 45.546 60.8686 45.0858V40.7708C60.8686 40.3107 60.4957 39.9377 60.0357 39.9377H55.7214C55.2614 39.9377 54.8884 40.3107 54.8884 40.7708Z" fill="#0090FF"/>
<path d="M54.8854 42.9248C54.8854 42.9248 55.1239 45.9154 51.8953 45.9154L54.8854 48.906C54.8854 48.906 54.6042 45.9154 57.8755 45.9154L54.8854 42.9248Z" fill="#0090FF"/>
<path d="M18.9888 33.9893V28.7877C18.9888 28.3569 19.3376 28.0045 19.7719 28.0045H24.1894C24.6201 28.0045 24.9725 28.3534 24.9725 28.7877V33.9893H18.9923H18.9888Z" fill="#D83273"/>
</svg>
