<svg width="194" height="91" viewBox="0 0 194 91" fill="none" xmlns="http://www.w3.org/2000/svg">
<g filter="url(#filter0_d_190_631)">
<path d="M96.9995 31.8399C101.481 31.8399 105.115 28.2101 105.115 23.7325C105.115 19.2548 101.481 15.625 96.9995 15.625C92.5174 15.625 88.884 19.2548 88.884 23.7325C88.884 28.2101 92.5174 31.8399 96.9995 31.8399Z" fill="white"/>
<path d="M88.884 23.732C88.884 19.2619 92.5245 15.625 96.9995 15.625C101.474 15.625 105.114 19.2619 105.114 23.732C105.114 28.2021 101.474 31.8395 96.9995 31.8395C92.525 31.8395 88.884 28.2025 88.884 23.732Z" fill="white"/>
<path d="M116.734 44.9983C116.399 44.9981 116.071 44.8988 115.793 44.7129C115.514 44.5269 115.296 44.2627 115.168 43.9535C115.039 43.6443 115.005 43.304 115.07 42.9754C115.134 42.6469 115.295 42.3448 115.531 42.1072C120.35 37.2692 123.006 30.8566 123.006 24.0526C123.006 17.1947 120.316 10.7469 115.431 5.89797C115.112 5.58096 114.932 5.15026 114.931 4.70059C114.929 4.25093 115.107 3.81914 115.424 3.50022C115.741 3.1813 116.173 3.00137 116.623 3.00001C117.073 2.99865 117.505 3.17598 117.824 3.49298C123.354 8.98363 126.4 16.285 126.4 24.0526C126.4 31.7591 123.395 39.0207 117.939 44.4991C117.781 44.6577 117.594 44.7836 117.387 44.8692C117.18 44.9549 116.958 44.9988 116.734 44.9983Z" fill="white"/>
<path d="M111.989 40.6816C111.654 40.6817 111.327 40.5827 111.048 40.3969C110.769 40.2112 110.551 39.9471 110.422 39.6379C110.293 39.3288 110.259 38.9884 110.324 38.6598C110.388 38.3312 110.549 38.029 110.785 37.7914C114.45 34.1066 116.468 29.2278 116.468 24.0526C116.468 18.8267 114.414 13.9122 110.686 10.2155C110.366 9.89881 110.186 9.46827 110.184 9.01861C110.182 8.56894 110.359 8.13698 110.676 7.81776C110.993 7.49854 111.424 7.3182 111.874 7.31642C112.324 7.31464 112.757 7.49156 113.076 7.80826C117.452 12.1467 119.862 17.9156 119.862 24.0526C119.862 30.1289 117.494 35.8567 113.194 40.181C113.036 40.3398 112.848 40.4659 112.642 40.5518C112.435 40.6377 112.213 40.6818 111.989 40.6816Z" fill="white"/>
<path d="M107.353 35.8395C107.018 35.8396 106.691 35.7406 106.412 35.555C106.133 35.3694 105.916 35.1056 105.787 34.7967C105.658 34.4878 105.624 34.1477 105.688 33.8193C105.752 33.4908 105.912 33.1888 106.148 32.9512C108.517 30.5616 109.822 27.4012 109.822 24.0531C109.822 20.656 108.483 17.4622 106.052 15.0604C105.894 14.9039 105.768 14.7177 105.681 14.5125C105.595 14.3074 105.55 14.0872 105.548 13.8646C105.547 13.642 105.59 13.4214 105.674 13.2152C105.758 13.0091 105.882 12.8216 106.039 12.6633C106.195 12.505 106.382 12.3791 106.587 12.2928C106.793 12.2065 107.013 12.1614 107.236 12.1602C107.458 12.1589 107.679 12.2016 107.886 12.2856C108.092 12.3696 108.28 12.4934 108.438 12.65C111.519 15.6931 113.216 19.7432 113.216 24.0549C113.216 28.3028 111.562 32.3099 108.559 35.339C108.401 35.498 108.213 35.6241 108.006 35.71C107.799 35.796 107.577 35.84 107.353 35.8395Z" fill="white"/>
<path d="M77.2644 44.9988C77.0409 44.9993 76.8195 44.9555 76.613 44.8701C76.4065 44.7846 76.2189 44.6592 76.0612 44.501C70.605 39.0221 67.6001 31.761 67.6001 24.0545C67.6001 16.2883 70.6462 8.98642 76.1762 3.49486C76.497 3.18524 76.9268 3.01417 77.3728 3.01864C77.8188 3.02311 78.2451 3.20276 78.5596 3.51876C78.874 3.83475 79.0514 4.26169 79.0532 4.70726C79.0551 5.15284 78.8814 5.58125 78.5696 5.89986C73.6842 10.7501 70.9941 17.1975 70.9941 24.0545C70.9941 30.8585 73.6484 37.2697 78.469 42.1091C78.7055 42.3466 78.8662 42.6487 78.931 42.9773C78.9957 43.306 78.9616 43.6464 78.8329 43.9557C78.7042 44.265 78.4866 44.5293 78.2077 44.7151C77.9288 44.901 77.601 45.0002 77.2658 45.0002L77.2644 44.9988Z" fill="white"/>
<path d="M82.0099 40.6827C81.786 40.6828 81.5644 40.6387 81.3577 40.5527C81.151 40.4668 80.9635 40.3409 80.8058 40.1822C76.5057 35.8569 74.1368 30.1291 74.1368 24.0528C74.1368 17.9159 76.5465 12.1469 80.9226 7.80847C81.2437 7.49903 81.6737 7.32827 82.1198 7.33311C82.5658 7.33795 82.992 7.51801 83.3062 7.83435C83.6204 8.15068 83.7974 8.57786 83.7988 9.02351C83.8002 9.46915 83.6259 9.89743 83.3137 10.2157C79.5849 13.9124 77.5309 18.8269 77.5309 24.0528C77.5309 29.2271 79.5495 34.1068 83.214 37.7926C83.4502 38.0301 83.6107 38.3322 83.6753 38.6608C83.7399 38.9894 83.7056 39.3297 83.5768 39.6388C83.448 39.948 83.2305 40.2121 82.9516 40.3978C82.6727 40.5836 82.3451 40.6827 82.0099 40.6827Z" fill="white"/>
<path d="M86.6465 35.8395C86.4223 35.8398 86.2002 35.7956 85.9933 35.7093C85.7863 35.6231 85.5986 35.4966 85.441 35.3372C82.4384 32.3081 80.7844 28.301 80.7844 24.0531C80.7844 19.7432 82.4814 15.6931 85.5615 12.6482C85.7191 12.4878 85.9071 12.3604 86.1144 12.2733C86.3218 12.1861 86.5444 12.141 86.7693 12.1406C86.9942 12.1402 87.217 12.1845 87.4247 12.2709C87.6323 12.3572 87.8207 12.484 87.9789 12.6438C88.1371 12.8035 88.2619 12.9931 88.3461 13.2015C88.4303 13.4099 88.4722 13.6329 88.4693 13.8576C88.4664 14.0823 88.4188 14.3042 88.3294 14.5104C88.2399 14.7166 88.1103 14.9029 87.948 15.0586C85.5176 17.4604 84.1785 20.6542 84.1785 24.0513C84.1785 27.4003 85.4832 30.5598 87.852 32.9494C88.0879 33.187 88.2481 33.4891 88.3124 33.8176C88.3767 34.1461 88.3422 34.4862 88.2132 34.7951C88.0843 35.104 87.8667 35.3679 87.5879 35.5534C87.3091 35.739 86.9815 35.8379 86.6465 35.8377V35.8395Z" fill="white"/>
<path d="M17.918 70.6055H20.9258V82.4121H28.0547V85H17.918V70.6055ZM32.8984 85H29.9102V70.6055H32.8984V85ZM44.1387 70.6055H47.2637L42.3516 85H39.5098L34.6465 70.6055H37.8594L40.9844 81.5332L44.1387 70.6055ZM59.6953 73.1543H52.0781V76.2109H59.0703V78.7109H52.0781V82.4121H60.0469V85H49.1387V70.6055H59.6953V73.1543ZM67.957 70.625H78.1621V73.1543H70.9453V76.4648H77.2637V78.9648H70.9453V85H67.957V70.625ZM90.8281 73.1543H83.2109V76.2109H90.2031V78.7109H83.2109V82.4121H91.1797V85H80.2715V70.6055H90.8281V73.1543ZM104.168 73.1543H96.5508V76.2109H103.543V78.7109H96.5508V82.4121H104.52V85H93.6113V70.6055H104.168V73.1543ZM109.783 73.1055V82.5H112.557C113.976 82.5 114.965 81.8001 115.525 80.4004C115.831 79.6322 115.984 78.7174 115.984 77.6562C115.984 76.1914 115.753 75.0684 115.291 74.2871C114.835 73.4993 113.924 73.1055 112.557 73.1055H109.783ZM113.064 70.6055C113.956 70.6185 114.699 70.7227 115.291 70.918C116.3 71.25 117.117 71.8587 117.742 72.7441C118.243 73.4603 118.585 74.235 118.768 75.0684C118.95 75.9017 119.041 76.696 119.041 77.4512C119.041 79.3652 118.657 80.9863 117.889 82.3145C116.847 84.1048 115.239 85 113.064 85H106.863V70.6055H113.064ZM124.236 73.1055V76.2793H127.771C128.403 76.2793 128.914 76.1621 129.305 75.9277C129.702 75.6868 129.9 75.2637 129.9 74.6582C129.9 73.9876 129.64 73.5449 129.119 73.3301C128.67 73.1803 128.097 73.1055 127.4 73.1055H124.236ZM124.236 78.6621V82.5H127.771C128.403 82.5 128.895 82.4154 129.246 82.2461C129.884 81.9336 130.203 81.3346 130.203 80.4492C130.203 79.7005 129.894 79.1862 129.275 78.9062C128.93 78.75 128.445 78.6686 127.82 78.6621H124.236ZM128.357 70.6055C130.122 70.6315 131.372 71.1426 132.107 72.1387C132.55 72.7507 132.771 73.4831 132.771 74.3359C132.771 75.2148 132.55 75.9212 132.107 76.4551C131.86 76.7546 131.495 77.028 131.014 77.2754C131.749 77.5423 132.303 77.9655 132.674 78.5449C133.051 79.1243 133.24 79.8275 133.24 80.6543C133.24 81.5072 133.025 82.2721 132.596 82.9492C132.322 83.3984 131.98 83.776 131.57 84.082C131.108 84.4336 130.561 84.6745 129.93 84.8047C129.305 84.9349 128.624 85 127.889 85H121.365V70.6055H128.357ZM139.705 79.5605H143.357L141.561 73.8965L139.705 79.5605ZM139.891 70.6055H143.289L148.387 85H145.125L144.197 82.041H138.895L137.898 85H134.754L139.891 70.6055ZM149.598 77.9199C149.598 75.4069 150.271 73.4701 151.619 72.1094C152.791 70.9245 154.282 70.332 156.092 70.332C158.514 70.332 160.285 71.1263 161.404 72.7148C162.023 73.6068 162.355 74.502 162.4 75.4004H159.393C159.197 74.7103 158.947 74.1895 158.641 73.8379C158.094 73.2129 157.283 72.9004 156.209 72.9004C155.115 72.9004 154.253 73.3431 153.621 74.2285C152.99 75.1074 152.674 76.3542 152.674 77.9688C152.674 79.5833 153.006 80.7943 153.67 81.6016C154.34 82.4023 155.19 82.8027 156.219 82.8027C157.273 82.8027 158.077 82.4577 158.631 81.7676C158.937 81.3965 159.191 80.8398 159.393 80.0977H162.371C162.111 81.6667 161.443 82.9427 160.369 83.9258C159.301 84.9089 157.931 85.4004 156.258 85.4004C154.188 85.4004 152.56 84.7363 151.375 83.4082C150.19 82.0736 149.598 80.2441 149.598 77.9199ZM164.725 70.6055H167.684V76.5332L173.24 70.6055H177.127L171.229 76.5332L177.43 85H173.562L169.119 78.7109L167.684 80.1855V85H164.725V70.6055Z" fill="white"/>
</g>
<defs>
<filter id="filter0_d_190_631" x="-4" y="0" width="202" height="94" filterUnits="userSpaceOnUse" color-interpolation-filters="sRGB">
<feFlood flood-opacity="0" result="BackgroundImageFix"/>
<feColorMatrix in="SourceAlpha" type="matrix" values="0 0 0 0 0 0 0 0 0 0 0 0 0 0 0 0 0 0 127 0" result="hardAlpha"/>
<feOffset dy="1"/>
<feGaussianBlur stdDeviation="2"/>
<feComposite in2="hardAlpha" operator="out"/>
<feColorMatrix type="matrix" values="0 0 0 0 0 0 0 0 0 0 0 0 0 0 0 0 0 0 0.25 0"/>
<feBlend mode="normal" in2="BackgroundImageFix" result="effect1_dropShadow_190_631"/>
<feBlend mode="normal" in="SourceGraphic" in2="effect1_dropShadow_190_631" result="shape"/>
</filter>
</defs>
</svg>
