<svg width="108" height="112" viewBox="0 0 108 112" fill="none" xmlns="http://www.w3.org/2000/svg">
<g clip-path="url(#clip0_190_582)">
<path d="M23.1484 41.4648C21.8918 39.9433 20.7407 38.4633 19.4963 37.0634C17.3998 34.7053 16.7395 32.0609 17.9253 29.1156C19.1773 26.0025 21.5851 24.2671 24.8689 23.7083C25.1586 23.6591 25.4561 23.6537 25.8945 23.6152C25.3551 20.152 26.3691 17.2467 29.2114 15.1641C32.0044 13.1162 35.0055 12.8245 38.2123 14.59C38.7331 13.2308 39.2231 11.9733 39.6977 10.7058C40.4775 8.6278 41.2387 6.54062 42.0254 4.46652C43.4593 0.703886 46.8355 -0.896903 50.6148 0.500711C63.2323 5.16969 75.841 9.85995 88.4411 14.5715C89.8418 15.0925 91.2488 15.5997 92.641 16.1415C96.5258 17.653 98.0622 21.0301 96.6152 24.9351C93.7367 32.6997 90.8188 40.4497 87.9757 48.2274C87.7446 48.8608 87.7523 49.7481 88.0104 50.3669C91.2226 58.063 92.1949 66.0855 91.7087 74.3465C91.1825 83.2416 89.2856 91.8482 86.1612 100.173C85.373 102.273 84.2859 104.301 83.0716 106.194C80.7139 109.87 77.1612 111.797 72.8518 111.906C66.5246 112.067 60.1904 111.991 53.8601 111.906C52.4732 111.888 51.0609 111.532 49.7172 111.136C46.384 110.156 44.1974 107.948 43.3152 104.579C42.6449 102.019 42.0824 99.4304 41.5323 96.8422C41.3628 96.0441 40.9968 95.6193 40.2225 95.3345C33.0076 92.6809 25.8097 89.9811 18.6026 87.309C14.5413 85.809 12.9495 82.4435 14.445 78.4108C16.9075 71.767 19.3872 65.1291 21.8841 58.4971C22.183 57.7098 22.1198 57.1887 21.5558 56.5684C20.4949 55.3971 19.5996 54.071 18.5024 52.9374C16.9037 51.2866 16.7927 49.3772 17.3012 47.3369C17.9176 44.8573 19.4725 43.1241 21.7816 42.0559C22.1931 41.8642 22.6168 41.6949 23.1484 41.4648ZM78.7199 64.019C78.8103 63.8804 78.8899 63.735 78.958 63.5842C83.9132 50.31 88.8638 37.0324 93.8099 23.7514C94.6728 21.4295 93.8014 19.7902 91.3158 18.8652C77.5877 13.7565 63.8587 8.6514 50.1286 3.54991C47.2554 2.48169 45.7268 3.19281 44.6528 6.07424C36.8267 27.0733 29.0016 48.0722 21.1775 69.0708C21.0234 69.4871 20.8694 69.905 20.7045 70.3591C23.9444 71.5705 27.0225 72.7241 30.1044 73.8708C39.1869 77.2494 48.274 80.6214 57.3658 83.9866C57.7749 84.1405 58.5215 84.2244 58.7072 84.0035C61.8115 80.244 62.9179 78.39 61.2699 73.9109C59.7073 69.6649 58.0962 65.4367 56.5583 61.1815C56.1114 59.944 55.7185 58.6602 55.5182 57.3634C54.6152 51.5144 59.3375 46.5927 64.9335 47.5609C67.9577 48.0842 70.0781 49.9929 71.6545 52.5018C74.0392 56.296 76.3444 60.141 78.7199 64.019ZM44.6096 96.9992C45.2352 99.5851 45.733 101.875 46.3532 104.13C46.901 106.123 48.2532 107.471 50.2103 108.096C51.3806 108.47 52.6173 108.834 53.8316 108.848C60.1157 108.925 66.4005 108.904 72.6854 108.873C73.4829 108.869 74.295 108.668 75.0739 108.463C78.7653 107.494 81.0128 104.832 82.251 101.503C84.0008 96.7976 85.6149 92.0052 86.7892 87.1305C88.9596 78.126 89.623 68.9869 87.7353 59.8093C87.3247 57.8137 86.7052 55.8604 86.182 53.8879L85.8022 53.9456C84.3236 57.8945 82.9159 61.8726 81.3333 65.7776C80.6815 67.3861 80.5028 68.8153 81.3557 70.3753C81.7594 71.1133 81.9605 71.9676 82.2202 72.7795C82.6108 74.0048 82.3072 74.8105 81.3364 75.073C80.2107 75.3808 79.6629 74.7143 79.3578 73.7646C76.9531 66.274 72.7316 59.7415 68.4986 53.216C68.222 52.7896 67.8652 52.4079 67.5085 52.0416C66.1263 50.6216 64.5036 49.9929 62.5126 50.5316C60.4647 51.0857 59.205 52.3871 58.6672 54.4204C58.2103 56.1505 58.5292 57.8067 59.1341 59.436C60.7236 63.7166 62.1983 68.0433 63.9227 72.2685C65.8103 76.8954 65.2494 81.0421 61.9864 84.7916C58.5192 88.7813 56.9482 93.4336 56.8873 98.6716C56.8634 100.765 56.0721 101.258 54.1282 100.538C51.0478 99.4019 47.972 98.2521 44.6096 96.9992ZM19.7814 73.2621C19.6327 73.3968 19.5395 73.4414 19.5133 73.5107C18.7783 75.4662 18.0409 77.4218 17.3228 79.3836C16.3813 81.9571 17.1178 83.5218 19.7151 84.4899C30.6674 88.574 41.6206 92.6558 52.5749 96.7352C52.9162 96.8622 53.2761 96.9384 53.7823 97.0823C53.6852 93.3666 54.7384 90.0835 56.5676 86.9565L19.7814 73.2621ZM27.7598 42.2768C27.9347 42.0613 28.0094 42.0035 28.038 41.9281C28.8185 39.8502 29.6082 37.7799 30.3671 35.6943C30.8618 34.3359 31.8527 32.8659 31.6308 31.623C31.4089 30.3801 29.9256 29.3681 29.0527 28.2129C28.0618 26.9045 26.7528 26.5436 25.2002 26.7283C21.4865 27.1708 19.0872 31.4499 21.1429 34.1866C23.2163 36.9503 25.5108 39.5454 27.7598 42.2768ZM33.0908 28.396C34.4076 24.8751 35.6334 21.6504 36.7992 18.4065C36.9024 18.1171 36.7653 17.5414 36.5349 17.3644C34.7975 16.0253 32.4213 16.287 30.5659 17.9547C28.7938 19.5432 28.1905 22.016 29.3547 23.716C30.4303 25.286 31.7263 26.7052 33.0908 28.396ZM23.4882 54.1526C24.5338 51.3428 25.5624 48.7807 26.3853 46.1541C26.5155 45.7392 25.8459 44.7303 25.3289 44.5225C23.9921 43.9837 21.8895 45.0881 20.8778 46.6158C19.8893 48.1073 19.8693 49.6943 20.8832 51.0026C21.6629 52.0039 22.5012 52.9628 23.4882 54.1526Z" fill="white"/>
<path d="M104.971 78.921C104.931 76.3043 103.738 72.6948 101.058 69.6341C100.357 68.8329 100.022 68.0279 100.886 67.1652C101.58 66.4725 102.504 66.6896 103.405 67.6954C110.872 76.0242 108.976 90.5821 99.6248 96.7267C98.4753 97.4825 97.5746 97.4548 97.0599 96.5797C96.4381 95.5223 97.0021 94.8473 97.8643 94.237C102.464 90.9831 104.982 86.0399 104.971 78.921Z" fill="white"/>
<path d="M0 28.8474C0.365211 22.0217 3.53267 15.9618 10.4247 12.1084C10.8269 11.8836 11.3184 11.5819 11.7168 11.6466C12.24 11.7289 12.9781 12.0314 13.1361 12.4324C13.3241 12.908 13.0505 13.6076 12.8579 14.1686C12.7808 14.3864 12.3887 14.5065 12.1259 14.6465C3.34237 19.3265 0.393704 30.2135 5.64766 38.5976C6.36344 39.7412 6.30569 40.6663 5.42964 41.1512C4.33786 41.7545 3.68446 41.115 3.10659 40.2677C1.18962 37.454 0.00231146 33.4543 0 28.8474Z" fill="white"/>
<path d="M100.542 80.0896C100.408 84.3363 98.9923 88.1112 95.8194 91.1374C94.8263 92.0848 93.9194 92.1987 93.2768 91.4252C92.4986 90.4893 92.9224 89.7321 93.6736 88.9809C97.9252 84.7265 98.6903 78.822 95.6569 73.6172C95.1175 72.6859 94.9203 71.8632 95.9173 71.1675C96.7209 70.6057 97.5353 70.9189 98.2287 72.0071C99.789 74.4491 100.469 77.1451 100.542 80.0896Z" fill="white"/>
<path d="M7.37134 31.5364C7.64178 25.4173 9.49095 21.189 13.5977 18.0921C14.7426 17.2286 15.7026 17.2309 16.2866 18.0459C16.8707 18.8609 16.6064 19.6367 15.4684 20.4964C10.8894 23.9596 9.27061 29.8625 11.4542 35.1367C11.552 35.3729 11.666 35.6038 11.7423 35.847C12.005 36.6867 11.8248 37.4016 10.9895 37.778C10.0981 38.1797 9.27906 37.8642 8.98628 36.993C8.27512 34.8742 7.71112 32.7062 7.37134 31.5364Z" fill="white"/>
</g>
<defs>
<clipPath id="clip0_190_582">
<rect width="108" height="112" fill="white"/>
</clipPath>
</defs>
</svg>
