<svg width="51" height="53" viewBox="0 0 51 53" fill="none" xmlns="http://www.w3.org/2000/svg">
<g clip-path="url(#clip0_190_824)">
<path d="M10.9311 19.6213C10.3377 18.9013 9.79413 18.2009 9.20652 17.5385C8.21651 16.4226 7.90469 15.1712 8.46465 13.7775C9.05589 12.3043 10.1929 11.4831 11.7436 11.2187C11.8804 11.1954 12.0208 11.1928 12.2279 11.1746C11.9732 9.53574 12.452 8.16091 13.7942 7.17541C15.1131 6.2063 16.5303 6.06827 18.0446 6.90373C18.2906 6.26056 18.5219 5.66548 18.7461 5.06565C19.1143 4.08234 19.4738 3.09465 19.8452 2.11316C20.5223 0.332627 22.1167 -0.42489 23.9013 0.236481C29.8596 2.44591 35.8137 4.66541 41.7638 6.89499C42.4252 7.14154 43.0896 7.38155 43.7471 7.63794C45.5816 8.35321 46.3071 9.95128 45.6238 11.7992C44.2645 15.4735 42.8866 19.1409 41.544 22.8214C41.4349 23.1212 41.4385 23.5411 41.5604 23.8339C43.0772 27.4758 43.5364 31.2721 43.3068 35.1813C43.0583 39.3907 42.1625 43.4634 40.6872 47.4029C40.315 48.3967 39.8016 49.3564 39.2282 50.2519C38.1148 51.9917 36.4371 52.9032 34.4022 52.955C31.4143 53.0311 28.4232 52.9954 25.4338 52.955C24.7789 52.9466 24.112 52.778 23.4775 52.5908C21.9035 52.1272 20.8709 51.0823 20.4543 49.4879C20.1378 48.2766 19.8722 47.0514 19.6124 45.8267C19.5323 45.449 19.3595 45.2479 18.9939 45.1132C15.5868 43.8575 12.1878 42.5799 8.78446 41.3154C6.86666 40.6056 6.11496 39.013 6.82118 37.1046C7.98401 33.9607 9.15499 30.8195 10.3341 27.6812C10.4752 27.3086 10.4454 27.0621 10.1791 26.7685C9.67806 26.2142 9.25528 25.5867 8.73717 25.0503C7.9822 24.2691 7.92979 23.3655 8.16993 22.4001C8.461 21.2266 9.19525 20.4065 10.2857 19.901C10.48 19.8103 10.6801 19.7302 10.9311 19.6213ZM37.1732 30.2943C37.2159 30.2287 37.2535 30.1599 37.2856 30.0885C39.6256 23.8069 41.9634 17.5238 44.299 11.2391C44.7065 10.1403 44.295 9.36456 43.1213 8.92681C36.6386 6.50931 30.1554 4.09351 23.6718 1.6794C22.315 1.17391 21.5931 1.51042 21.0859 2.87395C17.3903 12.811 13.6951 22.748 10.0004 32.6848C9.92765 32.8818 9.85489 33.0796 9.77703 33.2945C11.307 33.8677 12.7605 34.4136 14.2159 34.9563C18.5049 36.5551 22.796 38.1507 27.0893 39.7432C27.2825 39.816 27.6351 39.8557 27.7228 39.7512C29.1887 37.9721 29.7112 37.0948 28.9329 34.9752C28.195 32.966 27.4342 30.9651 26.708 28.9515C26.497 28.3659 26.3114 27.7584 26.2168 27.1447C25.7904 24.3769 28.0204 22.0479 30.663 22.506C32.0911 22.7537 33.0923 23.6569 33.8368 24.8441C34.9629 26.6396 36.0515 28.4591 37.1732 30.2943ZM21.0656 45.9009C21.361 47.1246 21.596 48.2081 21.8889 49.2755C22.1476 50.2184 22.7862 50.8565 23.7103 51.1522C24.263 51.3292 24.847 51.5011 25.4204 51.508C28.3879 51.5444 31.3557 51.5343 34.3236 51.5197C34.7002 51.5179 35.0836 51.4228 35.4515 51.3259C37.1947 50.8671 38.256 49.6073 38.8407 48.0322C39.667 45.8055 40.4292 43.5377 40.9837 41.2309C42.0086 36.9699 42.3219 32.6451 41.4305 28.3021C41.2366 27.3578 40.944 26.4335 40.697 25.5001L40.5176 25.5274C39.8194 27.396 39.1547 29.2785 38.4073 31.1264C38.0995 31.8876 38.0151 32.5639 38.4179 33.3021C38.6085 33.6514 38.7035 34.0556 38.8261 34.4399C39.0106 35.0196 38.8672 35.401 38.4088 35.5251C37.8772 35.6708 37.6185 35.3554 37.4745 34.906C36.3389 31.3613 34.3454 28.2701 32.3465 25.1821C32.2159 24.9804 32.0474 24.7997 31.8789 24.6264C31.2262 23.9544 30.4599 23.6569 29.5198 23.9118C28.5527 24.174 27.9578 24.7899 27.7039 25.7521C27.4881 26.5708 27.6387 27.3545 27.9243 28.1255C28.675 30.1511 29.3713 32.1986 30.1856 34.198C31.077 36.3875 30.8122 38.3498 29.2713 40.1241C27.634 42.0121 26.8921 44.2136 26.8634 46.6923C26.8521 47.6829 26.4784 47.9164 25.5605 47.5755C24.1058 47.0379 22.6534 46.4938 21.0656 45.9009ZM9.34115 34.6682C9.27093 34.7319 9.22691 34.7531 9.21454 34.7858C8.86743 35.7112 8.51923 36.6366 8.18013 37.565C7.73551 38.7828 8.08334 39.5232 9.30985 39.9814C14.4817 41.914 19.6541 43.8456 24.827 45.776C24.9881 45.8361 25.1581 45.8722 25.3971 45.9403C25.3513 44.182 25.8486 42.6283 26.7124 41.1486L9.34115 34.6682ZM13.1087 20.0055C13.1913 19.9035 13.2266 19.8762 13.2401 19.8405C13.6086 18.8572 13.9816 17.8775 14.34 16.8906C14.5735 16.2478 15.0415 15.5522 14.9367 14.964C14.8319 14.3758 14.1315 13.8969 13.7192 13.3503C13.2513 12.7311 12.6332 12.5603 11.9 12.6477C10.1463 12.8572 9.01333 14.8821 9.98406 16.1771C10.9632 17.4849 12.0467 18.713 13.1087 20.0055ZM15.6261 13.437C16.2479 11.7708 16.8268 10.2448 17.3773 8.70975C17.4261 8.57281 17.3613 8.3004 17.2525 8.21663C16.4321 7.58294 15.31 7.70677 14.4338 8.49597C13.597 9.24766 13.3121 10.4178 13.8619 11.2223C14.3698 11.9653 14.9818 12.6368 15.6261 13.437ZM11.0916 25.6253C11.5853 24.2957 12.0711 23.0833 12.4596 21.8403C12.5211 21.644 12.2049 21.1665 11.9608 21.0682C11.3295 20.8133 10.3366 21.3359 9.8589 22.0588C9.39209 22.7646 9.38262 23.5156 9.86144 24.1347C10.2296 24.6085 10.6255 25.0623 11.0916 25.6253Z" fill="#F681A8"/>
<path d="M49.5698 37.3463C49.5509 36.108 48.9877 34.3999 47.7219 32.9516C47.3908 32.5724 47.2329 32.1915 47.6407 31.7832C47.9682 31.4555 48.4048 31.5582 48.8301 32.0342C52.3561 35.9754 51.4611 42.8645 47.0451 45.7722C46.5023 46.1298 46.0769 46.1167 45.8339 45.7026C45.5403 45.2022 45.8066 44.8828 46.2137 44.594C48.3859 43.0542 49.5749 40.715 49.5698 37.3463Z" fill="#F681A8"/>
<path d="M0 13.6507C0.172461 10.4207 1.66821 7.55306 4.92277 5.72956C5.11269 5.62321 5.34482 5.48045 5.53293 5.51104C5.77998 5.55001 6.12855 5.69314 6.20314 5.88288C6.29192 6.10795 6.16274 6.439 6.07178 6.7045C6.0354 6.80756 5.8502 6.86438 5.72613 6.93066C1.57834 9.1453 0.185916 14.2972 2.66695 18.2646C3.00496 18.8058 2.97769 19.2436 2.564 19.473C2.04843 19.7586 1.73988 19.4559 1.467 19.0549C0.561765 17.7235 0.00109152 15.8308 0 13.6507Z" fill="#F681A8"/>
<path d="M47.478 37.8995C47.415 39.9092 46.7463 41.6955 45.248 43.1275C44.779 43.5758 44.3507 43.6297 44.0473 43.2637C43.6798 42.8209 43.8799 42.4625 44.2347 42.107C46.2424 40.0938 46.6037 37.2997 45.1712 34.8367C44.9165 34.396 44.8234 34.0067 45.2942 33.6775C45.6737 33.4116 46.0583 33.5598 46.3857 34.0748C47.1225 35.2304 47.4438 36.5062 47.478 37.8995Z" fill="#F681A8"/>
<path d="M3.48096 14.9238C3.60867 12.0281 4.48189 10.0273 6.42116 8.56177C6.96183 8.15315 7.41517 8.15424 7.69096 8.53992C7.96676 8.9256 7.84197 9.2927 7.30458 9.6995C5.14227 11.3384 4.37783 14.1317 5.40896 16.6275C5.45517 16.7393 5.50901 16.8486 5.54503 16.9637C5.6691 17.361 5.58396 17.6993 5.18955 17.8774C4.76859 18.0675 4.38183 17.9182 4.24357 17.5059C3.90774 16.5033 3.64141 15.4774 3.48096 14.9238Z" fill="#F681A8"/>
</g>
<defs>
<clipPath id="clip0_190_824">
<rect width="51" height="53" fill="white"/>
</clipPath>
</defs>
</svg>
