<svg width="194" height="170" viewBox="0 0 194 170" fill="none" xmlns="http://www.w3.org/2000/svg">
<g filter="url(#filter0_d_190_702)">
<path d="M138.251 13.3911C138.953 14.1655 139.739 14.8653 140.348 15.7252C141.737 17.0931 142.169 18.8447 142.33 20.7025C142.342 20.8392 142.334 20.9786 142.337 21.1166C142.528 34.355 142.472 47.5934 142.468 60.8318C142.468 62.2356 142.688 63.6269 142.611 65.0321C142.52 66.7119 141.917 68.1005 140.462 69.057C139.554 69.6547 138.549 69.6285 137.534 69.5967C135.532 69.1274 134.353 67.6712 134.345 65.5801C134.324 60.5019 134.338 55.4225 134.335 50.3444C134.332 41.7879 134.338 33.2329 134.329 24.6764C134.329 23.6412 134.056 22.6294 134.002 21.597C134.051 20.2029 133.188 19.4064 132.1 18.806C131.391 18.414 130.953 18.697 130.891 19.5017C130.865 19.8454 130.88 20.1904 130.88 20.5355C130.88 39.8431 130.857 59.152 130.916 78.4596C130.921 80.432 130.415 82.1119 129.345 83.6854C128.543 84.8655 127.73 86.0471 127.128 87.3349C126.202 89.3184 124.648 89.8898 122.618 89.6137C121.789 89.5006 120.959 89.4826 120.128 89.6345C119.665 89.7187 119.218 89.5102 118.761 89.5047C117.589 89.4923 116.417 89.4536 115.247 89.5295C114.43 89.3253 113.835 88.7939 113.334 88.1575C113.066 87.818 112.873 87.7697 112.598 88.1355C111.726 89.2949 110.573 89.7255 109.117 89.6483C107.403 89.5558 105.68 89.6248 103.96 89.6276C103.182 89.6276 102.405 89.6331 101.629 89.5641C100.605 89.5792 99.9477 88.9526 99.3472 88.2431C98.9318 87.7531 98.6267 87.1844 98.3093 86.6295C97.4921 85.2009 96.5825 83.8262 95.7681 82.3962C95.452 81.8399 95.1663 81.2685 95.0518 80.6253C95.4286 77.6714 95.3554 74.6983 95.2464 71.7431C95.0959 67.7016 94.9662 63.6476 95.1939 59.6241C95.6108 52.2533 95.2629 44.8881 95.4162 37.5214C95.4189 37.3848 95.3982 37.244 95.4797 37.1198C96.0456 35.531 97.136 34.6076 98.8365 34.4089C99.8 34.2957 101.295 35.0383 101.846 36.0017C102.091 36.4324 102.398 36.8534 102.4 37.3875C102.729 37.5477 102.841 37.8251 102.852 38.1743C102.864 38.5884 102.867 39.0011 102.867 39.4152C102.867 52.0794 102.893 64.7436 102.837 77.4078C102.828 79.0835 103.666 80.2705 104.475 81.5349C104.723 81.9227 105.154 82.0691 105.63 81.9876C106.649 82.1809 107.343 81.7875 107.831 80.8751C108.12 80.3313 108.448 79.7999 108.78 79.2767C109.095 78.7826 109.085 78.2305 109.085 77.677C109.085 70.7644 109.085 63.8519 109.085 56.9394C109.085 56.5488 109.074 56.1582 109.098 55.7689C109.186 54.332 110.423 52.5998 111.658 52.1733C113.205 51.6391 115.261 52.3154 116.227 53.6778C116.493 54.0546 116.703 54.4632 116.863 54.8952C116.891 55.6709 116.95 56.4466 116.949 57.2238C116.945 63.9955 116.976 70.7658 116.924 77.5376C116.911 79.1732 117.715 80.3685 118.598 81.5708C118.878 81.9517 119.287 82.1809 119.805 81.9876C120.724 82.1422 121.261 81.7033 121.785 80.9634C122.891 79.4065 123.207 77.7363 123.193 75.8453C123.124 66.8154 123.076 57.7828 123.189 48.7529C123.287 40.9321 123.266 33.1114 123.304 25.2906C123.308 24.3023 123.07 23.3361 123.095 22.3506C123.213 21.3692 123.174 20.3809 123.149 19.3968C123.131 18.6528 122.757 18.4154 122.05 18.6818C120.579 19.238 119.787 20.3713 119.748 21.891C119.683 24.4804 119.622 27.0726 119.8 29.6634C119.907 31.219 119.909 32.7843 119.78 34.3398C119.62 36.2612 117.482 37.7312 115.745 37.6898C115.332 37.6802 115.058 37.3309 114.669 37.2688C112.784 36.6574 111.875 34.9734 111.911 33.1569C111.989 29.23 111.953 25.3003 111.93 21.372C111.916 18.9537 112.751 16.8419 114.173 14.9495C115.6 13.0502 117.465 11.7168 119.726 10.9715C120.706 10.6485 121.718 10.4359 122.76 10.5187C123.316 10.5629 123.533 10.3931 123.512 9.79821C123.469 8.58217 123.559 7.35923 123.484 6.14595C123.395 4.69526 124.422 3.29288 125.892 3.11344C127.174 2.95747 128.506 2.80426 129.606 3.81049C130.084 4.24666 130.327 4.79878 130.547 5.37574C130.989 6.49378 130.865 7.66841 130.884 8.82786C130.901 9.79821 131.127 10.0411 132.085 10.1405C132.561 10.1902 133.05 10.1999 133.421 10.5739C133.47 10.6347 133.522 10.6926 133.577 10.7465C134.172 10.9314 134.728 11.2517 135.356 11.3096C135.583 11.3303 135.634 11.5084 135.781 11.5885C136.009 11.732 136.369 11.6575 136.47 12.0094C137.064 12.4691 137.659 12.9273 138.252 13.387L138.251 13.3911Z" fill="white"/>
<path d="M77.5054 32.8671C78.8111 33.509 80.1348 34.1191 81.2556 35.0742C82.1238 35.6912 82.7312 36.5429 83.3344 37.3973C84.716 38.7762 85.3344 40.6133 86.2109 42.2835C88.1226 45.9261 90.0067 49.5825 91.8963 53.2361C93.0116 55.3922 93.5761 57.689 93.6217 60.1252C93.6534 61.8133 93.4989 63.4738 93.1565 65.1219C92.8239 66.7285 91.906 68.0702 91.1924 69.5084C90.1406 71.6272 88.9811 73.6894 87.899 75.7915C87.3317 76.8944 86.7782 78.0055 86.1502 79.0766C85.1978 80.7026 84.509 82.4749 83.4917 84.0609C81.3081 87.4688 78.2535 89.5255 74.1278 89.6069C69.8075 89.6925 65.483 89.6262 61.1613 89.6276C60.7224 89.6276 60.2903 89.5986 59.8666 89.4868C59.723 89.4744 59.5753 89.4868 59.4428 89.4123C59.164 89.179 58.859 89.0106 58.4766 89.0493C57.7216 88.5951 57.0977 88.0306 56.8658 87.1362C56.7982 86.5689 56.6105 86.0333 56.5718 85.4453C56.431 83.3404 58.5622 81.3279 60.8314 81.3486C64.3484 81.3803 67.8654 81.3583 71.3824 81.3555C71.704 81.3555 72.0256 81.3596 72.3472 81.3541C73.3383 81.3376 73.6254 81.0491 73.7316 80.0428C73.9387 78.0787 73.2927 76.3588 72.3886 74.6528C71.0787 72.1779 69.7274 69.7251 68.5072 67.202C68.0476 66.2509 67.5162 65.3372 66.9917 64.4207C66.1179 62.5159 65.5534 61.7222 63.1862 61.7415C59.7465 61.7705 56.3068 61.7774 52.8657 61.7319C52.3164 61.6366 51.6745 61.7167 51.4537 60.9948C49.8208 59.9057 49.7187 58.0575 50.3743 56.8401C50.9209 55.8242 51.8264 55.2762 52.9927 55.2458C54.3178 55.2113 55.6456 55.2169 56.9707 55.2044C57.1681 54.938 57.4525 54.8718 57.7616 54.8704C60.1923 54.8538 62.6286 54.7627 65.0537 54.9022C66.8785 55.0071 68.4631 55.9029 69.9745 56.8939C70.9945 57.562 71.7896 58.4274 72.3886 59.482C73.6847 62.2136 75.1672 64.8513 76.5364 67.547C77.4115 69.2669 78.2908 70.9854 79.2045 72.6859C79.7083 73.6245 79.6849 73.6369 80.3515 72.8115C81.1466 70.9219 82.2453 69.191 83.1701 67.369C83.7415 66.244 84.4276 65.184 84.8734 63.99C85.8755 61.3109 85.5718 58.7063 84.3075 56.2535C82.4565 52.6606 80.542 49.0994 78.7145 45.4927C78.1955 44.4699 77.5813 43.4982 77.0885 42.4616C77.0264 42.2338 76.8622 42.0627 76.7614 41.8584C76.1002 40.5209 75.0057 39.937 73.5301 39.9453C70.4769 39.9605 67.4223 39.9508 64.3677 39.9494C63.748 39.9494 63.1282 39.9522 62.5085 39.9494C61.5119 39.9439 60.4932 40.0585 59.5974 39.458C59.2192 39.2441 58.8162 39.0647 58.4697 38.8079C57.1681 37.8459 56.8644 36.478 57.1819 35.008C57.4814 33.6194 58.4642 32.7829 59.8417 32.4241C59.9494 32.3965 60.046 32.3261 60.1482 32.2764C64.3332 32.2846 68.5169 32.315 72.7019 32.2902C74.339 32.2805 75.9512 32.3468 77.5164 32.8713H77.5068L77.5054 32.8671Z" fill="white"/>
<path d="M142.149 72.1739C142.419 72.6335 142.69 73.0932 142.959 73.5528C144.135 74.6695 144.269 75.2989 143.605 76.6143C143.46 76.9014 143.321 77.1899 143.165 77.4701C142.785 78.152 142.353 78.8007 141.918 79.4481C141.579 79.9519 141.104 80.2638 140.474 80.2293C139.413 80.1727 138.313 80.4778 137.3 79.9187C136.429 79.9684 135.844 79.5888 135.447 78.8035C135.039 77.9905 134.564 77.2092 134.089 76.4321C133.777 75.92 133.654 75.3858 133.739 74.7978C133.688 74.6294 133.645 74.4776 133.74 74.294C134.354 73.1111 134.828 71.844 135.832 70.9013C135.969 70.7729 136.113 70.668 136.309 70.6542C137.766 70.4692 139.229 70.4099 140.695 70.472C141.586 70.5093 142.252 71.3181 142.147 72.1753L142.149 72.1739Z" fill="white"/>
<path d="M69.8006 106.282C68.8965 106.252 68.2671 105.852 67.8295 105.029C67.1311 103.716 66.3623 102.44 65.6003 101.161C65.0096 100.172 64.9185 99.2455 65.5852 98.2144C66.3802 96.986 67.0745 95.6885 67.7702 94.3979C68.227 93.5476 68.8399 93.1115 69.8503 93.1432C71.5729 93.1971 73.2982 93.1736 75.0222 93.1501C75.8145 93.1391 76.3735 93.4552 76.7862 94.1191C77.1838 94.7582 77.4377 95.4828 77.9498 96.0529C78.9643 96.8976 79.5648 98.0198 80.0106 99.2262C80.1928 99.7189 80.0079 100.217 79.7953 100.689C79.2459 101.909 78.4081 102.958 77.7704 104.126C77.4543 104.706 77.2183 105.334 76.731 105.818C76.2314 106.314 75.6516 106.587 74.9518 106.596C73.5522 106.611 72.1526 106.607 70.7516 106.598C70.3982 106.596 70.0794 106.507 69.8006 106.286V106.282Z" fill="white"/>
</g>
<g filter="url(#filter1_d_190_702)">
<path d="M27.0977 141.512L28.6797 135.809H25.4375L23.9141 141.512H27.0977ZM16.043 141.512H20.0078L21.5508 135.809H17.5664L18.4453 132.527H22.4297L24.5586 124.656H28.4453L26.3164 132.527H29.5586L31.6289 124.656H35.5156L33.4453 132.527H37.3711L36.4922 135.809H32.5664L30.9844 141.512H34.9688L34.0898 144.793H30.1055L28.0156 152.605H24.1289L26.2188 144.793H23.0156L20.8867 152.605H17L19.1289 144.793H15.1641L16.043 141.512ZM40.5097 152.605V130.685H44.9097L45.7097 134.125H46.0297C46.483 133.032 47.2697 132.125 48.3897 131.405C49.5097 130.659 50.963 130.285 52.7497 130.285C54.4564 130.285 55.8697 130.592 56.9897 131.205C58.1097 131.792 58.9497 132.699 59.5097 133.925C60.0964 135.125 60.3897 136.645 60.3897 138.485V152.605H54.3897V139.685C54.3897 138.192 54.083 137.125 53.4697 136.485C52.883 135.819 52.0164 135.485 50.8697 135.485C49.9364 135.485 49.1364 135.739 48.4697 136.245C47.8297 136.752 47.3364 137.499 46.9897 138.485C46.6697 139.445 46.5097 140.659 46.5097 142.125V152.605H40.5097ZM41.1059 127.645V125.125L45.1459 123.445H59.4259V127.645H41.1059ZM54.3059 125.205V120.685H59.4259V125.205H54.3059ZM78.8919 153.005C76.9985 153.005 75.4652 152.645 74.2919 151.925C73.1452 151.205 72.3319 150.285 71.8519 149.165H71.5319L70.8919 152.605H66.3319V130.685H72.3319V141.165C72.3319 142.685 72.5052 143.939 72.8519 144.925C73.1985 145.885 73.7052 146.605 74.3719 147.085C75.0385 147.565 75.8385 147.805 76.7719 147.805C77.8919 147.805 78.7452 147.472 79.3319 146.805C79.9185 146.139 80.2119 145.072 80.2119 143.605V130.685H86.2119V144.925C86.2119 146.659 85.9319 148.125 85.3719 149.325C84.8385 150.525 84.0252 151.445 82.9319 152.085C81.8385 152.699 80.4919 153.005 78.8919 153.005ZM93.6313 152.605V143.405H91.3513V139.725H99.0312V148.045H99.3112C100.191 148.045 100.938 147.805 101.551 147.325C102.191 146.845 102.671 146.139 102.991 145.205C103.311 144.245 103.471 143.045 103.471 141.605C103.471 139.952 103.231 138.645 102.751 137.685C102.298 136.699 101.618 135.992 100.711 135.565C99.8046 135.139 98.6846 134.925 97.3513 134.925C95.9646 134.925 94.7113 135.125 93.5913 135.525C92.4713 135.899 91.4713 136.352 90.5913 136.885V131.885C91.4713 131.432 92.5779 131.032 93.9113 130.685C95.2446 130.339 96.7779 130.165 98.5113 130.165C101.098 130.165 103.191 130.579 104.791 131.405C106.418 132.232 107.618 133.485 108.391 135.165C109.165 136.845 109.551 138.952 109.551 141.485C109.551 143.859 109.191 145.885 108.471 147.565C107.778 149.219 106.631 150.472 105.031 151.325C103.458 152.179 101.351 152.605 98.7113 152.605H93.6313ZM101.728 163.045V159.485C101.728 158.819 101.434 158.485 100.848 158.485C100.714 158.485 100.581 158.499 100.448 158.525C100.314 158.552 100.181 158.592 100.048 158.645L99.7678 155.765C100.141 155.632 100.661 155.499 101.328 155.365C101.968 155.232 102.621 155.165 103.288 155.165C104.594 155.165 105.514 155.419 106.048 155.925C106.581 156.459 106.848 157.179 106.848 158.085V163.045H101.728ZM115.815 152.605L112.615 130.685H118.535L119.535 139.645C119.615 140.312 119.695 141.205 119.775 142.325C119.882 143.445 119.935 144.712 119.935 146.125H120.055C120.242 145.512 120.415 144.952 120.575 144.445C120.735 143.912 120.895 143.419 121.055 142.965C121.215 142.485 121.375 142.019 121.535 141.565C121.695 141.112 121.855 140.659 122.015 140.205L123.855 135.125H127.255L129.095 140.205C129.308 140.792 129.522 141.392 129.735 142.005C129.948 142.592 130.162 143.219 130.375 143.885C130.588 144.552 130.802 145.299 131.015 146.125H131.175C131.228 144.925 131.295 143.765 131.375 142.645C131.482 141.499 131.588 140.512 131.695 139.685L132.215 136.285C132.455 134.712 132.282 133.605 131.695 132.965C131.135 132.325 130.122 132.005 128.655 132.005H126.175V128.085H129.375C131.215 128.085 132.468 127.725 133.135 127.005C133.802 126.285 134.135 125.365 134.135 124.245V124.045H139.855V124.245C139.855 125.739 139.522 127.032 138.855 128.125C138.188 129.219 137.068 129.912 135.495 130.205V130.365C136.268 130.659 136.855 131.099 137.255 131.685C137.682 132.272 137.948 132.925 138.055 133.645C138.162 134.339 138.162 135.032 138.055 135.725L135.415 152.605H129.175L127.135 146.245C126.948 145.605 126.762 144.992 126.575 144.405C126.415 143.819 126.255 143.192 126.095 142.525C125.935 141.832 125.775 141.045 125.615 140.165H125.455C125.295 141.072 125.135 141.885 124.975 142.605C124.815 143.299 124.642 143.939 124.455 144.525C124.295 145.112 124.108 145.699 123.895 146.285L121.775 152.605H115.815ZM148.334 152.605V138.125C148.334 137.005 148.068 136.192 147.534 135.685C147.028 135.179 146.188 134.925 145.014 134.925C144.134 134.925 143.321 135.045 142.574 135.285C141.854 135.525 141.174 135.819 140.534 136.165V131.365C141.121 131.099 141.948 130.832 143.014 130.565C144.081 130.299 145.334 130.165 146.774 130.165C148.241 130.165 149.534 130.379 150.654 130.805C151.801 131.232 152.694 131.952 153.334 132.965C154.001 133.952 154.334 135.312 154.334 137.045V152.605H148.334ZM169.797 152.605V139.765L171.237 139.605C171.184 141.045 170.584 142.165 169.437 142.965C168.317 143.765 166.864 144.165 165.077 144.165C163.744 144.165 162.504 143.912 161.357 143.405C160.237 142.872 159.331 142.072 158.637 141.005C157.971 139.939 157.637 138.592 157.637 136.965C157.637 134.885 158.224 133.259 159.397 132.085C160.571 130.885 162.197 130.285 164.277 130.285C164.651 130.285 165.091 130.312 165.597 130.365C166.104 130.419 166.637 130.552 167.197 130.765L166.757 134.565C166.491 134.485 166.264 134.432 166.077 134.405C165.891 134.379 165.731 134.365 165.597 134.365C164.957 134.365 164.411 134.565 163.957 134.965C163.504 135.365 163.277 135.992 163.277 136.845C163.277 137.699 163.544 138.379 164.077 138.885C164.637 139.392 165.437 139.645 166.477 139.645C167.624 139.645 168.464 139.352 168.997 138.765C169.531 138.152 169.797 137.219 169.797 135.965V130.685H175.797V152.605H169.797Z" fill="white"/>
</g>
<defs>
<filter id="filter0_d_190_702" x="44.9968" y="0" width="104.006" height="113.605" filterUnits="userSpaceOnUse" color-interpolation-filters="sRGB">
<feFlood flood-opacity="0" result="BackgroundImageFix"/>
<feColorMatrix in="SourceAlpha" type="matrix" values="0 0 0 0 0 0 0 0 0 0 0 0 0 0 0 0 0 0 127 0" result="hardAlpha"/>
<feOffset dy="2"/>
<feGaussianBlur stdDeviation="2.5"/>
<feComposite in2="hardAlpha" operator="out"/>
<feColorMatrix type="matrix" values="0 0 0 0 0 0 0 0 0 0 0 0 0 0 0 0 0 0 0.25 0"/>
<feBlend mode="normal" in2="BackgroundImageFix" result="effect1_dropShadow_190_702"/>
<feBlend mode="normal" in="SourceGraphic" in2="effect1_dropShadow_190_702" result="shape"/>
</filter>
<filter id="filter1_d_190_702" x="11.1641" y="118.686" width="168.633" height="50.3604" filterUnits="userSpaceOnUse" color-interpolation-filters="sRGB">
<feFlood flood-opacity="0" result="BackgroundImageFix"/>
<feColorMatrix in="SourceAlpha" type="matrix" values="0 0 0 0 0 0 0 0 0 0 0 0 0 0 0 0 0 0 127 0" result="hardAlpha"/>
<feOffset dy="2"/>
<feGaussianBlur stdDeviation="2"/>
<feComposite in2="hardAlpha" operator="out"/>
<feColorMatrix type="matrix" values="0 0 0 0 0 0 0 0 0 0 0 0 0 0 0 0 0 0 0.25 0"/>
<feBlend mode="normal" in2="BackgroundImageFix" result="effect1_dropShadow_190_702"/>
<feBlend mode="normal" in="SourceGraphic" in2="effect1_dropShadow_190_702" result="shape"/>
</filter>
</defs>
</svg>
