<svg width="194" height="172" viewBox="0 0 194 172" fill="none" xmlns="http://www.w3.org/2000/svg">
<g filter="url(#filter0_d_190_703)">
<g clip-path="url(#clip0_190_703)">
<path d="M141 107.053H53L59.2147 99.6963L134.537 99.5723L141 107.053Z" fill="white"/>
<path d="M109.785 98.686L80.2808 98.7569L88.5773 62.4076L100.644 62.2832L109.785 98.686Z" fill="white"/>
<path d="M124.427 98.6094L111.107 98.6548L101.734 62.2021H107.151C112.91 74.338 118.669 86.4738 124.427 98.6094Z" fill="white"/>
<path d="M65.4192 98.7012L78.7393 98.7466L88.113 62.2939H82.6959L65.4192 98.7012Z" fill="white"/>
<path d="M94.5763 4C91.7384 18.6762 88.9004 33.3526 86.0623 48.0291H103.298L94.5763 4Z" fill="white"/>
<path d="M97.511 10.9688L104.483 48.0286H111.107C106.576 35.6752 102.044 23.3219 97.511 10.9688Z" fill="white"/>
<path d="M91.866 10.9688C89.5423 23.3219 87.2183 35.6752 84.894 48.0286H78.27C82.802 35.6752 87.334 23.3219 91.866 10.9688Z" fill="white"/>
<path d="M99.5171 51.9414H89.8428V56.392H99.5171V51.9414Z" fill="white"/>
<path d="M88.1961 51.9414H83.0317V56.392H88.1961V51.9414Z" fill="white"/>
<path d="M106.25 51.9414H101.085V56.392H106.25V51.9414Z" fill="white"/>
<path d="M99.6797 50.1611H90.0054V51.372H99.6797V50.1611Z" fill="white"/>
<path d="M88.1961 50.1611H83.0317V51.372H88.1961V50.1611Z" fill="white"/>
<path d="M106.25 50.1611H101.085V51.372H106.25V50.1611Z" fill="white"/>
</g>
</g>
<g filter="url(#filter1_d_190_703)">
<path d="M42.332 151.959L43.9141 146.256H40.6719L39.1484 151.959H42.332ZM31.2773 151.959H35.2422L36.7852 146.256H32.8008L33.6797 142.975H37.6641L39.793 135.104H43.6797L41.5508 142.975H44.793L46.8633 135.104H50.75L48.6797 142.975H52.6055L51.7266 146.256H47.8008L46.2188 151.959H50.2031L49.3242 155.24H45.3398L43.25 163.053H39.3633L41.4531 155.24H38.25L36.1211 163.053H32.2344L34.3633 155.24H30.3984L31.2773 151.959ZM55.7441 163.053V141.133H60.1441L60.9441 144.573H61.2641C61.7174 143.479 62.5041 142.573 63.6241 141.853C64.7441 141.106 66.1974 140.733 67.9841 140.733C69.6907 140.733 71.1041 141.039 72.2241 141.653C73.3441 142.239 74.1841 143.146 74.7441 144.373C75.3307 145.573 75.6241 147.093 75.6241 148.933V163.053H69.6241V150.133C69.6241 148.639 69.3174 147.573 68.7041 146.933C68.1174 146.266 67.2507 145.933 66.1041 145.933C65.1707 145.933 64.3707 146.186 63.7041 146.693C63.0641 147.199 62.5707 147.946 62.2241 148.933C61.9041 149.893 61.7441 151.106 61.7441 152.573V163.053H55.7441ZM56.3403 138.093V135.573L60.3803 133.893H74.6603V138.093H56.3403ZM69.5403 135.653V131.133H74.6603V135.653H69.5403ZM94.1263 163.453C92.2329 163.453 90.6996 163.093 89.5263 162.373C88.3796 161.653 87.5663 160.733 87.0863 159.613H86.7663L86.1263 163.053H81.5663V141.133H87.5663V151.613C87.5663 153.133 87.7396 154.386 88.0863 155.373C88.4329 156.333 88.9396 157.053 89.6063 157.533C90.2729 158.013 91.0729 158.253 92.0063 158.253C93.1263 158.253 93.9796 157.919 94.5663 157.253C95.1529 156.586 95.4463 155.519 95.4463 154.053V141.133H101.446V155.373C101.446 157.106 101.166 158.573 100.606 159.773C100.073 160.973 99.2596 161.893 98.1663 162.533C97.0729 163.146 95.7263 163.453 94.1263 163.453ZM119.986 163.453C118.092 163.453 116.559 163.093 115.386 162.373C114.239 161.653 113.426 160.733 112.946 159.613H112.626L111.986 163.053H107.426V141.133H113.426V151.613C113.426 153.133 113.599 154.386 113.946 155.373C114.292 156.333 114.799 157.053 115.466 157.533C116.132 158.013 116.932 158.253 117.866 158.253C118.986 158.253 119.839 157.919 120.426 157.253C121.012 156.586 121.306 155.519 121.306 154.053V141.133H127.306V155.373C127.306 157.106 127.026 158.573 126.466 159.773C125.932 160.973 125.119 161.893 124.026 162.533C122.932 163.146 121.586 163.453 119.986 163.453ZM141.565 163.573C139.912 163.573 138.325 163.426 136.805 163.133C135.312 162.839 133.978 162.479 132.805 162.053V153.413H137.925V158.853C138.325 158.986 138.818 159.106 139.405 159.213C140.018 159.319 140.645 159.373 141.285 159.373C142.032 159.373 142.698 159.293 143.285 159.133C143.872 158.946 144.338 158.639 144.685 158.213C145.032 157.759 145.205 157.159 145.205 156.413C145.205 155.773 145.058 155.266 144.765 154.893C144.498 154.493 144.098 154.173 143.565 153.933C143.032 153.693 142.378 153.479 141.605 153.293C140.832 153.079 139.952 152.839 138.965 152.573C137.525 152.173 136.285 151.759 135.245 151.333C134.232 150.879 133.445 150.293 132.885 149.573C132.352 148.853 132.085 147.893 132.085 146.693C132.085 145.226 132.472 144.053 133.245 143.173C134.018 142.266 135.112 141.613 136.525 141.213C137.938 140.813 139.605 140.613 141.525 140.613C143.338 140.613 144.898 140.759 146.205 141.053C147.538 141.319 148.552 141.599 149.245 141.893V146.493C148.738 146.279 148.045 146.066 147.165 145.853C146.312 145.613 145.365 145.413 144.325 145.253C143.285 145.093 142.245 145.013 141.205 145.013C140.618 145.013 140.085 145.053 139.605 145.133C139.152 145.213 138.778 145.346 138.485 145.533C138.218 145.719 138.085 145.986 138.085 146.333C138.085 146.759 138.325 147.093 138.805 147.333C139.285 147.546 139.952 147.759 140.805 147.973C141.658 148.159 142.645 148.426 143.765 148.773C144.885 149.119 145.885 149.506 146.765 149.933C147.672 150.333 148.432 150.813 149.045 151.373C149.658 151.933 150.125 152.613 150.445 153.413C150.765 154.213 150.925 155.173 150.925 156.293C150.925 157.679 150.632 158.919 150.045 160.013C149.485 161.106 148.525 161.973 147.165 162.613C145.805 163.253 143.938 163.573 141.565 163.573ZM154.969 157.232H160.887V163.053H154.969V157.232Z" fill="white"/>
</g>
<defs>
<filter id="filter0_d_190_703" x="48" y="0" width="98" height="113.053" filterUnits="userSpaceOnUse" color-interpolation-filters="sRGB">
<feFlood flood-opacity="0" result="BackgroundImageFix"/>
<feColorMatrix in="SourceAlpha" type="matrix" values="0 0 0 0 0 0 0 0 0 0 0 0 0 0 0 0 0 0 127 0" result="hardAlpha"/>
<feOffset dy="1"/>
<feGaussianBlur stdDeviation="2.5"/>
<feComposite in2="hardAlpha" operator="out"/>
<feColorMatrix type="matrix" values="0 0 0 0 0 0 0 0 0 0 0 0 0 0 0 0 0 0 0.25 0"/>
<feBlend mode="normal" in2="BackgroundImageFix" result="effect1_dropShadow_190_703"/>
<feBlend mode="normal" in="SourceGraphic" in2="effect1_dropShadow_190_703" result="shape"/>
</filter>
<filter id="filter1_d_190_703" x="26.3984" y="129.133" width="138.488" height="40.4395" filterUnits="userSpaceOnUse" color-interpolation-filters="sRGB">
<feFlood flood-opacity="0" result="BackgroundImageFix"/>
<feColorMatrix in="SourceAlpha" type="matrix" values="0 0 0 0 0 0 0 0 0 0 0 0 0 0 0 0 0 0 127 0" result="hardAlpha"/>
<feOffset dy="2"/>
<feGaussianBlur stdDeviation="2"/>
<feComposite in2="hardAlpha" operator="out"/>
<feColorMatrix type="matrix" values="0 0 0 0 0 0 0 0 0 0 0 0 0 0 0 0 0 0 0.25 0"/>
<feBlend mode="normal" in2="BackgroundImageFix" result="effect1_dropShadow_190_703"/>
<feBlend mode="normal" in="SourceGraphic" in2="effect1_dropShadow_190_703" result="shape"/>
</filter>
<clipPath id="clip0_190_703">
<rect width="88" height="103.053" fill="white" transform="translate(53 4)"/>
</clipPath>
</defs>
</svg>
