<svg width="42" height="45" viewBox="0 0 42 45" fill="none" xmlns="http://www.w3.org/2000/svg">
<g filter="url(#filter0_d_318_182)">
<mask id="mask0_318_182" style="mask-type:alpha" maskUnits="userSpaceOnUse" x="0" y="0" width="42" height="42">
<rect width="42" height="42" fill="#D9D9D9"/>
</mask>
<g mask="url(#mask0_318_182)">
<path d="M21 24.5C21.9625 24.5 22.7865 24.1573 23.4719 23.4719C24.1573 22.7865 24.5 21.9625 24.5 21C24.5 20.0375 24.1573 19.2135 23.4719 18.5281C22.7865 17.8427 21.9625 17.5 21 17.5C20.0375 17.5 19.2135 17.8427 18.5281 18.5281C17.8427 19.2135 17.5 20.0375 17.5 21C17.5 21.9625 17.8427 22.7865 18.5281 23.4719C19.2135 24.1573 20.0375 24.5 21 24.5ZM14 31.5H28V30.4938C28 29.7938 27.8104 29.1521 27.4313 28.5687C27.0521 27.9854 26.5271 27.5479 25.8563 27.2562C25.0979 26.9354 24.3177 26.6875 23.5156 26.5125C22.7135 26.3375 21.875 26.25 21 26.25C20.125 26.25 19.2865 26.3375 18.4844 26.5125C17.6823 26.6875 16.9021 26.9354 16.1438 27.2562C15.4729 27.5479 14.9479 27.9854 14.5688 28.5687C14.1896 29.1521 14 29.7938 14 30.4938V31.5ZM31.5 38.5H10.5C9.5375 38.5 8.71354 38.1573 8.02813 37.4719C7.34271 36.7865 7 35.9625 7 35V7C7 6.0375 7.34271 5.21354 8.02813 4.52813C8.71354 3.84271 9.5375 3.5 10.5 3.5H24.5L35 14V35C35 35.9625 34.6573 36.7865 33.9719 37.4719C33.2865 38.1573 32.4625 38.5 31.5 38.5Z" fill="white"/>
</g>
</g>
<defs>
<filter id="filter0_d_318_182" x="3" y="1.5" width="36" height="43" filterUnits="userSpaceOnUse" color-interpolation-filters="sRGB">
<feFlood flood-opacity="0" result="BackgroundImageFix"/>
<feColorMatrix in="SourceAlpha" type="matrix" values="0 0 0 0 0 0 0 0 0 0 0 0 0 0 0 0 0 0 127 0" result="hardAlpha"/>
<feOffset dy="2"/>
<feGaussianBlur stdDeviation="2"/>
<feComposite in2="hardAlpha" operator="out"/>
<feColorMatrix type="matrix" values="0 0 0 0 0 0 0 0 0 0 0 0 0 0 0 0 0 0 0.25 0"/>
<feBlend mode="normal" in2="BackgroundImageFix" result="effect1_dropShadow_318_182"/>
<feBlend mode="normal" in="SourceGraphic" in2="effect1_dropShadow_318_182" result="shape"/>
</filter>
</defs>
</svg>
