<svg width="265" height="304" viewBox="0 0 265 304" fill="none" xmlns="http://www.w3.org/2000/svg">
<g filter="url(#filter0_d_211_1360)">
<circle cx="132.5" cy="130.5" r="122.5" fill="white"/>
<g clip-path="url(#clip0_211_1360)">
<path d="M88.5974 110.291C86.8092 108.142 85.1711 106.052 83.4004 104.075C80.417 100.744 79.4773 97.0091 81.1647 92.8491C82.9464 88.4522 86.3728 86.001 91.0458 85.2119C91.458 85.1423 91.8813 85.1347 92.5051 85.0803C91.7376 80.1888 93.1805 76.0854 97.2252 73.144C101.2 70.2515 105.47 69.8395 110.034 72.3331C110.775 70.4134 111.472 68.6373 112.148 66.847C113.257 63.9121 114.341 60.9641 115.46 58.0347C117.5 52.7203 122.305 50.4594 127.683 52.4334C145.638 59.0278 163.581 65.6524 181.511 72.307C183.504 73.0429 185.507 73.7592 187.488 74.5245C193.016 76.6593 195.202 81.4291 193.143 86.9445C189.047 97.9113 184.895 108.857 180.849 119.843C180.52 120.737 180.531 121.991 180.898 122.864C185.469 133.734 186.853 145.065 186.161 156.733C185.412 169.297 182.713 181.453 178.267 193.211C177.145 196.177 175.598 199.041 173.87 201.714C170.515 206.907 165.459 209.628 159.327 209.782C150.323 210.009 141.309 209.903 132.301 209.782C130.328 209.757 128.318 209.254 126.406 208.695C121.662 207.311 118.551 204.193 117.295 199.434C116.342 195.818 115.541 192.162 114.758 188.506C114.517 187.379 113.996 186.779 112.894 186.377C102.627 182.629 92.3845 178.816 82.1285 175.042C76.3492 172.923 74.084 168.17 76.2122 162.474C79.7164 153.09 83.2451 143.715 86.7982 134.348C87.2236 133.236 87.1337 132.5 86.3311 131.624C84.8213 129.969 83.5473 128.096 81.986 126.495C79.7109 124.163 79.553 121.467 80.2766 118.585C81.1538 115.083 83.3664 112.635 86.6524 111.126C87.2379 110.855 87.8409 110.616 88.5974 110.291ZM167.677 142.147C167.806 141.951 167.919 141.746 168.016 141.533C175.068 122.784 182.113 104.031 189.151 85.2727C190.379 81.9933 189.139 79.6779 185.602 78.3714C166.066 71.1559 146.529 63.9454 126.991 56.7401C122.903 55.2313 120.727 56.2357 119.199 60.3054C108.062 89.9646 96.9266 119.623 85.7928 149.282C85.5735 149.87 85.3542 150.46 85.1196 151.101C89.7301 152.812 94.1103 154.442 98.496 156.061C111.421 160.833 124.352 165.596 137.29 170.349C137.872 170.566 138.935 170.685 139.199 170.373C143.616 165.063 145.191 162.444 142.845 156.118C140.622 150.121 138.329 144.149 136.141 138.139C135.505 136.391 134.946 134.578 134.661 132.746C133.376 124.485 140.096 117.534 148.059 118.901C152.363 119.64 155.38 122.336 157.623 125.88C161.017 131.239 164.297 136.669 167.677 142.147ZM119.137 188.728C120.028 192.38 120.736 195.614 121.619 198.8C122.398 201.614 124.322 203.519 127.107 204.401C128.773 204.93 130.533 205.443 132.261 205.463C141.203 205.572 150.147 205.542 159.09 205.498C160.225 205.493 161.381 205.209 162.489 204.92C167.742 203.55 170.94 199.79 172.702 195.089C175.192 188.443 177.489 181.674 179.16 174.789C182.249 162.071 183.193 149.163 180.507 136.201C179.922 133.382 179.041 130.623 178.296 127.837L177.756 127.919C175.652 133.496 173.649 139.115 171.397 144.631C170.469 146.902 170.215 148.921 171.428 151.124C172.003 152.167 172.289 153.373 172.659 154.52C173.214 156.251 172.782 157.389 171.401 157.759C169.799 158.194 169.02 157.253 168.585 155.911C165.163 145.332 159.156 136.105 153.132 126.889C152.739 126.286 152.231 125.747 151.723 125.23C149.756 123.224 147.447 122.336 144.614 123.097C141.7 123.88 139.907 125.718 139.142 128.59C138.492 131.033 138.946 133.372 139.806 135.674C142.068 141.72 144.167 147.831 146.621 153.798C149.307 160.333 148.509 166.19 143.865 171.486C138.931 177.121 136.696 183.692 136.609 191.09C136.575 194.047 135.449 194.743 132.683 193.726C128.299 192.122 123.922 190.498 119.137 188.728ZM83.8061 155.202C83.5945 155.392 83.4618 155.455 83.4245 155.553C82.3785 158.315 81.3292 161.077 80.3073 163.848C78.9675 167.483 80.0157 169.692 83.7117 171.06C99.2971 176.828 114.884 182.593 130.472 188.355C130.958 188.535 131.47 188.642 132.19 188.845C132.052 183.597 133.551 178.96 136.154 174.544L83.8061 155.202ZM95.1596 111.438C95.4085 111.134 95.5148 111.052 95.5554 110.945C96.6661 108.011 97.7899 105.087 98.8699 102.141C99.5738 100.222 100.984 98.1461 100.668 96.3906C100.352 94.6351 98.2416 93.2057 96.9994 91.5741C95.5894 89.7262 93.7265 89.2164 91.5172 89.4772C86.2324 90.1023 82.8182 96.146 85.7435 100.011C88.6939 103.915 91.9591 107.58 95.1596 111.438ZM102.746 91.8328C104.62 86.8597 106.364 82.3052 108.023 77.7235C108.17 77.3148 107.975 76.5017 107.647 76.2517C105.174 74.3603 101.793 74.7299 99.1528 77.0854C96.631 79.329 95.7725 82.8215 97.4292 85.2227C98.9598 87.4402 100.804 89.4446 102.746 91.8328ZM89.081 128.211C90.5688 124.243 92.0326 120.624 93.2036 116.914C93.3889 116.328 92.4361 114.903 91.7004 114.61C89.7981 113.849 86.8059 115.409 85.3663 117.566C83.9596 119.673 83.931 121.914 85.3739 123.762C86.4835 125.177 87.6764 126.531 89.081 128.211Z" fill="black"/>
<path d="M205.034 163.196C204.977 159.5 203.28 154.402 199.465 150.079C198.467 148.947 197.992 147.81 199.221 146.592C200.207 145.614 201.523 145.92 202.805 147.341C213.43 159.104 210.733 179.666 197.426 188.345C195.79 189.412 194.508 189.373 193.776 188.137C192.891 186.644 193.694 185.69 194.92 184.828C201.466 180.232 205.049 173.251 205.034 163.196Z" fill="black"/>
<path d="M55.6562 92.4711C56.176 82.8305 60.6834 74.2714 70.4909 68.8288C71.0633 68.5114 71.7628 68.0853 72.3296 68.1766C73.0741 68.2929 74.1245 68.7201 74.3493 69.2864C74.6168 69.9582 74.2276 70.9463 73.9535 71.7387C73.8438 72.0463 73.2857 72.2159 72.9118 72.4137C60.4125 79.0238 56.2165 94.4005 63.6931 106.242C64.7116 107.858 64.6295 109.164 63.3828 109.849C61.8292 110.701 60.8994 109.798 60.077 108.601C57.3491 104.627 55.6595 98.9779 55.6562 92.4711Z" fill="black"/>
<path d="M198.731 164.845C198.541 170.843 196.526 176.175 192.011 180.449C190.597 181.787 189.307 181.948 188.392 180.855C187.285 179.534 187.888 178.464 188.957 177.403C195.007 171.394 196.096 163.055 191.779 155.703C191.012 154.388 190.731 153.226 192.15 152.243C193.293 151.45 194.452 151.892 195.439 153.429C197.659 156.878 198.628 160.686 198.731 164.845Z" fill="black"/>
<path d="M66.1458 96.269C66.5306 87.6263 69.162 81.6543 75.006 77.2802C76.6353 76.0606 78.0014 76.0638 78.8325 77.215C79.6636 78.3661 79.2876 79.4618 77.6682 80.676C71.1521 85.5675 68.8485 93.9048 71.9558 101.354C72.095 101.688 72.2573 102.014 72.3658 102.357C72.7397 103.543 72.4831 104.553 71.2946 105.085C70.026 105.652 68.8605 105.206 68.4439 103.976C67.4319 100.983 66.6293 97.9212 66.1458 96.269Z" fill="black"/>
</g>
</g>
<g filter="url(#filter1_d_211_1360)">
<path d="M54.4311 298V293.992C54.4311 292.984 54.6311 292.208 55.0311 291.664C55.4311 291.12 55.9991 290.736 56.7351 290.512L56.7591 290.416L54.1911 289.48V288.856C54.1911 288.072 54.4231 287.352 54.8871 286.696C55.3511 286.04 56.0311 285.52 56.9271 285.136C57.8391 284.736 58.9431 284.536 60.2391 284.536C61.4551 284.536 62.5031 284.728 63.3831 285.112C64.2631 285.48 64.9431 286.04 65.4231 286.792C65.9191 287.528 66.1671 288.464 66.1671 289.6V298H62.5671V289.816C62.5671 289.016 62.3511 288.416 61.9191 288.016C61.5031 287.616 60.9111 287.416 60.1431 287.416C59.4071 287.416 58.8551 287.576 58.4871 287.896C58.1191 288.2 57.9191 288.576 57.8871 289.024L60.0231 290.008L59.7591 291.568C59.1831 291.6 58.7511 291.808 58.4631 292.192C58.1751 292.576 58.0311 293.096 58.0311 293.752V298H54.4311ZM74.2557 298.24C72.9597 298.24 71.9277 297.96 71.1597 297.4C70.3917 296.824 69.8397 296.04 69.5037 295.048C69.1677 294.04 68.9997 292.888 68.9997 291.592C68.9997 290.2 69.1517 289.048 69.4557 288.136C69.7757 287.208 70.2237 286.488 70.7997 285.976C71.3757 285.448 72.0557 285.08 72.8397 284.872C73.6397 284.648 74.5117 284.536 75.4557 284.536C76.8957 284.536 78.0477 284.736 78.9117 285.136C79.7757 285.536 80.3997 286.104 80.7837 286.84C81.1837 287.576 81.3837 288.44 81.3837 289.432V298H77.7837V289.72C77.7837 288.968 77.5997 288.4 77.2317 288.016C76.8797 287.616 76.2877 287.416 75.4557 287.416C74.8957 287.416 74.3997 287.536 73.9677 287.776C73.5517 288 73.2237 288.408 72.9837 289C72.7597 289.592 72.6477 290.44 72.6477 291.544C72.6477 292.296 72.7197 292.96 72.8637 293.536C73.0077 294.112 73.2397 294.56 73.5597 294.88C73.8957 295.2 74.3437 295.36 74.9037 295.36C75.0797 295.36 75.2477 295.352 75.4077 295.336C75.5837 295.304 75.7357 295.272 75.8637 295.24L76.1997 297.928C75.9437 298.04 75.6317 298.12 75.2637 298.168C74.9117 298.216 74.5757 298.24 74.2557 298.24ZM88.4346 298.24C87.7146 298.24 87.1066 298.128 86.6106 297.904C86.1146 297.68 85.7386 297.344 85.4826 296.896C85.2266 296.432 85.0986 295.856 85.0986 295.168V284.848H88.6986V294.736C88.6986 295.04 88.7626 295.264 88.8906 295.408C89.0346 295.552 89.2506 295.624 89.5386 295.624C89.6666 295.624 89.8026 295.608 89.9466 295.576C90.0906 295.544 90.2266 295.504 90.3546 295.456L90.6906 297.76C90.3866 297.92 90.0426 298.04 89.6586 298.12C89.2746 298.2 88.8666 298.24 88.4346 298.24ZM93.9342 298L91.6542 284.848H95.1582L95.8062 289.48C95.8542 289.864 95.9102 290.392 95.9742 291.064C96.0542 291.72 96.1262 292.488 96.1902 293.368H96.2622C96.4062 292.776 96.5342 292.24 96.6462 291.76C96.7582 291.264 96.8622 290.824 96.9582 290.44C97.0702 290.04 97.1662 289.696 97.2462 289.408L98.5422 284.848H100.726L102.022 289.408C102.102 289.696 102.19 290.04 102.286 290.44C102.398 290.824 102.51 291.264 102.622 291.76C102.75 292.24 102.878 292.776 103.006 293.368H103.078C103.158 292.488 103.222 291.72 103.27 291.064C103.334 290.392 103.398 289.864 103.462 289.48L104.134 284.848H107.614L105.358 298H101.83L100.318 292.648C100.158 292.024 100.03 291.456 99.9342 290.944C99.8542 290.416 99.7742 289.88 99.6942 289.336H99.5982C99.5342 289.704 99.4702 290.056 99.4062 290.392C99.3582 290.728 99.2942 291.08 99.2142 291.448C99.1342 291.8 99.0302 292.2 98.9022 292.648L97.3662 298H93.9342ZM95.6946 283.024V281.512L98.1186 280.504H106.687V283.024H95.6946ZM100.735 281.56V278.848H103.015V281.56H100.735ZM104.431 281.56V278.848H106.687V281.56H104.431ZM102.395 277.576V273.112H105.515V277.576H102.395ZM115.26 298.312C113.308 298.312 111.86 297.84 110.916 296.896C109.972 295.936 109.5 294.52 109.5 292.648C109.5 292.328 109.508 291.944 109.524 291.496C109.556 291.032 109.596 290.624 109.644 290.272H115.404V292.552H113.028V292.888C113.028 293.528 113.108 294.056 113.268 294.472C113.428 294.872 113.668 295.168 113.988 295.36C114.324 295.552 114.74 295.648 115.236 295.648C115.78 295.648 116.236 295.528 116.604 295.288C116.988 295.048 117.276 294.64 117.468 294.064C117.676 293.488 117.78 292.696 117.78 291.688C117.78 290.744 117.668 289.96 117.444 289.336C117.236 288.696 116.876 288.216 116.364 287.896C115.868 287.576 115.18 287.416 114.3 287.416C113.82 287.416 113.324 287.472 112.812 287.584C112.3 287.68 111.812 287.808 111.348 287.968C110.9 288.128 110.508 288.304 110.172 288.496V285.496C110.524 285.304 110.956 285.136 111.468 284.992C111.996 284.848 112.564 284.736 113.172 284.656C113.78 284.576 114.38 284.536 114.972 284.536C116.524 284.536 117.772 284.824 118.716 285.4C119.676 285.96 120.372 286.76 120.804 287.8C121.252 288.84 121.476 290.072 121.476 291.496C121.476 292.952 121.26 294.192 120.828 295.216C120.412 296.224 119.748 296.992 118.836 297.52C117.924 298.048 116.732 298.312 115.26 298.312ZM127.95 298.24C127.23 298.24 126.622 298.128 126.126 297.904C125.63 297.68 125.254 297.344 124.998 296.896C124.742 296.432 124.614 295.856 124.614 295.168V284.848H128.214V294.736C128.214 295.04 128.278 295.264 128.406 295.408C128.55 295.552 128.766 295.624 129.054 295.624C129.182 295.624 129.318 295.608 129.462 295.576C129.606 295.544 129.742 295.504 129.87 295.456L130.206 297.76C129.902 297.92 129.558 298.04 129.174 298.12C128.79 298.2 128.382 298.24 127.95 298.24ZM136.852 298.312C135.908 298.312 134.956 298.208 133.996 298C133.052 297.792 132.212 297.496 131.476 297.112L132.484 294.256C132.804 294.432 133.188 294.616 133.636 294.808C134.084 295 134.572 295.16 135.1 295.288C135.628 295.416 136.164 295.48 136.708 295.48C137.348 295.48 137.828 295.392 138.148 295.216C138.484 295.024 138.652 294.736 138.652 294.352C138.652 294.064 138.54 293.832 138.316 293.656C138.108 293.464 137.796 293.288 137.38 293.128C136.964 292.952 136.468 292.768 135.892 292.576C135.044 292.272 134.316 291.944 133.708 291.592C133.1 291.24 132.628 290.808 132.292 290.296C131.972 289.784 131.812 289.144 131.812 288.376C131.812 287.496 132.036 286.776 132.484 286.216C132.932 285.656 133.564 285.24 134.38 284.968C135.196 284.68 136.148 284.536 137.236 284.536C138.132 284.536 138.94 284.608 139.66 284.752C140.38 284.896 140.94 285.08 141.34 285.304V288.136C141.068 288.008 140.708 287.88 140.26 287.752C139.828 287.624 139.356 287.52 138.844 287.44C138.348 287.344 137.868 287.296 137.404 287.296C136.748 287.296 136.252 287.384 135.916 287.56C135.58 287.736 135.412 287.984 135.412 288.304C135.412 288.56 135.524 288.776 135.748 288.952C135.988 289.128 136.332 289.296 136.78 289.456C137.228 289.6 137.764 289.784 138.388 290.008C139.22 290.296 139.924 290.616 140.5 290.968C141.076 291.32 141.508 291.752 141.796 292.264C142.1 292.776 142.252 293.408 142.252 294.16C142.252 294.88 142.084 295.56 141.748 296.2C141.428 296.824 140.876 297.336 140.092 297.736C139.308 298.12 138.228 298.312 136.852 298.312ZM130.475 283.024V281.512L132.899 280.504H141.467V283.024H130.475ZM138.371 279.576V275.112H141.491V279.576H138.371ZM152.514 298.24C151.378 298.24 150.458 298.024 149.754 297.592C149.066 297.16 148.578 296.608 148.29 295.936H148.098L147.714 298H144.978V284.848H148.578V291.136C148.578 292.048 148.682 292.8 148.89 293.392C149.098 293.968 149.402 294.4 149.802 294.688C150.202 294.976 150.682 295.12 151.242 295.12C151.914 295.12 152.426 294.92 152.778 294.52C153.13 294.12 153.306 293.48 153.306 292.6V284.848H156.906V293.392C156.906 294.432 156.738 295.312 156.402 296.032C156.082 296.752 155.594 297.304 154.938 297.688C154.282 298.056 153.474 298.24 152.514 298.24ZM163.974 298.24C163.254 298.24 162.646 298.128 162.15 297.904C161.654 297.68 161.278 297.344 161.022 296.896C160.766 296.432 160.638 295.856 160.638 295.168V284.848H164.238V294.736C164.238 295.04 164.302 295.264 164.43 295.408C164.574 295.552 164.79 295.624 165.078 295.624C165.206 295.624 165.342 295.608 165.486 295.576C165.63 295.544 165.766 295.504 165.894 295.456L166.23 297.76C165.926 297.92 165.582 298.04 165.198 298.12C164.814 298.2 164.406 298.24 163.974 298.24ZM173.107 298.312C171.315 298.312 169.963 297.912 169.051 297.112C168.139 296.312 167.683 295.144 167.683 293.608V292.648C167.683 291.992 167.771 291.456 167.947 291.04C168.123 290.608 168.339 290.216 168.595 289.864C168.851 289.512 169.059 289.2 169.219 288.928C169.395 288.64 169.483 288.344 169.483 288.04C169.483 287.752 169.411 287.552 169.267 287.44C169.139 287.312 168.963 287.248 168.739 287.248C168.579 287.248 168.411 287.272 168.235 287.32C168.075 287.368 167.891 287.44 167.683 287.536L167.107 285.28C167.555 285.04 168.035 284.88 168.547 284.8C169.075 284.704 169.539 284.656 169.939 284.656C170.643 284.656 171.203 284.768 171.619 284.992C172.051 285.216 172.363 285.536 172.555 285.952C172.747 286.368 172.843 286.864 172.843 287.44C172.843 287.936 172.771 288.376 172.627 288.76C172.483 289.128 172.299 289.512 172.075 289.912C171.867 290.28 171.675 290.624 171.499 290.944C171.339 291.264 171.259 291.728 171.259 292.336V293.296C171.259 293.808 171.331 294.232 171.475 294.568C171.635 294.888 171.851 295.128 172.123 295.288C172.411 295.432 172.747 295.504 173.131 295.504C173.755 295.504 174.219 295.328 174.523 294.976C174.827 294.608 174.979 294.088 174.979 293.416V284.848H178.555V293.512C178.555 295.096 178.091 296.296 177.163 297.112C176.235 297.912 174.883 298.312 173.107 298.312ZM187.478 298.312C186.038 298.312 184.886 298.144 184.022 297.808C183.158 297.456 182.526 296.968 182.126 296.344C181.742 295.72 181.55 295 181.55 294.184C181.55 293.48 181.654 292.912 181.862 292.48C182.086 292.048 182.366 291.72 182.702 291.496C183.054 291.256 183.406 291.096 183.758 291.016V290.872C183.39 290.744 183.038 290.568 182.702 290.344C182.366 290.12 182.086 289.816 181.862 289.432C181.654 289.048 181.55 288.568 181.55 287.992C181.55 287.4 181.686 286.848 181.958 286.336C182.246 285.824 182.702 285.416 183.326 285.112C183.95 284.792 184.774 284.632 185.798 284.632C186.294 284.632 186.774 284.672 187.238 284.752C187.702 284.816 188.062 284.912 188.318 285.04L187.766 287.464C187.638 287.432 187.462 287.4 187.238 287.368C187.03 287.32 186.814 287.296 186.59 287.296C186.094 287.296 185.726 287.416 185.486 287.656C185.246 287.88 185.126 288.176 185.126 288.544C185.126 288.928 185.23 289.224 185.438 289.432C185.646 289.64 185.91 289.784 186.23 289.864C186.566 289.944 186.91 289.984 187.262 289.984H187.766V292.216H187.262C186.574 292.216 186.054 292.336 185.702 292.576C185.366 292.816 185.198 293.208 185.198 293.752C185.198 294.04 185.262 294.328 185.39 294.616C185.534 294.888 185.774 295.12 186.11 295.312C186.446 295.488 186.926 295.576 187.55 295.576C188.142 295.576 188.606 295.488 188.942 295.312C189.278 295.136 189.518 294.904 189.662 294.616C189.806 294.312 189.878 293.976 189.878 293.608V284.848H193.478V293.488C193.478 295.136 192.99 296.352 192.014 297.136C191.054 297.92 189.542 298.312 187.478 298.312ZM189.996 283.024V277.576H193.308V283.024H189.996ZM200.32 298V289.312C200.32 288.64 200.16 288.152 199.84 287.848C199.536 287.544 199.032 287.392 198.328 287.392C197.8 287.392 197.312 287.464 196.864 287.608C196.432 287.752 196.024 287.928 195.64 288.136V285.256C195.992 285.096 196.488 284.936 197.128 284.776C197.768 284.616 198.52 284.536 199.384 284.536C200.264 284.536 201.04 284.664 201.712 284.92C202.4 285.176 202.936 285.608 203.32 286.216C203.72 286.808 203.92 287.624 203.92 288.664V298H200.32ZM207.558 292.288L206.238 281.08H211.47L210.126 292.288H207.558ZM206.622 298V293.632H211.062V298H206.622Z" fill="white"/>
</g>
<defs>
<filter id="filter0_d_211_1360" x="0" y="0" width="265" height="265" filterUnits="userSpaceOnUse" color-interpolation-filters="sRGB">
<feFlood flood-opacity="0" result="BackgroundImageFix"/>
<feColorMatrix in="SourceAlpha" type="matrix" values="0 0 0 0 0 0 0 0 0 0 0 0 0 0 0 0 0 0 127 0" result="hardAlpha"/>
<feOffset dy="2"/>
<feGaussianBlur stdDeviation="5"/>
<feComposite in2="hardAlpha" operator="out"/>
<feColorMatrix type="matrix" values="0 0 0 0 0 0 0 0 0 0 0 0 0 0 0 0 0 0 0.25 0"/>
<feBlend mode="normal" in2="BackgroundImageFix" result="effect1_dropShadow_211_1360"/>
<feBlend mode="normal" in="SourceGraphic" in2="effect1_dropShadow_211_1360" result="shape"/>
</filter>
<filter id="filter1_d_211_1360" x="52.1912" y="273.112" width="161.279" height="29.1992" filterUnits="userSpaceOnUse" color-interpolation-filters="sRGB">
<feFlood flood-opacity="0" result="BackgroundImageFix"/>
<feColorMatrix in="SourceAlpha" type="matrix" values="0 0 0 0 0 0 0 0 0 0 0 0 0 0 0 0 0 0 127 0" result="hardAlpha"/>
<feOffset dy="2"/>
<feGaussianBlur stdDeviation="1"/>
<feComposite in2="hardAlpha" operator="out"/>
<feColorMatrix type="matrix" values="0 0 0 0 0 0 0 0 0 0 0 0 0 0 0 0 0 0 0.25 0"/>
<feBlend mode="normal" in2="BackgroundImageFix" result="effect1_dropShadow_211_1360"/>
<feBlend mode="normal" in="SourceGraphic" in2="effect1_dropShadow_211_1360" result="shape"/>
</filter>
<clipPath id="clip0_211_1360">
<rect width="153.688" height="158.189" fill="white" transform="translate(55.6562 51.7266)"/>
</clipPath>
</defs>
</svg>
