<svg width="66" height="104" viewBox="0 0 66 104" fill="none" xmlns="http://www.w3.org/2000/svg">
<path d="M32.5027 0.000910682C43.0314 -0.102549 51.9014 8.62257 51.8359 19.41C51.7738 29.8974 43.3659 38.5156 32.7992 38.6018C21.8842 38.6915 13.2246 30.0871 13.2005 19.3652C13.1798 8.48808 22.1049 -0.0853059 32.5027 0.000910682ZM43.6729 29.6318C44.1902 29.6318 44.6006 29.5836 44.9937 29.6422C45.7835 29.7594 46.2525 29.4042 46.6663 28.7662C48.4976 25.9556 49.4494 22.8828 49.546 19.5341C49.5597 19.0893 49.4253 18.7961 49.0562 18.5237C47.9285 17.6926 46.7043 16.9856 45.7214 15.9648C45.4765 15.7096 45.173 15.7992 44.9109 15.882C43.028 16.4855 41.1554 17.1097 39.2758 17.7236C39.0206 17.8064 38.831 17.9064 38.7827 18.2306C38.4723 20.1928 37.7826 22.0413 36.9963 23.8553C36.8756 24.1312 36.8928 24.3381 37.0618 24.5658C38.2585 26.2004 39.4586 27.8351 40.6449 29.4767C40.8174 29.7146 41.0105 29.825 41.3002 29.756C42.121 29.5629 42.9556 29.6594 43.6694 29.6318H43.6729ZM33.0855 9.31231C33.0855 9.31231 33.0855 9.31231 33.0889 9.31231C33.0889 10.2883 33.1027 11.2608 33.082 12.2368C33.0751 12.661 33.2407 12.8782 33.6235 13.092C35.2271 13.9852 36.6859 15.0923 38.0619 16.2959C38.4068 16.5959 38.6585 16.7304 39.1068 16.5752C40.976 15.9303 42.8521 15.3164 44.7282 14.6991C44.9834 14.6164 45.2075 14.5612 45.2248 14.2163C45.28 12.8713 45.8904 11.6746 46.2973 10.4297C46.4801 9.87099 46.4318 9.47439 46.0766 9.01917C43.9936 6.35335 41.3692 4.44969 38.2067 3.26335C37.6377 3.04953 37.1894 3.09436 36.6997 3.47717C35.7341 4.23932 34.7788 5.03596 33.6717 5.58085C33.2338 5.79467 33.0682 6.01538 33.0786 6.4775C33.0993 7.42244 33.0855 8.37082 33.0855 9.31575V9.31231ZM32.4751 36.3395C34.2373 36.3188 35.9548 36.0464 37.6343 35.498C37.9791 35.3842 38.2067 35.2256 38.3481 34.8462C38.8482 33.5081 39.0758 32.0666 39.8311 30.8216C39.9897 30.5595 39.8104 30.3837 39.6828 30.2043C38.5102 28.5766 37.3239 26.9557 36.1651 25.3176C35.8961 24.9382 35.5892 24.9555 35.1926 24.9968C33.42 25.1727 31.6405 25.1727 29.8713 24.9968C29.3678 24.9451 29.0747 25.0451 28.7884 25.4452C27.6745 27.0109 26.533 28.5559 25.4019 30.1112C25.2536 30.3181 25.088 30.5113 25.2467 30.8078C25.9191 32.0528 26.1881 33.4461 26.6641 34.7669C26.802 35.1497 26.9882 35.3877 27.3952 35.5187C29.0471 36.0498 30.7369 36.3188 32.4716 36.3464L32.4751 36.3395ZM19.8667 15.8165C19.6529 15.7613 19.4839 15.8165 19.3219 15.9786C18.3528 16.9752 17.1457 17.6615 16.0456 18.4892C15.6904 18.7548 15.5145 19.0444 15.5249 19.4962C15.6076 22.9449 16.5595 26.1073 18.5494 28.9525C18.8804 29.4249 19.2322 29.6387 19.815 29.6456C21.16 29.6663 22.5153 29.487 23.85 29.7801C24.1741 29.8526 24.3121 29.6146 24.4638 29.4077C25.6122 27.8316 26.7641 26.2521 27.909 24.6727C28.0815 24.4382 28.2298 24.214 28.0608 23.8898C27.2952 22.4276 26.771 20.8481 26.4882 19.2583C26.2537 17.9374 25.5157 17.5822 24.4569 17.2753C22.9154 16.8304 21.3945 16.3062 19.8633 15.813L19.8667 15.8165ZM31.9405 9.3261C31.9405 8.38117 31.9405 7.43278 31.9405 6.48785C31.9405 6.17057 31.9543 5.84295 31.5888 5.68431C30.3334 5.14287 29.3609 4.18414 28.2573 3.41854C27.909 3.17713 27.6193 3.0116 27.1641 3.16679C23.8327 4.2945 21.1393 6.29128 18.977 9.05021C18.608 9.51923 18.6149 9.94686 18.7873 10.478C19.1805 11.7022 19.6874 12.8989 19.8805 14.1784C19.9357 14.5405 20.1392 14.6474 20.422 14.7405C22.3256 15.3647 24.2328 15.9889 26.133 16.6235C26.4123 16.7166 26.6089 16.6718 26.8261 16.4614C28.2022 15.1095 29.8092 14.0646 31.4474 13.0679C31.8267 12.8368 31.9509 12.5713 31.9474 12.1644C31.9371 11.2194 31.9474 10.271 31.9474 9.3261H31.9405Z" fill="#EEFBFA"/>
<path d="M59.4095 64.8429C59.3751 64.9981 59.3371 65.1532 59.3026 65.3084C58.3784 69.6917 54.9194 71.616 51.7777 71.6091C40.5454 71.5885 29.3165 71.5988 18.0842 71.5919C16.8082 71.5919 15.5977 71.3126 14.4114 70.8091C13.163 70.2814 12.2284 69.3606 11.2179 68.5191L11.2076 68.5088C9.49013 66.2223 8.97628 63.6289 9.08664 60.8148C9.1832 58.3525 9.12457 55.8798 9.09008 53.414C9.06249 51.3724 7.92788 50.0688 6.14492 49.248C5.02756 48.7342 3.83087 48.9342 2.66522 48.9169C0.982273 48.8893 0.951235 48.8652 1.12712 47.1719C1.16505 46.7891 1.2961 46.6029 1.6996 46.596C4.1447 46.5546 6.6036 46.4063 8.72453 47.9927C8.73832 48.0513 8.77626 48.0824 8.83833 48.0858C8.9142 48.1375 8.98662 48.1927 9.06249 48.2444L9.06594 48.2513C9.11767 48.3065 9.1694 48.3617 9.22113 48.4169C10.9937 50.2067 11.5766 52.3828 11.48 54.859C11.3834 57.3524 11.4524 59.8526 11.4593 62.3529C11.4697 66.4396 14.3045 69.2744 18.398 69.2778C29.3924 69.2778 40.3902 69.2847 51.3845 69.2778C54.2917 69.2778 56.1195 67.957 56.8817 65.3912C56.9989 64.9946 57.0024 64.598 57.0024 64.198C57.0093 61.0976 57.0024 57.9973 57.0127 54.8969C57.0196 53.1209 58.2405 51.531 59.92 51.0586C61.6236 50.5792 63.4617 51.2551 64.386 52.6967C65.393 54.2693 65.2654 56.1798 64.0721 57.5731C63.7687 57.9283 63.3824 58.1731 62.9962 58.4215C62.4582 58.7663 61.6615 59.1836 61.2787 58.9181C60.7787 58.5697 61.1201 57.6938 61.0822 57.0454C61.058 56.604 61.4512 56.5937 61.7236 56.473C62.4409 56.1488 62.7617 55.5694 62.7065 54.8141C62.6513 54.0658 62.2892 53.514 61.4856 53.3657C60.3786 53.1036 59.7096 53.5071 59.4337 54.6107C59.3061 57.5145 59.3509 60.4182 59.4164 63.3255C59.3406 63.7152 59.3337 64.1048 59.4095 64.4945C59.3233 64.6118 59.3164 64.7256 59.4095 64.8429Z" fill="#EEFBFA"/>
<path d="M15.7631 56.7038C15.7631 58.8281 15.7528 60.956 15.7666 63.0803C15.7735 64.1736 16.2908 64.8254 17.1081 64.853C17.9427 64.8771 18.4807 64.1943 18.4876 63.0424C18.5014 60.7146 18.5255 58.3867 18.4876 56.0623C18.4772 55.3312 18.6393 55.0415 19.4394 55.076C20.7913 55.1346 20.7947 55.0794 20.7947 56.4175C20.7947 58.6867 20.7844 60.956 20.7844 63.2252C20.7844 64.1632 21.3327 64.8185 22.1052 64.8219C22.9743 64.8288 23.5123 64.2494 23.5157 63.2355C23.5261 60.4766 23.5019 57.7211 23.533 54.9622C23.5399 54.3449 23.3261 54.138 22.7467 54.1586C21.9121 54.1862 21.0879 54.1586 20.3188 53.731C18.7014 52.8309 17.9186 50.9997 18.4324 49.2615C18.9049 47.6614 20.5602 46.5199 22.257 46.6199C24.0606 46.7268 25.4884 48.0166 25.7953 49.8202C25.8367 50.0754 25.8195 50.3375 25.8608 50.5927C25.9471 51.1204 25.5056 51.9239 26.654 51.8722C28.0231 51.8101 28.5336 51.5135 28.568 50.4479C28.5991 49.5305 28.5887 48.6097 28.5646 47.6924C28.5473 47.1234 28.7301 46.8613 29.3509 46.8751C31.3373 46.913 30.9373 46.744 30.9649 48.4615C30.9752 49.0926 30.9787 49.7271 30.9649 50.3582C30.9304 52.5688 29.3474 54.1449 27.1403 54.1621C25.7746 54.1724 25.8608 54.0035 25.8574 55.4795C25.8505 58.1212 25.8815 60.7663 25.8332 63.408C25.7953 65.4772 24.5814 66.8256 22.5949 67.136C21.6983 67.2774 20.8844 67.0291 20.1361 66.5497C19.8222 66.3497 19.605 66.2807 19.2256 66.5049C16.4115 68.1602 13.4181 66.4393 13.4077 63.1666C13.3939 59.0868 13.3905 55.007 13.4181 50.9272C13.425 50.0134 13.2732 49.2891 12.311 48.9305C11.9834 48.8098 11.7489 47.2268 12.0179 46.8682C12.3421 46.4371 12.7973 46.675 13.187 46.8026C14.6596 47.2924 15.6838 48.5891 15.7183 50.1513C15.7666 52.3343 15.7287 54.5173 15.7287 56.7003C15.739 56.7003 15.7459 56.7003 15.7562 56.7003L15.7631 56.7038ZM22.6156 51.8411C22.8226 51.6584 23.4709 52.1929 23.5054 51.4204C23.5295 50.9376 23.5709 50.4479 23.4261 49.972C23.0985 48.8856 21.8362 48.5649 21.0362 49.365C20.6051 49.7926 20.4947 50.3099 20.712 50.8617C21.0293 51.6756 21.688 51.9274 22.6156 51.8411Z" fill="#EEFBFA"/>
<path d="M40.5523 56.6316C40.5523 58.7008 40.5799 60.77 40.5385 62.8357C40.5212 63.7565 41.073 64.2911 41.7041 64.7083C42.4042 65.1739 43.3664 64.3945 43.3802 63.3703C43.4043 61.7632 43.3802 60.1527 43.3836 58.5456C43.3836 57.5972 43.4078 56.6488 43.3836 55.7039C43.3733 55.2624 43.5112 55.1176 43.9665 55.0935C45.7287 54.9969 45.7322 54.9762 45.7322 56.7005C45.7322 58.8835 45.7563 61.0665 45.7322 63.2496C45.7011 65.874 43.6595 67.6052 41.2765 67.0638C41.1386 67.0327 40.9937 67.0017 40.8627 66.9465C39.9706 66.5833 39.0533 66.5695 38.1106 66.9051C36.438 67.5018 34.762 67.0224 33.7205 65.6498C32.7755 64.4014 32.7548 62.5805 33.6722 61.3114C34.4861 60.1837 36.1035 59.7388 37.4485 60.3734C38.1486 60.7044 38.2382 60.5286 38.221 59.8492C38.183 58.2421 38.1796 56.6316 38.2279 55.0245C38.2486 54.3175 37.9899 54.1554 37.3312 54.1658C35.3069 54.1968 33.8205 53.3588 33.279 51.8586C32.7273 50.3378 32.8859 48.8928 34.0826 47.7202C35.2 46.627 36.5587 46.2752 38.0485 46.8512C39.5832 47.4443 40.4764 48.6031 40.5247 50.255C40.5868 52.3794 40.5385 54.5072 40.5385 56.6316H40.5488H40.5523ZM38.2382 50.9896C38.2313 49.6411 37.7175 48.9514 36.7967 48.941C35.9828 48.9307 35.3069 49.5894 35.3103 50.3964C35.3103 51.331 36.0725 51.8448 37.3209 51.8931C38.1072 51.9207 38.352 51.6034 38.2382 50.993V50.9896ZM36.7208 64.8428C37.2554 64.8566 37.8692 64.5049 37.9072 64.16C37.952 63.7703 36.607 62.3977 36.1725 62.4115C35.5517 62.4357 35.3482 62.8599 35.3172 63.3944C35.2758 64.1428 35.9414 64.8187 36.7174 64.8394L36.7208 64.8428Z" fill="#EEFBFA"/>
<path d="M52.8811 46.871C55.3228 46.871 57.761 46.8917 60.2026 46.8572C60.9372 46.8469 61.1338 47.1159 61.1028 47.8159C61.0441 49.2058 61.0786 49.2058 59.7164 49.2058C55.1504 49.2058 50.5843 49.2127 46.0217 49.2092C45.4769 49.2092 44.9699 49.2437 44.763 49.8576C44.525 50.5611 44.9664 51.1439 45.7872 51.1577C47.4805 51.1818 49.1738 51.1715 50.8706 51.1749C53.3777 51.1784 55.1228 52.8717 55.14 55.3582C55.1607 58.0585 55.1676 60.7553 55.14 63.4556C55.1228 65.1317 54.1675 66.4456 52.6949 66.9698C51.2672 67.4802 49.7222 67.0457 48.6462 65.8352C48.0634 65.18 47.8185 64.4006 47.8185 63.5419C47.815 60.9588 47.8288 58.3723 47.8081 55.7893C47.8047 55.2651 47.9668 55.1099 48.491 55.0892C50.105 55.0306 50.105 55.0064 50.1084 56.648C50.1119 58.8862 50.1084 61.1278 50.1153 63.366C50.1153 64.0316 50.4015 64.5489 51.0533 64.7627C51.6638 64.9627 52.1845 64.7627 52.5777 64.2557C52.7811 63.9936 52.8329 63.6867 52.8294 63.3625C52.8225 60.6933 52.8398 58.0205 52.8053 55.3513C52.788 54.1029 52.1742 53.5269 50.9188 53.5062C49.2531 53.4821 47.5874 53.4959 45.9217 53.489C43.7422 53.4787 42.342 52.1371 42.3455 50.0645C42.3455 48.2643 43.8974 46.8641 45.9079 46.8607C48.2323 46.8572 50.5602 46.8607 52.8846 46.8607V46.8676L52.8811 46.871Z" fill="#EEFBFA"/>
<path d="M7.29315 52.4238C7.70699 53.4446 8.22084 54.4378 7.94839 55.6104C7.48972 57.5761 6.2551 58.7004 4.24453 58.9315L4.1859 58.897L4.12037 58.9073C3.95829 58.3728 4.06864 57.8244 4.03071 57.283C4.00312 56.8761 4.17555 56.6691 4.55491 56.5243C5.37914 56.2139 5.75504 55.5518 5.68952 54.7034C5.63089 53.9309 4.98599 53.3515 4.21349 53.2515C3.35477 53.1411 2.77884 53.5102 2.35466 54.4378C2.15808 54.8655 0.87863 55.1862 0.313049 54.8896C-0.218045 54.6103 0.0647454 54.1171 0.168205 53.7481C0.944155 50.9892 4.42386 49.9891 6.631 51.872C6.84482 52.0548 7.06553 52.2307 7.2828 52.41L7.29315 52.4169V52.4238Z" fill="#EEFBFA"/>
<path d="M30.9373 58.0487C29.9923 58.0487 29.044 58.0384 28.099 58.0556C27.6679 58.0625 27.4783 57.9073 27.4852 57.4555C27.5059 55.4381 27.2438 55.7312 29.1164 55.7209C30.6338 55.7105 32.1547 55.7416 33.6721 55.714C34.2583 55.7036 34.486 55.8726 34.4653 56.4934C34.3963 58.3349 34.6756 58.0108 32.9134 58.0453C32.2547 58.0591 31.596 58.0453 30.9373 58.0453V58.0487Z" fill="#EEFBFA"/>
<path d="M59.4096 64.8425C59.3164 64.7252 59.3233 64.6079 59.4096 64.4941C59.4096 64.6114 59.4096 64.7252 59.4096 64.8425Z" fill="#02CBFD"/>
<path d="M9.22453 48.4199C9.1728 48.3648 9.12107 48.3096 9.06934 48.2544C9.1659 48.2682 9.29695 48.2509 9.22453 48.4199Z" fill="#02CBFD"/>
<path d="M32.4993 103.995C28.2506 103.995 24.0018 104.009 19.7496 103.992C16.9493 103.978 15.4353 101.302 16.8389 98.9013C17.2873 98.1357 17.9666 97.6908 18.8116 97.5046C19.2013 97.4184 19.6082 97.3804 20.0083 97.3804C28.3644 97.3735 36.7205 97.377 45.0731 97.3735C46.1146 97.3735 47.063 97.608 47.8045 98.4047C48.7908 99.4634 49.0046 100.701 48.4563 101.995C47.9217 103.257 46.9147 103.981 45.5008 103.985C41.1658 103.995 36.8308 103.988 32.4924 103.988V103.995H32.4993ZM32.4476 101.667C36.6377 101.667 40.8278 101.667 45.018 101.674C45.7112 101.674 46.3216 101.522 46.425 100.733C46.5043 100.132 45.8629 99.7048 45.0111 99.7048C36.7446 99.7048 28.4782 99.7048 20.2117 99.7117C19.9255 99.7117 19.6289 99.7014 19.3599 99.7773C18.8909 99.9049 18.6564 100.246 18.6702 100.743C18.6805 101.212 18.9495 101.502 19.3668 101.615C19.6358 101.688 19.9358 101.671 20.2221 101.671C24.2984 101.671 28.3747 101.671 32.4476 101.671V101.667Z" fill="#EEFBFA"/>
<path d="M47.4494 74.1754C48.4046 75.1445 48.984 76.2411 48.6357 77.6585C48.2977 79.0173 47.1804 80.0071 45.7837 80.1519C45.5285 80.1795 45.2664 80.183 45.0077 80.183C36.5895 80.183 28.1748 80.1899 19.7566 80.183C17.9667 80.183 16.5459 78.969 16.3286 77.293C16.1217 75.6962 17.1632 74.134 18.7634 73.6926C19.1151 73.596 19.5014 73.5788 19.8704 73.5753C28.2575 73.5684 36.6482 73.5753 45.0353 73.5615C45.8975 73.5615 46.6769 73.7719 47.4287 74.1547L47.4494 74.1754ZM32.5166 75.8721C28.4369 75.8721 24.3606 75.8721 20.2808 75.8721C19.9945 75.8721 19.7014 75.8687 19.429 75.9377C18.9324 76.0653 18.6392 76.4032 18.6599 76.9378C18.6806 77.4413 18.9979 77.7206 19.4566 77.831C19.7014 77.8896 19.9704 77.8758 20.2291 77.8758C28.3576 77.8758 36.4861 77.8758 44.6146 77.8758C44.9284 77.8758 45.2526 77.8896 45.5595 77.831C46.0561 77.7344 46.4217 77.3999 46.4251 76.8964C46.4251 76.3618 46.0906 75.9859 45.5319 75.8997C45.2802 75.8618 45.0181 75.8721 44.7594 75.8721C40.6796 75.8721 36.6033 75.8721 32.5235 75.8721H32.5166Z" fill="#EEFBFA"/>
<path d="M32.5234 82.1579C33.9029 82.1579 35.2823 82.1993 36.6549 82.1407C37.4585 82.1062 37.7516 82.32 37.7654 83.1822C37.8482 87.8241 40.6968 91.5659 45.0041 92.7488C45.6076 92.9143 46.2422 93.0074 46.8664 93.0557C47.401 93.0971 47.6113 93.2868 47.6286 93.842C47.6768 95.5249 47.6044 95.6077 45.9284 95.3215C40.3415 94.3662 36.579 90.6589 35.61 85.1238C35.5375 84.7065 35.3755 84.4892 34.9651 84.4892C33.358 84.4858 31.7509 84.4961 30.1438 84.4892C29.5886 84.4892 29.5231 84.8686 29.4472 85.2824C28.9334 88.1482 27.5953 90.552 25.4088 92.4832C23.3982 94.2593 21.0152 95.1249 18.3839 95.4146C17.7562 95.4836 17.3665 95.3491 17.4941 94.5973C17.5286 94.4041 17.4941 94.1972 17.4734 93.9972C17.4079 93.3799 17.5941 93.0902 18.2977 93.0385C20.7428 92.8626 22.843 91.859 24.526 90.0864C26.1813 88.3448 27.1297 86.2653 27.2194 83.834C27.2883 81.9751 27.0193 82.1648 28.9851 82.1717C30.1611 82.1717 31.3405 82.1717 32.5165 82.1717C32.5165 82.1683 32.5165 82.1648 32.5165 82.1579H32.5234Z" fill="#EEFBFA"/>
</svg>
