<svg width="36" height="36" viewBox="0 0 36 36" fill="none" xmlns="http://www.w3.org/2000/svg">
<mask id="mask0_190_441" style="mask-type:alpha" maskUnits="userSpaceOnUse" x="0" y="0" width="36" height="36">
<rect width="36" height="36" fill="white"/>
</mask>
<g mask="url(#mask0_190_441)">
<path d="M6 20.9988C6 18.1738 6.8375 15.4613 8.5125 12.8613C10.1875 10.2613 12.4875 7.98629 15.4125 6.03629C15.9625 5.66129 16.5312 5.64254 17.1187 5.98004C17.7062 6.31754 18 6.82379 18 7.49879V9.44879C18 10.2988 18.2938 11.0113 18.8813 11.5863C19.4688 12.1613 20.1875 12.4488 21.0375 12.4488C21.4625 12.4488 21.8688 12.355 22.2563 12.1675C22.6438 11.98 22.9875 11.7113 23.2875 11.3613C23.4875 11.1113 23.7438 10.955 24.0563 10.8925C24.3688 10.83 24.6625 10.8988 24.9375 11.0988C26.5125 12.2238 27.75 13.6613 28.65 15.4113C29.55 17.1613 30 19.0238 30 20.9988C30 23.1988 29.4625 25.205 28.3875 27.0175C27.3125 28.83 25.9 30.2613 24.15 31.3113C24.575 30.7113 24.9062 30.055 25.1437 29.3425C25.3812 28.63 25.5 27.8738 25.5 27.0738C25.5 26.0738 25.3125 25.13 24.9375 24.2425C24.5625 23.355 24.025 22.5613 23.325 21.8613L18 16.6488L12.7125 21.8613C11.9875 22.5863 11.4375 23.3863 11.0625 24.2613C10.6875 25.1363 10.5 26.0738 10.5 27.0738C10.5 27.8738 10.6187 28.63 10.8562 29.3425C11.0937 30.055 11.425 30.7113 11.85 31.3113C10.1 30.2613 8.6875 28.83 7.6125 27.0175C6.5375 25.205 6 23.1988 6 20.9988ZM18 20.8488L21.1875 23.9613C21.6125 24.3863 21.9375 24.8613 22.1625 25.3863C22.3875 25.9113 22.5 26.4738 22.5 27.0738C22.5 28.2988 22.0625 29.3425 21.1875 30.205C20.3125 31.0675 19.25 31.4988 18 31.4988C16.75 31.4988 15.6875 31.0675 14.8125 30.205C13.9375 29.3425 13.5 28.2988 13.5 27.0738C13.5 26.4988 13.6125 25.9425 13.8375 25.405C14.0625 24.8675 14.3875 24.3863 14.8125 23.9613L18 20.8488Z" fill="white"/>
</g>
</svg>
