<svg width="91" height="51" viewBox="0 0 91 51" fill="none" xmlns="http://www.w3.org/2000/svg">
<path d="M45.2977 40.2627C45.2977 40.2627 50.3281 39.8614 50.3281 45.2939L55.3585 40.2627C55.3585 40.2627 50.3281 40.7359 50.3281 35.2314L45.2977 40.2627Z" fill="white"/>
<path d="M0.00598145 18.8311L0.00598145 1.35955C0.00598145 0.6408 0.586871 0.0598125 1.3055 0.0598125H8.76725C9.48587 0.0598125 10.0668 0.6408 10.0668 1.35955L10.0668 18.7233C10.0668 19.502 9.43796 20.1309 8.65945 20.1309H1.3055C0.586871 20.1309 0.00598145 19.5499 0.00598145 18.8311Z" fill="white"/>
<path d="M30.1942 10.0442V0.0595951H40.255V10.1221H30.2721C30.2301 10.1221 30.1942 10.0861 30.1942 10.0442Z" fill="white"/>
<path d="M20.1279 10.0393V1.19273C20.1279 0.563822 20.637 0.0547066 21.2658 0.0547066H30.1887V10.1172H20.2058C20.1639 10.1172 20.1279 10.0813 20.1279 10.0393Z" fill="white"/>
<path d="M50.322 1.47409V8.78735C50.322 9.52407 49.7232 10.123 48.9866 10.123H40.2612V0.0605469L48.9087 0.0605469C49.6872 0.0605469 50.322 0.695442 50.322 1.47409Z" fill="white"/>
<path d="M0.00598145 40.2617L0.00598145 50.3242H10.0668V40.2617H0.00598145Z" fill="white"/>
<path d="M60.2572 8.67877V1.3176C60.2572 0.58687 60.8501 -0.000104904 61.5747 -0.000104904H65.593C68.204 -0.000104904 70.324 2.1202 70.324 4.73165V10.0684H61.6465C60.88 10.0684 60.2632 9.44545 60.2632 8.68477L60.2572 8.67877Z" fill="white"/>
<path d="M60.2572 50.3241V40.2616H70.318V45.4486C70.318 48.1439 68.1322 50.3301 65.4373 50.3301H60.2512L60.2572 50.3241Z" fill="white"/>
<path d="M50.1903 18.7413V11.452C50.1903 10.6853 50.8131 10.0624 51.5797 10.0624H58.8677C59.6343 10.0624 60.2571 10.6853 60.2571 11.452V18.6335C60.2571 19.46 59.5864 20.1309 58.7599 20.1309H51.5797C50.8131 20.1309 50.1903 19.5079 50.1903 18.7413Z" fill="white"/>
<path d="M20.1281 18.8251V10.0624H30.1888V20.0171C30.1888 20.077 30.1409 20.1309 30.0751 20.1309H21.4276C20.7089 20.1309 20.1221 19.5499 20.1221 18.8251H20.1281Z" fill="white"/>
<path d="M30.1942 50.2471V40.1846H38.9196C39.6561 40.1846 40.255 40.7836 40.255 41.5203V48.8635C40.255 49.6301 39.6322 50.2471 38.8716 50.2471H30.1942Z" fill="white"/>
<path d="M21.5466 40.2021H30.1941V50.2646H21.6604C20.816 50.2646 20.1333 49.5818 20.1333 48.7373V41.6157C20.1333 40.837 20.7681 40.2021 21.5466 40.2021Z" fill="white"/>
<path d="M50.3281 48.6831V40.4893C50.3281 40.3636 50.4299 40.2558 50.5617 40.2558H60.1613C60.2871 40.2558 60.3949 40.3576 60.3949 40.4893V50.0906C60.3949 50.2164 60.2931 50.3242 60.1613 50.3242H51.969C51.0647 50.3242 50.3281 49.5875 50.3281 48.6831Z" fill="white"/>
<path d="M65.2875 0V10.0625C73.6236 10.0625 80.3846 16.8247 80.3846 25.1622C80.3846 33.4997 73.6236 40.2619 65.2875 40.2619V50.3244C79.1809 50.3244 90.4454 39.058 90.4454 25.1622C90.4454 11.2664 79.1809 0 65.2875 0Z" fill="white"/>
<path d="M0.00610734 40.2319L0.00610734 31.6129C0.00610734 30.8283 0.646886 30.1874 1.43139 30.1874H8.52184C9.37222 30.1874 10.0669 30.8822 10.0669 31.7327V40.2319C10.0669 40.2319 10.0549 40.2559 10.0429 40.2559H0.0240723C0.0240723 40.2559 0.00012207 40.2439 0.00012207 40.2319H0.00610734Z" fill="white"/>
<path d="M10.067 21.4306V28.8936C10.067 29.6114 10.6488 30.1934 11.3665 30.1934H18.8283C19.546 30.1934 20.1278 29.6114 20.1278 28.8936V21.4306C20.1278 20.7128 19.546 20.1309 18.8283 20.1309H11.3665C10.6488 20.1309 10.067 20.7128 10.067 21.4306Z" fill="white"/>
<path d="M10.0668 25.1621C10.0668 25.1621 10.468 30.1933 5.03638 30.1933L10.0668 35.2246C10.0668 35.2246 9.59367 30.1933 15.0972 30.1933L10.0668 25.1621Z" fill="white"/>
<path d="M30.2009 5.0918C30.2009 5.0918 30.6022 10.123 25.1705 10.123L30.2009 15.1543C30.2009 15.1543 29.7278 10.123 35.2313 10.123L30.2009 5.0918Z" fill="white"/>
<path d="M40.261 35.2246C40.261 35.2246 40.6622 40.2559 35.2306 40.2559L40.261 45.2871C40.261 45.2871 39.7879 40.2559 45.2914 40.2559L40.261 35.2246Z" fill="white"/>
<path d="M60.257 5.0918C60.257 5.0918 60.6582 10.123 55.2266 10.123L60.257 15.1543C60.257 15.1543 59.7839 10.123 65.2873 10.123L60.257 5.0918Z" fill="white"/>
<path d="M50.3281 5.0918C50.3281 5.0918 49.9269 10.123 55.3585 10.123L50.3281 15.1543C50.3281 15.1543 50.8012 10.123 45.2977 10.123L50.3281 5.0918Z" fill="white"/>
<path d="M30.1943 15.0996C30.1943 15.0996 29.7931 20.1308 35.2247 20.1308L30.1943 25.1621C30.1943 25.1621 30.6674 20.1308 25.1639 20.1308L30.1943 15.0996Z" fill="white"/>
<path d="M10.0668 15.0996C10.0668 15.0996 9.66554 20.1308 15.0972 20.1308L10.0668 25.1621C10.0668 25.1621 10.5399 20.1308 5.03638 20.1308L10.0668 15.0996Z" fill="white"/>
<path d="M40.2552 38.3632V34.1285C40.2552 31.9543 42.0159 30.1934 44.1897 30.1934H50.316V40.2559H42.1476C41.0996 40.2559 40.2552 39.4053 40.2552 38.3632Z" fill="white"/>
<path d="M30.1942 21.4785V28.8457C30.1942 29.59 30.7975 30.1934 31.5416 30.1934H38.9076C39.6517 30.1934 40.255 29.59 40.255 28.8457V21.4785C40.255 20.7342 39.6517 20.1309 38.9076 20.1309H31.5416C30.7975 20.1309 30.1942 20.7342 30.1942 21.4785Z" fill="white"/>
<path d="M40.2552 25.1621C40.2552 25.1621 39.854 30.1933 45.2856 30.1933L40.2552 35.2246C40.2552 35.2246 40.7283 30.1933 35.2249 30.1933L40.2552 25.1621Z" fill="white"/>
<path d="M50.3279 40.2559V30.1934H60.2689C60.3348 30.1934 60.3887 30.2473 60.3887 30.3132V40.2559H50.3279Z" fill="#0090FF"/>
<path d="M60.3948 21.5324V28.7918C60.3948 29.5659 61.0222 30.1934 61.7961 30.1934H69.0542C69.8282 30.1934 70.4556 29.5659 70.4556 28.7918V21.5324C70.4556 20.7584 69.8282 20.1309 69.0542 20.1309H61.7961C61.0222 20.1309 60.3948 20.7584 60.3948 21.5324Z" fill="#0090FF"/>
<path d="M60.3889 25.1621C60.3889 25.1621 60.7901 30.1933 55.3585 30.1933L60.3889 35.2246C60.3889 35.2246 59.9158 30.1933 65.4193 30.1933L60.3889 25.1621Z" fill="#0090FF"/>
<path d="M0.000244141 10.1221L0.000244141 1.37131C0.000244141 0.646569 0.587121 0.0535994 1.31773 0.0535994H8.74953C9.47415 0.0535994 10.067 0.640579 10.067 1.37131V10.1221H0.00623398H0.000244141Z" fill="#D83273"/>
</svg>
