<svg width="265" height="304" viewBox="0 0 265 304" fill="none" xmlns="http://www.w3.org/2000/svg">
<g filter="url(#filter0_d_211_1363)">
<circle cx="132.5" cy="130.5" r="122.5" fill="#F1678D"/>
<g clip-path="url(#clip0_211_1363)">
<path d="M88.5974 110.291C86.8092 108.142 85.1711 106.052 83.4004 104.075C80.417 100.744 79.4773 97.0091 81.1647 92.8491C82.9464 88.4522 86.3728 86.001 91.0458 85.2119C91.458 85.1423 91.8813 85.1347 92.5051 85.0803C91.7376 80.1888 93.1805 76.0854 97.2252 73.144C101.2 70.2515 105.47 69.8395 110.034 72.3331C110.775 70.4134 111.472 68.6373 112.148 66.847C113.257 63.9121 114.341 60.9641 115.46 58.0347C117.5 52.7203 122.305 50.4594 127.683 52.4334C145.638 59.0278 163.581 65.6524 181.511 72.307C183.504 73.0429 185.507 73.7592 187.488 74.5245C193.016 76.6593 195.202 81.4291 193.143 86.9445C189.047 97.9113 184.895 108.857 180.849 119.843C180.52 120.737 180.531 121.991 180.898 122.864C185.469 133.734 186.853 145.065 186.161 156.733C185.412 169.297 182.713 181.453 178.267 193.211C177.145 196.177 175.598 199.041 173.87 201.714C170.515 206.907 165.459 209.628 159.327 209.782C150.323 210.009 141.309 209.903 132.301 209.782C130.328 209.757 128.318 209.254 126.406 208.695C121.662 207.311 118.551 204.193 117.295 199.434C116.342 195.818 115.541 192.162 114.758 188.506C114.517 187.379 113.996 186.779 112.894 186.377C102.627 182.629 92.3845 178.816 82.1285 175.042C76.3492 172.923 74.084 168.17 76.2122 162.474C79.7164 153.09 83.2451 143.715 86.7982 134.348C87.2236 133.236 87.1337 132.5 86.3311 131.624C84.8213 129.969 83.5473 128.096 81.986 126.495C79.7109 124.163 79.553 121.467 80.2766 118.585C81.1538 115.083 83.3664 112.635 86.6524 111.126C87.2379 110.855 87.8409 110.616 88.5974 110.291ZM167.677 142.147C167.806 141.951 167.919 141.746 168.016 141.533C175.068 122.784 182.113 104.031 189.151 85.2727C190.379 81.9933 189.139 79.6779 185.602 78.3714C166.066 71.1559 146.529 63.9454 126.991 56.7401C122.903 55.2313 120.727 56.2357 119.199 60.3054C108.062 89.9646 96.9266 119.623 85.7928 149.282C85.5735 149.87 85.3542 150.46 85.1196 151.101C89.7301 152.812 94.1103 154.442 98.496 156.061C111.421 160.833 124.352 165.596 137.29 170.349C137.872 170.566 138.935 170.685 139.199 170.373C143.616 165.063 145.191 162.444 142.845 156.118C140.622 150.121 138.329 144.149 136.141 138.139C135.505 136.391 134.946 134.578 134.661 132.746C133.376 124.485 140.096 117.534 148.059 118.901C152.363 119.64 155.38 122.336 157.623 125.88C161.017 131.239 164.297 136.669 167.677 142.147ZM119.137 188.728C120.028 192.38 120.736 195.614 121.619 198.8C122.398 201.614 124.322 203.519 127.107 204.401C128.773 204.93 130.533 205.443 132.261 205.463C141.203 205.572 150.147 205.542 159.09 205.498C160.225 205.493 161.381 205.209 162.489 204.92C167.742 203.55 170.94 199.79 172.702 195.089C175.192 188.443 177.489 181.674 179.16 174.789C182.249 162.071 183.193 149.163 180.507 136.201C179.922 133.382 179.041 130.623 178.296 127.837L177.756 127.919C175.652 133.496 173.649 139.115 171.397 144.631C170.469 146.902 170.215 148.921 171.428 151.124C172.003 152.167 172.289 153.373 172.659 154.52C173.214 156.251 172.782 157.389 171.401 157.759C169.799 158.194 169.02 157.253 168.585 155.911C165.163 145.332 159.156 136.105 153.132 126.889C152.739 126.286 152.231 125.747 151.723 125.23C149.756 123.224 147.447 122.336 144.614 123.097C141.7 123.88 139.907 125.718 139.142 128.59C138.492 131.033 138.946 133.372 139.806 135.674C142.068 141.72 144.167 147.831 146.621 153.798C149.307 160.333 148.509 166.19 143.865 171.486C138.931 177.121 136.696 183.692 136.609 191.09C136.575 194.047 135.449 194.743 132.683 193.726C128.299 192.122 123.922 190.498 119.137 188.728ZM83.8061 155.202C83.5945 155.392 83.4618 155.455 83.4245 155.553C82.3785 158.315 81.3292 161.077 80.3073 163.848C78.9675 167.483 80.0157 169.692 83.7117 171.06C99.2971 176.828 114.884 182.593 130.472 188.355C130.958 188.535 131.47 188.642 132.19 188.845C132.052 183.597 133.551 178.96 136.154 174.544L83.8061 155.202ZM95.1596 111.438C95.4085 111.134 95.5148 111.052 95.5554 110.945C96.6661 108.011 97.7899 105.087 98.8699 102.141C99.5738 100.222 100.984 98.1461 100.668 96.3906C100.352 94.6351 98.2416 93.2057 96.9994 91.5741C95.5894 89.7262 93.7265 89.2164 91.5172 89.4772C86.2324 90.1023 82.8182 96.146 85.7435 100.011C88.6939 103.915 91.9591 107.58 95.1596 111.438ZM102.746 91.8328C104.62 86.8597 106.364 82.3052 108.023 77.7235C108.17 77.3148 107.975 76.5017 107.647 76.2517C105.174 74.3603 101.793 74.7299 99.1528 77.0854C96.631 79.329 95.7725 82.8215 97.4292 85.2227C98.9598 87.4402 100.804 89.4446 102.746 91.8328ZM89.081 128.211C90.5688 124.243 92.0326 120.624 93.2036 116.914C93.3889 116.328 92.4361 114.903 91.7004 114.61C89.7981 113.849 86.8059 115.409 85.3663 117.566C83.9596 119.673 83.931 121.914 85.3739 123.762C86.4835 125.177 87.6764 126.531 89.081 128.211Z" fill="white"/>
<path d="M205.034 163.196C204.977 159.5 203.28 154.402 199.465 150.079C198.467 148.947 197.992 147.81 199.221 146.592C200.207 145.614 201.523 145.92 202.805 147.341C213.43 159.104 210.733 179.666 197.426 188.345C195.79 189.412 194.508 189.373 193.776 188.137C192.891 186.644 193.694 185.69 194.92 184.828C201.466 180.232 205.049 173.251 205.034 163.196Z" fill="white"/>
<path d="M55.6562 92.4711C56.176 82.8305 60.6834 74.2714 70.4909 68.8288C71.0633 68.5114 71.7628 68.0853 72.3296 68.1766C73.0741 68.2929 74.1245 68.7201 74.3493 69.2864C74.6168 69.9582 74.2276 70.9463 73.9535 71.7387C73.8438 72.0463 73.2857 72.2159 72.9118 72.4137C60.4125 79.0238 56.2165 94.4005 63.6931 106.242C64.7116 107.858 64.6295 109.164 63.3828 109.849C61.8292 110.701 60.8994 109.798 60.077 108.601C57.3491 104.627 55.6595 98.9779 55.6562 92.4711Z" fill="white"/>
<path d="M198.731 164.845C198.541 170.843 196.526 176.175 192.011 180.449C190.597 181.787 189.307 181.948 188.392 180.855C187.285 179.534 187.888 178.464 188.957 177.403C195.007 171.394 196.096 163.055 191.779 155.703C191.012 154.388 190.731 153.226 192.15 152.243C193.293 151.45 194.452 151.892 195.439 153.429C197.659 156.878 198.628 160.686 198.731 164.845Z" fill="white"/>
<path d="M66.1458 96.269C66.5306 87.6263 69.162 81.6543 75.006 77.2802C76.6353 76.0606 78.0014 76.0638 78.8325 77.215C79.6636 78.3661 79.2876 79.4618 77.6682 80.676C71.1521 85.5675 68.8485 93.9048 71.9558 101.354C72.095 101.688 72.2573 102.014 72.3658 102.357C72.7397 103.543 72.4831 104.553 71.2946 105.085C70.026 105.652 68.8605 105.206 68.4439 103.976C67.4319 100.983 66.6293 97.9212 66.1458 96.269Z" fill="white"/>
</g>
</g>
<g filter="url(#filter1_d_211_1363)">
<path d="M92.419 298.24C91.699 298.24 91.091 298.128 90.595 297.904C90.099 297.68 89.723 297.344 89.467 296.896C89.211 296.432 89.083 295.856 89.083 295.168V284.848H92.683V294.736C92.683 295.04 92.747 295.264 92.875 295.408C93.019 295.552 93.235 295.624 93.523 295.624C93.651 295.624 93.787 295.608 93.931 295.576C94.075 295.544 94.211 295.504 94.339 295.456L94.675 297.76C94.371 297.92 94.027 298.04 93.643 298.12C93.259 298.2 92.851 298.24 92.419 298.24ZM101.553 298.312C99.7607 298.312 98.4087 297.912 97.4967 297.112C96.5847 296.312 96.1287 295.144 96.1287 293.608V292.648C96.1287 291.992 96.2167 291.456 96.3927 291.04C96.5687 290.608 96.7847 290.216 97.0407 289.864C97.2967 289.512 97.5047 289.2 97.6647 288.928C97.8407 288.64 97.9287 288.344 97.9287 288.04C97.9287 287.752 97.8567 287.552 97.7127 287.44C97.5847 287.312 97.4087 287.248 97.1847 287.248C97.0247 287.248 96.8567 287.272 96.6807 287.32C96.5207 287.368 96.3367 287.44 96.1287 287.536L95.5527 285.28C96.0007 285.04 96.4807 284.88 96.9927 284.8C97.5207 284.704 97.9847 284.656 98.3847 284.656C99.0887 284.656 99.6487 284.768 100.065 284.992C100.497 285.216 100.809 285.536 101.001 285.952C101.193 286.368 101.289 286.864 101.289 287.44C101.289 287.936 101.217 288.376 101.073 288.76C100.929 289.128 100.745 289.512 100.521 289.912C100.313 290.28 100.121 290.624 99.9447 290.944C99.7847 291.264 99.7047 291.728 99.7047 292.336V293.296C99.7047 293.808 99.7767 294.232 99.9207 294.568C100.081 294.888 100.297 295.128 100.569 295.288C100.857 295.432 101.193 295.504 101.577 295.504C102.201 295.504 102.665 295.328 102.969 294.976C103.273 294.608 103.425 294.088 103.425 293.416V284.848H107.001V293.512C107.001 295.096 106.537 296.296 105.609 297.112C104.681 297.912 103.329 298.312 101.553 298.312ZM115.924 298.312C114.484 298.312 113.332 298.144 112.468 297.808C111.604 297.456 110.972 296.968 110.572 296.344C110.188 295.72 109.996 295 109.996 294.184C109.996 293.48 110.1 292.912 110.308 292.48C110.532 292.048 110.812 291.72 111.148 291.496C111.5 291.256 111.852 291.096 112.204 291.016V290.872C111.836 290.744 111.484 290.568 111.148 290.344C110.812 290.12 110.532 289.816 110.308 289.432C110.1 289.048 109.996 288.568 109.996 287.992C109.996 287.4 110.132 286.848 110.404 286.336C110.692 285.824 111.148 285.416 111.772 285.112C112.396 284.792 113.22 284.632 114.244 284.632C114.74 284.632 115.22 284.672 115.684 284.752C116.148 284.816 116.508 284.912 116.764 285.04L116.212 287.464C116.084 287.432 115.908 287.4 115.684 287.368C115.476 287.32 115.26 287.296 115.036 287.296C114.54 287.296 114.172 287.416 113.932 287.656C113.692 287.88 113.572 288.176 113.572 288.544C113.572 288.928 113.676 289.224 113.884 289.432C114.092 289.64 114.356 289.784 114.676 289.864C115.012 289.944 115.356 289.984 115.708 289.984H116.212V292.216H115.708C115.02 292.216 114.5 292.336 114.148 292.576C113.812 292.816 113.644 293.208 113.644 293.752C113.644 294.04 113.708 294.328 113.836 294.616C113.98 294.888 114.22 295.12 114.556 295.312C114.892 295.488 115.372 295.576 115.996 295.576C116.588 295.576 117.052 295.488 117.388 295.312C117.724 295.136 117.964 294.904 118.108 294.616C118.252 294.312 118.324 293.976 118.324 293.608V284.848H121.924V293.488C121.924 295.136 121.436 296.352 120.46 297.136C119.5 297.92 117.988 298.312 115.924 298.312ZM118.441 283.024V277.576H121.753V283.024H118.441ZM128.765 298V289.312C128.765 288.64 128.605 288.152 128.285 287.848C127.981 287.544 127.477 287.392 126.773 287.392C126.245 287.392 125.757 287.464 125.309 287.608C124.877 287.752 124.469 287.928 124.085 288.136V285.256C124.437 285.096 124.933 284.936 125.573 284.776C126.213 284.616 126.965 284.536 127.829 284.536C128.709 284.536 129.485 284.664 130.157 284.92C130.845 285.176 131.381 285.608 131.765 286.216C132.165 286.808 132.365 287.624 132.365 288.664V298H128.765ZM139.411 298.24C138.691 298.24 138.083 298.128 137.587 297.904C137.091 297.68 136.715 297.344 136.459 296.896C136.203 296.432 136.075 295.856 136.075 295.168V284.848H139.675V294.736C139.675 295.04 139.739 295.264 139.867 295.408C140.011 295.552 140.227 295.624 140.515 295.624C140.643 295.624 140.779 295.608 140.923 295.576C141.067 295.544 141.203 295.504 141.331 295.456L141.667 297.76C141.363 297.92 141.019 298.04 140.635 298.12C140.251 298.2 139.843 298.24 139.411 298.24ZM151.289 298V289.456C151.289 288.688 151.081 288.136 150.665 287.8C150.249 287.464 149.609 287.296 148.745 287.296C147.913 287.296 147.097 287.424 146.297 287.68C145.513 287.92 144.833 288.208 144.257 288.544V285.568C144.721 285.344 145.377 285.12 146.225 284.896C147.073 284.656 148.057 284.536 149.177 284.536C149.993 284.536 150.737 284.624 151.409 284.8C152.097 284.96 152.697 285.24 153.209 285.64C153.721 286.024 154.113 286.544 154.385 287.2C154.673 287.84 154.817 288.64 154.817 289.6V298H151.289ZM147.353 298.24C145.977 298.24 144.913 297.912 144.161 297.256C143.425 296.6 143.057 295.68 143.057 294.496C143.057 293.216 143.513 292.192 144.425 291.424C145.353 290.656 146.809 290.192 148.793 290.032L151.865 289.792V292.384L149.201 292.648C148.241 292.744 147.569 292.936 147.185 293.224C146.817 293.512 146.633 293.896 146.633 294.376C146.633 294.856 146.785 295.216 147.089 295.456C147.409 295.696 147.817 295.816 148.313 295.816C148.505 295.816 148.697 295.8 148.889 295.768C149.081 295.72 149.257 295.672 149.417 295.624L149.729 297.88C149.425 297.992 149.065 298.08 148.649 298.144C148.233 298.208 147.801 298.24 147.353 298.24ZM163.736 298.312C162.296 298.312 161.144 298.144 160.28 297.808C159.416 297.456 158.784 296.968 158.384 296.344C158 295.72 157.808 295 157.808 294.184C157.808 293.48 157.912 292.912 158.12 292.48C158.344 292.048 158.624 291.72 158.96 291.496C159.312 291.256 159.664 291.096 160.016 291.016V290.872C159.648 290.744 159.296 290.568 158.96 290.344C158.624 290.12 158.344 289.816 158.12 289.432C157.912 289.048 157.808 288.568 157.808 287.992C157.808 287.4 157.944 286.848 158.216 286.336C158.504 285.824 158.96 285.416 159.584 285.112C160.208 284.792 161.032 284.632 162.056 284.632C162.552 284.632 163.032 284.672 163.496 284.752C163.96 284.816 164.32 284.912 164.576 285.04L164.024 287.464C163.896 287.432 163.72 287.4 163.496 287.368C163.288 287.32 163.072 287.296 162.848 287.296C162.352 287.296 161.984 287.416 161.744 287.656C161.504 287.88 161.384 288.176 161.384 288.544C161.384 288.928 161.488 289.224 161.696 289.432C161.904 289.64 162.168 289.784 162.488 289.864C162.824 289.944 163.168 289.984 163.52 289.984H164.024V292.216H163.52C162.832 292.216 162.312 292.336 161.96 292.576C161.624 292.816 161.456 293.208 161.456 293.752C161.456 294.04 161.52 294.328 161.648 294.616C161.792 294.888 162.032 295.12 162.368 295.312C162.704 295.488 163.184 295.576 163.808 295.576C164.4 295.576 164.864 295.488 165.2 295.312C165.536 295.136 165.776 294.904 165.92 294.616C166.064 294.312 166.136 293.976 166.136 293.608V284.848H169.736V293.488C169.736 295.136 169.248 296.352 168.272 297.136C167.312 297.92 165.8 298.312 163.736 298.312ZM173.386 292.288L172.066 281.08H177.298L175.954 292.288H173.386ZM172.45 298V293.632H176.89V298H172.45Z" fill="white"/>
</g>
<defs>
<filter id="filter0_d_211_1363" x="0" y="0" width="265" height="265" filterUnits="userSpaceOnUse" color-interpolation-filters="sRGB">
<feFlood flood-opacity="0" result="BackgroundImageFix"/>
<feColorMatrix in="SourceAlpha" type="matrix" values="0 0 0 0 0 0 0 0 0 0 0 0 0 0 0 0 0 0 127 0" result="hardAlpha"/>
<feOffset dy="2"/>
<feGaussianBlur stdDeviation="5"/>
<feComposite in2="hardAlpha" operator="out"/>
<feColorMatrix type="matrix" values="0 0 0 0 0 0 0 0 0 0 0 0 0 0 0 0 0 0 0.25 0"/>
<feBlend mode="normal" in2="BackgroundImageFix" result="effect1_dropShadow_211_1363"/>
<feBlend mode="normal" in="SourceGraphic" in2="effect1_dropShadow_211_1363" result="shape"/>
</filter>
<filter id="filter1_d_211_1363" x="87.083" y="277.576" width="92.2148" height="24.7354" filterUnits="userSpaceOnUse" color-interpolation-filters="sRGB">
<feFlood flood-opacity="0" result="BackgroundImageFix"/>
<feColorMatrix in="SourceAlpha" type="matrix" values="0 0 0 0 0 0 0 0 0 0 0 0 0 0 0 0 0 0 127 0" result="hardAlpha"/>
<feOffset dy="2"/>
<feGaussianBlur stdDeviation="1"/>
<feComposite in2="hardAlpha" operator="out"/>
<feColorMatrix type="matrix" values="0 0 0 0 0 0 0 0 0 0 0 0 0 0 0 0 0 0 0.25 0"/>
<feBlend mode="normal" in2="BackgroundImageFix" result="effect1_dropShadow_211_1363"/>
<feBlend mode="normal" in="SourceGraphic" in2="effect1_dropShadow_211_1363" result="shape"/>
</filter>
<clipPath id="clip0_211_1363">
<rect width="153.688" height="158.189" fill="white" transform="translate(55.6562 51.7266)"/>
</clipPath>
</defs>
</svg>
