<svg width="155" height="159" viewBox="0 0 155 159" fill="none" xmlns="http://www.w3.org/2000/svg">
<g clip-path="url(#clip0_216_355)">
<path d="M33.5974 59.2911C31.8092 57.1421 30.1711 55.0518 28.4004 53.0746C25.417 49.744 24.4773 46.0091 26.1647 41.8491C27.9464 37.4522 31.3728 35.001 36.0458 34.2119C36.458 34.1423 36.8813 34.1347 37.5051 34.0803C36.7376 29.1888 38.1805 25.0854 42.2252 22.144C46.1998 19.2515 50.4704 18.8395 55.0338 21.3331C55.7749 19.4134 56.4723 17.6373 57.1477 15.847C58.2572 12.9121 59.3405 9.96414 60.46 7.03467C62.5004 1.72033 67.305 -0.540628 72.683 1.43336C90.6381 8.02783 108.581 14.6524 126.511 21.307C128.504 22.0429 130.507 22.7592 132.488 23.5245C138.016 25.6593 140.202 30.4291 138.143 35.9445C134.047 46.9113 129.895 57.8574 125.849 68.8426C125.52 69.7372 125.531 70.9905 125.898 71.8645C130.469 82.7345 131.853 94.0654 131.161 105.733C130.412 118.297 127.713 130.453 123.267 142.211C122.145 145.177 120.598 148.041 118.87 150.714C115.515 155.907 110.459 158.628 104.327 158.782C95.3232 159.009 86.3094 158.903 77.3011 158.782C75.3276 158.757 73.3178 158.254 71.4056 157.695C66.6625 156.311 63.5508 153.193 62.2954 148.434C61.3415 144.818 60.5411 141.162 59.7583 137.506C59.517 136.379 58.9962 135.779 57.8943 135.377C47.6274 131.629 37.3845 127.816 27.1285 124.042C21.3492 121.923 19.084 117.17 21.2122 111.474C24.7164 102.09 28.2451 92.7146 31.7982 83.3475C32.2236 82.2355 32.1337 81.4996 31.3311 80.6235C29.8213 78.9691 28.5473 77.0962 26.986 75.495C24.7109 73.1634 24.553 70.4666 25.2766 67.5849C26.1538 64.0826 28.3664 61.6347 31.6524 60.1259C32.2379 59.8553 32.8409 59.6161 33.5974 59.2911ZM112.677 91.1468C112.806 90.951 112.919 90.7456 113.016 90.5326C120.068 71.784 127.113 53.0307 134.151 34.2727C135.379 30.9933 134.139 28.6779 130.602 27.3714C111.066 20.1559 91.5295 12.9454 71.9911 5.74005C67.9025 4.2313 65.7272 5.23569 64.1988 9.30542C53.062 38.9646 41.9266 68.6234 30.7928 98.2818C30.5735 98.8699 30.3542 99.4601 30.1196 100.101C34.7301 101.812 39.1103 103.442 43.496 105.061C56.4207 109.833 69.352 114.596 82.2899 119.349C82.8721 119.566 83.9346 119.685 84.1988 119.373C88.6163 114.063 90.1908 111.444 87.8455 105.118C85.6219 99.121 83.3293 93.149 81.1408 87.139C80.5049 85.3911 79.9457 83.578 79.6607 81.7464C78.3756 73.4852 85.0957 66.5338 93.0591 67.9013C97.3625 68.6404 100.38 71.3362 102.623 74.8798C106.017 80.2387 109.297 85.6694 112.677 91.1468ZM64.1374 137.728C65.0277 141.38 65.736 144.614 66.6186 147.8C67.3982 150.614 69.3224 152.519 72.1073 153.401C73.7728 153.93 75.5326 154.443 77.2606 154.463C86.203 154.572 95.1466 154.542 104.09 154.498C105.225 154.493 106.381 154.209 107.489 153.92C112.742 152.55 115.94 148.79 117.702 144.089C120.192 137.443 122.489 130.674 124.16 123.789C127.249 111.071 128.193 98.1633 125.507 85.2009C124.922 82.3823 124.041 79.6235 123.296 76.8375L122.756 76.919C120.652 82.4964 118.649 88.1151 116.397 93.6306C115.469 95.9024 115.215 97.9209 116.428 100.124C117.003 101.167 117.289 102.373 117.659 103.52C118.214 105.251 117.782 106.389 116.401 106.759C114.799 107.194 114.02 106.253 113.585 104.911C110.163 94.3317 104.156 85.1052 98.1322 75.8885C97.7386 75.2863 97.231 74.7472 96.7233 74.2298C94.7563 72.2243 92.4472 71.3362 89.614 72.0971C86.6997 72.8797 84.9071 74.7178 84.1418 77.5897C83.4916 80.0333 83.9455 82.3725 84.8062 84.6737C87.0682 90.7196 89.1667 96.8307 91.6205 102.798C94.3068 109.333 93.5086 115.19 88.8652 120.486C83.9313 126.121 81.6956 132.692 81.609 140.09C81.575 143.047 80.449 143.743 77.6827 142.726C73.2992 141.122 68.9222 139.498 64.1374 137.728ZM28.8061 104.202C28.5945 104.392 28.4618 104.455 28.4245 104.553C27.3785 107.315 26.3292 110.077 25.3073 112.848C23.9675 116.483 25.0157 118.692 28.7117 120.06C44.2971 125.828 59.884 131.593 75.4723 137.355C75.958 137.535 76.4701 137.642 77.1904 137.845C77.0523 132.597 78.5511 127.96 81.154 123.544L28.8061 104.202ZM40.1596 60.4379C40.4085 60.1336 40.5148 60.052 40.5554 59.9455C41.6661 57.0106 42.7899 54.0866 43.8699 51.1408C44.5738 49.2222 45.9838 47.1461 45.6681 45.3906C45.3523 43.6351 43.2416 42.2057 41.9994 40.5741C40.5894 38.7262 38.7265 38.2164 36.5172 38.4772C31.2324 39.1023 27.8182 45.146 30.7435 49.0114C33.6939 52.9148 36.9591 56.5802 40.1596 60.4379ZM47.7458 40.8328C49.6196 35.8597 51.364 31.3052 53.0229 26.7235C53.1698 26.3148 52.9747 25.5017 52.6468 25.2517C50.1744 23.3603 46.793 23.7299 44.1528 26.0854C41.631 28.329 40.7725 31.8215 42.4292 34.2227C43.9598 36.4402 45.804 38.4446 47.7458 40.8328ZM34.081 77.2114C35.5688 73.2428 37.0326 69.6242 38.2036 65.9142C38.3889 65.3283 37.4361 63.9033 36.7004 63.6098C34.7981 62.8489 31.8059 64.4087 30.3663 66.5664C28.9596 68.673 28.931 70.9144 30.3739 72.7623C31.4835 74.1765 32.6764 75.5309 34.081 77.2114Z" fill="black"/>
<path d="M150.034 112.196C149.977 108.5 148.28 103.402 144.465 99.079C143.467 97.9474 142.992 96.8104 144.221 95.5919C145.207 94.6136 146.523 94.9201 147.805 96.3408C158.43 108.104 155.733 128.666 142.426 137.345C140.79 138.412 139.508 138.373 138.776 137.137C137.891 135.644 138.694 134.69 139.92 133.828C146.466 129.232 150.049 122.251 150.034 112.196Z" fill="black"/>
<path d="M0.65625 41.4711C1.17596 31.8305 5.68336 23.2714 15.4909 17.8288C16.0633 17.5114 16.7628 17.0853 17.3296 17.1766C18.0741 17.2929 19.1245 17.7201 19.3493 18.2864C19.6168 18.9582 19.2276 19.9463 18.9535 20.7387C18.8438 21.0463 18.2857 21.2159 17.9118 21.4137C5.41255 28.0238 1.2165 43.4005 8.69306 55.2423C9.71164 56.8576 9.62946 58.1641 8.38281 58.8489C6.82917 59.7012 5.89936 58.7979 5.07704 57.6011C2.34912 53.627 0.659539 47.9779 0.65625 41.4711Z" fill="black"/>
<path d="M143.731 113.845C143.541 119.843 141.526 125.175 137.011 129.449C135.597 130.787 134.307 130.948 133.392 129.855C132.285 128.534 132.888 127.464 133.957 126.403C140.007 120.394 141.096 112.055 136.779 104.703C136.012 103.388 135.731 102.226 137.15 101.243C138.293 100.45 139.452 100.892 140.439 102.429C142.659 105.878 143.628 109.686 143.731 113.845Z" fill="black"/>
<path d="M11.1458 45.269C11.5306 36.6263 14.162 30.6543 20.006 26.2802C21.6353 25.0606 23.0014 25.0638 23.8325 26.215C24.6636 27.3661 24.2876 28.4618 22.6682 29.676C16.1521 34.5675 13.8485 42.9048 16.9558 50.354C17.095 50.6877 17.2573 51.0138 17.3658 51.3573C17.7397 52.5432 17.4831 53.553 16.2946 54.0846C15.026 54.652 13.8605 54.2063 13.4439 52.9758C12.4319 49.9833 11.6293 46.9212 11.1458 45.269Z" fill="black"/>
</g>
<defs>
<clipPath id="clip0_216_355">
<rect width="153.688" height="158.189" fill="white" transform="translate(0.65625 0.726562)"/>
</clipPath>
</defs>
</svg>
