<svg width="226" height="233" viewBox="0 0 226 233" fill="none" xmlns="http://www.w3.org/2000/svg">
<g clip-path="url(#clip0_190_419)">
<path d="M48.4405 86.2606C45.8108 83.0953 43.4021 80.0164 40.7982 77.1041C36.4111 72.1984 35.0293 66.6971 37.5106 60.5698C40.1306 54.0935 45.1692 50.4831 52.0408 49.3208C52.6471 49.2183 53.2694 49.2071 54.1868 49.127C53.0582 41.9222 55.18 35.8782 61.1278 31.5457C66.9725 27.2853 73.2525 26.6785 79.963 30.3513C81.0529 27.5238 82.0783 24.9077 83.0715 22.2707C84.7031 17.9479 86.2961 13.6058 87.9423 9.29089C90.9428 1.46328 98.008 -1.86693 105.916 1.0406C132.32 10.7537 158.705 20.5112 185.071 30.3129C188.003 31.3968 190.947 32.4519 193.86 33.5791C201.99 36.7236 205.204 43.749 202.177 51.8729C196.153 68.026 190.047 84.1488 184.098 100.329C183.614 101.647 183.63 103.493 184.17 104.78C190.892 120.791 192.927 137.48 191.909 154.666C190.808 173.171 186.839 191.076 180.301 208.395C178.651 212.764 176.376 216.983 173.835 220.92C168.902 228.568 161.467 232.576 152.449 232.803C139.209 233.138 125.954 232.981 112.707 232.803C109.805 232.766 106.85 232.025 104.038 231.202C97.0632 229.164 92.4874 224.57 90.6413 217.561C89.2386 212.236 88.0616 206.85 86.9104 201.465C86.5557 199.805 85.7898 198.921 84.1695 198.329C69.0717 192.808 54.0095 187.192 38.9279 181.633C30.4293 178.512 27.0983 171.511 30.2278 163.121C35.3808 149.3 40.5698 135.491 45.7948 121.694C46.4203 120.056 46.2881 118.972 45.1079 117.681C42.8877 115.245 41.0142 112.486 38.7183 110.128C35.3727 106.693 35.1405 102.721 36.2046 98.4767C37.4945 93.3181 40.7482 89.7125 45.5803 87.4902C46.4413 87.0915 47.328 86.7393 48.4405 86.2606ZM164.729 133.181C164.918 132.893 165.085 132.591 165.227 132.277C175.596 104.662 185.956 77.0395 196.306 49.4104C198.112 44.58 196.288 41.1697 191.087 39.2452C162.36 28.6174 133.63 17.997 104.899 7.38402C98.8867 5.16174 95.6879 6.64113 93.4403 12.6355C77.0635 56.3212 60.6887 100.006 44.3162 143.691C43.9937 144.557 43.6713 145.426 43.3263 146.371C50.1061 148.891 56.5473 151.291 62.9966 153.677C82.0025 160.705 101.018 167.72 120.044 174.721C120.9 175.041 122.462 175.216 122.851 174.756C129.347 166.935 131.662 163.078 128.213 153.76C124.943 144.927 121.572 136.131 118.354 127.278C117.419 124.704 116.596 122.033 116.177 119.335C114.288 107.167 124.169 96.9285 135.88 98.9426C142.208 100.031 146.645 104.002 149.944 109.221C154.934 117.115 159.758 125.114 164.729 133.181ZM93.35 201.792C94.6592 207.171 95.7007 211.935 96.9986 216.627C98.145 220.773 100.975 223.578 105.07 224.878C107.519 225.656 110.107 226.412 112.648 226.442C125.798 226.602 138.95 226.557 152.101 226.493C153.77 226.485 155.469 226.067 157.099 225.641C164.824 223.624 169.527 218.086 172.118 211.161C175.78 201.372 179.157 191.403 181.615 181.261C186.157 162.529 187.545 143.516 183.595 124.424C182.735 120.272 181.439 116.209 180.344 112.105L179.549 112.225C176.455 120.44 173.51 128.716 170.198 136.84C168.834 140.186 168.46 143.159 170.245 146.405C171.089 147.94 171.51 149.717 172.054 151.406C172.871 153.955 172.236 155.632 170.204 156.178C167.849 156.818 166.702 155.431 166.064 153.456C161.032 137.873 152.198 124.283 143.34 110.707C142.761 109.82 142.015 109.026 141.268 108.264C138.376 105.31 134.98 104.002 130.814 105.123C126.528 106.275 123.892 108.983 122.767 113.213C121.811 116.812 122.478 120.258 123.744 123.647C127.07 132.552 130.156 141.553 133.764 150.343C137.715 159.969 136.541 168.595 129.713 176.396C122.457 184.696 119.17 194.374 119.042 205.271C118.992 209.626 117.336 210.652 113.269 209.154C106.823 206.79 100.386 204.398 93.35 201.792ZM41.3948 152.41C41.0836 152.69 40.8885 152.783 40.8337 152.927C39.2955 156.996 37.7525 161.064 36.2498 165.145C34.2796 170.499 35.8209 173.754 41.256 175.768C64.1746 184.264 87.0953 192.756 110.018 201.243C110.732 201.507 111.485 201.665 112.545 201.965C112.342 194.235 114.546 187.405 118.373 180.9L41.3948 152.41ZM58.0903 87.9497C58.4563 87.5014 58.6126 87.3813 58.6723 87.2244C60.3056 82.9015 61.9582 78.5947 63.5463 74.2558C64.5814 71.4299 66.6549 68.3718 66.1906 65.7861C65.7262 63.2004 62.6224 61.095 60.7957 58.6918C58.7222 55.97 55.9829 55.2191 52.7341 55.6033C44.9627 56.524 39.942 65.4259 44.2437 71.1193C48.5824 76.8687 53.3839 82.2675 58.0903 87.9497ZM69.2459 59.0729C72.0013 51.748 74.5665 45.0395 77.0059 38.291C77.222 37.689 76.935 36.4914 76.4529 36.1232C72.8172 33.3373 67.8448 33.8817 63.9623 37.3512C60.254 40.6558 58.9916 45.8 61.4278 49.3368C63.6786 52.6029 66.3905 55.5553 69.2459 59.0729ZM49.1516 112.656C51.3395 106.81 53.492 101.48 55.2139 96.0159C55.4864 95.1529 54.0853 93.0539 53.0034 92.6216C50.2061 91.5008 45.806 93.7984 43.6891 96.9765C41.6205 100.079 41.5785 103.381 43.7003 106.103C45.332 108.186 47.0862 110.18 49.1516 112.656Z" fill="white"/>
<path d="M219.662 164.184C219.578 158.741 217.082 151.232 211.473 144.864C210.006 143.197 209.306 141.523 211.114 139.728C212.565 138.287 214.499 138.738 216.384 140.831C232.009 158.158 228.043 188.444 208.474 201.226C206.069 202.799 204.184 202.741 203.107 200.921C201.806 198.721 202.986 197.317 204.79 196.047C214.416 189.278 219.685 178.994 219.662 164.184Z" fill="white"/>
<path d="M0 60.0133C0.764238 45.8134 7.39244 33.2066 21.8146 25.1901C22.6562 24.7226 23.6849 24.0949 24.5185 24.2294C25.6132 24.4007 27.1579 25.03 27.4884 25.8641C27.8818 26.8536 27.3094 28.3089 26.9063 29.4761C26.7451 29.9292 25.9244 30.179 25.3746 30.4704C6.99421 40.2065 0.823862 62.8552 11.8182 80.2972C13.3161 82.6764 13.1952 84.6008 11.362 85.6095C9.07738 86.8648 7.71007 85.5343 6.50083 83.7715C2.48939 77.918 0.00483695 69.5973 0 60.0133Z" fill="white"/>
<path d="M210.393 166.615C210.114 175.45 207.15 183.303 200.511 189.599C198.433 191.57 196.535 191.807 195.19 190.198C193.562 188.251 194.448 186.675 196.02 185.113C204.917 176.262 206.518 163.978 200.171 153.15C199.042 151.213 198.629 149.502 200.716 148.054C202.397 146.885 204.101 147.537 205.553 149.801C208.817 154.881 210.241 160.49 210.393 166.615Z" fill="white"/>
<path d="M15.425 65.607C15.991 52.8769 19.8605 44.0807 28.4542 37.638C30.8501 35.8416 32.859 35.8464 34.0812 37.5419C35.3033 39.2375 34.7503 40.8513 32.3689 42.6397C22.7869 49.8445 19.3994 62.1247 23.9688 73.0968C24.1735 73.5883 24.4121 74.0687 24.5717 74.5746C25.1215 76.3214 24.7442 77.8087 22.9965 78.5917C21.131 79.4274 19.4171 78.771 18.8045 76.9586C17.3163 72.5509 16.1361 68.0406 15.425 65.607Z" fill="white"/>
</g>
<defs>
<clipPath id="clip0_190_419">
<rect width="226" height="233" fill="white"/>
</clipPath>
</defs>
</svg>
