<svg width="363" height="453" viewBox="0 0 363 453" fill="none" xmlns="http://www.w3.org/2000/svg">
<g clip-path="url(#clip0_266_591)">
<path d="M286.494 236.837C286.494 244.164 286.349 251.496 286.554 258.814C286.647 262.17 285.623 263.39 282.15 263.306C273.908 263.107 265.657 263.121 257.399 263.348C252.306 263.488 247.311 264.47 242.102 263.506C237.381 262.636 231.66 258.05 231.255 253.116C230.185 239.881 231.069 226.614 230.846 213.361C230.818 211.829 231.213 210.567 233.048 210.567C235.948 210.535 238.857 210.47 241.748 210.642C244.266 210.786 243.82 212.9 243.829 214.482C243.88 222.573 243.829 230.664 243.885 238.75C243.9 240.732 244.056 242.711 244.35 244.671C244.932 248.563 247.316 250.611 251.221 250.676C257.641 250.779 264.06 250.653 270.475 250.83C273.734 250.919 273.734 248.912 273.734 246.64C273.734 236.106 273.906 225.571 273.659 215.046C273.571 211.322 274.777 210.349 278.342 210.479C287.606 210.805 286.47 209.632 286.508 218.528C286.536 224.635 286.508 230.738 286.508 236.846L286.494 236.837Z" fill="white"/>
<path d="M104.211 209.371C112.455 209.371 120.7 209.459 128.944 209.32C131.677 209.268 132.645 210.069 132.71 212.913C132.915 222.047 133.031 222.042 123.865 222.038C121.119 222.038 118.353 222.233 115.626 221.982C112.074 221.651 110.821 222.82 110.914 226.548C111.18 237.065 111.036 247.595 111.063 258.115C111.063 260.396 111.487 263.464 108.764 263.874C105.314 264.386 101.525 265.242 98.15 263.166C97.7495 262.945 97.4272 262.605 97.2272 262.193C97.0272 261.782 96.9593 261.318 97.0328 260.866C98.3409 249.652 97.2469 238.377 97.8288 227.154C98.0569 222.731 96.4322 221.665 92.3729 221.986C87.9738 222.336 83.5281 221.986 79.0964 222.149C76.536 222.238 75.6934 221.311 75.605 218.732C75.2745 209.352 75.1814 209.362 84.4964 209.371H104.211Z" fill="white"/>
<path d="M208.822 198.855C203.799 198.901 201.243 197.128 200.019 191.774C195.96 174.033 191.682 156.321 186.291 138.915C185.891 137.611 184.964 135.917 186.454 135.344C188.316 134.623 188.316 136.806 188.781 137.965C196.016 157.051 203.233 176.138 210.433 195.224C211.117 197.081 212.406 199.199 208.822 198.855Z" fill="white"/>
<path d="M176.361 134.479C176.152 140.707 173.969 146.419 172.4 152.257C168.676 166.083 164.728 179.843 160.869 193.632C159.915 197.025 154.389 200.089 151.279 198.934C149.324 198.208 150.493 196.914 150.879 195.941C157.437 179.517 164.027 163.119 170.649 146.745C172.339 142.569 173.582 138.184 176.361 134.479Z" fill="white"/>
<path d="M164.295 12.4802C161.311 15.9343 160.417 19.3326 158.951 22.3864C157.657 25.0817 156.502 25.0678 154.868 22.7635C153.841 21.245 152.705 19.8028 151.47 18.4481C150.59 17.5171 150.073 15.5153 148.523 16.06C146.815 16.6652 148.002 18.4434 148.058 19.6724C148.201 21.6483 148.446 23.6154 148.793 25.5659C149.152 27.8935 148.612 29.29 145.884 29.5926C143.277 29.8673 142.783 28.5498 142.555 26.4597C141.89 20.2403 141.089 14.0396 140.428 7.83895C140.27 6.32136 139.078 4.2824 141.438 3.50498C143.635 2.78343 145.958 2.49946 147.723 4.70602C149.72 7.21516 151.782 9.67309 153.774 12.1543C155.306 14.0583 156.507 14.4074 157.643 11.7307C158.83 8.93757 160.496 6.31205 161.558 3.46774C162.694 0.427907 165.138 0.274287 167.53 0.49308C170.114 0.730494 169.495 3.23498 169.714 4.87826C170.5 10.7717 171.11 16.6884 171.794 22.5959C172.046 24.7233 172.102 26.5248 169.197 26.8786C166.129 27.251 165.612 25.6171 165.449 23.1545C165.254 19.8679 164.765 16.6233 164.295 12.4802Z" fill="white"/>
<path d="M249.424 9.93905C254.689 11.6847 260.788 13.6632 266.844 15.7441C269.172 16.5494 268.311 18.3835 267.845 19.9756C267.31 21.8377 266.169 22.252 264.344 21.6096C260.024 20.092 255.667 18.6768 251.31 17.2663C249.913 16.8008 248.158 15.9303 247.46 18.0716C246.762 20.213 248.591 20.5808 250.034 21.0789C253.065 22.1217 256.156 23.0154 259.135 24.1979C263.488 25.9296 264.754 29.4117 263.041 34.3601C261.43 39.0153 258.386 40.8122 253.875 39.4529C248.754 37.9074 243.754 35.9941 238.624 34.5091C236.115 33.7782 235.585 32.7308 236.325 30.2449C237.181 27.3634 238.82 27.7498 240.878 28.462C244.923 29.8586 248.973 31.2225 253.042 32.5306C254.438 32.9961 256.3 33.7317 257.022 31.7951C257.915 29.4303 255.714 29.1184 254.201 28.583C251.179 27.5123 248.121 26.558 245.09 25.5106C240.924 24.0722 240.184 20.8554 240.901 17.0289C241.697 12.532 244.718 9.8087 249.424 9.93905Z" fill="white"/>
<path d="M196.7 12.5641C194.67 15.5341 192.603 18.4762 190.625 21.4834C189.149 23.7179 187.925 23.5317 186.635 21.3345C184.894 18.3645 183.563 15.1198 180.174 12.6758C180.174 16.2277 180.104 19.7843 180.174 23.3315C180.239 25.701 179.243 26.5902 176.915 26.5669C174.425 26.5297 173.857 25.31 173.964 23.0755C174.257 16.8236 174.369 10.5671 174.639 4.31515C174.704 2.78825 173.829 0.632902 176.291 0.186005C178.619 -0.232961 180.853 -0.158477 182.241 2.37394C183.777 5.16705 185.499 7.88102 187.119 10.6602C188.404 12.8853 189.545 13.0902 190.992 10.7346C192.589 8.13705 194.544 5.74894 196.067 3.11411C197.538 0.572386 199.744 0.651524 202.039 0.996007C204.832 1.41497 203.985 3.74256 203.939 5.38584C203.752 11.7867 203.324 18.1829 203.156 24.5838C203.096 26.7438 202.449 27.6329 200.191 27.3769C198.087 27.1581 196.737 26.6274 196.932 24.0857C197.24 20.3615 197.314 16.6374 197.486 12.876L196.7 12.5641Z" fill="white"/>
<path d="M98.3592 24.5002C97.5911 22.6707 96.8137 20.6783 95.9199 18.7464C94.9889 16.7028 95.8268 15.6786 97.6935 14.8873C99.5603 14.0959 100.803 14.3054 101.655 16.3769C104.323 22.8616 107.083 29.3137 109.862 35.7518C110.737 37.7768 109.965 38.8661 108.149 39.7133C106.334 40.5606 105.114 40.2673 104.053 38.3726C100.137 31.3899 100.17 31.6459 92.5449 34.6857C88.6765 36.2266 88.0294 38.1678 90.0358 41.5102C90.376 42.1916 90.6791 42.8909 90.9435 43.6051C91.8094 45.5277 91.2461 46.6635 89.2677 47.5247C87.2892 48.3859 86.1952 48.0321 85.3666 46.0304C82.6697 39.5473 79.9247 33.0921 77.1316 26.6649C76.2006 24.5468 77.0804 23.6716 78.882 22.8383C80.744 21.9678 82.0708 22.0237 82.8109 24.1744C83.1199 24.8707 83.3934 25.5823 83.6302 26.3064C84.6218 30.538 86.7073 31.8926 90.7387 29.4021C92.5356 28.3035 94.6677 27.7449 96.6415 26.9256C97.647 26.5299 98.6432 26.0644 98.3592 24.5002Z" fill="white"/>
<path d="M113.442 34.118C114.583 26.5952 115.802 19.0864 116.817 11.5497C117.096 9.49677 118.13 8.7566 119.927 8.23987C121.831 7.69522 123.339 7.50901 124.763 9.35246C129.237 15.1388 133.902 20.7809 138.361 26.5766C139.143 27.5914 141.443 28.9508 139.688 30.1937C138.049 31.3575 135.033 32.9077 133.441 30.6592C129.954 25.734 126.188 28.7971 122.427 29.5559C120.695 29.9051 120.369 31.1852 120.355 32.6377C120.327 35.2958 118.651 36.2734 116.361 36.8273C113.908 37.4232 112.846 36.6923 113.442 34.118ZM122.692 18.2113C122.85 19.8545 120.625 21.5304 122.859 22.9223C123.325 23.2202 124.982 22.6849 125.215 22.1495C126.207 19.9244 123.953 19.3937 122.711 18.2113H122.692Z" fill="white"/>
<path d="M289.487 37.0223C289.179 41.4261 288.951 45.8345 288.514 50.2244C288.369 51.6721 289.417 54.2418 286.931 54.2185C284.78 54.1906 281.81 53.1152 282.104 50.3594C282.611 45.7414 279.464 44.8337 276.48 43.33C274.362 42.2687 272.561 41.859 270.768 43.8933C269.986 44.7871 268.906 45.6344 267.566 44.8616C266.225 44.0888 264.372 43.5954 263.874 42.4735C263.171 40.8907 265.187 40.0156 266.276 39.0845C271.364 34.7226 276.555 30.4818 281.638 26.0966C283.281 24.6721 284.701 23.918 286.917 25.0445C289.133 26.1711 289.976 27.7538 289.71 30.1652C289.468 32.4323 289.417 34.7226 289.287 37.0037L289.487 37.0223ZM282.262 34.8716C281.047 35.5838 279.18 35.7328 279.571 37.7019C279.66 38.1442 280.819 38.7587 281.363 38.6563C283.686 38.2094 282.425 36.4031 282.262 34.8716Z" fill="white"/>
<path d="M205.149 27.1953C209.972 19.9658 214.585 12.8341 219.445 5.86996C221.512 2.90927 226.321 3.79375 227.238 7.32703C229.151 14.6822 230.757 22.1119 232.396 29.5322C232.624 30.561 233.22 32.2555 231.264 32.3253C229.309 32.3952 226.581 32.3998 226.204 30.1886C225.245 24.6024 220.832 25.324 217.164 24.4907C216.033 24.2346 214.911 24.2114 214.371 25.3519C212.267 29.8255 209.031 28.82 205.149 27.1953ZM221.796 14.5658C220.711 16.0276 218.789 16.8934 220.316 18.816C220.646 19.2396 222.052 19.4352 222.401 19.1186C224.137 17.5451 222.592 16.2557 221.796 14.5658Z" fill="white"/>
<path d="M70.5399 27.5723C72.374 27.7352 72.6208 29.2947 73.2911 30.4212C74.0965 31.7759 73.3796 32.5905 72.3042 33.4657C70.3072 35.0904 66.3549 35.2161 66.6435 38.4654C66.853 40.8209 68.9292 43.0228 70.2094 45.2666C71.2708 47.1287 72.4672 48.893 73.468 50.7783C74.4689 52.6637 76.6242 54.5025 73.2865 56.439C70.2001 58.2406 69.2784 56.1876 68.1192 54.1114C66.4108 51.053 64.3439 48.1528 62.9985 44.9501C61.1364 40.5742 58.7763 40.5044 55.392 43.1485C54.3585 43.9585 52.948 44.7918 51.7423 44.7452C50.2666 44.6847 50.0059 42.8087 49.3775 41.6495C48.6047 40.253 49.6289 39.4104 50.774 38.7587C56.8382 35.2393 62.907 31.7262 68.9804 28.2193C69.4828 27.9638 70.0042 27.7474 70.5399 27.5723Z" fill="white"/>
<path d="M315.882 49.5354C314.266 49.8147 313.885 50.8948 313.298 51.756C310.719 55.5329 308.148 59.3113 305.584 63.0913C304.528 64.6555 303.485 65.6144 301.567 64.0456C299.998 62.7608 298.811 61.718 300.357 59.586C302.596 56.5089 304.462 53.1385 306.874 50.2198C309.779 46.7191 309.718 44.331 305.375 42.2222C303.513 41.2911 300.855 40.2018 303.117 37.1015C304.402 35.3418 305.57 34.6854 307.614 36.1192C313.223 40.0622 318.912 43.8934 324.624 47.6873C326.579 48.9815 326.854 50.2803 325.476 52.1936C324.098 54.1068 322.748 54.3303 320.891 52.9337C319.201 51.6675 317.404 50.5549 315.882 49.5354Z" fill="white"/>
<path d="M207.165 204.824H154.938C157.303 201.365 159.733 199.237 164.174 199.358C175.323 199.638 186.491 199.591 197.645 199.386C201.742 199.303 204.74 200.527 207.165 204.824Z" fill="white"/>
<path d="M271.048 406.048C273.841 411.573 270.079 412.611 266.7 413.71C263.562 414.729 262.557 416.233 264.251 419.417C265.946 422.601 267.147 426.135 268.725 429.435C269.837 431.763 270.452 433.411 267.296 434.831C263.79 436.409 263.446 433.899 262.543 431.912C260.909 428.299 259.219 424.705 257.771 421.014C256.887 418.751 255.713 418.5 253.553 419.296C245.114 422.406 245.086 422.35 247.935 431.05C248.6 433.08 249.247 435.119 250.025 437.102C251.035 439.672 250.784 441.199 247.697 442.223C244.355 443.322 244.155 441.176 243.456 439.188C241.846 434.598 241.473 427.959 238.261 426.023C235.263 424.217 229.244 427.392 224.561 428.402C222.624 428.821 220.688 429.272 218.77 429.798C217.676 430.092 216.75 430.729 217.048 432.051C217.345 433.373 218.551 433.527 219.603 433.322C223.5 432.582 227.368 431.679 231.264 430.929C236.008 429.998 239.225 432.2 240.305 436.981C241.366 441.636 239.29 445.091 234.518 446.226C228.727 447.623 222.88 448.712 217.089 450.118C214.841 450.667 213.71 450.211 213.095 447.884C212.439 445.416 213.524 444.583 215.679 444.159C220.613 443.154 225.535 442.086 230.445 440.957C231.842 440.636 233.895 440.552 233.508 438.382C233.043 435.91 231.223 436.679 229.528 437.06C225.804 437.903 222.08 438.75 218.304 439.295C214.115 439.9 211.047 437.689 210.139 433.764C209.036 429.012 210.67 425.851 215.153 424.454C217.349 423.805 219.581 423.284 221.838 422.895C232.91 420.845 243.674 417.383 253.865 412.593C260.732 409.334 268.124 407.258 274.697 403.348C277.667 401.579 279.967 403.813 282.439 404.651C287.946 406.513 288.132 406.453 288.756 400.629C289.082 397.58 288.202 394.07 292.145 392.38C294.072 391.551 295.082 391.616 294.938 393.967C294.845 395.327 294.58 396.677 294.403 398.036C293.648 403.948 292.676 409.869 297.196 414.953C298.811 416.778 298.681 418.356 296.335 419.757C294.254 421 292.573 421.34 291.568 418.784C287.918 409.539 278.598 409.855 271.048 406.048Z" fill="white"/>
<path d="M110.537 420.898C112.963 415.377 115.97 416.01 121.361 417.868C126.574 419.655 129.046 421.503 129.507 426.759C129.787 429.906 130.75 432.992 131.677 437.391C134.935 433.421 137.682 430.32 140.14 427.015C142.132 424.338 144.245 423.998 147.588 424.487C156.61 425.814 165.743 426.219 174.825 427.28C182.334 428.165 189.755 427.406 197.203 426.815C201.039 426.512 205.354 425.777 207.318 430.073C209.181 434.105 209.888 438.658 206.927 442.67C205.82 444.169 205.787 445.147 206.704 446.702C207.491 448.038 210.093 449.895 207.751 451.124C205.652 452.227 202.044 453.368 200.555 449.877C198.553 445.221 195.085 445.082 190.876 445.463C188.288 445.701 187.278 446.571 187.618 449.099C187.902 451.301 187.66 452.875 184.694 453C181.617 453.135 181.17 451.627 181.077 449.155C180.924 445.189 180.421 441.241 180.3 437.28C180.216 434.622 179.187 433.593 176.469 433.43C169.155 432.988 161.861 432.261 154.561 431.619C153.249 431.507 151.349 432.085 150.837 430.572C149.082 425.367 147.718 429.236 146.443 430.707C142.653 435.095 138.929 439.536 135.27 444.03C133.729 445.892 132.263 447.144 129.461 446.464C126.658 445.785 125.965 443.792 125.499 441.53C124.103 434.817 122.813 428.081 121.44 421.364C121.202 420.572 120.9 419.802 120.537 419.059C118.325 419.958 118.442 422.057 117.851 423.561C116.012 428.244 114.327 432.997 112.73 437.769C111.925 440.18 110.728 440.855 108.289 439.873C106.05 438.965 105.459 438.104 106.264 435.487C107.758 430.632 110.798 426.205 110.616 420.856L110.537 420.898ZM195.648 433.113C193.134 433.113 191.617 433.113 190.104 433.113C187.357 433.113 186.491 434.44 186.645 437.126C186.812 440.073 188.567 440.138 190.69 439.919C192.198 439.761 193.749 439.733 195.192 439.337C197.72 438.653 202.323 440.832 201.937 435.785C201.565 430.958 197.296 433.467 195.648 433.113Z" fill="white"/>
<path d="M110.588 420.847C106.762 423.519 105.444 427.68 103.866 431.768C102.968 434.095 102.47 437.596 98.2802 435.236C96.4181 434.193 95.8641 433.169 96.8185 431.256C98.4524 427.997 99.9979 424.664 101.599 421.373C103.126 418.221 102.582 416.033 99.2019 414.325C90.4315 409.879 90.4828 409.772 86.1069 418.668C85.2364 420.446 84.431 422.262 83.5558 424.04C82.7598 425.66 82.2431 427.569 79.5896 426.326C77.3272 425.269 76.331 424.245 77.3039 421.48C79.1381 416.359 83.0764 412.29 83.7048 406.555C80.9117 410.791 77.9184 414.934 75.3488 419.301C73.4867 422.462 71.8714 423.393 68.6081 420.87C64.3951 417.611 59.7632 414.907 55.3687 411.843C51.505 409.143 50.7136 405.522 53.2227 401.532C55.8994 397.268 58.8741 393.195 61.5648 388.963C62.8543 386.915 64.0553 386.775 66.0151 388.088C68.0727 389.485 68.6639 390.723 67.0439 392.888C64.8467 395.811 62.9055 398.939 60.8107 401.933C58.7624 404.861 59.1301 407.1 62.1653 409.255C70.1862 414.953 70.1164 415.023 75.5769 406.928C77.2807 404.404 78.5655 401.002 80.9629 399.703C83.7933 398.171 86.0278 402.091 88.8488 403.036C92.3029 404.186 95.4964 406.085 98.8481 407.565C104.83 410.209 111.24 412.435 110.542 420.902L110.588 420.847ZM85.1014 404.847L85.3295 405.014L85.3621 404.726L85.1014 404.847Z" fill="white"/>
<path d="M152.769 444.862C160.217 445.5 167.521 446.166 174.816 446.725C177.055 446.897 178.075 447.656 177.875 450.123C177.656 452.706 176.254 453.042 174.15 452.855C166.865 452.199 159.58 451.538 152.271 450.993C150.158 450.835 148.835 450.36 148.919 447.819C149.045 444.909 150.744 444.653 152.769 444.862Z" fill="white"/>
<path d="M174.248 442.777C166.893 442.148 159.817 441.483 152.699 440.961C150.535 440.803 149.813 439.895 149.967 437.791C150.13 435.492 151.331 435.138 153.332 435.333C160.422 436.036 167.531 436.576 174.616 437.293C176.478 437.484 179.215 436.702 178.805 440.366C178.396 443.824 175.933 442.675 174.248 442.777Z" fill="white"/>
<path d="M169.593 194.582C173.48 179.736 175.956 164.663 178.028 149.482C179.02 156.665 177.4 163.69 177.041 170.775C176.818 175.179 176.04 179.569 176.026 183.963C176.008 188.865 170.147 189.959 169.593 194.582Z" fill="white"/>
<path d="M193.367 191.323C187.101 188.4 187.962 183.009 187.082 178.075C186.105 172.577 185.946 167.009 184.974 161.525C184.692 159.747 184.947 157.926 185.704 156.293C188.665 167.81 190.01 179.578 193.367 191.323Z" fill="white"/>
<path d="M177.455 132.519L176.99 133.17C176.85 132.952 176.557 132.682 176.608 132.519C176.692 132.244 176.994 132.053 177.204 131.802L177.455 132.519Z" fill="white"/>
<path d="M346.201 151.005C344.166 146.559 341.08 143.473 336.118 142.56C322.915 140.126 309.718 137.64 296.497 135.298C290.813 134.293 289.515 135.606 289.184 141.439C288.341 155.59 288.719 169.868 286.391 183.866C285.046 191.929 287.238 197.994 292.443 203.883C301.143 213.71 309.42 223.9 317.865 233.965C322.767 239.798 322.934 239.835 329.316 235.799C332.473 233.802 334.13 234.593 334.218 238.397C334.293 241.744 334.339 245.151 333.823 248.443C330.373 270.14 322.892 290.279 310.356 308.42C308.931 310.477 308.028 314.132 305.184 313.54C302.624 313.001 303.708 309.388 303.289 307.177C302.293 301.917 301.651 301.311 296.367 302.498C284.892 305.068 273.375 307.47 261.97 310.31C258.19 311.241 256.463 310.105 254.284 307.098C239.984 287.337 228.541 266.03 219.021 243.643C217.159 239.263 215.637 234.975 209.683 234.472C207.267 234.268 205.005 232.354 202.658 231.242C201.527 230.702 200.489 230.152 200.494 228.63C200.494 225.581 200.461 222.527 200.41 219.473C200.377 217.402 201.806 217.406 203.203 217.514C205.628 217.695 204.544 219.147 204.353 220.456C204.05 222.55 202.025 224.222 202.742 227.494L217.965 209.413H144.529L159.212 226.638L160.143 226.112C159.454 224.138 158.718 222.178 158.094 220.186C157.768 219.143 156.763 217.7 158.969 217.509C160.152 217.406 161.297 217.309 161.856 218.966C163.978 225.413 161.171 231.805 154.929 234.328C153.942 234.728 152.922 235.226 151.889 235.306C149.389 235.501 148.207 236.944 147.304 239.109C140.744 254.876 133.617 270.359 124.274 284.73C119.047 292.769 114.289 301.111 108.582 308.843C106.79 311.264 105.016 312.06 101.655 311.199C89.9844 308.196 78.1649 305.752 66.3826 303.201C61.9835 302.27 59.749 304.007 59.2369 308.518C59.1345 309.425 59.1718 310.347 59.102 311.259C58.9995 312.568 58.3338 313.801 57.2399 314.216C55.8433 314.746 55.2661 313.14 54.6004 312.288C53.5373 310.814 52.5567 309.281 51.663 307.698C37.7719 285.321 30.2492 261.021 29.5602 234.659C29.523 233.318 29.1552 231.768 30.603 230.934C32.1438 230.041 33.14 231.265 34.1595 232.173C39.378 236.851 40.3555 236.879 44.9083 231.358C52.6685 221.955 60.6568 212.737 68.9709 203.832C75.3764 196.961 77.867 189.187 76.5263 179.695C74.8597 167.941 73.938 156.065 73.0256 144.222C72.3971 136.048 71.8897 135.405 63.8223 136.774C62.7516 136.951 61.6856 137.16 60.8197 136.271C59.749 135.173 60.2378 134.014 60.7638 132.892C62.0114 130.229 63.948 128.069 65.852 125.876C82.0939 107.163 101.985 93.6346 124.875 84.3661C126.588 83.6725 128.385 81.6568 130.233 83.6539C131.783 85.3251 130.196 87.0894 129.544 88.7234C127.216 94.5982 127.682 95.8877 133.268 98.2013C147.383 104.034 161.53 109.783 175.63 115.612C177.238 116.322 178.979 116.684 180.737 116.674C182.495 116.664 184.23 116.281 185.83 115.551C199.795 109.499 213.845 103.508 227.82 97.4239C232.94 95.1987 233.811 93.1039 231.613 88.0856C226.544 76.4849 221.307 64.954 216.21 53.3626C214.641 49.7921 211.987 47.823 208.193 47.4087C193.734 45.8306 179.229 45.1788 164.737 46.4776C128.781 49.6804 96.5109 62.389 68.3239 84.9992C30.0769 115.672 7.88569 155.618 1.49879 203.986C-2.08105 231.111 0.809821 257.874 9.2869 284.115C13.7791 298.02 20.3569 310.827 27.5678 323.284C36.515 338.739 48.6464 351.713 61.923 363.705C82.8433 382.605 107.544 394.522 134.199 402.25C150.618 407.007 167.661 408.767 184.941 408.008C200.759 407.406 216.449 404.93 231.683 400.63C254.354 394.112 274.893 383.596 293.346 368.537C303.806 359.995 313.587 350.977 321.943 340.531C345.028 311.669 358.625 278.85 361.977 241.911C364.821 210.191 359.449 179.928 346.201 151.005ZM195.601 217.672C199.749 217.774 196.127 222.052 197.929 223.724C196.583 225.935 199.474 229.733 195.75 229.957C191.467 230.213 193.264 226.074 193.422 224.068C193.618 221.889 191.09 217.565 195.601 217.672ZM177.218 217.346C180.091 217.59 182.98 217.59 185.853 217.346C188.744 217.136 189.712 218.379 189.354 221.07C189.342 221.225 189.342 221.381 189.354 221.536C189.475 230.148 189.475 230.148 180.774 230.171C172.674 230.194 172.861 230.171 172.66 221.982C172.563 218.421 173.494 216.978 177.218 217.346ZM175.216 235.548C179.325 235.834 183.448 235.834 187.557 235.548C191.309 235.25 193.273 236.362 194.47 240.147C197.579 250.007 201.145 259.727 204.506 269.507C204.935 270.755 205.666 271.993 205 273.38C200.838 272.552 197.882 269.498 194.386 267.473C191.979 266.076 190.476 266.109 188.469 268.115C186.165 270.443 184.28 274.674 181.151 274.246C178.619 273.892 176.44 270.28 174.313 267.924C172.665 266.09 171.245 265.951 169.225 267.333C165.84 269.661 162.289 271.728 158.713 273.967C157.782 272.068 159.081 270.662 159.561 269.251C162.973 259.247 166.637 249.327 169.993 239.304C170.901 236.53 172.218 235.375 175.193 235.548H175.216ZM229.682 314.625L204.916 309.179C190.485 303.672 175.863 303.499 161.032 307.442C153.402 309.467 145.334 309.467 137.863 312.288C137.599 312.432 137.291 312.472 136.999 312.401C136.707 312.329 136.452 312.151 136.285 311.902C135.573 310.971 136.541 310.603 136.941 310.138C140.069 306.642 143.426 303.359 146.992 300.311C153.69 294.412 161.353 289.604 168.406 284.12C170.756 282.258 172.502 282.458 174.346 284.301C178.973 288.924 183.623 288.761 188.218 284.394C190.774 281.969 192.808 282.788 195.373 284.571C206.131 292.048 216.964 299.403 225.781 309.244C226.875 310.994 229.17 311.818 229.682 314.625ZM194.4 278.427C192.007 276.774 190.583 277.063 188.534 278.943C181.347 285.549 181.193 285.558 174.294 279.041C172.241 277.104 170.784 276.811 168.447 278.515C164.383 281.476 160.068 284.129 155.855 286.862C155.092 287.355 154.235 288.756 153.244 287.295C152.713 286.508 153.081 285.67 153.9 284.934C158.928 280.419 164.849 277.184 170.323 273.297C172.004 272.105 173.07 274.06 174.159 274.935C181.491 280.815 181.556 280.936 188.474 275.131C190.853 273.129 192.719 272.803 195.294 274.665C199.144 277.402 203.175 279.898 207.188 282.397C209.418 283.794 210.688 285.609 210.782 288.835C205.074 285.242 199.609 282.02 194.4 278.427ZM205.107 273.729L205.037 273.436L205.326 273.408L205.107 273.729ZM164.877 227.634C164.979 226.424 164.877 225.195 164.877 223.975H164.933C164.933 222.448 164.933 220.921 164.933 219.394C164.933 218.109 165.603 217.439 166.925 217.462C168.163 217.462 168.997 217.984 169.011 219.324C169.043 222.225 169.011 225.125 169.062 228.02C169.094 229.938 168.019 230.273 166.408 230.19C164.556 230.073 164.765 228.905 164.877 227.634ZM237.768 327.073C231.561 337.401 225.383 347.755 219.235 358.132C216.251 363.169 216.833 364.827 222.159 367.224C223.909 368.011 226.348 368.42 225.953 371.055C225.608 373.439 223.299 373.741 221.414 374.286C206.303 378.643 190.862 379.765 175.193 379.532C163.82 379.365 152.922 376.828 141.973 374.346C140.325 373.974 138.496 373.578 138.319 371.488C138.156 369.626 139.911 369.072 141.149 368.253C146.34 364.803 146.899 363.132 143.724 357.774C136.275 345.168 128.627 332.659 121.058 320.118C119.089 316.86 116.17 314.728 112.72 313.326C112.781 312.917 112.72 312.47 112.883 312.372C122.631 306.223 127.803 296.861 132.188 286.554C138.929 270.694 146.438 255.16 153.658 239.505C155.217 236.116 162.717 233.849 165.692 235.841C167.344 236.949 166.157 238.299 165.747 239.477C160.41 254.247 154.324 268.735 147.513 282.886C143.412 291.377 139.059 299.747 134.884 308.201C133.762 310.473 132.724 310.24 131.234 308.55C129.87 307.005 128.632 305.254 126.253 304.086C125.685 308.829 127.342 312.838 127.994 316.92C128.427 319.653 131.01 318.27 132.584 317.986C145.795 315.617 159.053 313.419 172.153 310.538C179.094 309.016 185.69 309.016 192.431 311.003C195.927 312.028 199.516 312.735 203.059 313.592C202.835 312.093 204.269 311.287 204.758 310.086C204.292 311.287 202.835 312.093 203.063 313.587C212.523 315.728 221.977 317.893 231.46 319.988C232.917 320.309 234.891 321.668 235.617 319.085C236.809 314.849 238.485 310.706 238.768 305.268C236.585 307.549 235.124 309.258 233.471 310.761C229.533 314.337 230.408 308.899 228.765 308.178C223.104 296.437 217.159 284.818 211.862 272.915C206.867 261.677 202.551 250.132 197.933 238.727C197.1 236.67 197.514 235.762 199.986 235.562C208.3 234.887 208.594 234.91 212.09 242.461C220.714 261.162 229.303 279.879 237.856 298.611C239.053 301.258 240.868 303.577 243.149 305.375C245.751 307.461 248.27 309.63 251.496 312.298C243.494 314.56 241.222 321.333 237.768 327.073Z" fill="white"/>
<path d="M204.949 273.441L205.306 273.408L205.085 273.732C205.057 273.615 205.033 273.497 205.005 273.38L204.949 273.441Z" fill="#FEFEFD"/>
<path d="M85.1011 404.843L85.3643 404.726L85.3314 405.017L85.1011 404.843Z" fill="#FEFEFD"/>
</g>
<defs>
<clipPath id="clip0_266_591">
<rect width="362.704" height="453" fill="white"/>
</clipPath>
</defs>
</svg>
