<svg width="400" height="87" viewBox="0 0 400 87" fill="none" xmlns="http://www.w3.org/2000/svg">
<circle cx="196.5" cy="54.5" r="32.5" fill="black"/>
<rect y="45" width="400" height="25" fill="black"/>
<path d="M31.1814 4.67136C31.4297 4.94495 31.7072 5.19221 31.9222 5.49603C32.4133 5.97933 32.566 6.5982 32.6226 7.25462C32.6269 7.3029 32.624 7.35215 32.625 7.40092C32.6928 12.0783 32.6728 16.7556 32.6713 21.433C32.6713 21.929 32.7493 22.4206 32.722 22.917C32.6899 23.5105 32.4767 24.0011 31.9627 24.3391C31.6418 24.5503 31.2868 24.541 30.9283 24.5298C30.2207 24.364 29.8042 23.8495 29.8013 23.1106C29.794 21.3164 29.7989 19.5218 29.7979 17.7276C29.7969 14.7044 29.7989 11.6818 29.7959 8.65865C29.7959 8.29289 29.6994 7.93542 29.6804 7.57063C29.6974 7.07808 29.3926 6.79668 29.0083 6.58454C28.7577 6.44604 28.6031 6.54601 28.5811 6.83033C28.5719 6.95177 28.5772 7.07369 28.5772 7.19561C28.5772 14.0173 28.5689 20.8395 28.5899 27.6612C28.5919 28.3581 28.4129 28.9516 28.0349 29.5076C27.7516 29.9245 27.4643 30.342 27.2517 30.797C26.9245 31.4978 26.3753 31.6997 25.658 31.6022C25.3654 31.5622 25.0718 31.5558 24.7782 31.6095C24.6148 31.6392 24.4568 31.5656 24.2954 31.5636C23.8813 31.5592 23.4673 31.5456 23.0537 31.5724C22.765 31.5002 22.5548 31.3125 22.3778 31.0876C22.2832 30.9677 22.2149 30.9506 22.1179 31.0798C21.8097 31.4895 21.4024 31.6417 20.8879 31.6143C20.2822 31.5817 19.6736 31.6061 19.066 31.607C18.7909 31.607 18.5163 31.609 18.2423 31.5846C17.8804 31.59 17.6483 31.3686 17.4361 31.1179C17.2893 30.9448 17.1816 30.7438 17.0694 30.5478C16.7807 30.043 16.4593 29.5573 16.1716 29.0521C16.0599 28.8555 15.9589 28.6536 15.9185 28.4264C16.0516 27.3827 16.0257 26.3323 15.9872 25.2881C15.9341 23.8602 15.8882 22.4279 15.9687 21.0063C16.116 18.4021 15.9931 15.7998 16.0472 13.197C16.0482 13.1487 16.0409 13.099 16.0696 13.0551C16.2696 12.4938 16.6549 12.1675 17.2557 12.0973C17.5961 12.0573 18.1242 12.3197 18.3188 12.6601C18.4056 12.8122 18.5139 12.961 18.5149 13.1497C18.6309 13.2063 18.6704 13.3043 18.6744 13.4277C18.6787 13.574 18.6797 13.7198 18.6797 13.8661C18.6797 18.3406 18.689 22.8151 18.669 27.2896C18.6661 27.8816 18.9621 28.301 19.2479 28.7477C19.3356 28.8848 19.4878 28.9365 19.6561 28.9077C20.016 28.976 20.2613 28.837 20.4334 28.5146C20.5358 28.3225 20.6514 28.1347 20.7689 27.9499C20.8801 27.7753 20.8767 27.5802 20.8767 27.3847C20.8767 24.9424 20.8767 22.5001 20.8767 20.0577C20.8767 19.9197 20.8728 19.7817 20.8811 19.6442C20.9123 19.1365 21.3493 18.5245 21.7858 18.3738C22.3325 18.185 23.0586 18.424 23.4 18.9053C23.4941 19.0385 23.5682 19.1828 23.6248 19.3355C23.6346 19.6096 23.6555 19.8836 23.655 20.1582C23.6536 22.5508 23.6648 24.9429 23.6463 27.3354C23.6419 27.9133 23.9257 28.3357 24.2378 28.7604C24.3368 28.895 24.4812 28.976 24.6641 28.9077C24.9889 28.9623 25.1786 28.8072 25.3639 28.5458C25.7545 27.9957 25.8662 27.4056 25.8613 26.7375C25.8369 23.5471 25.8199 20.3557 25.8599 17.1653C25.8945 14.4021 25.8872 11.6389 25.9003 8.87567C25.9018 8.52649 25.8179 8.18511 25.8267 7.83691C25.8682 7.49017 25.8545 7.14099 25.8457 6.79327C25.8394 6.53041 25.7072 6.44653 25.4575 6.54065C24.9377 6.73718 24.6577 7.13757 24.6441 7.67451C24.6211 8.5894 24.5997 9.50527 24.6626 10.4206C24.7002 10.9703 24.7011 11.5233 24.6553 12.0729C24.5987 12.7518 23.8433 13.2712 23.2298 13.2565C23.084 13.2531 22.9869 13.1297 22.8494 13.1078C22.1837 12.8917 21.8623 12.2968 21.875 11.655C21.9028 10.2675 21.8901 8.87909 21.8818 7.49114C21.877 6.63672 22.172 5.89057 22.6743 5.22196C23.1786 4.55091 23.8374 4.0798 24.6363 3.81646C24.9825 3.70234 25.34 3.62724 25.7082 3.6565C25.9047 3.6721 25.9813 3.61212 25.974 3.40193C25.9589 2.97228 25.9906 2.54019 25.9642 2.11152C25.9325 1.59896 26.2954 1.10348 26.8147 1.04008C27.2678 0.984973 27.7384 0.93084 28.1271 1.28636C28.2958 1.44047 28.3817 1.63554 28.4597 1.83939C28.6158 2.23441 28.5719 2.64943 28.5787 3.05909C28.5845 3.40193 28.6645 3.48776 29.003 3.52287C29.1712 3.54043 29.3439 3.54384 29.475 3.676C29.4921 3.69746 29.5107 3.71794 29.5302 3.73696C29.7403 3.80231 29.9369 3.91546 30.1588 3.93594C30.2388 3.94325 30.2568 4.00616 30.309 4.03445C30.3895 4.08517 30.5167 4.05883 30.5523 4.18319C30.762 4.34559 30.9722 4.5075 31.1819 4.6699L31.1814 4.67136Z" fill="black"/>
<path d="M9.71925 11.5525C10.1806 11.7793 10.6483 11.9948 11.0443 12.3323C11.351 12.5503 11.5656 12.8512 11.7787 13.1531C12.2669 13.6402 12.4854 14.2894 12.7951 14.8794C13.4705 16.1664 14.1362 17.4583 14.8038 18.7492C15.1979 19.511 15.3973 20.3225 15.4134 21.1832C15.4246 21.7797 15.37 22.3663 15.2491 22.9486C15.1315 23.5163 14.8072 23.9903 14.5551 24.4985C14.1835 25.2471 13.7738 25.9757 13.3915 26.7184C13.1911 27.1081 12.9955 27.5007 12.7736 27.8791C12.4371 28.4536 12.1938 29.0798 11.8343 29.6401C11.0628 30.8442 9.98358 31.5709 8.52589 31.5996C6.99945 31.6299 5.47154 31.6065 3.94461 31.6069C3.78952 31.6069 3.63688 31.5967 3.48716 31.5572C3.43644 31.5528 3.38426 31.5572 3.33744 31.5309C3.23893 31.4485 3.13115 31.389 2.99606 31.4026C2.7293 31.2422 2.50887 31.0427 2.42694 30.7267C2.40304 30.5262 2.33672 30.337 2.32306 30.1293C2.27332 29.3856 3.0263 28.6745 3.82805 28.6818C5.07066 28.693 6.31328 28.6852 7.55589 28.6843C7.66952 28.6843 7.78315 28.6857 7.89678 28.6838C8.24694 28.6779 8.34838 28.576 8.38593 28.2205C8.45908 27.5265 8.23085 26.9189 7.91141 26.3161C7.4486 25.4417 6.97116 24.5751 6.54005 23.6836C6.37765 23.3476 6.18989 23.0247 6.00458 22.7009C5.69587 22.0279 5.49641 21.7475 4.66004 21.7543C3.44473 21.7645 2.22943 21.767 1.01363 21.7509C0.819537 21.7172 0.592764 21.7455 0.514735 21.4905C-0.062193 21.1057 -0.0982815 20.4527 0.133368 20.0225C0.32649 19.6636 0.646409 19.47 1.0585 19.4593C1.52668 19.4471 1.99583 19.449 2.464 19.4446C2.53374 19.3505 2.6342 19.3271 2.74344 19.3266C3.60225 19.3208 4.46301 19.2886 5.31987 19.3378C5.96459 19.3749 6.52444 19.6914 7.05846 20.0416C7.41885 20.2776 7.69976 20.5834 7.91141 20.956C8.36935 21.9211 8.89312 22.8531 9.3769 23.8055C9.68609 24.4131 9.99674 25.0203 10.3196 25.6211C10.4976 25.9528 10.4893 25.9571 10.7249 25.6655C11.0058 24.9979 11.394 24.3863 11.7207 23.7426C11.9226 23.3451 12.165 22.9706 12.3225 22.5487C12.6766 21.6021 12.5693 20.6819 12.1226 19.8153C11.4686 18.5458 10.7922 17.2876 10.1465 16.0133C9.96309 15.6519 9.74607 15.3086 9.57197 14.9424C9.55003 14.8619 9.49199 14.8014 9.45639 14.7292C9.22279 14.2567 8.83606 14.0504 8.31473 14.0533C7.23597 14.0587 6.15673 14.0553 5.07749 14.0548C4.85852 14.0548 4.63955 14.0558 4.42058 14.0548C4.06848 14.0528 3.70857 14.0933 3.39206 13.8812C3.25844 13.8056 3.11603 13.7422 2.99362 13.6515C2.53374 13.3115 2.42645 12.8283 2.53862 12.3089C2.64444 11.8183 2.99167 11.5227 3.47838 11.3959C3.51642 11.3862 3.55056 11.3613 3.58665 11.3438C5.0653 11.3467 6.54346 11.3574 8.02212 11.3486C8.60051 11.3452 9.17012 11.3686 9.72315 11.5539H9.71974L9.71925 11.5525Z" fill="black"/>
<path d="M32.5588 25.4408C32.6544 25.6032 32.75 25.7656 32.8451 25.928C33.2606 26.3225 33.3079 26.5449 33.0733 27.0096C33.0221 27.1111 32.9729 27.213 32.9178 27.312C32.7837 27.5529 32.631 27.7821 32.4774 28.0108C32.3574 28.1889 32.1897 28.2991 31.9673 28.2869C31.5922 28.2669 31.2036 28.3747 30.8456 28.1771C30.5379 28.1947 30.3311 28.0606 30.1911 27.7831C30.0468 27.4959 29.879 27.2198 29.7113 26.9453C29.601 26.7643 29.5576 26.5756 29.5874 26.3678C29.5693 26.3083 29.5542 26.2547 29.5879 26.1898C29.8049 25.7719 29.9722 25.3242 30.3272 24.9911C30.3755 24.9458 30.4262 24.9087 30.4954 24.9038C31.0104 24.8385 31.5274 24.8175 32.0453 24.8394C32.3599 24.8526 32.5954 25.1384 32.5583 25.4412L32.5588 25.4408Z" fill="black"/>
<path d="M6.99686 37.4915C6.67743 37.4807 6.45505 37.3393 6.30045 37.0486C6.05368 36.5849 5.78205 36.1337 5.51285 35.6822C5.30412 35.3325 5.27193 35.0052 5.50748 34.6409C5.78839 34.2069 6.03369 33.7485 6.27948 33.2925C6.4409 32.9921 6.65744 32.838 7.01442 32.8492C7.62305 32.8682 8.23265 32.8599 8.84176 32.8516C9.12169 32.8477 9.31921 32.9594 9.46502 33.194C9.60547 33.4198 9.69521 33.6758 9.87614 33.8772C10.2346 34.1757 10.4467 34.5722 10.6042 34.9984C10.6686 35.1725 10.6033 35.3486 10.5282 35.5154C10.3341 35.9465 10.038 36.3171 9.81274 36.7297C9.70106 36.9345 9.61767 37.1564 9.44551 37.3276C9.26897 37.5027 9.06415 37.5992 8.81689 37.6022C8.32238 37.6075 7.82787 37.6061 7.33288 37.6031C7.20803 37.6022 7.09537 37.5709 6.99686 37.4929V37.4915Z" fill="black"/>
<g clip-path="url(#clip0_225_214)">
<path d="M399.539 33.4211H371L373.015 31.0353L397.443 30.9951L399.539 33.4211Z" fill="black"/>
<path d="M389.416 30.7081L379.848 30.7311L382.538 18.9427L386.452 18.9023L389.416 30.7081Z" fill="black"/>
<path d="M394.165 30.6832L389.845 30.6979L386.805 18.876H388.561C390.429 22.8118 392.297 26.7475 394.165 30.6832Z" fill="black"/>
<path d="M375.028 30.7125L379.348 30.7272L382.388 18.9053H380.631L375.028 30.7125Z" fill="black"/>
<path d="M384.484 0C383.563 4.75966 382.643 9.51936 381.723 14.2791H387.312L384.484 0Z" fill="black"/>
<path d="M385.436 2.25977L387.697 14.2787H389.845C388.375 10.2723 386.905 6.26602 385.436 2.25977Z" fill="black"/>
<path d="M383.605 2.25977C382.851 6.26602 382.097 10.2723 381.344 14.2787H379.195C380.665 10.2723 382.135 6.26602 383.605 2.25977Z" fill="black"/>
<path d="M386.086 15.5479H382.949V16.9912H386.086V15.5479Z" fill="black"/>
<path d="M382.415 15.5479H380.74V16.9912H382.415V15.5479Z" fill="black"/>
<path d="M388.27 15.5479H386.595V16.9912H388.27V15.5479Z" fill="black"/>
<path d="M386.139 14.9707H383.001V15.3634H386.139V14.9707Z" fill="black"/>
<path d="M382.415 14.9707H380.74V15.3634H382.415V14.9707Z" fill="black"/>
<path d="M388.27 14.9707H386.595V15.3634H388.27V14.9707Z" fill="black"/>
</g>
<defs>
<clipPath id="clip0_225_214">
<rect width="28.5393" height="33.4211" fill="white" transform="translate(371)"/>
</clipPath>
</defs>
</svg>
