<svg width="60" height="42" viewBox="0 0 60 42" fill="none" xmlns="http://www.w3.org/2000/svg">
<path d="M29.9992 28.8399C34.4812 28.8399 38.1146 25.2101 38.1146 20.7325C38.1146 16.2548 34.4812 12.625 29.9992 12.625C25.5172 12.625 21.8838 16.2548 21.8838 20.7325C21.8838 25.2101 25.5172 28.8399 29.9992 28.8399Z" fill="white"/>
<path d="M21.8838 20.732C21.8838 16.2619 25.5243 12.625 29.9992 12.625C34.4742 12.625 38.1142 16.2619 38.1142 20.732C38.1142 25.2021 34.4737 28.8395 29.9992 28.8395C25.5247 28.8395 21.8838 25.2025 21.8838 20.732Z" fill="white"/>
<path d="M49.7343 41.9983C49.3991 41.9981 49.0715 41.8988 48.7927 41.7129C48.5139 41.5269 48.2965 41.2627 48.1678 40.9535C48.0391 40.6443 48.0049 40.304 48.0696 39.9754C48.1342 39.6469 48.2948 39.3448 48.531 39.1072C53.3503 34.2692 56.0059 27.8566 56.0059 21.0526C56.0059 14.1947 53.3158 7.74687 48.4314 2.89797C48.1121 2.58096 47.932 2.15026 47.9307 1.70059C47.9293 1.25093 48.1068 0.819139 48.4241 0.500217C48.7414 0.181296 49.1726 0.00136574 49.6227 7.7427e-06C50.0728 -0.00135025 50.505 0.175976 50.8242 0.492977C56.3543 5.98363 59.3999 13.285 59.3999 21.0526C59.3999 28.7591 56.395 36.0207 50.9393 41.4991C50.7814 41.6577 50.5937 41.7836 50.3868 41.8692C50.18 41.9549 49.9582 41.9988 49.7343 41.9983Z" fill="white"/>
<path d="M44.9892 37.6816C44.654 37.6817 44.3263 37.5827 44.0474 37.3969C43.7684 37.2112 43.5508 36.9471 43.422 36.6379C43.2931 36.3288 43.2588 35.9884 43.3234 35.6598C43.3879 35.3312 43.5484 35.029 43.7847 34.7914C47.4496 31.1066 49.4678 26.2278 49.4678 21.0526C49.4678 15.8267 47.4143 10.9122 43.6854 7.21551C43.3659 6.89881 43.1854 6.46827 43.1836 6.01861C43.1818 5.56894 43.3589 5.13698 43.6759 4.81776C43.9929 4.49854 44.4239 4.3182 44.874 4.31642C45.3241 4.31464 45.7565 4.49156 46.076 4.80826C50.4522 9.14665 52.8618 14.9156 52.8618 21.0526C52.8618 27.1289 50.4934 32.8567 46.1934 37.181C46.0357 37.3398 45.8482 37.4659 45.6415 37.5518C45.4348 37.6377 45.2131 37.6818 44.9892 37.6816Z" fill="white"/>
<path d="M40.3531 32.8395C40.0181 32.8396 39.6906 32.7406 39.4118 32.555C39.1331 32.3694 38.9156 32.1056 38.7867 31.7967C38.6578 31.4878 38.6234 31.1477 38.6877 30.8193C38.752 30.4908 38.9122 30.1888 39.148 29.9512C41.5164 27.5616 42.8216 24.4012 42.8216 21.0531C42.8216 17.656 41.4824 14.4622 39.052 12.0604C38.8936 11.9039 38.7675 11.7177 38.6811 11.5125C38.5947 11.3074 38.5496 11.0872 38.5484 10.8646C38.5471 10.642 38.5898 10.4214 38.6739 10.2152C38.758 10.0091 38.8819 9.82158 39.0386 9.66331C39.1953 9.50504 39.3816 9.37914 39.587 9.29282C39.7924 9.20649 40.0128 9.16142 40.2356 9.16018C40.4584 9.15894 40.6792 9.20156 40.8856 9.28559C41.0919 9.36963 41.2796 9.49344 41.438 9.64996C44.5186 12.6931 46.2156 16.7432 46.2156 21.0549C46.2156 25.3028 44.5616 29.3099 41.5585 32.339C41.4008 32.498 41.213 32.6241 41.0061 32.71C40.7991 32.796 40.5772 32.84 40.3531 32.8395Z" fill="white"/>
<path d="M10.2644 41.9988C10.0409 41.9993 9.81949 41.9555 9.61299 41.8701C9.40648 41.7846 9.21894 41.6592 9.06118 41.501C3.60499 36.0221 0.600098 28.761 0.600098 21.0545C0.600098 13.2883 3.64621 5.98642 9.17624 0.494865C9.49699 0.18524 9.92682 0.0141693 10.3728 0.0186402C10.8188 0.023111 11.2451 0.202763 11.5596 0.518756C11.874 0.834748 12.0514 1.26169 12.0532 1.70726C12.0551 2.15284 11.8814 2.58125 11.5696 2.89986C6.68417 7.75012 3.99413 14.1975 3.99413 21.0545C3.99413 27.8585 6.64839 34.2697 11.469 39.1091C11.7055 39.3466 11.8662 39.6487 11.931 39.9773C11.9957 40.306 11.9616 40.6464 11.8329 40.9557C11.7042 41.265 11.4866 41.5293 11.2077 41.7151C10.9288 41.901 10.601 42.0002 10.2658 42.0002L10.2644 41.9988Z" fill="white"/>
<path d="M15.0098 37.6827C14.7859 37.6828 14.5643 37.6387 14.3576 37.5527C14.1509 37.4668 13.9633 37.3409 13.8056 37.1822C9.50556 32.8569 7.13672 27.1291 7.13672 21.0528C7.13672 14.9159 9.54634 9.14687 13.9225 4.80847C14.2435 4.49903 14.6736 4.32827 15.1196 4.33311C15.5657 4.33795 15.9919 4.51801 16.3061 4.83435C16.6203 5.15068 16.7973 5.57786 16.7987 6.02351C16.8 6.46915 16.6258 6.89743 16.3136 7.21572C12.5848 10.9124 10.5308 15.8269 10.5308 21.0528C10.5308 26.2271 12.5494 31.1068 16.2139 34.7926C16.4501 35.0301 16.6106 35.3322 16.6752 35.6608C16.7397 35.9894 16.7055 36.3297 16.5767 36.6388C16.4479 36.948 16.2303 37.2121 15.9515 37.3978C15.6726 37.5836 15.3449 37.6827 15.0098 37.6827Z" fill="white"/>
<path d="M19.6468 32.8395C19.4225 32.8398 19.2005 32.7956 18.9935 32.7093C18.7866 32.6231 18.5988 32.4966 18.4413 32.3372C15.4387 29.3081 13.7847 25.301 13.7847 21.0531C13.7847 16.7432 15.4817 12.6931 18.5618 9.64817C18.7194 9.48783 18.9073 9.36038 19.1147 9.27325C19.322 9.18612 19.5446 9.14104 19.7696 9.14063C19.9945 9.14022 20.2173 9.18449 20.4249 9.27087C20.6326 9.35724 20.821 9.484 20.9792 9.64377C21.1374 9.80353 21.2622 9.99312 21.3464 10.2015C21.4305 10.4099 21.4724 10.6329 21.4695 10.8576C21.4667 11.0823 21.4191 11.3042 21.3296 11.5104C21.2401 11.7166 21.1105 11.9029 20.9483 12.0586C18.5178 14.4604 17.1787 17.6542 17.1787 21.0513C17.1787 24.4003 18.4834 27.5598 20.8523 29.9494C21.0881 30.187 21.2483 30.4891 21.3126 30.8176C21.3769 31.1461 21.3424 31.4862 21.2135 31.7951C21.0846 32.104 20.867 32.3679 20.5882 32.5534C20.3093 32.739 19.9818 32.8379 19.6468 32.8377V32.8395Z" fill="white"/>
</svg>
